<svg width="772" height="1470" viewBox="0 0 772 1470" fill="none" xmlns="http://www.w3.org/2000/svg">
<path d="M210.878 1240.9C210.878 1240.9 571.45 1311.17 515.627 1135.01C397.693 855.838 595.632 945.723 503.433 825.556C411.356 705.318 827.211 602.676 594.805 459.244C372.651 322.139 493.981 69.3822 229.106 187.785L188.193 516.398L210.878 1240.9Z" fill="#CFEAF8"/>
<g filter="url(#filter0_d_8456_1104)">
<path d="M-51.0009 74C-51.0009 74 707.984 273.681 499.875 697.38C346.964 911.244 632.456 1010.52 454.134 1131.08C291.501 1240.81 200.903 1538.65 -51.001 1441.98C-51.001 1145.26 -40.8357 1377.79 -51.0002 732.837C-51.0009 74 -51.0009 238.224 -51.0009 238.224L-51.0009 74Z" fill="#F2F2F2"/>
</g>
<defs>
<filter id="filter0_d_8456_1104" x="-59.2487" y="65.7523" width="603.495" height="1403.5" filterUnits="userSpaceOnUse" color-interpolation-filters="sRGB">
<feFlood flood-opacity="0" result="BackgroundImageFix"/>
<feColorMatrix in="SourceAlpha" type="matrix" values="0 0 0 0 0 0 0 0 0 0 0 0 0 0 0 0 0 0 127 0" result="hardAlpha"/>
<feOffset/>
<feGaussianBlur stdDeviation="4.12387"/>
<feComposite in2="hardAlpha" operator="out"/>
<feColorMatrix type="matrix" values="0 0 0 0 0 0 0 0 0 0 0 0 0 0 0 0 0 0 0.1 0"/>
<feBlend mode="normal" in2="BackgroundImageFix" result="effect1_dropShadow_8456_1104"/>
<feBlend mode="normal" in="SourceGraphic" in2="effect1_dropShadow_8456_1104" result="shape"/>
</filter>
</defs>
</svg>
