<svg width="590" height="506" viewBox="0 0 590 506" fill="none" xmlns="http://www.w3.org/2000/svg">
<g clip-path="url(#clip0_8343_18245)">
<mask id="mask0_8343_18245" style="mask-type:luminance" maskUnits="userSpaceOnUse" x="0" y="0" width="590" height="506">
<path d="M590 0H0V506H590V0Z" fill="white"/>
</mask>
<g mask="url(#mask0_8343_18245)">
<path opacity="0.6" d="M178.771 380.205L57.9824 452.775" stroke="url(#paint0_linear_8343_18245)" stroke-width="1.36168"/>
<path opacity="0.6" d="M398.032 306.518C424.202 322.241 449.55 337.394 462.401 345.068C467.767 348.273 474.453 348.204 479.765 344.911L604.738 267.442" stroke="url(#paint1_linear_8343_18245)" stroke-width="1.36168"/>
<path opacity="0.6" d="M329.966 400.86C371.998 427.155 461.076 481.245 461.076 481.245" stroke="url(#paint2_linear_8343_18245)" stroke-width="1.36168"/>
<path opacity="0.6" d="M232.052 46.3838L79.7187 138.589C72.5194 142.946 72.5472 153.405 79.7695 157.724L115.17 178.895" stroke="url(#paint3_linear_8343_18245)" stroke-width="1.36168"/>
<path opacity="0.6" d="M33.7144 228.088L176.581 141.74C181.878 138.539 188.507 138.523 193.82 141.698L227.589 161.886" stroke="url(#paint4_linear_8343_18245)" stroke-width="1.36168"/>
<path opacity="0.6" d="M441.828 333.314C398.658 359.227 272.952 435.938 238.887 456.735C233.549 459.994 226.929 459.951 221.58 456.708L35.1084 343.642" stroke="url(#paint5_linear_8343_18245)" stroke-width="1.36168"/>
<path opacity="0.6" d="M370.694 47.501L604.926 192.362" stroke="url(#paint6_linear_8343_18245)" stroke-width="1.36168"/>
<path opacity="0.6" d="M634.588 94.3916L483.394 185.662" stroke="url(#paint7_linear_8343_18245)" stroke-width="1.36168"/>
<path d="M309.602 361.227L418.674 292.843L304.023 237.021L202.203 297.03L309.602 361.227Z" fill="#DB3FE1" fill-opacity="0.5"/>
<path d="M479.242 254.758L383.01 196.519C381.755 195.762 380.989 194.399 380.989 192.932V83.5448C380.989 80.2832 384.552 78.2687 387.348 79.9571L483.58 138.195C484.834 138.953 485.6 140.316 485.6 141.783V251.161C485.6 254.432 482.039 256.446 479.242 254.748V254.758Z" fill="url(#paint8_linear_8343_18245)" fill-opacity="0.2"/>
<g opacity="0.64" filter="url(#filter0_f_8343_18245)">
<path d="M479.242 254.731L383.01 196.493C381.755 195.735 380.989 194.373 380.989 192.906V83.5184C380.989 80.2568 384.552 78.2424 387.348 79.9306L483.58 138.169C484.834 138.927 485.6 140.289 485.6 141.757V251.135C485.6 254.405 482.039 256.42 479.242 254.722V254.731Z" stroke="white" stroke-width="0.340421"/>
</g>
<path opacity="0.2" d="M479.242 254.731L383.01 196.493C381.755 195.735 380.989 194.373 380.989 192.906V83.5184C380.989 80.2568 384.552 78.2424 387.348 79.9306L483.58 138.169C484.834 138.927 485.6 140.289 485.6 141.757V251.135C485.6 254.405 482.039 256.42 479.242 254.722V254.731Z" stroke="white" stroke-width="0.340421"/>
<path d="M454.921 270.036L358.689 211.797C357.435 211.04 356.668 209.678 356.668 208.21V98.8229C356.668 95.5617 360.23 93.547 363.026 95.2353L459.259 153.473C460.514 154.232 461.279 155.594 461.279 157.061V266.439C461.279 269.71 457.717 271.725 454.921 270.026V270.036Z" fill="url(#paint9_linear_8343_18245)" fill-opacity="0.2"/>
<g opacity="0.64" filter="url(#filter1_f_8343_18245)">
<path d="M454.921 270.009L358.689 211.771C357.435 211.014 356.668 209.651 356.668 208.184V98.7966C356.668 95.5346 360.23 93.5207 363.026 95.2091L459.259 153.447C460.514 154.204 461.279 155.567 461.279 157.035V266.413C461.279 269.684 457.717 271.698 454.921 270V270.009Z" stroke="white" stroke-width="0.340421"/>
</g>
<path opacity="0.2" d="M454.921 270.009L358.689 211.771C357.435 211.014 356.668 209.651 356.668 208.184V98.7966C356.668 95.5346 360.23 93.5207 363.026 95.2091L459.259 153.447C460.514 154.204 461.279 155.567 461.279 157.035V266.413C461.279 269.684 457.717 271.698 454.921 270V270.009Z" stroke="white" stroke-width="0.340421"/>
<path d="M432.864 284.185L336.631 225.947C335.377 225.189 334.611 223.827 334.611 222.359V112.971C334.611 109.71 338.173 107.695 340.969 109.384L437.201 167.622C438.456 168.38 439.221 169.742 439.221 171.21V280.587C439.221 283.858 435.659 285.873 432.864 284.176V284.185Z" fill="url(#paint10_linear_8343_18245)" fill-opacity="0.2"/>
<g opacity="0.64" filter="url(#filter2_f_8343_18245)">
<path d="M432.864 284.159L336.631 225.921C335.377 225.163 334.611 223.801 334.611 222.333V112.946C334.611 109.685 338.173 107.67 340.969 109.358L437.201 167.596C438.456 168.355 439.221 169.717 439.221 171.184V280.562C439.221 283.833 435.659 285.848 432.864 284.149V284.159Z" stroke="white" stroke-width="0.340421"/>
</g>
<path opacity="0.2" d="M432.864 284.159L336.631 225.921C335.377 225.163 334.611 223.801 334.611 222.333V112.946C334.611 109.685 338.173 107.67 340.969 109.358L437.201 167.596C438.456 168.355 439.221 169.717 439.221 171.184V280.562C439.221 283.833 435.659 285.848 432.864 284.149V284.159Z" stroke="white" stroke-width="0.340421"/>
<path opacity="0.64" d="M312.072 231.672L202.761 296.984V175.891L312.072 110.579V231.672Z" fill="#DB3FE1" fill-opacity="0.5"/>
<path d="M418.115 295.999L311.556 231.672V110.579L418.115 174.907V295.999Z" fill="#DB3FE1" fill-opacity="0.5"/>
<path opacity="0.64" d="M309.089 361.337L202.529 297.01V175.918L309.089 240.246V361.337Z" fill="#DB3FE1" fill-opacity="0.5"/>
<g filter="url(#filter3_f_8343_18245)">
<path d="M417.281 176.131L309.324 240.089L201.089 174.776L308.922 111.695L417.281 176.131Z" fill="url(#paint11_linear_8343_18245)"/>
</g>
<path opacity="0.64" d="M309.089 361.337L202.529 297.01V175.918L309.089 240.246V361.337Z" fill="url(#paint12_linear_8343_18245)"/>
<path d="M285.884 259.019V370.41C285.884 371.299 285.621 372.1 285.182 372.765C284.753 373.429 284.129 373.947 283.427 374.278C282.364 374.806 281.291 375.333 280.229 375.842C281.496 375.128 282.403 373.781 282.403 372.119V260.729C282.403 259.234 281.613 257.847 280.336 257.065L182.342 197.755C181.104 197.013 179.719 196.974 178.549 197.433C179.631 196.905 180.694 196.378 181.776 195.85H181.786C183.005 195.274 184.507 195.245 185.824 196.046L283.827 255.366C285.104 256.138 285.884 257.525 285.884 259.019Z" fill="url(#paint13_linear_8343_18245)"/>
<path d="M275.929 375.799L177.925 316.489C176.648 315.718 175.867 314.33 175.867 312.835V201.435C175.867 198.113 179.495 196.061 182.343 197.781L280.346 257.091C281.623 257.862 282.403 259.25 282.403 260.745V372.136C282.403 375.467 278.776 377.519 275.929 375.789V375.799Z" fill="url(#paint14_linear_8343_18245)" fill-opacity="0.2"/>
<g opacity="0.64" filter="url(#filter4_f_8343_18245)">
<path d="M275.929 375.773L177.925 316.462C176.648 315.69 175.867 314.303 175.867 312.809V201.408C175.867 198.087 179.495 196.035 182.343 197.754L280.346 257.064C281.623 257.836 282.403 259.223 282.403 260.719V372.109C282.403 375.441 278.776 377.492 275.929 375.763V375.773Z" stroke="white" stroke-width="0.680841"/>
</g>
<path opacity="0.64" d="M275.788 375.515V375.525L177.997 316.343C176.761 315.597 176.007 314.255 176.007 312.809V201.408C176.007 198.195 179.516 196.21 182.27 197.874L280.273 257.184C281.509 257.93 282.263 259.272 282.263 260.718V372.108C282.263 375.332 278.755 377.316 276.001 375.643L275.788 375.515Z" stroke="white" stroke-width="0.340421"/>
<path d="M258.235 275.158V386.549C258.235 387.438 257.971 388.239 257.533 388.903C257.103 389.567 256.479 390.085 255.777 390.417C254.714 390.945 253.642 391.472 252.579 391.981C253.846 391.267 254.753 389.919 254.753 388.258V276.867C254.753 275.373 253.963 273.986 252.686 273.204L154.693 213.894C153.454 213.152 152.07 213.112 150.899 213.572C151.981 213.044 153.045 212.517 154.127 211.989H154.136C155.356 211.413 156.857 211.383 158.174 212.185L256.177 271.504C257.455 272.276 258.235 273.663 258.235 275.158Z" fill="url(#paint15_linear_8343_18245)"/>
<path d="M248.279 391.937L150.276 332.627C148.998 331.855 148.218 330.468 148.218 328.974V217.573C148.218 214.252 151.845 212.2 154.693 213.92L252.696 273.229C253.974 274.001 254.754 275.388 254.754 276.884V388.274C254.754 391.606 251.126 393.657 248.279 391.928V391.937Z" fill="url(#paint16_linear_8343_18245)" fill-opacity="0.2"/>
<g opacity="0.64" filter="url(#filter5_f_8343_18245)">
<path d="M248.279 391.911L150.276 332.601C148.998 331.829 148.218 330.442 148.218 328.947V217.546C148.218 214.225 151.845 212.174 154.693 213.893L252.696 273.203C253.974 273.975 254.754 275.362 254.754 276.856V388.247C254.754 391.578 251.126 393.63 248.279 391.901V391.911Z" stroke="white" stroke-width="0.680841"/>
</g>
<path opacity="0.64" d="M248.139 391.654V391.664L150.347 332.482V332.481C149.111 331.735 148.357 330.393 148.357 328.948V217.547C148.357 214.334 151.866 212.349 154.62 214.012L252.623 273.322C253.859 274.069 254.614 275.411 254.614 276.857V388.248C254.614 391.471 251.105 393.454 248.351 391.782L248.139 391.654Z" stroke="white" stroke-width="0.340421"/>
<g filter="url(#filter6_f_8343_18245)">
<path d="M381.852 220.553C391.404 220.553 399.147 212.805 399.147 203.247C399.147 193.69 391.404 185.942 381.852 185.942C372.3 185.942 364.557 193.69 364.557 203.247C364.557 212.805 372.3 220.553 381.852 220.553Z" fill="#FFFFDB" fill-opacity="0.247059"/>
</g>
<path d="M418.412 296.035L309.101 361.347V240.255L418.412 174.942V296.035Z" fill="#DB3FE1" fill-opacity="0.5"/>
<path d="M418.412 296.035L309.101 361.347V240.255L418.412 174.942V296.035Z" fill="url(#paint17_linear_8343_18245)"/>
<path d="M230.587 291.297V402.687C230.587 403.577 230.323 404.378 229.885 405.042C229.456 405.706 228.831 406.224 228.129 406.556C227.067 407.084 225.994 407.611 224.931 408.119C226.198 407.407 227.105 406.058 227.105 404.398V293.007C227.105 291.511 226.316 290.124 225.039 289.343L127.045 230.033C125.807 229.29 124.422 229.252 123.251 229.71C124.334 229.183 125.397 228.655 126.479 228.128H126.489C127.708 227.551 129.21 227.522 130.526 228.323L228.53 287.643C229.807 288.415 230.587 289.802 230.587 291.297Z" fill="url(#paint18_linear_8343_18245)"/>
<path d="M220.63 408.076L122.627 348.766C121.349 347.994 120.57 346.607 120.57 345.112V233.711C120.57 230.39 124.197 228.339 127.045 230.058L225.048 289.368C226.326 290.14 227.105 291.527 227.105 293.021V404.412C227.105 407.743 223.478 409.795 220.63 408.066V408.076Z" fill="url(#paint19_linear_8343_18245)" fill-opacity="0.4"/>
<g opacity="0.64" filter="url(#filter7_f_8343_18245)">
<path d="M220.63 408.05L122.627 348.74C121.349 347.968 120.57 346.581 120.57 345.086V233.686C120.57 230.364 124.197 228.313 127.045 230.031L225.048 289.342C226.326 290.114 227.105 291.501 227.105 292.996V404.386C227.105 407.718 223.478 409.769 220.63 408.04V408.05Z" stroke="white" stroke-width="0.680841"/>
</g>
<path opacity="0.64" d="M220.491 407.792V407.802L122.7 348.62C121.464 347.874 120.709 346.532 120.709 345.086V233.685C120.709 230.472 124.219 228.488 126.973 230.151L224.976 289.461C226.212 290.207 226.966 291.549 226.966 292.995V404.386C226.966 407.609 223.458 409.593 220.703 407.921L220.491 407.792Z" stroke="white" stroke-width="0.340421"/>
<g opacity="0.2">
<path d="M204.461 319.183V355.887L197.883 351.774V315.071L204.461 319.183Z" fill="white"/>
<path d="M170.188 334.459V297.756L182.462 305.429C184.821 306.905 186.831 308.693 188.491 310.795C190.153 312.884 191.418 315.139 192.289 317.56C193.17 319.975 193.611 322.401 193.611 324.838C193.611 327.275 193.165 329.147 192.274 330.454C191.382 331.761 190.092 332.405 188.4 332.387C186.72 332.376 184.684 331.623 182.294 330.129L174.471 325.238V319.019L181.231 323.245C182.497 324.037 183.54 324.432 184.36 324.431C185.191 324.425 185.808 324.088 186.213 323.421C186.629 322.749 186.836 321.809 186.836 320.603C186.836 319.384 186.629 318.191 186.213 317.023C185.808 315.85 185.191 314.752 184.36 313.732C183.53 312.699 182.477 311.784 181.201 310.986L176.765 308.212V338.571L170.188 334.459Z" fill="white"/>
<path d="M143.553 317.806L136.505 313.4L147.244 283.41L155.72 288.71L166.444 332.119L159.396 327.711L151.604 294.524L151.36 294.372L143.553 317.806ZM143.113 303.104L159.76 313.513V319.57L143.113 309.161V303.104Z" fill="white"/>
</g>
<path d="M201.774 320.231V356.935L195.197 352.823V316.119L201.774 320.231Z" fill="white"/>
<path d="M167.501 335.507V298.804L179.775 306.478C182.134 307.953 184.144 309.742 185.805 311.843C187.466 313.933 188.732 316.188 189.602 318.608C190.483 321.023 190.924 323.448 190.924 325.886C190.924 328.324 190.478 330.195 189.587 331.502C188.696 332.809 187.405 333.453 185.714 333.435C184.033 333.424 181.997 332.671 179.608 331.177L171.785 326.285V320.067L178.544 324.293C179.81 325.084 180.854 325.48 181.674 325.479C182.504 325.472 183.122 325.136 183.526 324.469C183.942 323.797 184.149 322.857 184.149 321.65C184.149 320.432 183.942 319.239 183.526 318.071C183.122 316.897 182.504 315.801 181.674 314.78C180.843 313.747 179.79 312.832 178.514 312.034L174.079 309.26V339.62L167.501 335.507Z" fill="white"/>
<path d="M140.867 318.853L133.819 314.447L144.558 284.458L153.033 289.757L163.758 333.166L156.709 328.758L148.917 295.571L148.674 295.419L140.867 318.853ZM140.426 304.151L157.074 314.56V320.618L140.426 310.208V304.151Z" fill="white"/>
<g opacity="0.2">
<path d="M380.963 278.655V246.85L386.784 243.488V257.511L387.146 257.301L397.052 237.556L404.029 233.525L393.813 253.668L404.15 265.261L397.187 269.283L389.646 260.563L386.784 266.254V275.292L380.963 278.655Z" fill="white"/>
<path d="M363.184 288.926L353.425 294.563V262.758L363.265 257.075C366.034 255.475 368.417 254.734 370.416 254.853C372.414 254.962 373.951 255.891 375.026 257.641C376.111 259.385 376.653 261.909 376.653 265.212C376.653 268.524 376.111 271.685 375.026 274.693C373.951 277.695 372.405 280.415 370.389 282.853C368.382 285.287 365.98 287.311 363.184 288.926ZM359.246 285.439L362.942 283.304C364.663 282.31 366.11 281.122 367.284 279.74C368.467 278.342 369.354 276.727 369.945 274.894C370.545 273.046 370.845 270.937 370.845 268.566C370.845 266.216 370.545 264.469 369.945 263.324C369.354 262.176 368.471 261.588 367.297 261.562C366.123 261.537 364.676 262.021 362.955 263.014L359.246 265.157V285.439Z" fill="white"/>
<path d="M343.555 277.606C343.448 276.416 342.986 275.71 342.171 275.487C341.355 275.264 340.249 275.556 338.851 276.364C337.901 276.913 337.099 277.531 336.445 278.22C335.791 278.898 335.289 279.608 334.94 280.347C334.599 281.083 334.429 281.792 334.429 282.475C334.411 283.055 334.514 283.492 334.738 283.787C334.971 284.077 335.289 284.261 335.692 284.339C336.095 284.406 336.561 284.401 337.09 284.323C337.619 284.235 338.183 284.095 338.784 283.903L341.257 283.158C342.458 282.775 343.559 282.552 344.563 282.491C345.567 282.428 346.436 282.563 347.171 282.894C347.906 283.225 348.475 283.787 348.878 284.579C349.29 285.366 349.501 286.419 349.51 287.74C349.501 289.691 349.071 291.628 348.22 293.548C347.378 295.453 346.159 297.259 344.563 298.968C342.977 300.66 341.065 302.154 338.824 303.448C336.602 304.731 334.667 305.457 333.017 305.622C331.378 305.782 330.096 305.358 329.173 304.348C328.259 303.324 327.78 301.68 327.735 299.418L333.367 296.165C333.429 297.194 333.694 297.932 334.16 298.378C334.634 298.807 335.267 298.976 336.055 298.882C336.853 298.773 337.753 298.429 338.757 297.85C339.742 297.28 340.599 296.62 341.324 295.87C342.059 295.114 342.628 294.325 343.031 293.501C343.435 292.678 343.636 291.883 343.636 291.117C343.636 290.403 343.452 289.909 343.085 289.634C342.727 289.355 342.197 289.246 341.499 289.308C340.809 289.365 339.962 289.544 338.958 289.844L335.961 290.706C333.64 291.394 331.808 291.433 330.463 290.822C329.119 290.212 328.451 288.728 328.461 286.373C328.451 284.452 328.895 282.514 329.791 280.557C330.697 278.596 331.937 276.755 333.514 275.037C335.092 273.318 336.884 271.878 338.891 270.719C340.934 269.539 342.717 268.912 344.241 268.84C345.774 268.762 346.965 269.197 347.817 270.144C348.668 271.092 349.107 272.505 349.133 274.384L343.555 277.606Z" fill="white"/>
</g>
<path d="M383.196 275.117V243.312L389.016 239.95V253.973L389.379 253.763L399.285 234.018L406.261 229.987L396.046 250.129L406.382 261.722L399.419 265.745L391.879 257.025L389.016 262.716V271.754L383.196 275.117Z" fill="white"/>
<path d="M365.416 285.387L355.658 291.024V259.22L365.496 253.536C368.266 251.937 370.65 251.196 372.648 251.315C374.646 251.424 376.183 252.353 377.258 254.102C378.342 255.847 378.884 258.37 378.884 261.674C378.884 264.986 378.342 268.146 377.258 271.154C376.183 274.157 374.637 276.877 372.621 279.315C370.613 281.748 368.212 283.772 365.416 285.387ZM361.478 281.901L365.174 279.766C366.895 278.771 368.342 277.583 369.516 276.201C370.698 274.804 371.586 273.189 372.177 271.356C372.778 269.508 373.078 267.398 373.078 265.028C373.078 262.677 372.778 260.931 372.177 259.786C371.586 258.637 370.703 258.05 369.529 258.024C368.355 257.998 366.908 258.482 365.188 259.476L361.478 261.619V281.901Z" fill="white"/>
<path d="M345.788 274.068C345.68 272.877 345.218 272.171 344.403 271.948C343.588 271.725 342.482 272.018 341.083 272.826C340.133 273.374 339.331 273.993 338.677 274.681C338.023 275.359 337.521 276.069 337.172 276.809C336.831 277.544 336.661 278.254 336.661 278.937C336.643 279.516 336.746 279.954 336.97 280.249C337.203 280.539 337.521 280.723 337.924 280.801C338.328 280.867 338.794 280.862 339.323 280.785C339.851 280.697 340.416 280.557 341.016 280.365L343.49 279.62C344.69 279.237 345.792 279.014 346.796 278.952C347.799 278.89 348.669 279.025 349.404 279.356C350.138 279.687 350.707 280.249 351.111 281.041C351.523 281.828 351.734 282.881 351.742 284.201C351.734 286.153 351.303 288.089 350.452 290.009C349.61 291.914 348.391 293.721 346.796 295.429C345.21 297.122 343.297 298.615 341.056 299.91C338.834 301.193 336.898 301.918 335.25 302.084C333.61 302.244 332.328 301.82 331.406 300.81C330.491 299.786 330.011 298.142 329.967 295.879L335.599 292.626C335.662 293.656 335.926 294.394 336.392 294.839C336.867 295.269 337.499 295.437 338.287 295.344C339.085 295.235 339.986 294.891 340.989 294.311C341.975 293.741 342.83 293.082 343.556 292.331C344.291 291.575 344.86 290.786 345.264 289.963C345.667 289.139 345.868 288.345 345.868 287.579C345.868 286.865 345.684 286.37 345.317 286.096C344.959 285.817 344.43 285.708 343.731 285.769C343.041 285.827 342.194 286.006 341.191 286.306L338.193 287.168C335.873 287.856 334.039 287.895 332.696 287.284C331.352 286.673 330.684 285.19 330.692 282.835C330.684 280.914 331.127 278.976 332.023 277.019C332.929 275.057 334.17 273.216 335.747 271.498C337.324 269.779 339.116 268.34 341.124 267.181C343.167 266 344.95 265.374 346.473 265.302C348.006 265.224 349.197 265.659 350.049 266.606C350.9 267.553 351.339 268.967 351.366 270.846L345.788 274.068Z" fill="white"/>
<g filter="url(#filter8_f_8343_18245)">
<path d="M312.95 236.183L229.821 288.936L127.722 230.042L213.92 173.661L312.95 236.183Z" fill="url(#paint20_linear_8343_18245)" fill-opacity="0.2"/>
</g>
<g filter="url(#filter9_f_8343_18245)">
<path d="M543.998 155.433C547.372 153.484 547.4 150.276 544.06 148.268C540.721 146.261 535.278 146.213 531.904 148.162C528.53 150.111 528.502 153.319 531.842 155.327C535.181 157.334 540.624 157.382 543.998 155.433Z" fill="white" fill-opacity="0.2"/>
</g>
<path d="M540.355 153.203C541.771 152.385 541.782 151.039 540.381 150.196C538.979 149.354 536.695 149.334 535.279 150.152C533.863 150.97 533.851 152.316 535.253 153.159C536.654 154.001 538.938 154.021 540.355 153.203Z" fill="white"/>
<g filter="url(#filter10_f_8343_18245)">
<path d="M121.657 182.509C125.031 180.56 125.059 177.352 121.72 175.345C118.38 173.337 112.937 173.289 109.563 175.238C106.189 177.188 106.161 180.395 109.501 182.403C112.84 184.411 118.283 184.458 121.657 182.509Z" fill="white" fill-opacity="0.2"/>
</g>
<path d="M118.014 180.278C119.43 179.46 119.442 178.114 118.04 177.271C116.639 176.429 114.355 176.409 112.939 177.227C111.522 178.045 111.511 179.391 112.912 180.234C114.314 181.076 116.598 181.096 118.014 180.278Z" fill="white"/>
<g filter="url(#filter11_f_8343_18245)">
<path d="M336.454 404.405C339.828 402.455 339.856 399.248 336.516 397.24C333.177 395.232 327.734 395.185 324.36 397.134C320.986 399.083 320.958 402.291 324.298 404.298C327.637 406.306 333.08 406.354 336.454 404.405Z" fill="white" fill-opacity="0.2"/>
</g>
<path d="M332.812 402.174C334.228 401.356 334.239 400.01 332.838 399.167C331.436 398.324 329.152 398.304 327.736 399.122C326.32 399.94 326.308 401.287 327.71 402.129C329.111 402.972 331.395 402.992 332.812 402.174Z" fill="white"/>
<g filter="url(#filter12_f_8343_18245)">
<path d="M448.035 335.742C451.41 333.793 451.437 330.586 448.098 328.578C444.758 326.57 439.316 326.523 435.942 328.472C432.568 330.421 432.54 333.629 435.879 335.636C439.219 337.644 444.661 337.692 448.035 335.742Z" fill="white" fill-opacity="0.2"/>
</g>
<path d="M444.393 333.511C445.809 332.693 445.821 331.346 444.419 330.504C443.018 329.661 440.734 329.641 439.317 330.459C437.901 331.277 437.89 332.624 439.291 333.466C440.693 334.309 442.977 334.329 444.393 333.511Z" fill="white"/>
<g filter="url(#filter13_f_8343_18245)">
<path d="M142.298 408.312C145.672 406.363 145.7 403.155 142.361 401.147C139.021 399.14 133.579 399.092 130.205 401.041C126.83 402.99 126.802 406.198 130.142 408.206C133.482 410.213 138.924 410.261 142.298 408.312Z" fill="white" fill-opacity="0.2"/>
</g>
<path d="M138.656 406.081C140.072 405.263 140.084 403.917 138.682 403.074C137.28 402.231 134.996 402.212 133.58 403.03C132.164 403.848 132.152 405.194 133.554 406.036C134.956 406.879 137.24 406.899 138.656 406.081Z" fill="white"/>
<path d="M342.718 138.952L292.186 169.178C291.383 169.656 290.386 169.656 289.583 169.178L238.646 138.704C236.986 137.711 236.986 135.299 238.646 134.315L289.177 104.09C289.98 103.611 290.977 103.611 291.78 104.09L342.727 134.564C344.386 135.556 344.386 137.968 342.727 138.952H342.718Z" fill="url(#paint21_linear_8343_18245)"/>
<path d="M343.962 136.752V140.644H343.954C343.98 141.513 343.574 142.399 342.718 142.914L292.196 173.139C291.393 173.618 290.395 173.618 289.591 173.139L238.646 142.665C237.772 142.142 237.375 141.229 237.419 140.333C237.419 140.333 237.413 140.331 237.401 140.325C237.401 139.11 237.401 137.877 237.41 136.663C237.454 137.461 237.869 138.233 238.646 138.702L289.591 169.176C290.395 169.655 291.393 169.655 292.196 169.176L342.718 138.95C343.548 138.454 343.962 137.603 343.962 136.752Z" fill="url(#paint22_linear_8343_18245)"/>
<path d="M266.97 133.989L283.469 124.069H295.425L316.705 136.864L294.229 150.376L266.97 133.989Z" stroke="white" stroke-width="2.72337"/>
<path d="M283.708 124.646L289.924 127.664L294.946 124.646" stroke="white" stroke-width="2.72337"/>
<path d="M283.708 137.725L295.663 130.537" stroke="white" stroke-width="2.72337"/>
<path d="M279.245 134.917L285.222 131.323" stroke="white" stroke-width="2.72337"/>
<path d="M288.012 140.314L299.968 133.126" stroke="white" stroke-width="2.72337"/>
<path d="M292.314 142.899L304.27 135.711" stroke="white" stroke-width="2.72337"/>
<g filter="url(#filter14_f_8343_18245)">
<path d="M236.843 197.084L237.122 140.014L290.402 172.391V232.122L236.843 197.084Z" fill="url(#paint23_linear_8343_18245)" fill-opacity="0.2"/>
</g>
<g filter="url(#filter15_f_8343_18245)">
<path d="M343.405 196.527L343.126 139.457L289.845 171.834V231.565L343.405 196.527Z" fill="url(#paint24_linear_8343_18245)" fill-opacity="0.2"/>
</g>
<path d="M407.902 117.869L357.371 148.095C356.568 148.573 355.571 148.573 354.768 148.095L303.831 117.621C302.171 116.628 302.171 114.216 303.831 113.232L354.362 83.0065C355.165 82.5278 356.162 82.5278 356.965 83.0065L407.912 113.481C409.571 114.473 409.571 116.885 407.912 117.869H407.902Z" fill="url(#paint25_linear_8343_18245)"/>
<path d="M407.888 117.786C409.473 116.827 409.467 114.51 407.869 113.553L356.922 83.0788C356.146 82.6157 355.182 82.6157 354.404 83.0787L303.873 113.305H303.873C302.269 114.256 302.268 116.589 303.873 117.549L354.811 148.023M407.888 117.786L354.811 148.023M407.888 117.786H407.879L407.859 117.798L357.328 148.023M407.888 117.786L357.328 148.023M354.811 148.023C355.587 148.486 356.551 148.486 357.328 148.023M354.811 148.023H357.328" stroke="white" stroke-width="0.204253"/>
<path d="M409.147 115.669V119.561H409.139C409.165 120.43 408.758 121.316 407.902 121.831L357.38 152.056C356.576 152.535 355.579 152.535 354.776 152.056L303.83 121.582C302.956 121.059 302.559 120.146 302.603 119.25C302.603 119.25 302.597 119.248 302.585 119.242C302.585 118.027 302.585 116.794 302.594 115.58C302.639 116.378 303.053 117.15 303.83 117.619L354.776 148.093C355.579 148.572 356.576 148.572 357.38 148.093L407.902 117.867C408.732 117.371 409.147 116.52 409.147 115.669Z" fill="url(#paint26_linear_8343_18245)"/>
<path d="M377.979 114.744L375.095 108.53C374.99 108.296 374.577 108.157 374.174 108.218L370.157 108.843C369.644 108.447 369.075 108.061 368.451 107.705C367.831 107.347 367.167 107.018 366.487 106.722L367.563 104.399C367.669 104.165 367.429 103.931 367.028 103.869L356.271 102.2C355.863 102.139 355.456 102.279 355.345 102.507L354.268 104.835C352.555 104.947 350.87 105.203 349.264 105.605L346.323 103.909C346.028 103.735 345.548 103.735 345.253 103.909L337.369 108.458C337.074 108.631 337.074 108.905 337.369 109.077L340.309 110.774C339.611 111.707 339.166 112.679 338.97 113.666L334.948 114.286C334.546 114.353 334.306 114.593 334.412 114.827L337.296 121.04C337.408 121.275 337.815 121.415 338.222 121.353L342.239 120.728C342.753 121.124 343.317 121.504 343.935 121.867C344.561 122.224 345.224 122.553 345.911 122.849L344.828 125.172C344.723 125.406 344.962 125.641 345.37 125.701L356.126 127.371C356.533 127.432 356.946 127.293 357.058 127.058L358.129 124.736C359.848 124.624 361.527 124.367 363.139 123.96L366.079 125.662C366.375 125.83 366.855 125.83 367.15 125.662L375.028 121.113C375.318 120.94 375.318 120.661 375.028 120.494L372.082 118.796C372.785 117.864 373.226 116.893 373.427 115.905L377.45 115.279C377.846 115.218 378.085 114.978 377.979 114.744ZM362.721 118.551C359.117 120.633 353.281 120.633 349.677 118.551C349.336 118.355 349.03 118.149 348.751 117.931C346.106 115.844 346.412 112.907 349.682 111.015C353.281 108.938 359.117 108.938 362.715 111.015C365.979 112.901 366.285 115.838 363.646 117.931C363.373 118.143 363.061 118.355 362.721 118.551Z" fill="white"/>
<g filter="url(#filter16_f_8343_18245)">
<path d="M409.148 173.77L408.869 116.7L355.588 149.077V208.808L409.148 173.77Z" fill="url(#paint27_linear_8343_18245)" fill-opacity="0.2"/>
</g>
<g style="mix-blend-mode:color-dodge">
<g filter="url(#filter17_f_8343_18245)">
<path d="M226.472 366.245L227.042 311.539" stroke="url(#paint28_linear_8343_18245)" stroke-width="0.680841"/>
</g>
<path d="M226.612 366.246L227.182 311.54" stroke="url(#paint29_linear_8343_18245)" stroke-width="0.340421"/>
</g>
<g filter="url(#filter18_f_8343_18245)">
<path d="M339.451 340.55L226.751 408.117V290.352L339.451 222.785V340.55Z" fill="url(#paint30_linear_8343_18245)" fill-opacity="0.2"/>
</g>
<g filter="url(#filter19_f_8343_18245)">
<path d="M353.677 246.92L353.445 189.85L314.624 213.016V270.514L353.677 246.92Z" fill="url(#paint31_linear_8343_18245)" fill-opacity="0.2"/>
</g>
<g filter="url(#filter20_f_8343_18245)">
<path d="M283.102 250.266L283.334 193.196L314.345 212.455V272.185L283.102 250.266Z" fill="url(#paint32_linear_8343_18245)" fill-opacity="0.2"/>
</g>
<path d="M353.009 188.011L314.254 211.31C313.638 211.679 312.873 211.679 312.264 211.31L285.171 195.028C283.905 194.263 283.905 192.411 285.171 191.653L323.919 168.354C324.535 167.985 325.3 167.985 325.909 168.354L353.002 184.636C354.268 185.401 354.268 187.252 353.002 188.011H353.009Z" fill="url(#paint33_linear_8343_18245)"/>
<path d="M352.707 188.095H352.699L352.959 187.939C354.17 187.214 354.171 185.44 352.959 184.707L325.866 168.426H325.865C325.284 168.073 324.552 168.072 323.962 168.426M352.707 188.095L323.962 168.426M352.707 188.095L314.211 211.238C313.622 211.591 312.89 211.591 312.308 211.238L312.307 211.238L285.214 194.956C284.002 194.223 284.003 192.451 285.214 191.725L323.962 168.426" stroke="white" stroke-width="0.204253"/>
<path d="M353.949 186.391V189.738C353.936 190.38 353.625 191.009 353.002 191.385L314.247 214.684C313.639 215.052 312.874 215.052 312.257 214.684L285.165 198.401C284.535 198.026 284.224 197.383 284.217 196.735V193.367C284.224 194.008 284.542 194.651 285.165 195.026L312.257 211.302C312.874 211.67 313.639 211.67 314.247 211.302L353.002 188.003C353.611 187.64 353.922 187.019 353.943 186.391H353.949Z" fill="white"/>
<path d="M329.138 188.35L329.055 183.123L320.548 183.185L323.582 181.288L332.089 181.226L332.173 186.453L329.138 188.35Z" fill="white"/>
<path d="M322.721 195.624L314.035 184.624L316.391 183.15L325.058 194.163L322.721 195.624Z" fill="white"/>
<path d="M315.505 196.874L306.997 196.913L306.914 191.709L309.966 189.8L310.012 195.028L318.558 194.965L315.505 196.874Z" fill="white"/>
</g>
</g>
<defs>
<filter id="filter0_f_8343_18245" x="379.457" y="77.7877" width="107.675" height="179.082" filterUnits="userSpaceOnUse" color-interpolation-filters="sRGB">
<feFlood flood-opacity="0" result="BackgroundImageFix"/>
<feBlend mode="normal" in="SourceGraphic" in2="BackgroundImageFix" result="shape"/>
<feGaussianBlur stdDeviation="0.680841" result="effect1_foregroundBlur_8343_18245"/>
</filter>
<filter id="filter1_f_8343_18245" x="355.136" y="93.0661" width="107.675" height="179.082" filterUnits="userSpaceOnUse" color-interpolation-filters="sRGB">
<feFlood flood-opacity="0" result="BackgroundImageFix"/>
<feBlend mode="normal" in="SourceGraphic" in2="BackgroundImageFix" result="shape"/>
<feGaussianBlur stdDeviation="0.680841" result="effect1_foregroundBlur_8343_18245"/>
</filter>
<filter id="filter2_f_8343_18245" x="333.079" y="107.215" width="107.675" height="179.082" filterUnits="userSpaceOnUse" color-interpolation-filters="sRGB">
<feFlood flood-opacity="0" result="BackgroundImageFix"/>
<feBlend mode="normal" in="SourceGraphic" in2="BackgroundImageFix" result="shape"/>
<feGaussianBlur stdDeviation="0.680841" result="effect1_foregroundBlur_8343_18245"/>
</filter>
<filter id="filter3_f_8343_18245" x="194.28" y="104.887" width="229.809" height="142.01" filterUnits="userSpaceOnUse" color-interpolation-filters="sRGB">
<feFlood flood-opacity="0" result="BackgroundImageFix"/>
<feBlend mode="normal" in="SourceGraphic" in2="BackgroundImageFix" result="shape"/>
<feGaussianBlur stdDeviation="3.40421" result="effect1_foregroundBlur_8343_18245"/>
</filter>
<filter id="filter4_f_8343_18245" x="174.165" y="195.43" width="109.941" height="182.662" filterUnits="userSpaceOnUse" color-interpolation-filters="sRGB">
<feFlood flood-opacity="0" result="BackgroundImageFix"/>
<feBlend mode="normal" in="SourceGraphic" in2="BackgroundImageFix" result="shape"/>
<feGaussianBlur stdDeviation="0.680841" result="effect1_foregroundBlur_8343_18245"/>
</filter>
<filter id="filter5_f_8343_18245" x="146.516" y="211.569" width="109.94" height="182.662" filterUnits="userSpaceOnUse" color-interpolation-filters="sRGB">
<feFlood flood-opacity="0" result="BackgroundImageFix"/>
<feBlend mode="normal" in="SourceGraphic" in2="BackgroundImageFix" result="shape"/>
<feGaussianBlur stdDeviation="0.680841" result="effect1_foregroundBlur_8343_18245"/>
</filter>
<filter id="filter6_f_8343_18245" x="350.94" y="172.326" width="61.8245" height="61.844" filterUnits="userSpaceOnUse" color-interpolation-filters="sRGB">
<feFlood flood-opacity="0" result="BackgroundImageFix"/>
<feBlend mode="normal" in="SourceGraphic" in2="BackgroundImageFix" result="shape"/>
<feGaussianBlur stdDeviation="6.80841" result="effect1_foregroundBlur_8343_18245"/>
</filter>
<filter id="filter7_f_8343_18245" x="118.868" y="227.708" width="109.94" height="182.662" filterUnits="userSpaceOnUse" color-interpolation-filters="sRGB">
<feFlood flood-opacity="0" result="BackgroundImageFix"/>
<feBlend mode="normal" in="SourceGraphic" in2="BackgroundImageFix" result="shape"/>
<feGaussianBlur stdDeviation="0.680841" result="effect1_foregroundBlur_8343_18245"/>
</filter>
<filter id="filter8_f_8343_18245" x="120.914" y="166.853" width="198.845" height="128.891" filterUnits="userSpaceOnUse" color-interpolation-filters="sRGB">
<feFlood flood-opacity="0" result="BackgroundImageFix"/>
<feBlend mode="normal" in="SourceGraphic" in2="BackgroundImageFix" result="shape"/>
<feGaussianBlur stdDeviation="3.40421" result="effect1_foregroundBlur_8343_18245"/>
</filter>
<filter id="filter9_f_8343_18245" x="526.632" y="144.007" width="22.6381" height="15.5805" filterUnits="userSpaceOnUse" color-interpolation-filters="sRGB">
<feFlood flood-opacity="0" result="BackgroundImageFix"/>
<feBlend mode="normal" in="SourceGraphic" in2="BackgroundImageFix" result="shape"/>
<feGaussianBlur stdDeviation="1.36168" result="effect1_foregroundBlur_8343_18245"/>
</filter>
<filter id="filter10_f_8343_18245" x="104.291" y="171.083" width="22.6381" height="15.5805" filterUnits="userSpaceOnUse" color-interpolation-filters="sRGB">
<feFlood flood-opacity="0" result="BackgroundImageFix"/>
<feBlend mode="normal" in="SourceGraphic" in2="BackgroundImageFix" result="shape"/>
<feGaussianBlur stdDeviation="1.36168" result="effect1_foregroundBlur_8343_18245"/>
</filter>
<filter id="filter11_f_8343_18245" x="319.088" y="392.979" width="22.6381" height="15.5805" filterUnits="userSpaceOnUse" color-interpolation-filters="sRGB">
<feFlood flood-opacity="0" result="BackgroundImageFix"/>
<feBlend mode="normal" in="SourceGraphic" in2="BackgroundImageFix" result="shape"/>
<feGaussianBlur stdDeviation="1.36168" result="effect1_foregroundBlur_8343_18245"/>
</filter>
<filter id="filter12_f_8343_18245" x="430.67" y="324.317" width="22.6381" height="15.5805" filterUnits="userSpaceOnUse" color-interpolation-filters="sRGB">
<feFlood flood-opacity="0" result="BackgroundImageFix"/>
<feBlend mode="normal" in="SourceGraphic" in2="BackgroundImageFix" result="shape"/>
<feGaussianBlur stdDeviation="1.36168" result="effect1_foregroundBlur_8343_18245"/>
</filter>
<filter id="filter13_f_8343_18245" x="124.932" y="396.886" width="22.6381" height="15.5805" filterUnits="userSpaceOnUse" color-interpolation-filters="sRGB">
<feFlood flood-opacity="0" result="BackgroundImageFix"/>
<feBlend mode="normal" in="SourceGraphic" in2="BackgroundImageFix" result="shape"/>
<feGaussianBlur stdDeviation="1.36168" result="effect1_foregroundBlur_8343_18245"/>
</filter>
<filter id="filter14_f_8343_18245" x="234.119" y="137.29" width="59.0063" height="97.5551" filterUnits="userSpaceOnUse" color-interpolation-filters="sRGB">
<feFlood flood-opacity="0" result="BackgroundImageFix"/>
<feBlend mode="normal" in="SourceGraphic" in2="BackgroundImageFix" result="shape"/>
<feGaussianBlur stdDeviation="1.36168" result="effect1_foregroundBlur_8343_18245"/>
</filter>
<filter id="filter15_f_8343_18245" x="287.122" y="136.734" width="59.0068" height="97.5551" filterUnits="userSpaceOnUse" color-interpolation-filters="sRGB">
<feFlood flood-opacity="0" result="BackgroundImageFix"/>
<feBlend mode="normal" in="SourceGraphic" in2="BackgroundImageFix" result="shape"/>
<feGaussianBlur stdDeviation="1.36168" result="effect1_foregroundBlur_8343_18245"/>
</filter>
<filter id="filter16_f_8343_18245" x="352.865" y="113.977" width="59.0068" height="97.5551" filterUnits="userSpaceOnUse" color-interpolation-filters="sRGB">
<feFlood flood-opacity="0" result="BackgroundImageFix"/>
<feBlend mode="normal" in="SourceGraphic" in2="BackgroundImageFix" result="shape"/>
<feGaussianBlur stdDeviation="1.36168" result="effect1_foregroundBlur_8343_18245"/>
</filter>
<filter id="filter17_f_8343_18245" x="224.77" y="310.173" width="3.97385" height="57.4372" filterUnits="userSpaceOnUse" color-interpolation-filters="sRGB">
<feFlood flood-opacity="0" result="BackgroundImageFix"/>
<feBlend mode="normal" in="SourceGraphic" in2="BackgroundImageFix" result="shape"/>
<feGaussianBlur stdDeviation="0.680841" result="effect1_foregroundBlur_8343_18245"/>
</filter>
<filter id="filter18_f_8343_18245" x="224.028" y="220.062" width="118.146" height="190.779" filterUnits="userSpaceOnUse" color-interpolation-filters="sRGB">
<feFlood flood-opacity="0" result="BackgroundImageFix"/>
<feBlend mode="normal" in="SourceGraphic" in2="BackgroundImageFix" result="shape"/>
<feGaussianBlur stdDeviation="1.36168" result="effect1_foregroundBlur_8343_18245"/>
</filter>
<filter id="filter19_f_8343_18245" x="311.9" y="187.126" width="44.5004" height="86.1108" filterUnits="userSpaceOnUse" color-interpolation-filters="sRGB">
<feFlood flood-opacity="0" result="BackgroundImageFix"/>
<feBlend mode="normal" in="SourceGraphic" in2="BackgroundImageFix" result="shape"/>
<feGaussianBlur stdDeviation="1.36168" result="effect1_foregroundBlur_8343_18245"/>
</filter>
<filter id="filter20_f_8343_18245" x="280.378" y="190.473" width="36.6899" height="84.436" filterUnits="userSpaceOnUse" color-interpolation-filters="sRGB">
<feFlood flood-opacity="0" result="BackgroundImageFix"/>
<feBlend mode="normal" in="SourceGraphic" in2="BackgroundImageFix" result="shape"/>
<feGaussianBlur stdDeviation="1.36168" result="effect1_foregroundBlur_8343_18245"/>
</filter>
<linearGradient id="paint0_linear_8343_18245" x1="162.033" y1="380.205" x2="64.5122" y2="435.08" gradientUnits="userSpaceOnUse">
<stop stop-color="#528DFF"/>
<stop offset="1" stop-color="#528DFF" stop-opacity="0"/>
</linearGradient>
<linearGradient id="paint1_linear_8343_18245" x1="517.857" y1="348.315" x2="576.267" y2="282.27" gradientUnits="userSpaceOnUse">
<stop stop-color="#528DFF"/>
<stop offset="1" stop-color="white" stop-opacity="0"/>
</linearGradient>
<linearGradient id="paint2_linear_8343_18245" x1="346.703" y1="417.049" x2="455.172" y2="483.141" gradientUnits="userSpaceOnUse">
<stop stop-color="#528DFF"/>
<stop offset="1" stop-color="#528DFF" stop-opacity="0"/>
</linearGradient>
<linearGradient id="paint3_linear_8343_18245" x1="137.79" y1="175.129" x2="237.877" y2="133.872" gradientUnits="userSpaceOnUse">
<stop stop-color="#FC69BC"/>
<stop offset="1" stop-color="#DB3FE1" stop-opacity="0"/>
</linearGradient>
<linearGradient id="paint4_linear_8343_18245" x1="206.11" y1="142.4" x2="64.2856" y2="253.629" gradientUnits="userSpaceOnUse">
<stop stop-color="#FC69BC"/>
<stop offset="1" stop-color="#DB3FE1" stop-opacity="0"/>
</linearGradient>
<linearGradient id="paint5_linear_8343_18245" x1="109.057" y1="456.233" x2="53.3978" y2="326.88" gradientUnits="userSpaceOnUse">
<stop stop-color="#FC69BC"/>
<stop offset="1" stop-color="#DB3FE1" stop-opacity="0"/>
</linearGradient>
<linearGradient id="paint6_linear_8343_18245" x1="590.791" y1="192.083" x2="491.933" y2="-23.679" gradientUnits="userSpaceOnUse">
<stop offset="0.00520833" stop-color="#FC69BC" stop-opacity="0"/>
<stop offset="0.361859" stop-color="#ED82BF"/>
<stop offset="0.729167" stop-color="#F2D5E6" stop-opacity="0"/>
<stop offset="1" stop-color="#DB3FE1" stop-opacity="0"/>
</linearGradient>
<linearGradient id="paint7_linear_8343_18245" x1="502.869" y1="182.742" x2="588.244" y2="126.401" gradientUnits="userSpaceOnUse">
<stop stop-color="#FC69BC"/>
<stop offset="1" stop-color="#DB3FE1" stop-opacity="0"/>
</linearGradient>
<linearGradient id="paint8_linear_8343_18245" x1="380.989" y1="92.1047" x2="507.784" y2="287.822" gradientUnits="userSpaceOnUse">
<stop stop-color="#FC69BC"/>
<stop offset="1" stop-color="#DB3FE1" stop-opacity="0"/>
</linearGradient>
<linearGradient id="paint9_linear_8343_18245" x1="356.668" y1="107.383" x2="483.463" y2="303.1" gradientUnits="userSpaceOnUse">
<stop stop-color="#FC69BC"/>
<stop offset="1" stop-color="#DB3FE1" stop-opacity="0"/>
</linearGradient>
<linearGradient id="paint10_linear_8343_18245" x1="334.611" y1="121.532" x2="461.406" y2="317.248" gradientUnits="userSpaceOnUse">
<stop stop-color="#FC69BC"/>
<stop offset="1" stop-color="#DB3FE1" stop-opacity="0"/>
</linearGradient>
<linearGradient id="paint11_linear_8343_18245" x1="370.416" y1="212.177" x2="123.788" y2="126.575" gradientUnits="userSpaceOnUse">
<stop stop-color="#FC69BC" stop-opacity="0.33"/>
<stop offset="1" stop-color="#DB3FE1" stop-opacity="0"/>
</linearGradient>
<linearGradient id="paint12_linear_8343_18245" x1="212.247" y1="187.058" x2="317.509" y2="395.789" gradientUnits="userSpaceOnUse">
<stop stop-color="#FC69BC"/>
<stop offset="1" stop-color="#DB3FE1" stop-opacity="0.23"/>
</linearGradient>
<linearGradient id="paint13_linear_8343_18245" x1="178.747" y1="188.802" x2="282.517" y2="371.738" gradientUnits="userSpaceOnUse">
<stop stop-color="#C4CEFF"/>
<stop offset="1" stop-color="#2E4FFC"/>
</linearGradient>
<linearGradient id="paint14_linear_8343_18245" x1="175.867" y1="210.153" x2="304.995" y2="409.471" gradientUnits="userSpaceOnUse">
<stop stop-color="#FC69BC"/>
<stop offset="1" stop-color="#DB3FE1" stop-opacity="0"/>
</linearGradient>
<linearGradient id="paint15_linear_8343_18245" x1="151.097" y1="204.941" x2="254.867" y2="387.876" gradientUnits="userSpaceOnUse">
<stop stop-color="#C4CEFF"/>
<stop offset="1" stop-color="#2E4FFC"/>
</linearGradient>
<linearGradient id="paint16_linear_8343_18245" x1="148.218" y1="226.291" x2="277.346" y2="425.61" gradientUnits="userSpaceOnUse">
<stop stop-color="#FC69BC"/>
<stop offset="1" stop-color="#DB3FE1" stop-opacity="0"/>
</linearGradient>
<linearGradient id="paint17_linear_8343_18245" x1="305.419" y1="226.133" x2="443.554" y2="322.912" gradientUnits="userSpaceOnUse">
<stop stop-color="#FC69BC"/>
<stop offset="0.385417" stop-color="#ED82BF" stop-opacity="0.723958"/>
<stop offset="1" stop-color="#DB3FE1" stop-opacity="0"/>
</linearGradient>
<linearGradient id="paint18_linear_8343_18245" x1="123.45" y1="221.08" x2="228.376" y2="420.731" gradientUnits="userSpaceOnUse">
<stop stop-color="#C4CEFF"/>
<stop offset="1" stop-color="#2E4FFC"/>
</linearGradient>
<linearGradient id="paint19_linear_8343_18245" x1="120.57" y1="242.429" x2="249.698" y2="441.748" gradientUnits="userSpaceOnUse">
<stop stop-color="white" stop-opacity="0.6"/>
<stop offset="1" stop-color="white" stop-opacity="0"/>
</linearGradient>
<linearGradient id="paint20_linear_8343_18245" x1="238.469" y1="189.85" x2="187.659" y2="263.788" gradientUnits="userSpaceOnUse">
<stop stop-color="white" stop-opacity="0"/>
<stop offset="1" stop-color="white"/>
</linearGradient>
<linearGradient id="paint21_linear_8343_18245" x1="217.493" y1="116.876" x2="253.528" y2="202.35" gradientUnits="userSpaceOnUse">
<stop offset="0.0590643" stop-color="#FC69BC"/>
<stop offset="0.453099" stop-color="#ED82BF"/>
<stop offset="0.916667" stop-color="#DB3FE1" stop-opacity="0"/>
</linearGradient>
<linearGradient id="paint22_linear_8343_18245" x1="245.77" y1="152.015" x2="333.925" y2="173.485" gradientUnits="userSpaceOnUse">
<stop stop-color="white"/>
<stop offset="1" stop-color="#2E4FFC"/>
</linearGradient>
<linearGradient id="paint23_linear_8343_18245" x1="263.902" y1="162.19" x2="256.975" y2="193.016" gradientUnits="userSpaceOnUse">
<stop stop-color="white"/>
<stop offset="0.941354" stop-color="white" stop-opacity="0"/>
</linearGradient>
<linearGradient id="paint24_linear_8343_18245" x1="316.346" y1="161.633" x2="323.274" y2="192.459" gradientUnits="userSpaceOnUse">
<stop stop-color="white"/>
<stop offset="0.941354" stop-color="white" stop-opacity="0"/>
</linearGradient>
<linearGradient id="paint25_linear_8343_18245" x1="356.145" y1="198.201" x2="356.157" y2="76.786" gradientUnits="userSpaceOnUse">
<stop stop-color="white" stop-opacity="0.6"/>
<stop offset="1" stop-color="white" stop-opacity="0"/>
</linearGradient>
<linearGradient id="paint26_linear_8343_18245" x1="320.997" y1="134.003" x2="424.211" y2="128.706" gradientUnits="userSpaceOnUse">
<stop stop-color="white"/>
<stop offset="1" stop-color="#2E4FFC"/>
</linearGradient>
<linearGradient id="paint27_linear_8343_18245" x1="382.089" y1="138.876" x2="389.016" y2="169.702" gradientUnits="userSpaceOnUse">
<stop stop-color="white"/>
<stop offset="0.941354" stop-color="white" stop-opacity="0"/>
</linearGradient>
<linearGradient id="paint28_linear_8343_18245" x1="226.814" y1="360.231" x2="227.27" y2="316.465" gradientUnits="userSpaceOnUse">
<stop stop-color="white" stop-opacity="0"/>
<stop offset="0.557292" stop-color="white"/>
<stop offset="1" stop-color="white" stop-opacity="0"/>
</linearGradient>
<linearGradient id="paint29_linear_8343_18245" x1="226.815" y1="360.231" x2="227.27" y2="316.465" gradientUnits="userSpaceOnUse">
<stop stop-color="white" stop-opacity="0"/>
<stop offset="0.557292" stop-color="white"/>
<stop offset="1" stop-color="white" stop-opacity="0"/>
</linearGradient>
<linearGradient id="paint30_linear_8343_18245" x1="238.831" y1="332.221" x2="324.537" y2="332.795" gradientUnits="userSpaceOnUse">
<stop stop-color="white"/>
<stop offset="1" stop-color="white" stop-opacity="0"/>
</linearGradient>
<linearGradient id="paint31_linear_8343_18245" x1="336.986" y1="203.503" x2="345.128" y2="233.691" gradientUnits="userSpaceOnUse">
<stop stop-color="white"/>
<stop offset="0.941354" stop-color="white" stop-opacity="0"/>
</linearGradient>
<linearGradient id="paint32_linear_8343_18245" x1="299.793" y1="206.85" x2="291.651" y2="237.037" gradientUnits="userSpaceOnUse">
<stop stop-color="white"/>
<stop offset="0.941354" stop-color="white" stop-opacity="0"/>
</linearGradient>
<linearGradient id="paint33_linear_8343_18245" x1="331.64" y1="135.697" x2="304.274" y2="220.259" gradientUnits="userSpaceOnUse">
<stop stop-color="white" stop-opacity="0.66"/>
<stop offset="1" stop-color="white" stop-opacity="0"/>
</linearGradient>
<clipPath id="clip0_8343_18245">
<rect width="590" height="506" fill="white"/>
</clipPath>
</defs>
</svg>
