<svg width="172" height="315" viewBox="0 0 172 315" fill="none" xmlns="http://www.w3.org/2000/svg">
<path opacity="0.5" d="M74.9948 314.363C108.273 314.363 135.25 308.235 135.25 300.677C135.25 293.118 108.273 286.991 74.9948 286.991C41.7168 286.991 14.7397 293.118 14.7397 300.677C14.7397 308.235 41.7168 314.363 74.9948 314.363Z" fill="url(#paint0_radial_8343_17947)" fill-opacity="0.53"/>
<path d="M106.422 233.38C106.422 233.38 103.674 237.63 99.9654 243.071C93.9665 251.903 85.5 263.886 82.2789 265.951C80.7274 266.946 79.8261 263.283 79.3385 257.646C78.1713 244.352 79.2351 220.056 79.2351 220.056C79.2351 220.056 99.3005 224.427 106.422 233.38Z" fill="url(#paint1_linear_8343_17947)"/>
<path opacity="0.5" d="M106.422 233.379C106.422 233.379 103.674 237.629 99.9654 243.071C99.9654 243.071 94.5279 242.181 85.3375 247.788C81.8504 249.928 80.1216 253.727 79.3385 257.63C78.1713 244.337 79.2351 220.04 79.2351 220.04C79.2351 220.04 99.3005 224.426 106.422 233.379Z" fill="url(#paint2_linear_8343_17947)"/>
<path d="M144.307 210.409L144.248 210.394C138.441 208.781 131.186 202.994 125.631 194.553C113.603 176.331 100.852 138.228 116.159 130.42C117.667 129.652 124.936 138.966 132.693 151.386C141.839 166.006 151.71 184.937 153.749 196.769C155.773 208.495 151.015 212.248 144.307 210.409Z" fill="url(#paint3_linear_8343_17947)"/>
<path d="M136.358 206.174C136.358 206.174 141.589 185.661 147.927 186.037C154.266 186.414 155.197 205.255 151.045 209.038C146.893 212.836 138.678 208.555 136.358 206.174Z" fill="url(#paint4_linear_8343_17947)"/>
<path opacity="0.3" d="M144.307 210.409L144.248 210.394C138.441 208.781 131.186 202.994 125.631 194.553C113.603 176.331 100.852 138.228 116.159 130.42C117.667 129.652 124.936 138.966 132.693 151.386V151.401C132.693 151.401 129.118 178.697 131.674 188.404C134.245 198.125 142.785 204.049 142.785 204.049L144.307 210.409Z" fill="url(#paint5_linear_8343_17947)"/>
<path d="M52.2107 193.015C51.3833 217.749 62.0218 231.239 85.6481 237.042C108.816 242.724 129.384 220.899 129.443 188.991C129.473 168.628 128.202 150.21 121.006 137.097C120.991 137.082 120.991 137.082 120.991 137.082V137.052C116.928 129.636 110.959 123.924 102.271 120.502C95.4148 117.804 88.5737 120.156 82.2645 125.522C65.8192 139.509 52.8609 173.949 52.2107 193.015Z" fill="url(#paint6_linear_8343_17947)"/>
<path opacity="0.3" d="M75.6004 152.245C75.6004 152.245 68.5672 169.88 65.5234 182.058C61.9034 196.513 66.9418 212.58 66.9418 212.58L53.4664 208.224C53.4664 208.224 49.8316 188.389 54.5155 177.431C58.4311 168.252 59.6427 163.76 59.6427 163.76L75.6004 152.245Z" fill="url(#paint7_linear_8343_17947)"/>
<path d="M129.664 193.166C129.664 193.166 128.733 174.07 112.14 169.744C92.2523 164.559 73.2507 183.49 70.6354 199.014C68.0202 214.539 69.0101 229.973 87.6422 235.459C87.6422 235.459 123.015 243.824 129.664 193.166Z" fill="url(#paint8_linear_8343_17947)"/>
<path d="M129.177 195.141C129.177 195.141 128.246 176.044 111.653 171.719C91.7654 166.534 72.7639 185.465 70.1486 200.989C67.5333 216.514 68.5233 231.948 87.1554 237.434C87.1407 237.434 122.528 245.799 129.177 195.141Z" fill="url(#paint9_radial_8343_17947)"/>
<path d="M61.283 169.457C62.14 169.683 63.2482 169.186 64.5041 168.161C70.0893 163.594 78.5558 148.386 80.7721 139.298C81.6291 135.771 81.5552 133.163 79.989 132.455C77.4476 131.294 69.7642 139.026 63.9279 151.19C60.559 158.274 57.6039 168.493 61.283 169.457Z" fill="url(#paint10_linear_8343_17947)"/>
<path d="M64.5034 168.161C70.0886 163.594 78.5551 148.386 80.7714 139.298C77.2992 142.056 72.497 148.266 68.5224 156.541C66.7936 160.158 65.1831 164.574 64.5034 168.161Z" fill="#6340A2"/>
<path opacity="0.72" d="M127.226 193.106C123.503 197.311 115.746 188.66 103.762 186.987C91.7794 185.329 83.9483 189.971 81.0227 187.379C78.0972 184.786 93.0797 169.774 111.15 173.723C125.571 176.888 128.482 191.674 127.226 193.106Z" fill="url(#paint11_linear_8343_17947)" fill-opacity="0.22"/>
<path opacity="0.72" d="M103.379 233.756C103.379 233.756 97.2469 237.524 89.076 235.716C80.9051 233.907 79.2354 229.219 79.2354 229.219C79.2354 229.219 83.2101 228.556 88.6327 231.179C94.0554 233.801 99.4337 234.389 103.379 233.756Z" fill="url(#paint12_linear_8343_17947)" fill-opacity="0.22"/>
<path d="M90.1394 152.245C91.5431 152.652 91.1146 164.393 89.8586 164.559C88.6027 164.725 86.3716 164.182 86.4012 159.299C86.4307 154.431 88.78 151.853 90.1394 152.245Z" fill="white"/>
<path d="M77.8313 287.489C70.1628 287.685 38.2325 215.759 45.9011 210.092C58.948 200.431 76.7822 219.769 83.4165 230.756C84.9384 233.289 85.884 235.369 86.0318 236.559C86.8149 242.859 85.5147 287.278 77.8313 287.489Z" fill="url(#paint13_linear_8343_17947)"/>
<path d="M75.6004 138.182C79.9001 142.598 67.5328 166.97 56.7909 171.025C46.049 175.079 22.8513 170.105 19.1573 168.553C15.4634 167 14.0745 154.355 17.5468 149.486C21.019 144.618 69.7344 132.153 75.6004 138.182Z" fill="url(#paint14_linear_8343_17947)"/>
<path opacity="0.5" d="M58.1655 137.429C58.1655 137.429 74.7585 150.813 99.1088 149.486C123.459 148.16 125.232 140.202 125.232 140.202C125.232 140.202 117.194 128.144 110.678 126.064C108.107 125.25 81.3042 120.382 72.5422 136.554C66.8093 136.6 58.1655 137.429 58.1655 137.429Z" fill="url(#paint15_linear_8343_17947)"/>
<path d="M116.529 6.36035C116.529 6.36035 128.911 14.8461 134.393 34.5004C139.889 54.1547 110.944 30.5665 110.944 30.5665L116.529 6.36035Z" fill="url(#paint16_linear_8343_17947)"/>
<path d="M125.247 30.3098C125.247 30.3098 121.878 4.09903 113.264 0.602253C104.649 -2.89453 93.479 9.97724 93.479 9.97724L125.247 30.3098Z" fill="url(#paint17_linear_8343_17947)"/>
<path d="M56.3182 15.7949C17.7094 39.7147 19.8223 99.5066 34.6275 121.181C51.8559 146.397 142.327 130.541 155.093 89.1369C168.022 47.2509 104.324 -13.9428 56.3182 15.7949Z" fill="url(#paint18_linear_8343_17947)"/>
<path opacity="0.5" d="M44.6015 78.375C44.6015 78.375 39.9028 99.9586 27.8015 105.385C27.8015 105.385 24.9351 94.8038 24.9351 88.2172C24.9351 81.6156 44.6015 78.375 44.6015 78.375Z" fill="url(#paint19_linear_8343_17947)"/>
<path d="M79.0428 21.5225C49.2108 36.7003 44.6451 98.1501 64.4889 118.558C84.3326 138.966 151.636 117.382 156.364 80.8923C160.56 48.3512 114.741 3.34524 79.0428 21.5225Z" fill="url(#paint20_linear_8343_17947)"/>
<path opacity="0.5" d="M85.3523 119.492C85.3523 119.492 71.2268 121.768 64.9915 113.283C58.7562 104.782 61.6374 98.2254 63.6026 97.728C65.5677 97.2306 71.9212 109.982 76.945 114.473C81.9687 118.965 85.3523 119.492 85.3523 119.492Z" fill="url(#paint21_linear_8343_17947)" fill-opacity="0.42"/>
<path d="M51.7671 39.5796C51.7671 39.5796 55.7713 76.7178 33.2976 89.8458C33.2976 89.8458 22.2749 91.0515 15.8623 84.2238C15.8623 84.2238 25.8507 93.7947 36.3709 83.8319C46.8912 73.8691 44.3646 46.4073 36.3709 37.4544C28.3773 28.5014 16.8375 30.8678 16.8375 30.8678L21.4475 26.6324C21.4475 26.6324 38.4543 23.1055 51.7671 39.5796Z" fill="url(#paint22_linear_8343_17947)"/>
<path d="M21.4477 26.6325C21.4477 26.6325 33.9479 25.4568 42.6804 40.2428C51.9595 55.9481 45.207 83.1085 33.948 87.2383C22.6742 91.3681 11.2969 47.4172 11.2969 47.4172L17.8425 29.9333C17.8425 29.9484 19.1427 27.5067 21.4477 26.6325Z" fill="url(#paint23_linear_8343_17947)"/>
<path d="M5.29768 64.072C6.90823 72.5577 10.2919 79.491 14.828 83.877L14.8575 83.9072L16.1283 85.0527H16.1431C19.8074 88.0822 24.1514 89.5141 28.8353 88.9112C44.0542 86.9367 46.0933 64.4639 44.3055 51.7278C42.2221 37.0172 29.8844 28.1848 20.0733 29.481C8.3858 31.0033 2.15047 47.4623 5.29768 64.072Z" fill="url(#paint24_linear_8343_17947)"/>
<path opacity="0.72" d="M41.8235 69.6484C41.8235 69.6484 40.213 83.4396 30.2837 86.4089C20.3545 89.3932 12.287 82.068 9.74561 71.7284C9.74561 71.7284 12.8632 80.6512 25.792 78.3753C38.7059 76.0843 41.8235 69.6484 41.8235 69.6484Z" fill="url(#paint25_linear_8343_17947)" fill-opacity="0.42"/>
<path opacity="0.72" d="M39.991 43.6037C39.8728 46.166 21.6545 40.8304 15.8624 41.6293C10.0704 42.413 7.60279 49.6628 6.68669 49.497C5.7706 49.3312 8.22339 32.3749 18.9948 31.1239C29.7663 29.8578 40.0797 41.8252 39.991 43.6037Z" fill="url(#paint26_linear_8343_17947)" fill-opacity="0.42"/>
<path d="M132.59 68.7145C138.781 72.2112 147.824 64.4189 145.563 55.074C143.302 45.7292 132.649 38.2382 127.374 41.1924C122.085 44.1466 122.277 62.9116 132.59 68.7145Z" fill="url(#paint27_linear_8343_17947)"/>
<path d="M76.6935 89.574C86.4602 96.4621 97.01 85.1427 96.8918 75.0744C96.7735 65.0212 87.7013 55.1337 78.6733 57.6508C68.818 60.4241 66.6756 82.49 76.6935 89.574Z" fill="url(#paint28_linear_8343_17947)"/>
<path d="M106.482 93.0408C105.565 94.7138 117.371 102.853 123.03 100.487C129.665 97.6982 128.63 83.3795 127.404 82.3998C126.163 81.4351 108.018 90.2223 106.482 93.0408Z" fill="#2F95CD"/>
<path opacity="0.5" d="M58.1647 74.4719C63.484 81.8724 78.6142 56.4756 94.9265 47.9446C113.544 38.2079 140.598 48.5174 142.43 45.518C144.262 42.5186 121.183 15.9913 91.3656 20.7089C61.5483 25.4266 53.2592 67.6441 58.1647 74.4719Z" fill="url(#paint29_linear_8343_17947)" fill-opacity="0.42"/>
<path d="M17.0293 86.5746C17.0293 86.5746 15.9507 79.2344 20.5459 76.7625C20.5459 76.7625 27.4461 76.3857 29.1749 83.1984C29.1749 83.1984 15.5517 127.692 26.6926 134.821C37.0503 141.453 64.3705 127.828 64.3705 127.828L66.5721 129.651C66.5721 129.651 43.4039 144.437 28.7464 139.855C14.0742 135.273 17.0293 86.5746 17.0293 86.5746Z" fill="url(#paint30_linear_8343_17947)"/>
<path d="M57.5298 128.461C55.1952 133.329 63.5583 135.575 69.6459 134.565C76.4722 133.435 87.5392 127.421 84.9682 120.819C82.412 114.203 62.982 117.066 57.5298 128.461Z" fill="url(#paint31_linear_8343_17947)"/>
<path d="M58.165 129.064C58.2684 130.239 82.0129 123.819 81.4219 119.402C80.8161 114.971 57.3966 120.005 58.165 129.064Z" fill="url(#paint32_linear_8343_17947)"/>
<path d="M0.00830078 144.528C0.00830078 144.528 0.924431 141.332 4.94341 139.9L7.39613 148.989L0.00830078 144.528Z" fill="url(#paint33_linear_8343_17947)"/>
<path d="M0.924316 121.166C0.924316 121.166 13.5132 113.313 39.9912 113.946C39.9912 113.946 51.0287 155.019 52.4323 184.545C52.4323 184.545 36.9179 188.931 19.9997 188.313C19.9997 188.328 7.69157 157.897 0.924316 121.166Z" fill="url(#paint34_linear_8343_17947)"/>
<path d="M39.9907 113.946L46.0192 111.655C46.0192 111.655 55.0915 152.923 55.6973 183.656L52.4319 184.545L39.9907 113.946Z" fill="url(#paint35_linear_8343_17947)"/>
<path opacity="0.5" d="M12.3604 166.473L15.5666 175.577C15.5666 175.577 24.4172 164.574 23.4568 154.099L12.3604 166.473Z" fill="url(#paint36_linear_8343_17947)"/>
<path d="M0.924316 121.166C0.924316 121.166 10.1739 113.449 46.0197 111.655L39.9912 113.946C39.9912 113.946 23.6936 113.645 0.924316 121.166Z" fill="#FF91FF"/>
<path d="M2.97803 149.517C2.97803 149.517 3.71685 165.192 9.47935 168.553C9.47935 168.553 25.9985 159.058 23.6935 149.261C22.0682 142.358 2.97803 149.517 2.97803 149.517Z" fill="url(#paint37_linear_8343_17947)"/>
<path d="M0.00830078 144.528C0.00830078 144.528 0.00835151 157.4 7.2632 165.358C7.2632 165.358 16.9117 161.424 20.1623 157.43C25.3781 151.009 23.2209 147.316 21.4774 145.824C18.6552 143.443 0.00830078 144.528 0.00830078 144.528Z" fill="url(#paint38_linear_8343_17947)"/>
<path d="M44.1577 126.079C44.1577 126.079 45.9899 124.421 47.8368 124.753C47.8368 124.753 51.383 134.942 50.6147 143.277L47.8368 144.06L44.1577 126.079Z" fill="url(#paint39_linear_8343_17947)"/>
<path d="M44.1577 126.079C44.1577 126.079 48.4722 136.012 49.211 143.684L51.6638 142.749C51.6638 142.749 49.8611 129.606 47.8368 124.768C47.8516 124.753 45.3989 124.708 44.1577 126.079Z" fill="url(#paint40_linear_8343_17947)"/>
<path d="M27.4169 131.868C28.1409 135.591 26.5452 139.042 23.856 139.585C21.1669 140.127 18.3891 137.55 17.6798 133.842C16.9558 130.119 18.5515 126.668 21.2407 126.125C23.9299 125.583 26.6929 128.145 27.4169 131.868Z" fill="url(#paint41_linear_8343_17947)"/>
<path d="M26.9733 132.093C27.5347 134.987 26.2936 137.685 24.1954 138.107C22.0973 138.529 19.9401 136.525 19.3786 133.631C18.8172 130.737 20.0582 128.039 22.1564 127.617C24.2545 127.195 26.4118 129.185 26.9733 132.093Z" fill="url(#paint42_radial_8343_17947)"/>
<path d="M24.4175 184.394V181.154L42.3552 178.667L43.6554 181.546C43.6554 181.546 33.5488 183.671 24.4175 184.394Z" fill="url(#paint43_linear_8343_17947)"/>
<path opacity="0.5" d="M106.422 119.387C106.422 119.387 118.952 116.598 127.478 105.385C136.003 94.1708 147.602 96.0096 147.602 96.0096C147.602 96.0096 131.438 119.372 106.422 119.387Z" fill="url(#paint44_linear_8343_17947)" fill-opacity="0.42"/>
<path d="M52.4469 28.0944C52.4026 30.5662 67.1635 18.3426 65.3165 17.3327C63.4696 16.338 52.4912 25.2758 52.4469 28.0944Z" fill="white"/>
<path opacity="0.3" d="M79.2357 202.406L78.8516 201.667C78.9402 201.803 79.0731 202.044 79.2357 202.406Z" fill="url(#paint45_linear_8343_17947)"/>
<path opacity="0.3" d="M77.8313 287.489C70.1628 287.685 38.2325 215.76 45.9011 210.093C45.9011 210.093 55.4314 255.234 67.0598 266.915C78.6735 278.596 86.1943 247.985 84.1405 234.661C83.9336 233.319 83.6972 232.008 83.4165 230.757C84.9384 233.289 85.884 235.369 86.0318 236.56C86.8149 242.86 85.5147 287.278 77.8313 287.489Z" fill="url(#paint46_linear_8343_17947)"/>
<path d="M59.5839 222.437C58.4166 224.381 61.3866 236.228 63.0119 235.987C64.6224 235.746 64.9771 229.506 64.1644 227.516C63.3518 225.496 59.8499 222 59.5839 222.437Z" fill="white"/>
<path d="M63.3513 237.946C61.9919 238.639 63.6173 242.211 64.5777 242.091C65.5529 241.985 64.5924 237.313 63.3513 237.946Z" fill="white"/>
<path d="M101.709 6.35969C102.625 8.31909 108.772 4.21942 107.87 2.51624C106.954 0.813071 100.778 4.40028 101.709 6.35969Z" fill="white"/>
<path d="M1.69287 147.648C1.69287 148.838 7.85429 147.482 7.38146 146.487C6.92342 145.477 1.69287 145.673 1.69287 147.648Z" fill="white"/>
<path d="M18.9649 82.7165C17.3544 82.1739 16.6304 105.069 17.9306 105.385C19.2309 105.702 21.462 83.5606 18.9649 82.7165Z" fill="url(#paint47_linear_8343_17947)"/>
<path d="M164.831 199.662C164.831 199.662 159.63 192.865 152.552 192.262C145.475 191.659 143.037 193.784 141.929 198.878C140.82 203.988 151.666 221.849 164.713 235.082C170.091 235.278 171.391 228.496 171.953 224.14C171.775 220.387 170.135 208.223 164.831 199.662Z" fill="url(#paint48_linear_8343_17947)"/>
<path d="M147.352 192.472C147.352 192.472 161.447 210.529 166.131 221.11C168.658 226.807 170.136 230.56 170.136 230.56C170.136 230.56 167.121 239.589 161.078 232.444C152.523 222.331 140.968 207.047 142.579 199.345C143.953 192.819 145.002 191.553 147.352 192.472Z" fill="url(#paint49_linear_8343_17947)"/>
<path opacity="0.5" d="M159.29 209.157C159.29 209.157 157.916 219.226 152.065 221.004L150.011 197.1C150.011 197.085 157.384 206.158 159.29 209.157Z" fill="url(#paint50_linear_8343_17947)"/>
<path d="M153.187 202.647C154.177 204.908 153.172 220.086 151.651 221.864C150.114 223.658 146.257 220.945 145.09 217.931C143.908 214.931 138.485 198.502 144.204 192.865C144.204 192.88 149.05 193.182 153.187 202.647Z" fill="url(#paint51_linear_8343_17947)"/>
<path d="M150.587 204.802C151.252 204.892 152.227 210.032 151.725 210.981C151.222 211.931 150.129 211.886 149.553 210.74C148.991 209.595 149.582 204.666 150.587 204.802Z" fill="white"/>
<defs>
<radialGradient id="paint0_radial_8343_17947" cx="0" cy="0" r="1" gradientUnits="userSpaceOnUse" gradientTransform="translate(74.9887 300.682) scale(60.2662 13.6785)">
<stop stop-color="#4C2B88"/>
<stop offset="1" stop-color="#4C2B88" stop-opacity="0"/>
</radialGradient>
<linearGradient id="paint1_linear_8343_17947" x1="81.6815" y1="266.107" x2="94.0083" y2="224.254" gradientUnits="userSpaceOnUse">
<stop stop-color="#CBC1F7"/>
<stop offset="1" stop-color="#D4BEF1"/>
</linearGradient>
<linearGradient id="paint2_linear_8343_17947" x1="92.6108" y1="257.636" x2="92.6108" y2="220.05" gradientUnits="userSpaceOnUse">
<stop stop-color="#8DA4E5"/>
<stop offset="1" stop-color="#755CBB"/>
</linearGradient>
<linearGradient id="paint3_linear_8343_17947" x1="127.37" y1="208.372" x2="137.024" y2="133.016" gradientUnits="userSpaceOnUse">
<stop stop-color="#CBC1F7"/>
<stop offset="1" stop-color="#D4BEF1"/>
</linearGradient>
<linearGradient id="paint4_linear_8343_17947" x1="148.169" y1="210.499" x2="140.755" y2="188.204" gradientUnits="userSpaceOnUse">
<stop stop-color="#BE9DEA"/>
<stop offset="1" stop-color="#9E8CEF"/>
</linearGradient>
<linearGradient id="paint5_linear_8343_17947" x1="126.716" y1="210.409" x2="126.716" y2="130.372" gradientUnits="userSpaceOnUse">
<stop stop-color="#9D68C2"/>
<stop offset="1" stop-color="#CCEDFF"/>
</linearGradient>
<linearGradient id="paint6_linear_8343_17947" x1="85.2962" y1="237.197" x2="100.357" y2="119.755" gradientUnits="userSpaceOnUse">
<stop stop-color="#CBC1F7"/>
<stop offset="1" stop-color="#E8DCF7"/>
</linearGradient>
<linearGradient id="paint7_linear_8343_17947" x1="56.8415" y1="209.948" x2="72.109" y2="151.333" gradientUnits="userSpaceOnUse">
<stop stop-color="#9D68C2"/>
<stop offset="1" stop-color="#CCEDFF"/>
</linearGradient>
<linearGradient id="paint8_linear_8343_17947" x1="126.24" y1="209.472" x2="71.3709" y2="195.737" gradientUnits="userSpaceOnUse">
<stop stop-color="#BE9DEA"/>
<stop offset="1" stop-color="#9E8CEF"/>
</linearGradient>
<radialGradient id="paint9_radial_8343_17947" cx="0" cy="0" r="1" gradientUnits="userSpaceOnUse" gradientTransform="translate(91.625 227.412) rotate(-165.401) scale(42.7482 43.4984)">
<stop stop-color="#45FFCD"/>
<stop offset="1" stop-color="#22E0FF"/>
</radialGradient>
<linearGradient id="paint10_linear_8343_17947" x1="77.4205" y1="152.716" x2="63.2933" y2="149.179" gradientUnits="userSpaceOnUse">
<stop stop-color="#8879EA"/>
<stop offset="1" stop-color="#9E8CEF"/>
</linearGradient>
<linearGradient id="paint11_linear_8343_17947" x1="101.497" y1="194.228" x2="101.685" y2="173.019" gradientUnits="userSpaceOnUse">
<stop/>
<stop offset="1" stop-color="#00E3FF"/>
</linearGradient>
<linearGradient id="paint12_linear_8343_17947" x1="89.9795" y1="236.2" x2="90.0201" y2="229.129" gradientUnits="userSpaceOnUse">
<stop/>
<stop offset="1" stop-color="#00E3FF"/>
</linearGradient>
<linearGradient id="paint13_linear_8343_17947" x1="55.5267" y1="282.27" x2="72.2294" y2="211.401" gradientUnits="userSpaceOnUse">
<stop stop-color="#CBC1F7"/>
<stop offset="1" stop-color="#E8DCF7"/>
</linearGradient>
<linearGradient id="paint14_linear_8343_17947" x1="43.0806" y1="172.889" x2="48.098" y2="133.727" gradientUnits="userSpaceOnUse">
<stop stop-color="#CBC1F7"/>
<stop offset="1" stop-color="#E8DCF7"/>
</linearGradient>
<linearGradient id="paint15_linear_8343_17947" x1="88.9305" y1="149.92" x2="96.1309" y2="122.275" gradientUnits="userSpaceOnUse">
<stop stop-color="#8DA4E5"/>
<stop offset="1" stop-color="#755CBB"/>
</linearGradient>
<linearGradient id="paint16_linear_8343_17947" x1="125.216" y1="43.9814" x2="116.608" y2="6.34764" gradientUnits="userSpaceOnUse">
<stop stop-color="#45FFCD"/>
<stop offset="1" stop-color="#22E0FF"/>
</linearGradient>
<linearGradient id="paint17_linear_8343_17947" x1="112.416" y1="33.2439" x2="105.015" y2="0.886286" gradientUnits="userSpaceOnUse">
<stop stop-color="#B9ACF4"/>
<stop offset="1" stop-color="#E1D1F5"/>
</linearGradient>
<linearGradient id="paint18_linear_8343_17947" x1="83.5944" y1="135.794" x2="99.7735" y2="9.50988" gradientUnits="userSpaceOnUse">
<stop stop-color="#CBC1F7"/>
<stop offset="1" stop-color="#E8DCF7"/>
</linearGradient>
<linearGradient id="paint19_linear_8343_17947" x1="34.7641" y1="105.386" x2="34.7641" y2="78.37" gradientUnits="userSpaceOnUse">
<stop stop-color="#8DA4E5"/>
<stop offset="1" stop-color="#755CBB"/>
</linearGradient>
<linearGradient id="paint20_linear_8343_17947" x1="104.533" y1="126.435" x2="104.533" y2="17.3402" gradientUnits="userSpaceOnUse">
<stop stop-color="#0665BD"/>
<stop offset="1" stop-color="#1A1F77"/>
</linearGradient>
<linearGradient id="paint21_linear_8343_17947" x1="71.9465" y1="119.75" x2="72.3424" y2="97.6707" gradientUnits="userSpaceOnUse">
<stop/>
<stop offset="1" stop-color="#00E3FF"/>
</linearGradient>
<linearGradient id="paint22_linear_8343_17947" x1="33.9501" y1="89.943" x2="33.9501" y2="26.321" gradientUnits="userSpaceOnUse">
<stop stop-color="#B9ACF4"/>
<stop offset="1" stop-color="#E1D1F5"/>
</linearGradient>
<linearGradient id="paint23_linear_8343_17947" x1="29.1725" y1="87.5271" x2="29.1725" y2="26.6168" gradientUnits="userSpaceOnUse">
<stop stop-color="#BE9DEA"/>
<stop offset="1" stop-color="#9E8CEF"/>
</linearGradient>
<linearGradient id="paint24_linear_8343_17947" x1="24.6655" y1="89.0399" x2="24.6655" y2="29.3357" gradientUnits="userSpaceOnUse">
<stop stop-color="#45FFCD"/>
<stop offset="1" stop-color="#22E0FF"/>
</linearGradient>
<linearGradient id="paint25_linear_8343_17947" x1="24.0207" y1="87.0652" x2="24.2069" y2="69.6107" gradientUnits="userSpaceOnUse">
<stop/>
<stop offset="1" stop-color="#00E3FF"/>
</linearGradient>
<linearGradient id="paint26_linear_8343_17947" x1="21.4101" y1="49.4834" x2="21.6104" y2="30.9903" gradientUnits="userSpaceOnUse">
<stop/>
<stop offset="1" stop-color="#00E3FF"/>
</linearGradient>
<linearGradient id="paint27_linear_8343_17947" x1="142.011" y1="67.0957" x2="125.556" y2="42.3906" gradientUnits="userSpaceOnUse">
<stop stop-color="#45FFCD"/>
<stop offset="1" stop-color="#22E0FF"/>
</linearGradient>
<linearGradient id="paint28_linear_8343_17947" x1="90.1719" y1="89.2962" x2="75.1906" y2="59.2517" gradientUnits="userSpaceOnUse">
<stop stop-color="#45FFCD"/>
<stop offset="1" stop-color="#22E0FF"/>
</linearGradient>
<linearGradient id="paint29_linear_8343_17947" x1="94.9775" y1="75.7571" x2="95.6883" y2="20.0306" gradientUnits="userSpaceOnUse">
<stop/>
<stop offset="1" stop-color="#00E3FF"/>
</linearGradient>
<linearGradient id="paint30_linear_8343_17947" x1="33.5379" y1="141.065" x2="47.7758" y2="83.1199" gradientUnits="userSpaceOnUse">
<stop stop-color="#BE9DEA"/>
<stop offset="1" stop-color="#9E8CEF"/>
</linearGradient>
<linearGradient id="paint31_linear_8343_17947" x1="71.5499" y1="134.63" x2="70.8752" y2="117.551" gradientUnits="userSpaceOnUse">
<stop stop-color="#DD1A8F"/>
<stop offset="1" stop-color="#FE117E"/>
</linearGradient>
<linearGradient id="paint32_linear_8343_17947" x1="70.383" y1="126.371" x2="68.415" y2="119.396" gradientUnits="userSpaceOnUse">
<stop stop-color="#D93DE3"/>
<stop offset="1" stop-color="#FF6DBA"/>
</linearGradient>
<linearGradient id="paint33_linear_8343_17947" x1="3.95562" y1="149.347" x2="2.99539" y2="140.107" gradientUnits="userSpaceOnUse">
<stop stop-color="#BE9DEA"/>
<stop offset="1" stop-color="#9E8CEF"/>
</linearGradient>
<linearGradient id="paint34_linear_8343_17947" x1="19.7759" y1="188.281" x2="35.0664" y2="112.952" gradientUnits="userSpaceOnUse">
<stop stop-color="#D93DE3"/>
<stop offset="1" stop-color="#FF6DBA"/>
</linearGradient>
<linearGradient id="paint35_linear_8343_17947" x1="45.3967" y1="184.047" x2="50.6133" y2="111.997" gradientUnits="userSpaceOnUse">
<stop stop-color="#A242EA"/>
<stop offset="1" stop-color="#FE117E"/>
</linearGradient>
<linearGradient id="paint36_linear_8343_17947" x1="12.3533" y1="164.836" x2="23.5134" y2="164.836" gradientUnits="userSpaceOnUse">
<stop stop-color="#8DA4E5"/>
<stop offset="1" stop-color="#755CBB"/>
</linearGradient>
<linearGradient id="paint37_linear_8343_17947" x1="11.0292" y1="168.769" x2="14.2479" y2="145.625" gradientUnits="userSpaceOnUse">
<stop stop-color="#BE9DEA"/>
<stop offset="1" stop-color="#9E8CEF"/>
</linearGradient>
<linearGradient id="paint38_linear_8343_17947" x1="5.52221" y1="164.687" x2="13.9792" y2="142.792" gradientUnits="userSpaceOnUse">
<stop stop-color="#CBC1F7"/>
<stop offset="1" stop-color="#E8DCF7"/>
</linearGradient>
<linearGradient id="paint39_linear_8343_17947" x1="45.6495" y1="143.617" x2="49.414" y2="125.072" gradientUnits="userSpaceOnUse">
<stop stop-color="#D93DE3"/>
<stop offset="1" stop-color="#FF6DBA"/>
</linearGradient>
<linearGradient id="paint40_linear_8343_17947" x1="47.2851" y1="143.537" x2="48.6409" y2="124.811" gradientUnits="userSpaceOnUse">
<stop stop-color="#B31A8F"/>
<stop offset="1" stop-color="#92117E"/>
</linearGradient>
<linearGradient id="paint41_linear_8343_17947" x1="23.3873" y1="139.658" x2="21.6445" y2="126.059" gradientUnits="userSpaceOnUse">
<stop stop-color="#B31A8F"/>
<stop offset="1" stop-color="#FE117E"/>
</linearGradient>
<radialGradient id="paint42_radial_8343_17947" cx="0" cy="0" r="1" gradientUnits="userSpaceOnUse" gradientTransform="translate(23.1771 132.854) rotate(-11.4407) scale(4.60738 4.69271)">
<stop stop-color="#45FFCD"/>
<stop offset="1" stop-color="#22E0FF"/>
</radialGradient>
<linearGradient id="paint43_linear_8343_17947" x1="24.4209" y1="181.525" x2="43.6492" y2="181.525" gradientUnits="userSpaceOnUse">
<stop stop-color="#B31A8F"/>
<stop offset="1" stop-color="#92117E"/>
</linearGradient>
<linearGradient id="paint44_linear_8343_17947" x1="124.748" y1="119.366" x2="125.011" y2="95.8469" gradientUnits="userSpaceOnUse">
<stop/>
<stop offset="1" stop-color="#00E3FF"/>
</linearGradient>
<linearGradient id="paint45_linear_8343_17947" x1="79.0492" y1="202.407" x2="79.0492" y2="201.674" gradientUnits="userSpaceOnUse">
<stop stop-color="#9D68C2"/>
<stop offset="1" stop-color="#CCEDFF"/>
</linearGradient>
<linearGradient id="paint46_linear_8343_17947" x1="68.7119" y1="287.986" x2="64.358" y2="209.063" gradientUnits="userSpaceOnUse">
<stop stop-color="#9D68C2"/>
<stop offset="1" stop-color="#CCEDFF"/>
</linearGradient>
<linearGradient id="paint47_linear_8343_17947" x1="18.6808" y1="105.39" x2="18.6808" y2="82.7102" gradientUnits="userSpaceOnUse">
<stop stop-color="#CBC1F7"/>
<stop offset="1" stop-color="#E8DCF7"/>
</linearGradient>
<linearGradient id="paint48_linear_8343_17947" x1="161.095" y1="235.867" x2="153.182" y2="191.414" gradientUnits="userSpaceOnUse">
<stop stop-color="#CBC1F7"/>
<stop offset="1" stop-color="#E8DCF7"/>
</linearGradient>
<linearGradient id="paint49_linear_8343_17947" x1="155.288" y1="234.64" x2="157.58" y2="192.827" gradientUnits="userSpaceOnUse">
<stop stop-color="#BE9DEA"/>
<stop offset="1" stop-color="#9E8CEF"/>
</linearGradient>
<linearGradient id="paint50_linear_8343_17947" x1="153.709" y1="221.092" x2="155.01" y2="197.365" gradientUnits="userSpaceOnUse">
<stop stop-color="#8DA4E5"/>
<stop offset="1" stop-color="#755CBB"/>
</linearGradient>
<linearGradient id="paint51_linear_8343_17947" x1="150.714" y1="222.401" x2="145.42" y2="192.658" gradientUnits="userSpaceOnUse">
<stop stop-color="#CBC1F7"/>
<stop offset="1" stop-color="#E8DCF7"/>
</linearGradient>
</defs>
</svg>
