<svg width="215" height="315" viewBox="0 0 215 315" fill="none" xmlns="http://www.w3.org/2000/svg">
<path opacity="0.5" d="M101.53 314.699C134.808 314.699 161.785 308.572 161.785 301.014C161.785 293.455 134.808 287.328 101.53 287.328C68.2516 287.328 41.2744 293.455 41.2744 301.014C41.2744 308.572 68.2516 314.699 101.53 314.699Z" fill="url(#paint0_radial_8343_18012)" fill-opacity="0.53"/>
<path d="M178.112 169.569C178.112 169.569 178.112 181.868 173.266 189.555C170.518 193.926 165.686 196.443 160.13 197.181C155.89 197.754 151.235 197.302 146.714 195.885C136.268 192.599 129.412 176.005 125.718 159.666C122.024 143.328 130.889 138.399 132.145 138.851C134.465 139.71 140.242 147.382 146.891 154.316C150.275 157.842 153.88 161.173 157.367 163.329C167.725 169.689 178.112 169.569 178.112 169.569Z" fill="url(#paint1_linear_8343_18012)"/>
<path opacity="0.3" d="M160.13 197.181C155.89 197.754 151.235 197.302 146.714 195.885C136.268 192.599 129.412 176.005 125.718 159.666C122.024 143.328 130.889 138.399 132.145 138.851C134.465 139.71 140.242 147.382 146.891 154.316C146.891 154.316 141.513 166.027 143.818 181.913C146.153 197.784 160.13 197.181 160.13 197.181Z" fill="url(#paint2_linear_8343_18012)"/>
<path d="M102.889 240.439C102.919 251.049 99.2989 276.22 91.9849 274.939C90.4039 274.668 88.5126 273.025 86.4883 270.463C80.3121 262.7 72.8061 246.618 68.5655 235.6C66.2604 229.586 64.9011 225.08 65.2853 224.236C67.5608 219.051 100.171 233.988 102.284 235.917C102.682 236.294 102.889 237.967 102.889 240.439Z" fill="url(#paint3_linear_8343_18012)"/>
<path d="M65.2703 224.236C62.7732 229.119 92.4132 243.92 102.638 236.866C102.638 236.866 68.5948 217.755 65.2703 224.236Z" fill="url(#paint4_linear_8343_18012)"/>
<path opacity="0.3" d="M79.8689 240.288C78.7164 242.413 84.6414 266.198 91.9849 274.939C90.4039 274.668 88.5126 273.025 86.4883 270.463C84.8482 266.409 82.4103 260.38 80.0462 254.351C77.0172 246.588 71.3876 239.082 68.5655 235.586C66.2604 229.572 64.9011 225.065 65.2853 224.221C67.5608 219.036 100.171 233.973 102.284 235.902C102.682 236.279 102.889 237.952 102.889 240.424C102.889 240.439 81.0214 238.178 79.8689 240.288Z" fill="url(#paint5_linear_8343_18012)"/>
<path d="M138.218 229.014C137.967 229.948 137.671 230.928 137.391 231.938C132.899 247.296 125.068 269.664 119.172 277.305C117.768 279.144 116.468 280.124 115.36 279.973C115.065 279.943 114.769 279.837 114.488 279.702C113.498 279.235 112.538 278.195 111.622 276.733V276.717C105.889 267.614 101.752 242.126 102.594 234.862C102.697 233.957 102.875 233.339 103.141 233.068C107.957 228.2 139.622 214.062 140.878 216.549C141.203 217.227 140.124 222.171 138.218 229.014Z" fill="url(#paint6_linear_8343_18012)"/>
<path d="M102.594 234.862C101.382 236.927 132.618 236.761 140.878 216.549C140.878 216.549 114.045 215.464 102.594 234.862Z" fill="url(#paint7_linear_8343_18012)"/>
<path d="M118.182 244.869C116.882 245.065 115.02 255.134 117.015 256.038C118.995 256.912 121.196 244.417 118.182 244.869Z" fill="white"/>
<path opacity="0.3" d="M138.218 229.014C138.218 229.014 120.783 231.365 115.685 238.811C110.587 246.241 109.08 265.624 111.622 276.717C105.889 267.614 101.752 242.126 102.594 234.862C102.697 233.957 102.875 233.339 103.141 233.068C107.957 228.2 139.622 214.062 140.878 216.549C141.203 217.227 140.124 222.171 138.218 229.014Z" fill="url(#paint8_linear_8343_18012)"/>
<path d="M71.2102 143.84C71.1806 152.928 69.9246 166.056 65.8909 176.667C59.1975 194.241 49.1501 216.353 48.8546 217.046L48.8398 217.061C42.7079 220.874 35.3496 220.678 30.6805 219.985C27.8436 219.563 25.9966 218.96 25.9966 218.96C25.9966 218.96 28.0799 198.839 38.9253 176.034C44.3627 164.579 51.3074 153.923 57.2915 146.07C57.3211 146.04 57.3506 145.995 57.3802 145.965C57.4393 145.859 57.5279 145.769 57.6017 145.663C57.6461 145.603 57.6904 145.558 57.72 145.498C57.7643 145.452 57.8086 145.392 57.8234 145.347C57.8825 145.272 57.9268 145.211 57.9859 145.151C58.0007 145.136 58.0155 145.121 58.0155 145.121C58.0303 145.106 58.045 145.091 58.045 145.091C64.1178 137.223 69.0529 132.46 70.0872 133.033C70.6782 133.364 71.2249 137.675 71.2102 143.84Z" fill="url(#paint9_linear_8343_18012)"/>
<path d="M26.0708 218.162C26.0708 218.162 33.9758 204.853 42.1319 206.586C50.2881 208.32 48.8253 217.062 48.8253 217.062C48.8253 217.062 38.3937 224.764 26.0708 218.162Z" fill="url(#paint10_linear_8343_18012)"/>
<path opacity="0.3" d="M71.2102 143.84C71.1806 152.928 69.9246 166.056 65.8909 176.667C59.1975 194.242 49.1501 216.353 48.8546 217.046L48.8398 217.061L30.6805 219.985C27.8436 219.563 25.9966 218.96 25.9966 218.96C25.9966 218.96 28.0799 198.839 38.9253 176.034C44.3627 164.579 51.3074 153.923 57.2915 146.071C53.8636 150.683 39.5459 170.744 35.6894 187.791C31.301 207.189 48.9875 199.713 56.2276 187.791C63.4529 175.869 71.0033 143.855 71.0033 143.855H71.2102V143.84Z" fill="url(#paint11_linear_8343_18012)"/>
<path d="M51.4403 174.844C50.007 174.286 57.4392 157.104 59.7442 156.953C62.0492 156.802 52.6667 175.311 51.4403 174.844Z" fill="white"/>
<path d="M50.6868 176.683C49.5491 176.065 48.4852 179.29 49.5195 179.758C50.5538 180.225 51.9723 177.376 50.6868 176.683Z" fill="white"/>
<path d="M139.06 16.4031C139.06 16.4031 148.295 8.26403 159.613 6.8623C159.613 6.8623 163.071 8.59562 167.075 21.3016C171.079 34.0076 163.691 59.1331 163.691 59.1331L139.06 16.4031Z" fill="url(#paint12_linear_8343_18012)"/>
<path d="M159.612 6.84728C159.612 6.84728 150.466 16.8553 150.466 32.9827L154.012 35.2586L164.326 13.4942C164.311 13.4942 160.883 6.66641 159.612 6.84728Z" fill="url(#paint13_linear_8343_18012)"/>
<path d="M153.658 34.1592C153.658 34.1592 151.22 20.3831 160.115 10.2695C160.115 10.2695 170.148 15.0927 174.315 32.9835C178.466 50.8744 167.651 61.6209 167.651 61.6209L153.658 34.1592Z" fill="url(#paint14_linear_8343_18012)"/>
<path d="M148.501 10.8565C146.787 11.791 146.935 13.675 150.467 13.2078C153.998 12.7406 155.919 9.90696 155.535 9.36436C155.15 8.80668 150.422 9.80146 148.501 10.8565Z" fill="white"/>
<path d="M61.532 18.4382C61.532 18.4382 52.2971 10.2992 40.979 8.89746C40.979 8.89746 37.5215 10.6308 33.5173 23.3367C29.5131 36.0427 36.9009 61.1683 36.9009 61.1683L61.532 18.4382Z" fill="url(#paint15_linear_8343_18012)"/>
<path d="M40.9791 8.89769C40.9791 8.89769 50.1252 18.9057 50.1252 35.0331L46.5791 37.309L36.2656 15.5446C36.2804 15.5295 39.7084 8.70175 40.9791 8.89769Z" fill="url(#paint16_linear_8343_18012)"/>
<path d="M46.9188 36.1933C46.9188 36.1933 49.3568 22.4172 40.4618 12.3037C40.4618 12.3037 30.4292 17.1269 26.2624 35.0177C22.1105 52.9085 34.0787 64.8157 34.0787 64.8157L46.9188 36.1933Z" fill="url(#paint17_linear_8343_18012)"/>
<path d="M52.0904 12.8918C53.8044 13.8263 53.6566 15.7103 50.1253 15.2431C46.5939 14.7758 44.6731 11.9422 45.0572 11.3996C45.4414 10.857 50.1696 11.8367 52.0904 12.8918Z" fill="white"/>
<path d="M140.464 206.661C137.656 223.602 122.777 234.907 101.456 234.907C82.8975 234.907 67.1615 227.853 63.0095 212.298C58.8576 196.774 60.4681 168.046 66.009 150.155C66.8364 147.487 67.8412 144.91 68.9937 142.468L69.0085 142.438C70.0575 140.222 71.2248 138.112 72.5103 136.138C72.5251 136.123 72.5251 136.108 72.5251 136.108C79.2923 125.708 89.2068 118.91 100.422 118.91C112.094 118.91 121.019 123.809 127.092 131.043C129.914 134.404 132.13 138.293 133.711 142.408C135.543 147.156 137.08 152.19 138.291 157.375C138.291 157.405 138.306 157.465 138.321 157.525C142.163 173.788 142.975 191.529 140.464 206.661Z" fill="url(#paint18_linear_8343_18012)"/>
<path opacity="0.3" d="M140.464 206.662C137.656 223.603 122.777 234.907 101.456 234.907C82.8975 234.907 67.1615 227.853 63.0095 212.299C58.8576 196.774 60.4681 168.046 66.009 150.155C66.8364 147.488 67.8412 144.91 68.9937 142.469L69.0085 142.438C69.0085 142.438 57.7789 180.421 66.7477 204.612C75.7166 228.803 117.546 228.29 131.702 212.223C145.177 196.925 138.956 160.992 138.321 157.556C142.163 173.789 142.975 191.529 140.464 206.662Z" fill="url(#paint19_linear_8343_18012)"/>
<path d="M63.8074 196.593C66.9842 173.849 84.8628 158.43 104.736 160.344C126.146 162.409 137.656 183.254 137.361 201.145C137.05 219.035 124.24 233.008 101.249 233.008C78.2581 233.008 60.8375 217.875 63.8074 196.593Z" fill="url(#paint20_linear_8343_18012)"/>
<path d="M64.0142 198.478C67.191 175.733 85.0696 160.314 104.943 162.229C126.353 164.294 137.863 185.139 137.567 203.029C137.257 220.92 124.447 234.892 101.456 234.892C78.4796 234.907 61.0443 219.76 64.0142 198.478Z" fill="url(#paint21_radial_8343_18012)"/>
<path opacity="0.5" d="M127.092 131.044C122.555 138.309 97.5402 142.544 83.0896 141.203C70.5007 140.027 72.4216 136.56 72.5103 136.123C72.525 136.108 72.525 136.093 72.525 136.093C79.2923 125.693 89.2068 118.896 100.421 118.896C112.094 118.911 121.019 123.809 127.092 131.044Z" fill="url(#paint22_linear_8343_18012)"/>
<path d="M118.211 143.644C117.044 144.036 117 153.592 118.211 155.144C119.423 156.681 121.388 156.214 122.038 153.953C122.674 151.708 119.97 143.056 118.211 143.644Z" fill="white"/>
<path d="M120.354 157.691C119.379 157.932 119.275 160.299 119.718 161.128C120.162 161.957 121.846 161.776 122.127 160.766C122.407 159.771 121.329 157.45 120.354 157.691Z" fill="white"/>
<path opacity="0.72" d="M76.5884 221.644C76.5884 221.644 81.7155 230.763 100.835 230.838C119.955 230.913 127.727 219.308 127.727 219.308C127.727 219.308 118.906 225.171 106.302 221.644C93.6838 218.132 81.2132 216.142 76.5884 221.644Z" fill="url(#paint23_linear_8343_18012)" fill-opacity="0.22"/>
<path opacity="0.72" d="M71.6095 184.053C75.3773 190.203 90.9213 186.932 108.43 188.665C125.94 190.398 128.924 196.216 132.618 195.041C136.312 193.865 130.476 166.976 104.323 165.152C78.1551 163.329 70.6639 182.516 71.6095 184.053Z" fill="url(#paint24_linear_8343_18012)" fill-opacity="0.22"/>
<path d="M35.5567 105.541C49.7118 138.851 155.668 128.466 168.331 101.095C182.176 71.1613 150.334 -2.79862 99.5649 0.652937C56.6711 3.57697 17.3679 62.7208 35.5567 105.541Z" fill="url(#paint25_linear_8343_18012)"/>
<path d="M41.4074 100.839C54.9419 128.165 147.438 123.643 160.942 98.5327C172.408 77.2053 145.325 12.2587 98.8551 14.5648C52.4004 16.8859 28.4196 74.628 41.4074 100.839Z" fill="url(#paint26_linear_8343_18012)"/>
<path d="M141.823 68.6443C140.006 73.6181 115.611 73.0454 115.641 71.2518C115.788 61.3191 121.004 48.2665 130.741 48.3569C140.789 48.4473 145.221 59.3748 141.823 68.6443Z" fill="url(#paint27_linear_8343_18012)"/>
<path d="M59.6257 69.3076C61.7239 74.176 86.0447 72.2015 85.9117 70.4079C85.2172 60.4903 79.3069 47.7692 69.5845 48.4174C59.5518 49.0805 55.725 60.2491 59.6257 69.3076Z" fill="url(#paint28_linear_8343_18012)"/>
<path d="M86.34 87.6957C82.6757 88.6001 90.3442 101.095 102.652 101.095C113.572 101.095 119.733 88.2534 118.344 87.6957C116.955 87.1381 110.41 90.5896 101.293 90.5896C92.1764 90.5896 87.8767 87.3189 86.34 87.6957Z" fill="#2F95CD"/>
<path d="M25.9826 218.961C25.9826 218.961 30.8585 211.922 37.9065 210.973C44.9545 210.038 47.4811 212.028 48.8257 217.062C50.1703 222.111 40.182 240.484 27.7704 254.336C22.4068 254.788 20.7963 248.081 20.0132 243.77C20.0132 240.002 23.5594 224.884 25.9826 218.961Z" fill="url(#paint29_linear_8343_18012)"/>
<path d="M43.0922 210.927C43.0922 210.927 29.868 229.662 25.6717 240.438C23.4111 246.256 22.1108 250.069 22.1108 250.069C22.1108 250.069 25.5536 258.947 31.2422 251.516C39.3097 240.996 50.1254 225.17 48.1602 217.559C46.5201 211.108 45.3972 209.887 43.0922 210.927Z" fill="url(#paint30_linear_8343_18012)"/>
<path d="M168.272 168.031C162.214 169.96 161.505 190.941 167.267 193.609C173.03 196.277 181.112 177.918 178.112 169.568C178.112 169.568 172.734 166.614 168.272 168.031Z" fill="url(#paint31_linear_8343_18012)"/>
<path d="M168.803 170.472C168.803 170.472 164.489 174.828 166.336 181.912C168.183 188.996 177.417 193.774 188.957 193.623C200.497 193.473 207.885 184.972 209.495 179.802C209.495 179.802 207.412 175.461 196.109 172.778C188.425 170.955 178.112 169.568 178.112 169.568C178.112 169.568 172.748 168.769 168.803 170.472Z" fill="url(#paint32_linear_8343_18012)"/>
<path d="M166.794 183.269C166.794 183.269 176.96 186.645 188.957 184.445C200.955 182.244 197.306 173.502 197.306 173.502C197.306 173.502 191.425 170.488 186.047 169.387C180.668 168.287 168.981 169.387 168.981 169.387C168.981 169.387 162.598 175.025 166.794 183.269Z" fill="url(#paint33_linear_8343_18012)"/>
<path opacity="0.5" d="M174.167 190.549C174.167 190.549 175.246 181.822 174.256 177.632C174.256 177.632 177.654 186.72 178.112 192.131L174.167 190.549Z" fill="url(#paint34_linear_8343_18012)"/>
<path d="M208.609 221.583L203.866 221.929L207.752 222.698L207.087 228.034C207.087 228.034 206.998 228.049 206.836 228.064C206.777 228.064 206.718 228.064 206.644 228.079C205.757 228.139 203.6 228.275 200.763 228.41C193.937 228.727 182.899 229.013 174.684 228.034C174.684 228.034 178.984 201.205 174.684 180.285L174.256 175.974L174.167 175.16L191.129 173.291C191.129 173.291 199.965 188.288 206.363 204.234C207.693 207.55 208.919 210.912 209.939 214.167L208.609 221.583Z" fill="url(#paint35_linear_8343_18012)"/>
<path opacity="0.5" d="M206.378 204.235L181.599 208.531L176.531 180.768L197.823 188.665C197.823 188.665 205.403 201.733 206.378 204.235Z" fill="url(#paint36_linear_8343_18012)"/>
<path opacity="0.5" d="M177.122 226.135C177.122 226.135 192.459 227.989 207.102 228.034C207.102 228.034 207.013 228.049 206.851 228.064C206.792 228.064 206.733 228.064 206.659 228.079C205.772 228.139 203.615 228.275 200.778 228.411C193.316 228.787 181.156 229.149 174.699 228.034C174.699 228.034 178.999 201.205 174.699 180.285L174.271 175.974L175.748 175.024L203.999 201.009L206.393 204.235C207.723 207.55 208.949 210.912 209.968 214.167H183.963L181.614 219.352L203.881 221.914L181.126 220.377L177.122 226.135Z" fill="url(#paint37_linear_8343_18012)"/>
<path d="M174.167 175.161C174.167 175.161 180.875 170.594 194.291 169.689C194.291 169.689 207.264 184.129 214.948 200.995L181.998 201.899C182.013 201.899 178.762 184.129 174.167 175.161Z" fill="url(#paint38_linear_8343_18012)"/>
<path opacity="0.5" d="M176.59 173.864C176.59 173.864 181.924 179.773 188.839 181.506C195.769 183.239 199.817 176.457 199.817 176.457L197.423 173.337L176.59 173.864Z" fill="url(#paint39_linear_8343_18012)"/>
<path d="M169.69 169.9C167.961 164.443 191.986 164.519 195.178 166.629C196.596 167.563 199.02 170.789 198.03 172.763C197.04 174.738 189.135 175.944 185.84 175.597C182.545 175.25 170.842 173.472 169.69 169.9Z" fill="url(#paint40_linear_8343_18012)"/>
<path d="M188.086 175.627C188.086 175.627 187.835 170.261 190.568 168.121C193.302 165.981 195.784 167.096 195.784 167.096C195.784 167.096 199.36 169.809 198.03 172.748C196.686 175.687 189.874 176.381 188.086 175.627Z" fill="url(#paint41_linear_8343_18012)"/>
<path opacity="0.5" d="M188.145 180.194C183.121 182.546 184.983 193.91 191.381 196.955C197.779 199.999 202.669 192.87 201.827 186.6C201 180.33 191.499 178.627 188.145 180.194Z" fill="#D9D2EC"/>
<path d="M192.459 183.48C192.725 183.42 193.021 183.374 193.346 183.374C193.671 183.359 194.026 183.374 194.41 183.404L194.853 185.364C194.661 185.289 194.469 185.228 194.277 185.213C194.085 185.198 193.907 185.183 193.745 185.198C193.568 185.198 193.39 185.228 193.213 185.243C192.991 185.334 192.829 185.5 192.725 185.741C192.622 185.982 192.607 186.238 192.696 186.524C192.77 186.781 192.903 186.992 193.08 187.157C193.257 187.308 193.449 187.444 193.671 187.564C193.893 187.685 194.129 187.791 194.395 187.896C194.661 188.002 194.912 188.137 195.149 188.303C195.385 188.469 195.621 188.665 195.828 188.906C196.035 189.147 196.212 189.464 196.345 189.855C196.464 190.232 196.508 190.594 196.478 190.91C196.449 191.227 196.39 191.513 196.272 191.785C196.153 192.041 195.991 192.267 195.799 192.463C195.607 192.659 195.4 192.825 195.178 192.945L197.143 196.698H195.341L194.41 193.277C194.38 193.292 194.292 193.307 194.173 193.337C194.055 193.367 193.907 193.382 193.745 193.397C193.582 193.413 193.39 193.413 193.198 193.397C193.006 193.382 192.814 193.337 192.637 193.247L192.164 191.333C192.43 191.438 192.681 191.483 192.932 191.513C193.183 191.528 193.39 191.544 193.582 191.528C193.804 191.513 194.011 191.483 194.218 191.423C194.498 191.121 194.587 190.775 194.469 190.383C194.41 190.187 194.292 190.021 194.114 189.886C193.937 189.75 193.73 189.614 193.494 189.479C193.257 189.343 192.991 189.207 192.725 189.072C192.445 188.936 192.179 188.755 191.913 188.559C191.647 188.363 191.41 188.122 191.203 187.851C190.997 187.58 190.819 187.233 190.701 186.841C190.509 186.193 190.494 185.605 190.686 185.078C190.864 184.55 191.189 184.128 191.647 183.827L190.036 179.787L191.514 180.209L192.459 183.48Z" fill="white"/>
<path d="M114.532 6.84727C113.572 8.02291 124.801 12.9968 126.308 12.3035C127.801 11.6101 117.768 2.9134 114.532 6.84727Z" fill="white"/>
<path opacity="0.5" d="M57.7197 41.9356C56.6559 48.4468 68.7424 47.7083 88.0837 47.0451C111.311 46.2613 134.657 66.6693 148.25 52.019C150.496 49.6074 128.244 17.9254 101.397 18.6338C74.5344 19.3572 58.6358 36.2835 57.7197 41.9356Z" fill="url(#paint42_linear_8343_18012)" fill-opacity="0.42"/>
<path opacity="0.5" d="M69.6883 109.851C68.462 114.569 78.14 119.287 101.914 118.096C130.667 116.664 136.77 110.515 135.366 108.811C134.524 107.787 125.91 113.318 102.283 108.043C86.6951 104.546 70.9738 104.878 69.6883 109.851Z" fill="url(#paint43_linear_8343_18012)" fill-opacity="0.42"/>
<path opacity="0.2" d="M43.9935 95.187C43.9935 95.187 42.9888 88.3441 44.1708 79.1651C45.3529 69.9861 47.7613 64.0626 49.2093 64.8916C50.6425 65.7206 50.4209 74.7188 51.2779 83.5662C51.9428 90.4543 53.243 96.9354 53.243 96.9354C53.243 96.9354 47.0225 103.01 43.9935 95.187Z" fill="url(#paint44_linear_8343_18012)" fill-opacity="0.42"/>
<path opacity="0.5" d="M45.973 116.785C45.973 116.785 47.4063 115.202 55.0748 110.605C60.2168 107.516 65.6246 103.868 66.3929 102.527C67.5307 99.3765 44.3625 101.23 44.3625 101.23L35.5562 105.541C35.5562 105.541 39.058 112.595 45.973 116.785Z" fill="url(#paint45_linear_8343_18012)"/>
<path d="M28.2719 47.1055C28.2719 47.1055 34.2561 51.0243 30.3257 60.1129C30.3257 60.1129 2.39965 75.6223 4.02498 92.5334C5.36956 106.641 43.9488 99.8134 43.9488 99.8134L45.3378 104.516C45.3378 104.516 12.5653 111.057 1.26194 103.19C1.26194 103.19 -2.57968 93.8749 6.95062 77.0843C16.4809 60.2938 28.2719 47.1055 28.2719 47.1055Z" fill="url(#paint46_linear_8343_18012)"/>
<path d="M39.0727 98.5025C35.5561 102.557 43.0178 107.003 49.1497 107.682C56.0352 108.45 68.2546 105.662 67.5159 98.593C66.7771 91.5241 47.3028 88.9919 39.0727 98.5025Z" fill="url(#paint47_linear_8343_18012)"/>
<path d="M39.5316 99.2407C39.3247 100.401 63.8966 100.673 64.4729 96.2413C65.0491 91.8251 41.1421 90.3028 39.5316 99.2407Z" fill="url(#paint48_linear_8343_18012)"/>
<path opacity="0.72" d="M168.271 18.3479C168.271 18.3479 165.021 14.2332 160.573 15.3335C156.14 16.4337 155.845 30.6922 158.49 31.0388C161.149 31.3855 162.272 23.156 164.297 21.8598C166.336 20.5636 169.882 21.061 169.882 21.061L168.271 18.3479Z" fill="url(#paint49_linear_8343_18012)" fill-opacity="0.42"/>
<path opacity="0.72" d="M30.0005 24.4221C30.0005 24.4221 31.7145 22.4476 35.5562 23.0806C39.3978 23.7287 41.6142 31.7774 43.5941 30.9635C45.5593 30.1496 44.1261 17.112 38.9103 13.2686C38.925 13.2836 32.2168 19.1166 30.0005 24.4221Z" fill="url(#paint50_linear_8343_18012)" fill-opacity="0.42"/>
<path opacity="0.5" d="M31.9512 228.17C31.9512 228.17 33.7981 238.163 39.7232 239.655L40.6541 215.675C40.6541 215.675 33.7243 225.095 31.9512 228.17Z" fill="url(#paint51_linear_8343_18012)"/>
<path d="M37.7432 221.372C36.8567 223.678 38.5707 238.78 40.1812 240.499C41.7918 242.202 45.5152 239.323 46.5495 236.263C47.5838 233.204 52.2382 216.534 46.254 211.183C46.2688 211.168 41.4371 211.71 37.7432 221.372Z" fill="url(#paint52_linear_8343_18012)"/>
<path d="M40.4469 223.392C39.782 223.512 39.058 228.682 39.6047 229.616C40.1514 230.551 41.2448 230.43 41.762 229.27C42.2643 228.109 41.4369 223.211 40.4469 223.392Z" fill="white"/>
<path d="M22.9084 56.2549C22.9084 56.2549 9.55121 72.0657 10.4082 73.166C11.2504 74.2663 23.7506 57.8525 22.9084 56.2549Z" fill="url(#paint53_linear_8343_18012)"/>
<defs>
<radialGradient id="paint0_radial_8343_18012" cx="0" cy="0" r="1" gradientUnits="userSpaceOnUse" gradientTransform="translate(101.523 301.019) scale(60.2662 13.6785)">
<stop stop-color="#4C2B88"/>
<stop offset="1" stop-color="#4C2B88" stop-opacity="0"/>
</radialGradient>
<linearGradient id="paint1_linear_8343_18012" x1="147.151" y1="196.475" x2="154.173" y2="141.664" gradientUnits="userSpaceOnUse">
<stop stop-color="#CBC1F7"/>
<stop offset="1" stop-color="#E8DCF7"/>
</linearGradient>
<linearGradient id="paint2_linear_8343_18012" x1="142.486" y1="197.419" x2="142.486" y2="138.825" gradientUnits="userSpaceOnUse">
<stop stop-color="#9D68C2"/>
<stop offset="1" stop-color="#CCEDFF"/>
</linearGradient>
<linearGradient id="paint3_linear_8343_18012" x1="86.053" y1="275.302" x2="83.4977" y2="222.394" gradientUnits="userSpaceOnUse">
<stop stop-color="#CBC1F7"/>
<stop offset="1" stop-color="#E8DCF7"/>
</linearGradient>
<linearGradient id="paint4_linear_8343_18012" x1="85.5599" y1="240.773" x2="81.9426" y2="220.39" gradientUnits="userSpaceOnUse">
<stop stop-color="#BE9DEA"/>
<stop offset="1" stop-color="#9E8CEF"/>
</linearGradient>
<linearGradient id="paint5_linear_8343_18012" x1="91.4536" y1="275.033" x2="81.7923" y2="220.594" gradientUnits="userSpaceOnUse">
<stop stop-color="#9D68C2"/>
<stop offset="1" stop-color="#CCEDFF"/>
</linearGradient>
<linearGradient id="paint6_linear_8343_18012" x1="107.406" y1="277.675" x2="126.68" y2="212.234" gradientUnits="userSpaceOnUse">
<stop stop-color="#CBC1F7"/>
<stop offset="1" stop-color="#E8DCF7"/>
</linearGradient>
<linearGradient id="paint7_linear_8343_18012" x1="119.809" y1="238.111" x2="123.713" y2="213.798" gradientUnits="userSpaceOnUse">
<stop stop-color="#BE9DEA"/>
<stop offset="1" stop-color="#9E8CEF"/>
</linearGradient>
<linearGradient id="paint8_linear_8343_18012" x1="113.896" y1="277.095" x2="124.081" y2="213.665" gradientUnits="userSpaceOnUse">
<stop stop-color="#9D68C2"/>
<stop offset="1" stop-color="#CCEDFF"/>
</linearGradient>
<linearGradient id="paint9_linear_8343_18012" x1="44.0319" y1="221.705" x2="55.6339" y2="131.148" gradientUnits="userSpaceOnUse">
<stop stop-color="#CBC1F7"/>
<stop offset="1" stop-color="#E8DCF7"/>
</linearGradient>
<linearGradient id="paint10_linear_8343_18012" x1="37.4966" y1="220.838" x2="37.4966" y2="206.436" gradientUnits="userSpaceOnUse">
<stop stop-color="#BE9DEA"/>
<stop offset="1" stop-color="#9E8CEF"/>
</linearGradient>
<linearGradient id="paint11_linear_8343_18012" x1="48.5899" y1="219.985" x2="48.5899" y2="143.845" gradientUnits="userSpaceOnUse">
<stop stop-color="#9D68C2"/>
<stop offset="1" stop-color="#CCEDFF"/>
</linearGradient>
<linearGradient id="paint12_linear_8343_18012" x1="153.664" y1="59.1159" x2="153.664" y2="6.85221" gradientUnits="userSpaceOnUse">
<stop stop-color="#B9ACF4"/>
<stop offset="1" stop-color="#E1D1F5"/>
</linearGradient>
<linearGradient id="paint13_linear_8343_18012" x1="157.385" y1="35.26" x2="157.385" y2="6.84834" gradientUnits="userSpaceOnUse">
<stop stop-color="#BE9DEA"/>
<stop offset="1" stop-color="#9E8CEF"/>
</linearGradient>
<linearGradient id="paint14_linear_8343_18012" x1="164.309" y1="61.6175" x2="164.309" y2="10.2668" gradientUnits="userSpaceOnUse">
<stop stop-color="#45FFCD"/>
<stop offset="1" stop-color="#22E0FF"/>
</linearGradient>
<linearGradient id="paint15_linear_8343_18012" x1="46.9259" y1="61.1546" x2="46.9259" y2="8.89083" gradientUnits="userSpaceOnUse">
<stop stop-color="#B9ACF4"/>
<stop offset="1" stop-color="#E1D1F5"/>
</linearGradient>
<linearGradient id="paint16_linear_8343_18012" x1="43.2052" y1="37.2986" x2="43.2052" y2="8.88714" gradientUnits="userSpaceOnUse">
<stop stop-color="#BE9DEA"/>
<stop offset="1" stop-color="#9E8CEF"/>
</linearGradient>
<linearGradient id="paint17_linear_8343_18012" x1="36.3182" y1="64.8142" x2="36.3182" y2="12.3043" gradientUnits="userSpaceOnUse">
<stop stop-color="#45FFCD"/>
<stop offset="1" stop-color="#22E0FF"/>
</linearGradient>
<linearGradient id="paint18_linear_8343_18012" x1="95.5395" y1="234.701" x2="110.255" y2="119.843" gradientUnits="userSpaceOnUse">
<stop stop-color="#CBC1F7"/>
<stop offset="1" stop-color="#E8DCF7"/>
</linearGradient>
<linearGradient id="paint19_linear_8343_18012" x1="101.291" y1="234.898" x2="101.291" y2="142.431" gradientUnits="userSpaceOnUse">
<stop stop-color="#9D68C2"/>
<stop offset="1" stop-color="#CCEDFF"/>
</linearGradient>
<linearGradient id="paint20_linear_8343_18012" x1="100.423" y1="233.018" x2="100.423" y2="160.191" gradientUnits="userSpaceOnUse">
<stop stop-color="#BE9DEA"/>
<stop offset="1" stop-color="#9E8CEF"/>
</linearGradient>
<radialGradient id="paint21_radial_8343_18012" cx="0" cy="0" r="1" gradientUnits="userSpaceOnUse" gradientTransform="translate(101.854 223.6) scale(54.4796 55.5735)">
<stop stop-color="#45FFCD"/>
<stop offset="1" stop-color="#22E0FF"/>
</radialGradient>
<linearGradient id="paint22_linear_8343_18012" x1="99.7269" y1="141.452" x2="99.7269" y2="118.911" gradientUnits="userSpaceOnUse">
<stop stop-color="#8DA4E5"/>
<stop offset="1" stop-color="#755CBB"/>
</linearGradient>
<linearGradient id="paint23_linear_8343_18012" x1="99.3456" y1="230.827" x2="99.4068" y2="218.195" gradientUnits="userSpaceOnUse">
<stop/>
<stop offset="1" stop-color="#00E3FF"/>
</linearGradient>
<linearGradient id="paint24_linear_8343_18012" x1="99.1636" y1="195.169" x2="99.4517" y2="164.964" gradientUnits="userSpaceOnUse">
<stop/>
<stop offset="1" stop-color="#00E3FF"/>
</linearGradient>
<linearGradient id="paint25_linear_8343_18012" x1="95.7054" y1="128.13" x2="111.957" y2="1.28372" gradientUnits="userSpaceOnUse">
<stop stop-color="#CBC1F7"/>
<stop offset="1" stop-color="#E8DCF7"/>
</linearGradient>
<linearGradient id="paint26_linear_8343_18012" x1="100.737" y1="119.44" x2="100.737" y2="14.5134" gradientUnits="userSpaceOnUse">
<stop stop-color="#0665BD"/>
<stop offset="1" stop-color="#1A1F77"/>
</linearGradient>
<linearGradient id="paint27_linear_8343_18012" x1="128.379" y1="73.5394" x2="131.818" y2="48.3992" gradientUnits="userSpaceOnUse">
<stop stop-color="#45FFCD"/>
<stop offset="1" stop-color="#22E0FF"/>
</linearGradient>
<linearGradient id="paint28_linear_8343_18012" x1="73.3216" y1="73.426" x2="68.4552" y2="48.5313" gradientUnits="userSpaceOnUse">
<stop stop-color="#45FFCD"/>
<stop offset="1" stop-color="#22E0FF"/>
</linearGradient>
<linearGradient id="paint29_linear_8343_18012" x1="31.5169" y1="254.953" x2="37.2563" y2="210.155" gradientUnits="userSpaceOnUse">
<stop stop-color="#CBC1F7"/>
<stop offset="1" stop-color="#E8DCF7"/>
</linearGradient>
<linearGradient id="paint30_linear_8343_18012" x1="37.1493" y1="253.43" x2="32.8218" y2="211.786" gradientUnits="userSpaceOnUse">
<stop stop-color="#BE9DEA"/>
<stop offset="1" stop-color="#9E8CEF"/>
</linearGradient>
<linearGradient id="paint31_linear_8343_18012" x1="172.557" y1="193.472" x2="169.879" y2="167.704" gradientUnits="userSpaceOnUse">
<stop stop-color="#BE9DEA"/>
<stop offset="1" stop-color="#9E8CEF"/>
</linearGradient>
<linearGradient id="paint32_linear_8343_18012" x1="185.859" y1="193.611" x2="188.764" y2="170.935" gradientUnits="userSpaceOnUse">
<stop stop-color="#CBC1F7"/>
<stop offset="1" stop-color="#E8DCF7"/>
</linearGradient>
<linearGradient id="paint33_linear_8343_18012" x1="182.409" y1="185.259" x2="180.633" y2="168.17" gradientUnits="userSpaceOnUse">
<stop stop-color="#BE9DEA"/>
<stop offset="1" stop-color="#9E8CEF"/>
</linearGradient>
<linearGradient id="paint34_linear_8343_18012" x1="176.141" y1="192.143" x2="176.141" y2="177.645" gradientUnits="userSpaceOnUse">
<stop stop-color="#8DA4E5"/>
<stop offset="1" stop-color="#755CBB"/>
</linearGradient>
<linearGradient id="paint35_linear_8343_18012" x1="192.056" y1="228.7" x2="192.056" y2="173.296" gradientUnits="userSpaceOnUse">
<stop stop-color="#6FCAF4"/>
<stop offset="1" stop-color="#7DFFCF"/>
</linearGradient>
<linearGradient id="paint36_linear_8343_18012" x1="191.452" y1="208.537" x2="191.452" y2="180.767" gradientUnits="userSpaceOnUse">
<stop stop-color="#755CBB"/>
<stop offset="1" stop-color="#CCEDFF"/>
</linearGradient>
<linearGradient id="paint37_linear_8343_18012" x1="192.099" y1="228.774" x2="192.099" y2="175.023" gradientUnits="userSpaceOnUse">
<stop stop-color="#755CBB"/>
<stop offset="1" stop-color="#CCEDFF"/>
</linearGradient>
<linearGradient id="paint38_linear_8343_18012" x1="194.567" y1="201.899" x2="194.567" y2="169.692" gradientUnits="userSpaceOnUse">
<stop stop-color="#6FCAF4"/>
<stop offset="1" stop-color="#7DFFCF"/>
</linearGradient>
<linearGradient id="paint39_linear_8343_18012" x1="176.589" y1="177.563" x2="199.821" y2="177.563" gradientUnits="userSpaceOnUse">
<stop stop-color="#755CBB"/>
<stop offset="1" stop-color="#CCEDFF"/>
</linearGradient>
<linearGradient id="paint40_linear_8343_18012" x1="181.021" y1="176.671" x2="187.918" y2="162.953" gradientUnits="userSpaceOnUse">
<stop stop-color="#CBC1F7"/>
<stop offset="1" stop-color="#E8DCF7"/>
</linearGradient>
<linearGradient id="paint41_linear_8343_18012" x1="193.433" y1="175.645" x2="192.53" y2="166.951" gradientUnits="userSpaceOnUse">
<stop stop-color="#CBC1F7"/>
<stop offset="1" stop-color="#D4BEF1"/>
</linearGradient>
<linearGradient id="paint42_linear_8343_18012" x1="98.0404" y1="57.2923" x2="98.365" y2="18.5365" gradientUnits="userSpaceOnUse">
<stop/>
<stop offset="1" stop-color="#00E3FF"/>
</linearGradient>
<linearGradient id="paint43_linear_8343_18012" x1="98.9414" y1="118.271" x2="98.9885" y2="105.691" gradientUnits="userSpaceOnUse">
<stop/>
<stop offset="1" stop-color="#00E3FF"/>
</linearGradient>
<linearGradient id="paint44_linear_8343_18012" x1="47.8886" y1="99.1523" x2="50.2842" y2="64.9037" gradientUnits="userSpaceOnUse">
<stop/>
<stop offset="1" stop-color="#00E3FF"/>
</linearGradient>
<linearGradient id="paint45_linear_8343_18012" x1="50.9998" y1="116.781" x2="50.9998" y2="100.691" gradientUnits="userSpaceOnUse">
<stop stop-color="#8DA4E5"/>
<stop offset="1" stop-color="#755CBB"/>
</linearGradient>
<linearGradient id="paint46_linear_8343_18012" x1="21.981" y1="107.893" x2="29.7449" y2="47.2926" gradientUnits="userSpaceOnUse">
<stop stop-color="#BE9DEA"/>
<stop offset="1" stop-color="#9E8CEF"/>
</linearGradient>
<linearGradient id="paint47_linear_8343_18012" x1="50.9701" y1="108.253" x2="54.958" y2="91.6501" gradientUnits="userSpaceOnUse">
<stop stop-color="#DD1A8F"/>
<stop offset="1" stop-color="#FE117E"/>
</linearGradient>
<linearGradient id="paint48_linear_8343_18012" x1="52.0059" y1="99.9749" x2="52.0059" y2="92.7177" gradientUnits="userSpaceOnUse">
<stop stop-color="#D93DE3"/>
<stop offset="1" stop-color="#FF6DBA"/>
</linearGradient>
<linearGradient id="paint49_linear_8343_18012" x1="162.623" y1="31.0353" x2="163.003" y2="15.1193" gradientUnits="userSpaceOnUse">
<stop/>
<stop offset="1" stop-color="#00E3FF"/>
</linearGradient>
<linearGradient id="paint50_linear_8343_18012" x1="36.4251" y1="31.0054" x2="36.854" y2="13.2384" gradientUnits="userSpaceOnUse">
<stop/>
<stop offset="1" stop-color="#00E3FF"/>
</linearGradient>
<linearGradient id="paint51_linear_8343_18012" x1="38.0905" y1="239.821" x2="35.6349" y2="216.19" gradientUnits="userSpaceOnUse">
<stop stop-color="#8DA4E5"/>
<stop offset="1" stop-color="#755CBB"/>
</linearGradient>
<linearGradient id="paint52_linear_8343_18012" x1="41.1431" y1="240.981" x2="44.9833" y2="211.007" gradientUnits="userSpaceOnUse">
<stop stop-color="#CBC1F7"/>
<stop offset="1" stop-color="#E8DCF7"/>
</linearGradient>
<linearGradient id="paint53_linear_8343_18012" x1="16.6604" y1="73.2216" x2="16.6604" y2="56.2525" gradientUnits="userSpaceOnUse">
<stop stop-color="#CBC1F7"/>
<stop offset="1" stop-color="#E8DCF7"/>
</linearGradient>
</defs>
</svg>
