<svg width="718" height="770" viewBox="0 0 718 770" fill="none" xmlns="http://www.w3.org/2000/svg">
<path d="M618.369 552.582C609.163 570.855 598.382 586.117 586.34 597.073C582.805 600.294 579.129 603.164 575.349 605.614C571.778 607.924 568.103 609.885 564.322 611.425C509.4 634.108 453.183 582.476 390.35 588.567C337.703 593.678 299.793 622.941 266.189 647.515C254.322 656.196 242.981 664.317 231.674 670.548C228.489 672.333 225.304 673.943 222.118 675.378C218.688 676.918 215.082 678.354 211.197 679.649C211.197 679.684 211.162 679.684 211.162 679.684L211.127 679.649C162.471 696.346 80.28 695.716 43.8404 659.801C5.72045 622.171 -40.6255 500.251 64.283 343.22C180.883 168.723 499.319 144.57 584.415 202.292C672.451 261.975 668.916 452.294 618.369 552.582Z" fill="#E5F6FF"/>
<path d="M624.985 273.737C634.646 266.001 642.487 255.99 647.738 244.753C648.578 242.933 649.383 241.043 649.383 239.047C649.418 235.197 646.582 231.802 643.327 229.771C635.346 224.731 624.215 225.851 616.759 231.662C609.303 237.472 605.522 247.344 606.187 256.76C606.537 261.94 608.322 267.296 612.278 270.657C616.234 274.017 622.674 274.717 626.525 271.217C626.455 269.571 624.215 268.451 622.884 269.466L624.985 273.737Z" fill="#E5F6FF"/>
<path d="M638.147 520.974C647.808 513.238 655.649 503.227 660.9 491.991C661.74 490.17 662.545 488.28 662.545 486.285C662.58 482.434 659.745 479.039 656.489 477.009C648.508 471.968 637.377 473.088 629.921 478.899C622.465 484.71 618.684 494.581 619.349 503.997C619.699 509.178 621.485 514.533 625.44 517.894C629.396 521.254 635.836 521.954 639.687 518.454C639.617 516.809 637.377 515.689 636.047 516.669L638.147 520.974Z" fill="#E5F6FF"/>
<path d="M627.226 235.617C632.302 235.512 637.237 232.606 639.757 228.196C637.132 223.855 632.722 220.285 627.681 220.04C622.64 219.795 617.355 223.89 617.53 228.931C617.705 234.007 624.846 237.577 628.416 233.937L627.226 235.617Z" fill="#E5F6FF"/>
<path d="M656.104 200.507C658.065 201.838 660.655 202.153 662.86 201.383C662.58 200.367 662.3 199.317 661.67 198.477C661.04 197.637 659.92 197.077 658.905 197.357C657.505 197.742 657.014 199.422 656.734 200.857C656.524 200.542 656.279 200.192 656.069 199.877L656.104 200.507Z" fill="#E5F6FF"/>
<path d="M651.728 208.733C651.343 209.328 650.783 209.853 650.153 210.133C649.698 208.348 650.853 206.598 652.043 205.198C652.708 204.428 653.654 203.553 654.599 203.903C655.264 204.148 655.649 204.848 656.174 205.303C657.259 206.213 659.324 206.318 659.464 207.753C659.534 208.558 658.834 209.258 658.064 209.468C657.294 209.678 656.454 209.468 655.684 209.293C653.969 208.908 652.253 208.488 650.538 208.103L651.728 208.733Z" fill="#E5F6FF"/>
<path opacity="0.5" d="M717.047 108.901C718.482 108.586 718.202 106.135 716.837 105.54C715.472 104.945 713.932 105.575 712.566 106.205C713.161 108.166 715.052 109.636 717.082 109.776L717.047 108.901Z" fill="#E5F6FF"/>
<path d="M676.477 75.0165C675.777 75.0865 675.182 74.3864 675.147 73.6864C675.112 72.9863 675.532 72.3562 676.022 71.8661C676.302 71.5861 676.652 71.3411 677.072 71.236C677.982 70.991 679.032 71.7261 679.137 72.6712C679.277 73.6164 678.507 74.5615 677.562 74.7015C676.617 74.8415 675.672 74.1414 675.427 73.2313L676.477 75.0165Z" fill="#E5F6FF"/>
<path d="M650.399 179.155C649.979 180.59 651.694 182.095 653.059 181.5C653.234 180.765 653.304 179.925 652.989 179.225C652.674 178.525 651.904 178 651.134 178.14C650.364 178.315 649.909 179.33 650.434 179.925L650.399 179.155Z" fill="#E5F6FF"/>
<path d="M645.252 211.989C646.337 213.389 648.088 214.264 649.873 214.264C649.733 212.829 649.628 211.359 649.488 209.924C649.418 209.224 649.348 208.524 648.963 207.964C648.193 206.878 646.337 206.948 645.462 207.964C644.587 208.979 644.587 210.554 645.287 211.709L645.252 211.989Z" fill="#E5F6FF"/>
<path opacity="0.5" d="M676.336 95.3544C676.336 94.8644 676.301 94.3743 676.301 93.8842C675.566 93.5342 674.586 93.7442 674.131 94.4093C673.676 95.0744 673.886 96.1245 674.621 96.5096C675.356 96.8946 676.371 96.3346 676.406 95.5295L676.336 95.3544Z" fill="#E5F6FF"/>
<path d="M650.714 189.866C649.909 189.341 648.858 190.287 648.718 191.232C648.578 192.177 648.963 193.157 648.963 194.102C648.928 195.082 648.438 196.062 647.668 196.692C647.213 197.042 646.583 197.287 646.058 197.077C645.708 196.937 645.463 196.587 645.218 196.272C644.133 194.732 643.188 192.982 643.083 191.057C642.978 189.166 643.853 187.101 645.568 186.296C646.758 185.736 648.263 185.911 649.313 186.681C650.364 187.451 650.994 188.851 650.819 190.146L650.714 189.866Z" fill="#E5F6FF"/>
<path d="M668.181 208.699C668.986 209.609 670.526 209.539 671.401 208.699C672.276 207.858 672.486 206.528 672.136 205.373C671.996 204.883 671.611 204.323 671.086 204.358C670.736 204.393 670.491 204.743 670.281 205.023C669.441 206.248 668.601 207.438 667.761 208.664L668.181 208.699Z" fill="#E5F6FF"/>
<path d="M694.084 158.537C691.774 157.767 690.864 154.372 692.509 152.517C694.189 153.392 695.974 154.337 696.919 155.982C697.864 157.627 697.444 160.183 695.624 160.778C694.609 160.358 693.559 159.973 692.544 159.553L694.084 158.537Z" fill="#E5F6FF"/>
<path d="M584.66 313.923C584.485 314.448 583.75 314.588 583.26 314.343C582.77 314.098 582.49 313.573 582.28 313.047C582.105 312.627 581.965 312.172 582 311.752C582.07 310.877 582.91 310.142 583.785 310.072C584.66 310.002 585.57 310.492 586.025 311.227C586.27 311.577 586.41 312.032 586.305 312.452C586.2 312.872 585.78 313.222 585.36 313.117L584.66 313.923Z" fill="#E5F6FF"/>
<path d="M662.93 174.079C663.455 174.079 663.945 174.044 664.47 174.044C664.54 173.239 664.61 172.364 664.12 171.734C663.63 171.104 662.405 171.069 662.195 171.839C662.125 172.119 662.195 172.434 662.3 172.714C662.58 173.624 662.86 174.534 663.14 175.444L662.93 174.079Z" fill="#E5F6FF"/>
<path d="M673.606 148.806C674.831 148.456 676.091 148.106 677.072 147.336C678.052 146.531 678.717 145.201 678.297 144.011C678.087 143.415 677.667 142.925 677.141 142.575C675.531 141.56 673.151 142.155 672.206 143.8C671.261 145.446 671.996 147.826 673.711 148.666L673.606 148.806Z" fill="#E5F6FF"/>
<path d="M686.348 144.92C686.908 144.29 687.468 143.625 688.063 142.995C687.678 142.47 687.188 141.98 686.628 141.665C685.508 142.225 685.018 143.835 685.683 144.92H686.348Z" fill="#E5F6FF"/>
<path d="M707.806 223.75C710.011 219.305 711.201 214.369 711.201 209.399C711.201 208.593 711.166 207.788 710.851 207.053C710.221 205.653 708.611 204.883 707.105 204.708C703.36 204.218 699.509 206.493 697.759 209.854C696.044 213.214 696.324 217.45 698.144 220.74C699.159 222.56 700.7 224.205 702.695 224.766C704.69 225.326 707.14 224.486 707.981 222.595C707.666 222 706.685 222 706.37 222.56L707.806 223.75Z" fill="#E5F6FF"/>
<path d="M607.343 203.518C609.688 203.413 611.964 202.118 613.294 200.158C612.454 199.493 611.614 198.828 610.598 198.548C609.583 198.268 608.358 198.478 607.728 199.318C606.853 200.473 607.448 202.118 608.078 203.413C607.693 203.273 607.343 203.168 606.958 203.028L607.343 203.518Z" fill="#E5F6FF"/>
<path d="M610.668 186.821C611.228 186.506 611.858 186.121 612.103 185.526C612.348 184.931 612.208 184.266 612.068 183.636C611.718 181.921 611.508 180.17 611.473 178.455C609.653 180.73 607.833 182.971 606.013 185.246C605.873 185.421 605.733 185.596 605.523 185.736C604.822 186.121 604.017 185.386 603.212 185.316C602.022 185.211 601.252 186.471 600.902 187.626C598.522 195.642 607.518 188.571 610.668 186.821Z" fill="#E5F6FF"/>
<path d="M605.487 219.235C607.202 219.725 609.128 219.34 610.563 218.29C609.583 217.205 608.603 216.119 607.658 215.034C607.202 214.509 606.712 213.984 606.047 213.774C604.752 213.354 603.352 214.509 603.247 215.874C603.142 217.205 604.122 218.465 605.347 218.99L605.487 219.235Z" fill="#E5F6FF"/>
<path d="M621.905 202.852C623.095 203.097 624.285 202.117 624.495 200.927C624.705 199.737 624.04 198.512 623.095 197.812C622.675 197.497 622.045 197.287 621.66 197.637C621.415 197.882 621.38 198.302 621.415 198.652C621.45 200.122 621.52 201.592 621.555 203.097L621.905 202.852Z" fill="#E5F6FF"/>
<path d="M634.716 219.305C635.942 218.955 637.202 218.605 638.182 217.835C639.162 217.03 639.827 215.7 639.407 214.51C639.197 213.914 638.777 213.424 638.252 213.074C636.642 212.059 634.261 212.654 633.316 214.3C632.371 215.945 633.106 218.325 634.821 219.165L634.716 219.305Z" fill="#E5F6FF"/>
<path d="M686.453 181.92C686.663 180.66 685.403 179.68 684.283 179.05C683.162 178.455 681.832 177.685 681.727 176.389C681.692 176.039 681.797 175.654 682.077 175.444C682.777 174.884 683.687 175.759 684.528 176.109C685.193 176.424 685.928 176.389 686.628 176.529C688.308 176.879 689.708 178.35 689.918 180.03C689.603 180.905 688.763 181.535 687.853 181.605C686.943 181.675 685.998 181.15 685.578 180.345L686.453 181.92Z" fill="#E5F6FF"/>
<path d="M682.708 150.451C682.918 149.191 681.658 148.211 680.537 147.581C679.417 146.986 678.087 146.216 677.982 144.921C677.947 144.571 678.052 144.186 678.332 143.976C679.032 143.415 679.942 144.291 680.782 144.641C681.448 144.956 682.183 144.921 682.883 145.061C684.563 145.411 685.963 146.881 686.173 148.561C685.858 149.436 685.018 150.066 684.108 150.136C683.198 150.206 682.253 149.681 681.833 148.876L682.708 150.451Z" fill="#E5F6FF"/>
<path d="M698.565 132.914C699.37 132.249 700 131.374 700.385 130.429C700.455 130.289 700.525 130.114 700.525 129.939C700.525 129.624 700.28 129.344 700 129.169C699.3 128.784 698.39 128.889 697.76 129.414C697.165 129.939 696.85 130.779 696.955 131.549C696.99 131.969 697.165 132.424 697.515 132.704C697.865 132.984 698.39 133.019 698.705 132.704C698.705 132.564 698.495 132.494 698.39 132.564L698.565 132.914Z" fill="#E5F6FF"/>
<path d="M610.283 255.15C612.629 255.045 614.904 253.75 616.234 251.79C615.394 251.125 614.554 250.46 613.539 250.18C612.524 249.899 611.299 250.075 610.669 250.95C609.793 252.105 610.388 253.75 611.019 255.045C610.634 254.905 610.248 254.8 609.898 254.66L610.283 255.15Z" fill="#E5F6FF"/>
<path d="M592.886 241.463C593.411 242.863 595.686 243.038 596.421 241.743C596.106 241.043 595.651 240.343 594.986 239.993C594.321 239.608 593.376 239.643 592.851 240.238C592.361 240.833 592.606 241.918 593.341 242.093L592.886 241.463Z" fill="#E5F6FF"/>
<path d="M626.876 221.615C627.401 223.016 629.676 223.191 630.411 221.895C630.096 221.195 629.641 220.495 628.976 220.145C628.311 219.76 627.366 219.795 626.841 220.39C626.351 220.985 626.596 222.07 627.331 222.245L626.876 221.615Z" fill="#E5F6FF"/>
<path d="M599.572 249.864C598.626 249.934 598.346 251.334 598.801 252.174C599.256 253.014 600.132 253.539 600.692 254.344C601.252 255.149 601.462 256.235 601.217 257.18C601.077 257.74 600.727 258.3 600.167 258.44C599.782 258.545 599.396 258.44 599.046 258.3C597.226 257.705 595.441 256.865 594.216 255.43C592.991 253.994 592.466 251.789 593.376 250.144C594.006 248.989 595.301 248.219 596.631 248.184C597.961 248.184 599.256 248.919 599.922 250.074L599.572 249.864Z" fill="#E5F6FF"/>
<path d="M679.242 171.069C678.297 171.139 678.017 172.539 678.472 173.379C678.927 174.219 679.803 174.745 680.363 175.55C680.923 176.355 681.133 177.44 680.888 178.385C680.748 178.945 680.398 179.505 679.838 179.645C679.452 179.75 679.067 179.645 678.717 179.505C676.897 178.91 675.112 178.07 673.887 176.635C672.662 175.2 672.137 172.994 673.047 171.349C673.677 170.194 674.972 169.424 676.302 169.389C677.632 169.354 678.927 170.124 679.593 171.279L679.242 171.069Z" fill="#E5F6FF"/>
<path d="M689.323 178.49C688.378 178.56 688.098 179.96 688.553 180.8C689.008 181.64 689.884 182.165 690.444 182.97C691.004 183.775 691.214 184.861 690.969 185.806C690.829 186.366 690.479 186.926 689.919 187.066C689.534 187.171 689.148 187.066 688.798 186.926C686.978 186.331 685.193 185.491 683.968 184.056C682.743 182.62 682.218 180.415 683.128 178.77C683.758 177.615 685.053 176.845 686.383 176.81C687.713 176.81 689.008 177.545 689.674 178.7L689.323 178.49Z" fill="#E5F6FF"/>
<path d="M674.936 191.266C673.991 191.336 673.711 192.736 674.166 193.576C674.621 194.417 675.496 194.942 676.056 195.747C676.616 196.552 676.826 197.637 676.581 198.582C676.441 199.142 676.091 199.702 675.531 199.842C675.146 199.947 674.761 199.842 674.411 199.702C672.59 199.107 670.805 198.267 669.58 196.832C668.355 195.397 667.83 193.191 668.74 191.546C669.37 190.391 670.665 189.621 671.995 189.586C673.326 189.586 674.621 190.321 675.286 191.476L674.936 191.266Z" fill="#E5F6FF"/>
<path d="M608.008 74.316C607.063 74.386 606.783 75.7861 607.238 76.6263C607.693 77.4664 608.568 77.9914 609.128 78.7965C609.688 79.6016 609.898 80.6868 609.653 81.6319C609.513 82.192 609.163 82.752 608.603 82.8921C608.218 82.9971 607.833 82.8921 607.483 82.752C605.663 82.157 603.878 81.3169 602.652 79.8817C601.427 78.4465 600.902 76.2412 601.812 74.596C602.442 73.4408 603.737 72.6707 605.068 72.6357C606.398 72.6357 607.693 73.3708 608.358 74.526L608.008 74.316Z" fill="#E5F6FF"/>
<path d="M599.887 229.876C600.307 229.561 600.693 229.246 601.113 228.931C600.693 228.266 600.237 227.531 599.467 227.286C598.697 227.076 597.717 227.776 597.997 228.511C598.102 228.791 598.347 228.966 598.592 229.141C599.362 229.701 600.132 230.261 600.902 230.856L599.887 229.876Z" fill="#E5F6FF"/>
<path d="M629.606 133.054C630.831 132.704 632.091 132.354 633.072 131.584C634.052 130.779 634.717 129.449 634.297 128.259C634.087 127.663 633.667 127.173 633.142 126.823C631.531 125.808 629.151 126.403 628.206 128.049C627.261 129.694 627.996 132.074 629.711 132.914L629.606 133.054Z" fill="#E5F6FF"/>
<path d="M637.867 238.557C636.852 240.063 634.087 239.642 633.562 237.927C633.877 236.982 634.367 236.107 635.067 235.337C636.047 235.827 636.852 236.702 637.237 237.717L637.867 238.557Z" fill="#E5F6FF"/>
<path opacity="0.5" d="M644.412 126.788C645.077 126.473 645.743 126.123 646.198 125.598C646.653 125.038 646.898 124.233 646.513 123.603C645.918 122.552 644.342 122.762 643.362 122.097C642.347 121.432 641.962 119.962 640.807 119.682C639.652 119.402 638.602 120.662 638.637 121.852C638.672 123.043 639.442 124.058 640.212 124.933C640.912 125.738 641.682 126.508 642.697 126.823C643.712 127.138 644.972 126.788 645.427 125.843L644.412 126.788Z" fill="#E5F6FF"/>
<path d="M659.745 190.076C663.875 193.051 669.581 193.646 674.236 191.651C674.726 186.61 673.361 181.08 669.441 177.859C665.555 174.639 658.869 174.744 655.964 178.909C653.059 183.075 656.664 190.216 661.67 189.446L659.745 190.076Z" fill="#E5F6FF"/>
<path d="M646.932 245.943C646.337 245.593 646.267 244.683 646.652 244.088C647.037 243.528 647.773 243.248 648.438 243.142C648.858 243.107 649.278 243.107 649.663 243.248C650.538 243.598 650.923 244.788 650.468 245.628C650.013 246.468 648.823 246.783 648.018 246.293C647.177 245.838 646.827 244.718 647.177 243.843L646.932 245.943Z" fill="#E5F6FF"/>
<path d="M652.849 218.745C652.604 217.485 651.099 216.96 649.839 216.785C648.578 216.575 647.073 216.295 646.548 215.139C646.408 214.824 646.373 214.439 646.548 214.124C647.003 213.354 648.158 213.879 649.069 213.949C649.769 214.019 650.469 213.739 651.204 213.634C652.919 213.389 654.704 214.334 655.474 215.84C655.474 216.75 654.879 217.66 654.039 218.01C653.199 218.36 652.149 218.185 651.484 217.555L652.849 218.745Z" fill="#E5F6FF"/>
<path d="M646.058 178.525C646.338 178.14 646.618 177.72 646.898 177.335C646.513 176.635 645.603 176.215 644.833 176.46C644.063 176.705 643.608 177.685 643.958 178.42C644.308 179.155 645.463 179.33 645.988 178.7L646.058 178.525Z" fill="#E5F6FF"/>
<path d="M641.122 206.213C640.667 206.528 640.002 206.213 639.757 205.723C639.512 205.233 639.582 204.638 639.722 204.113C639.827 203.693 640.002 203.238 640.282 202.888C640.877 202.223 641.962 202.118 642.732 202.608C643.502 203.063 643.887 204.008 643.817 204.883C643.782 205.303 643.642 205.758 643.292 206.038C642.942 206.318 642.417 206.353 642.102 206.003L641.122 206.213Z" fill="#E5F6FF"/>
<path d="M601.882 190.041C603.072 194.977 606.958 199.177 611.824 200.717C615.499 197.217 618.054 192.176 617.214 187.171C616.374 182.165 611.263 177.894 606.328 179.155C601.427 180.415 599.467 188.151 603.738 190.846L601.882 190.041Z" fill="#E5F6FF"/>
<path d="M607.588 229.386C609.023 229.071 608.743 226.621 607.378 226.026C606.013 225.431 604.473 226.061 603.107 226.691C603.702 228.651 605.593 230.121 607.623 230.261L607.588 229.386Z" fill="#E5F6FF"/>
<path d="M660.97 237.087C661.25 236.702 661.53 236.282 661.81 235.897C661.425 235.197 660.515 234.776 659.745 235.022C658.975 235.267 658.52 236.247 658.87 236.982C659.22 237.717 660.375 237.892 660.9 237.262L660.97 237.087Z" fill="#E5F6FF"/>
<path d="M641.926 218.045C646.232 214.825 649.732 210.554 652.148 205.759C652.533 204.988 652.918 204.183 652.953 203.308C653.023 201.628 651.833 200.123 650.433 199.213C647.037 196.937 642.207 197.252 638.881 199.703C635.591 202.118 633.805 206.354 633.981 210.449C634.086 212.689 634.786 215.035 636.431 216.54C638.111 218.045 640.876 218.43 642.592 216.96C642.592 216.225 641.611 215.735 641.016 216.155L641.926 218.045Z" fill="#E5F6FF"/>
<path d="M592.606 144.43C597.681 144.325 602.617 141.42 605.137 137.009C602.512 132.669 598.101 129.098 593.061 128.853C588.02 128.608 582.734 132.704 582.91 137.744C583.085 142.82 590.225 146.39 593.796 142.75L592.606 144.43Z" fill="#E5F6FF"/>
<path d="M687.889 134.42C690.234 134.315 692.51 133.02 693.84 131.059C693 130.394 692.159 129.729 691.144 129.449C690.129 129.169 688.904 129.344 688.274 130.219C687.399 131.374 687.994 133.02 688.624 134.315C688.239 134.175 687.889 134.07 687.504 133.93L687.889 134.42Z" fill="#E5F6FF"/>
<path d="M691.213 117.722C691.773 117.407 692.404 117.021 692.649 116.426C692.894 115.831 692.754 115.166 692.614 114.536C692.264 112.821 692.054 111.071 692.019 109.355C690.198 111.631 688.378 113.871 686.558 116.146C686.418 116.321 686.278 116.496 686.068 116.636C685.368 117.021 684.563 116.286 683.758 116.216C682.567 116.111 681.797 117.372 681.447 118.527C679.102 126.543 688.063 119.472 691.213 117.722Z" fill="#E5F6FF"/>
<path d="M657.434 215.174C657.994 214.544 658.554 213.914 659.149 213.249C657.819 212.199 655.789 211.814 654.424 212.794C653.059 213.809 653.129 216.4 654.739 216.925C655.754 217.24 657.434 217.345 657.119 218.36L657.434 215.174Z" fill="#E5F6FF"/>
<path d="M660.269 141.945C659.884 142.575 659.324 143.065 658.694 143.345C658.239 141.56 659.394 139.81 660.584 138.41C661.25 137.64 662.195 136.765 663.14 137.115C663.805 137.36 664.19 138.06 664.715 138.515C665.8 139.425 667.865 139.53 668.005 140.965C668.075 141.77 667.375 142.47 666.605 142.68C665.835 142.89 664.995 142.68 664.225 142.505C662.51 142.12 660.794 141.7 659.079 141.315L660.269 141.945Z" fill="#E5F6FF"/>
<path d="M636.852 126.823C638.287 126.508 638.007 124.057 636.642 123.462C635.276 122.867 633.736 123.497 632.371 124.127C632.966 126.088 634.856 127.558 636.887 127.698L636.852 126.823Z" fill="#E5F6FF"/>
<path opacity="0.5" d="M665.276 112.926C664.575 112.996 663.98 112.296 663.945 111.596C663.91 110.895 664.33 110.265 664.821 109.775C665.101 109.495 665.451 109.25 665.871 109.145C666.781 108.9 667.831 109.635 667.936 110.58C668.076 111.526 667.306 112.471 666.361 112.611C665.416 112.751 664.47 112.051 664.225 111.14L665.276 112.926Z" fill="#E5F6FF"/>
<path d="M670.491 120.733C671.016 122.133 673.291 122.308 674.027 121.013C673.712 120.312 673.256 119.612 672.591 119.262C671.926 118.877 670.981 118.912 670.456 119.507C669.966 120.102 670.211 121.188 670.946 121.363L670.491 120.733Z" fill="#E5F6FF"/>
<path d="M686.068 150.136C687.784 150.626 689.709 150.241 691.144 149.191C690.164 148.106 689.184 147.021 688.239 145.936C687.784 145.411 687.293 144.885 686.628 144.675C685.333 144.255 683.933 145.411 683.828 146.776C683.723 148.106 684.703 149.366 685.928 149.891L686.068 150.136Z" fill="#E5F6FF"/>
<path opacity="0.5" d="M644.692 110.196C643.677 110.266 642.627 109.636 642.172 108.726C641.717 107.816 641.857 106.625 642.557 105.855C643.012 105.33 643.922 105.015 644.377 105.575C644.552 105.785 644.622 106.1 644.657 106.415C644.832 107.711 645.008 109.006 645.183 110.266C644.973 110.266 644.727 110.266 644.517 110.266L644.692 110.196Z" fill="#E5F6FF"/>
<path opacity="0.5" d="M634.962 92.4484C635.172 91.1883 633.911 90.2081 632.791 89.5781C631.671 88.983 630.341 88.2129 630.236 86.9177C630.201 86.5677 630.306 86.1826 630.586 85.9726C631.286 85.4125 632.196 86.2876 633.036 86.6377C633.701 86.9527 634.437 86.9177 635.137 87.0577C636.817 87.4078 638.217 88.878 638.427 90.5582C638.112 91.4333 637.272 92.0634 636.362 92.1334C635.452 92.2034 634.507 91.6783 634.087 90.8732L634.962 92.4484Z" fill="#E5F6FF"/>
<path opacity="0.5" d="M694.468 192.317C694.678 191.056 693.418 190.076 692.298 189.446C691.178 188.851 689.848 188.081 689.743 186.786C689.708 186.436 689.813 186.051 690.093 185.841C690.793 185.281 691.703 186.156 692.543 186.506C693.208 186.821 693.943 186.786 694.643 186.926C696.324 187.276 697.724 188.746 697.934 190.426C697.619 191.301 696.779 191.932 695.869 192.002C694.958 192.072 694.013 191.546 693.593 190.741L694.468 192.317Z" fill="#E5F6FF"/>
<path opacity="0.5" d="M646.303 86.4976C646.688 86.2176 647.108 85.9376 647.493 85.6575C647.353 84.8524 646.653 84.1523 645.848 84.1523C645.043 84.1523 644.273 84.9224 644.378 85.7275C644.483 86.5326 645.498 87.0927 646.198 86.6727L646.303 86.4976Z" fill="#E5F6FF"/>
<path d="M677.177 129.133C676.232 129.203 675.952 130.604 676.407 131.444C676.862 132.284 677.737 132.809 678.297 133.614C678.857 134.419 679.067 135.504 678.822 136.449C678.682 137.009 678.332 137.569 677.772 137.709C677.387 137.814 677.002 137.709 676.652 137.569C674.832 136.974 673.046 136.134 671.821 134.699C670.596 133.264 670.071 131.059 670.981 129.413C671.611 128.258 672.906 127.488 674.237 127.453C675.567 127.453 676.862 128.188 677.527 129.343L677.177 129.133Z" fill="#E5F6FF"/>
<path d="M702.45 133.754C703.64 133.999 704.83 133.019 705.04 131.828C705.25 130.638 704.585 129.413 703.64 128.713C703.22 128.398 702.59 128.188 702.205 128.538C701.96 128.783 701.925 129.203 701.96 129.553C701.995 131.023 702.065 132.494 702.1 133.999L702.45 133.754Z" fill="#E5F6FF"/>
<path d="M637.656 147.686C635.346 146.916 634.436 143.52 636.081 141.665C637.761 142.54 639.547 143.485 640.492 145.13C641.437 146.776 641.017 149.331 639.196 149.926C638.181 149.506 637.131 149.121 636.116 148.701L637.656 147.686Z" fill="#E5F6FF"/>
<path opacity="0.5" d="M677.527 109.181C677.947 108.866 678.332 108.551 678.752 108.236C678.332 107.571 677.877 106.836 677.107 106.591C676.337 106.381 675.357 107.081 675.637 107.816C675.742 108.096 675.987 108.271 676.232 108.446C677.002 109.006 677.772 109.566 678.542 110.161L677.527 109.181Z" fill="#E5F6FF"/>
<path d="M626.525 234.916C627.75 234.566 629.01 234.216 629.99 233.446C630.971 232.641 631.636 231.311 631.216 230.121C631.006 229.526 630.586 229.036 630.06 228.686C628.45 227.671 626.07 228.266 625.125 229.911C624.18 231.556 624.915 233.936 626.63 234.776L626.525 234.916Z" fill="#E5F6FF"/>
<path d="M606.188 162.842C606.748 162.212 607.308 161.547 607.903 160.917C607.518 160.392 607.028 159.902 606.468 159.587C605.348 160.147 604.858 161.757 605.523 162.842H606.188Z" fill="#E5F6FF"/>
<path d="M585.745 287.493C585.045 287.563 584.45 286.863 584.415 286.163C584.38 285.463 584.8 284.833 585.29 284.343C585.57 284.063 585.92 283.818 586.34 283.713C587.251 283.468 588.301 284.203 588.406 285.148C588.546 286.093 587.776 287.038 586.83 287.178C585.885 287.318 584.94 286.618 584.695 285.708L585.745 287.493Z" fill="#E5F6FF"/>
<path d="M626.946 158.432C627.506 157.802 628.066 157.137 628.661 156.507C628.276 155.982 627.786 155.492 627.226 155.177C626.106 155.737 625.616 157.347 626.281 158.432H626.946Z" fill="#E5F6FF"/>
<path d="M681.447 203.063C682.392 203.273 683.057 202.048 682.847 201.103C682.637 200.158 681.972 199.388 681.657 198.478C681.342 197.533 681.482 196.447 682.007 195.607C682.322 195.117 682.812 194.662 683.372 194.697C683.758 194.732 684.108 194.942 684.423 195.152C685.963 196.237 687.433 197.568 688.203 199.318C688.938 201.068 688.798 203.308 687.468 204.638C686.523 205.549 685.053 205.934 683.793 205.549C682.532 205.164 681.482 204.078 681.202 202.783L681.447 203.063Z" fill="#E5F6FF"/>
<path d="M630.935 211.289C630.235 211.394 629.465 211.534 628.87 211.919C628.275 212.304 627.82 213.039 627.96 213.739C628.205 214.895 629.78 215.175 630.55 216.12C631.32 217.03 631.25 218.57 632.301 219.2C633.316 219.795 634.716 218.92 635.031 217.765C635.346 216.61 634.926 215.42 634.436 214.334C634.016 213.389 633.491 212.409 632.616 211.814C631.741 211.219 630.41 211.184 629.71 211.954L630.935 211.289Z" fill="#E5F6FF"/>
<path d="M667.446 169.564C664.925 173.134 663.21 177.3 662.545 181.605C662.44 182.305 662.335 183.04 662.545 183.705C662.895 185.035 664.19 185.876 665.486 186.261C668.706 187.206 672.346 185.736 674.307 183.04C676.267 180.345 676.617 176.634 675.462 173.484C674.832 171.769 673.712 170.124 672.031 169.353C670.351 168.583 668.111 168.968 667.131 170.544C667.306 171.104 668.181 171.244 668.531 170.789L667.446 169.564Z" fill="#E5F6FF"/>
<path d="M686.243 195.152C686.803 195.502 687.433 195.852 688.098 195.782C688.728 195.712 689.253 195.257 689.708 194.837C691.004 193.682 692.439 192.632 693.909 191.757C691.039 191.301 688.168 190.846 685.298 190.391C685.053 190.356 684.843 190.321 684.633 190.181C683.933 189.761 684.178 188.711 683.828 187.976C683.338 186.926 681.832 186.856 680.677 187.101C672.521 189.026 683.128 193.297 686.243 195.152Z" fill="#E5F6FF"/>
<path d="M668.461 169.878C668.881 169.633 669.301 169.353 669.721 169.108C669.651 168.303 668.986 167.568 668.181 167.498C667.376 167.428 666.571 168.128 666.606 168.933C666.641 169.738 667.621 170.368 668.356 169.983L668.461 169.878Z" fill="#E5F6FF"/>
<path d="M688.973 181.571C689.323 182.726 690.793 183.286 691.913 182.866C693.033 182.446 693.768 181.291 693.908 180.101C693.978 179.575 693.838 178.91 693.348 178.77C692.998 178.665 692.648 178.875 692.333 179.05C691.073 179.82 689.813 180.591 688.553 181.396L688.973 181.571Z" fill="#E5F6FF"/>
<path d="M677.352 170.719C678.612 172.714 680.852 174.044 683.197 174.219C683.372 173.169 683.512 172.084 683.267 171.069C683.022 170.054 682.217 169.074 681.167 168.934C679.732 168.759 678.612 170.089 677.807 171.279C677.737 170.894 677.667 170.509 677.597 170.089L677.352 170.719Z" fill="#E5F6FF"/>
<path d="M674.166 160.533C673.466 160.533 672.731 160.288 672.171 159.833C673.501 158.537 675.601 158.677 677.387 158.992C678.402 159.168 679.592 159.553 679.802 160.568C679.942 161.268 679.487 161.933 679.382 162.633C679.137 164.033 680.047 165.853 678.892 166.693C678.227 167.184 677.282 166.904 676.687 166.308C676.126 165.713 675.881 164.908 675.636 164.138C675.111 162.458 674.621 160.778 674.096 159.063L674.166 160.533Z" fill="#E5F6FF"/>
<path d="M679.872 186.995C680.292 188.711 681.587 190.216 683.197 190.916C683.653 189.551 684.108 188.151 684.563 186.75C684.773 186.085 684.983 185.42 684.843 184.755C684.563 183.425 682.847 182.795 681.622 183.355C680.397 183.915 679.802 185.42 679.977 186.75L679.872 186.995Z" fill="#E5F6FF"/>
<path d="M693.664 168.863C693.139 168.058 691.774 168.513 691.284 169.353C690.794 170.193 690.759 171.208 690.339 172.084C689.919 172.994 689.079 173.694 688.134 173.939C687.574 174.079 686.908 174.079 686.523 173.659C686.243 173.379 686.138 172.994 686.068 172.609C685.683 170.753 685.508 168.758 686.173 166.973C686.803 165.188 688.449 163.648 690.339 163.613C691.669 163.578 692.964 164.313 693.629 165.468C694.294 166.623 694.294 168.093 693.629 169.248L693.664 168.863Z" fill="#E5F6FF"/>
<path d="M634.052 186.576C634.962 187.451 635.872 188.396 637.062 188.851C638.252 189.306 639.722 189.201 640.563 188.256C640.983 187.801 641.193 187.171 641.228 186.541C641.333 184.65 639.617 182.865 637.727 182.865C635.837 182.865 634.157 184.685 634.262 186.576H634.052Z" fill="#E5F6FF"/>
<path d="M651.099 209.014C652.359 211.009 654.599 212.339 656.944 212.514C657.119 211.464 657.259 210.379 657.014 209.364C656.769 208.349 655.964 207.369 654.914 207.228C653.479 207.053 652.359 208.384 651.554 209.574C651.484 209.189 651.414 208.804 651.344 208.384L651.099 209.014Z" fill="#E5F6FF"/>
<path d="M674.762 156.087C675.042 154.827 673.886 153.777 672.801 153.077C671.716 152.377 670.456 151.537 670.456 150.242C670.456 149.892 670.561 149.507 670.876 149.332C671.611 148.806 672.451 149.752 673.256 150.172C673.887 150.522 674.657 150.522 675.322 150.732C676.967 151.187 678.262 152.762 678.367 154.477C678.017 155.317 677.107 155.912 676.197 155.912C675.287 155.912 674.377 155.317 674.026 154.477L674.762 156.087Z" fill="#E5F6FF"/>
<path d="M596.667 216.399C596.842 215.944 597.052 215.489 597.227 215.034C596.702 214.439 595.721 214.229 595.021 214.649C594.321 215.069 594.111 216.119 594.636 216.749C595.161 217.379 596.317 217.274 596.667 216.574V216.399Z" fill="#E5F6FF"/>
<path d="M667.866 187.451C668.356 187.626 668.811 187.836 669.301 188.011C669.686 187.311 670.071 186.54 669.896 185.77C669.721 185 668.601 184.475 668.111 185.105C667.936 185.35 667.866 185.665 667.866 185.945C667.761 186.89 667.656 187.836 667.551 188.781L667.866 187.451Z" fill="#E5F6FF"/>
<path d="M398.331 556.188C391.715 550.938 383.874 547.227 375.613 545.442C374.282 545.162 372.882 544.917 371.552 545.197C368.962 545.757 367.177 548.137 366.301 550.623C364.166 556.713 366.581 563.924 371.552 567.985C376.558 572.08 383.664 573.095 389.859 571.205C393.255 570.19 396.545 568.195 398.191 565.044C399.836 561.894 399.311 557.518 396.405 555.488C395.32 555.768 394.935 557.448 395.775 558.184L398.331 556.188Z" fill="white"/>
<path d="M372.638 560.459C371.798 557.099 369.137 554.263 365.812 553.248C363.327 555.663 361.611 559.129 362.206 562.524C362.801 565.92 366.337 568.825 369.662 567.95C372.988 567.075 374.283 561.789 371.343 559.969L372.638 560.459Z" fill="white"/>
<path d="M344.949 546.562C345.544 545.057 345.369 543.307 344.494 541.941C343.864 542.256 343.199 542.606 342.744 543.167C342.289 543.727 342.079 544.532 342.429 545.162C342.919 546.037 344.109 546.107 345.089 546.072C344.914 546.282 344.704 546.457 344.529 546.667L344.949 546.562Z" fill="white"/>
<path d="M351.11 548.242C351.565 548.382 351.985 548.697 352.265 549.082C351.145 549.642 349.814 549.152 348.694 548.592C348.064 548.277 347.364 547.787 347.434 547.087C347.469 546.597 347.889 546.247 348.134 545.827C348.554 544.952 348.344 543.586 349.254 543.271C349.779 543.096 350.339 543.446 350.619 543.936C350.865 544.426 350.865 544.987 350.865 545.547C350.865 546.737 350.865 547.962 350.865 549.152L351.11 548.242Z" fill="white"/>
<path opacity="0.5" d="M274.835 519.888C274.415 518.978 272.84 519.538 272.63 520.518C272.455 521.498 273.12 522.443 273.715 523.249C274.94 522.548 275.64 521.078 275.395 519.713L274.835 519.888Z" fill="white"/>
<path d="M258.418 551.988C258.558 552.443 258.208 552.933 257.753 553.073C257.298 553.213 256.808 553.038 256.423 552.758C256.178 552.618 255.968 552.408 255.828 552.163C255.547 551.603 255.863 550.798 256.458 550.553C257.053 550.343 257.823 550.693 258.033 551.288C258.278 551.883 257.963 552.653 257.368 552.933L258.418 551.988Z" fill="white"/>
<path d="M331.612 553.597C332.627 553.667 333.362 552.302 332.767 551.462C332.242 551.462 331.682 551.532 331.262 551.847C330.842 552.162 330.597 552.757 330.807 553.247C331.017 553.737 331.787 553.877 332.102 553.457L331.612 553.597Z" fill="white"/>
<path d="M354.225 552.057C354.995 551.112 355.31 549.817 355.03 548.627C354.085 548.942 353.14 549.222 352.195 549.537C351.74 549.677 351.285 549.852 350.97 550.202C350.375 550.867 350.69 552.092 351.495 552.547C352.3 553.003 353.35 552.722 354.015 552.092L354.225 552.057Z" fill="white"/>
<path opacity="0.5" d="M271.964 549.012C271.649 549.082 271.299 549.187 270.984 549.257C270.879 549.782 271.159 550.412 271.684 550.622C272.209 550.832 272.875 550.517 273.015 549.992C273.155 549.467 272.629 548.837 272.104 548.942L271.964 549.012Z" fill="white"/>
<path d="M338.683 551.778C338.473 552.408 339.243 552.968 339.908 552.898C340.574 552.828 341.134 552.443 341.799 552.303C342.464 552.163 343.164 552.338 343.724 552.758C344.039 553.003 344.284 553.388 344.214 553.773C344.179 554.018 344.004 554.263 343.829 554.438C342.954 555.383 341.939 556.293 340.714 556.643C339.453 556.993 337.983 556.713 337.178 555.698C336.618 554.998 336.513 553.983 336.863 553.143C337.213 552.303 338.053 551.708 338.928 551.603L338.683 551.778Z" fill="white"/>
<path d="M348.59 537.32C349.08 536.655 348.8 535.64 348.1 535.185C347.434 534.73 346.489 534.8 345.754 535.185C345.439 535.36 345.124 535.71 345.264 536.025C345.334 536.27 345.614 536.375 345.824 536.48C346.769 536.865 347.679 537.25 348.625 537.6L348.59 537.32Z" fill="white"/>
<path d="M311.309 527.659C311.134 529.304 309.034 530.425 307.564 529.619C307.879 528.359 308.229 527.029 309.209 526.189C310.154 525.314 311.905 525.209 312.605 526.329C312.5 527.064 312.36 527.834 312.255 528.569L311.309 527.659Z" fill="white"/>
<path d="M431.165 576.945C431.55 576.98 431.76 577.435 431.655 577.82C431.55 578.17 431.27 578.45 430.955 578.66C430.71 578.836 430.43 579.011 430.115 579.046C429.52 579.116 428.925 578.695 428.715 578.1C428.54 577.54 428.715 576.875 429.17 576.42C429.38 576.21 429.66 576.035 429.94 576.035C430.22 576.035 430.535 576.28 430.535 576.56L431.165 576.945Z" fill="white"/>
<path d="M326.327 546.037C326.257 545.687 326.152 545.372 326.081 545.021C325.556 545.091 324.961 545.197 324.611 545.582C324.261 546.002 324.436 546.807 324.961 546.842C325.171 546.842 325.346 546.737 325.521 546.632C326.082 546.317 326.642 546.002 327.202 545.652L326.327 546.037Z" fill="white"/>
<path d="M307.914 542.746C307.494 541.976 307.073 541.206 306.408 540.681C305.743 540.156 304.728 539.911 303.993 540.366C303.643 540.576 303.363 540.961 303.223 541.346C302.768 542.571 303.538 544.076 304.763 544.426C305.988 544.811 307.459 543.971 307.774 542.711L307.914 542.746Z" fill="white"/>
<path d="M303.399 534.87C302.874 534.59 302.384 534.31 301.858 534.03C301.543 534.345 301.333 534.765 301.193 535.185C301.753 535.851 302.874 535.92 303.504 535.325L303.399 534.87Z" fill="white"/>
<path d="M352.58 508.687C349.289 507.882 345.824 507.847 342.534 508.582C342.008 508.687 341.448 508.862 341.028 509.177C340.188 509.807 339.943 510.997 340.013 512.047C340.258 514.603 342.359 516.843 344.844 517.473C347.329 518.103 350.095 517.298 352.02 515.583C353.07 514.638 353.945 513.378 354.015 511.942C354.085 510.542 353.175 509.002 351.775 508.757C351.425 509.037 351.565 509.702 351.985 509.842L352.58 508.687Z" fill="white"/>
<path d="M354.33 578.555C353.91 577.015 352.72 575.685 351.215 575.125C350.9 575.79 350.585 576.455 350.55 577.155C350.514 577.89 350.83 578.66 351.495 578.975C352.405 579.396 353.385 578.73 354.155 578.135C354.12 578.415 354.085 578.66 354.05 578.94L354.33 578.555Z" fill="white"/>
<path d="M342.709 578.871C342.394 578.521 342.079 578.171 341.624 578.101C341.203 578.031 340.783 578.206 340.363 578.416C339.278 578.906 338.158 579.291 337.003 579.606C338.788 580.481 340.573 581.356 342.359 582.196C342.499 582.266 342.639 582.336 342.744 582.441C343.094 582.861 342.744 583.491 342.814 584.051C342.919 584.857 343.899 585.172 344.704 585.242C350.41 585.592 344.354 580.691 342.709 578.871Z" fill="white"/>
<path d="M365.041 577.401C365.111 576.176 364.586 574.951 363.641 574.181C363.081 574.986 362.486 575.791 361.926 576.596C361.646 576.981 361.366 577.401 361.331 577.856C361.261 578.766 362.241 579.536 363.151 579.396C364.061 579.256 364.761 578.416 364.901 577.506L365.041 577.401Z" fill="white"/>
<path d="M421.959 594.413C421.643 594.483 421.293 594.588 420.978 594.658C420.873 595.183 421.153 595.813 421.678 596.023C422.204 596.233 422.869 595.918 423.009 595.393C423.149 594.868 422.624 594.238 422.099 594.343L421.959 594.413Z" fill="white"/>
<path d="M351.669 568.965C351.669 568.16 350.829 567.495 349.989 567.53C349.184 567.565 348.449 568.195 348.134 568.93C347.994 569.245 347.924 569.735 348.239 569.91C348.449 570.05 348.729 569.98 348.974 569.91C349.954 569.665 350.934 569.385 351.914 569.14L351.669 568.965Z" fill="white"/>
<path d="M360.666 557.974C360.246 557.204 359.826 556.433 359.161 555.908C358.496 555.383 357.481 555.138 356.746 555.593C356.396 555.803 356.115 556.188 355.975 556.574C355.52 557.799 356.29 559.304 357.516 559.654C358.741 560.039 360.211 559.199 360.526 557.939L360.666 557.974Z" fill="white"/>
<path d="M328.007 529.199C327.131 529.269 326.676 530.249 326.431 531.09C326.186 531.93 325.871 532.91 325.066 533.19C324.821 533.26 324.576 533.26 324.366 533.12C323.876 532.735 324.331 532 324.436 531.405C324.541 530.915 324.401 530.425 324.401 529.934C324.366 528.779 325.136 527.624 326.221 527.204C326.851 527.274 327.411 527.729 327.586 528.324C327.762 528.919 327.551 529.619 327.096 530.039L328.007 529.199Z" fill="white"/>
<path d="M307.634 536.445C306.759 536.515 306.304 537.496 306.059 538.336C305.814 539.176 305.499 540.156 304.694 540.436C304.449 540.506 304.204 540.506 303.994 540.366C303.503 539.981 303.959 539.246 304.064 538.651C304.169 538.161 304.029 537.671 304.029 537.181C303.994 536.025 304.764 534.87 305.849 534.45C306.479 534.52 307.039 534.975 307.214 535.57C307.389 536.165 307.179 536.866 306.724 537.286L307.634 536.445Z" fill="white"/>
<path d="M293.597 528.57C293.037 528.149 292.372 527.869 291.672 527.729C291.567 527.694 291.427 527.694 291.322 527.729C291.112 527.799 290.972 527.974 290.902 528.184C290.727 528.71 290.972 529.305 291.392 529.62C291.812 529.935 292.442 530.005 292.932 529.83C293.212 529.725 293.492 529.55 293.597 529.305C293.737 529.025 293.667 528.675 293.422 528.499C293.317 528.534 293.317 528.675 293.387 528.745L293.597 528.57Z" fill="white"/>
<path d="M388.214 568.79C387.794 567.25 386.604 565.919 385.099 565.359C384.784 566.024 384.469 566.69 384.434 567.39C384.399 568.125 384.714 568.895 385.379 569.21C386.289 569.63 387.269 568.965 388.039 568.37C388.004 568.65 387.969 568.895 387.934 569.175L388.214 568.79Z" fill="white"/>
<path d="M381.739 582.442C382.579 581.882 382.369 580.341 381.389 580.026C380.969 580.341 380.584 580.726 380.444 581.252C380.304 581.742 380.444 582.372 380.934 582.617C381.389 582.862 382.089 582.547 382.089 582.022L381.739 582.442Z" fill="white"/>
<path d="M363.396 562.839C364.237 562.279 364.027 560.739 363.046 560.424C362.626 560.739 362.241 561.124 362.101 561.649C361.961 562.139 362.101 562.769 362.591 563.014C363.046 563.259 363.746 562.944 363.746 562.419L363.396 562.839Z" fill="white"/>
<path d="M386.324 576.7C386.534 577.33 387.479 577.295 387.969 576.875C388.46 576.42 388.67 575.755 389.125 575.265C389.58 574.775 390.245 574.46 390.945 574.495C391.33 574.495 391.785 574.635 391.96 575.02C392.065 575.265 392.065 575.545 392.03 575.79C391.925 577.085 391.61 578.415 390.84 579.43C390.07 580.481 388.705 581.146 387.444 580.796C386.569 580.551 385.869 579.816 385.659 578.94C385.449 578.065 385.764 577.085 386.429 576.49L386.324 576.7Z" fill="white"/>
<path d="M321.881 535.641C322.091 536.271 323.036 536.236 323.526 535.816C324.016 535.361 324.226 534.695 324.681 534.205C325.136 533.715 325.801 533.4 326.502 533.435C326.887 533.435 327.342 533.61 327.517 533.96C327.622 534.205 327.622 534.485 327.587 534.73C327.482 536.026 327.167 537.356 326.397 538.371C325.626 539.421 324.261 540.086 323.001 539.736C322.126 539.491 321.426 538.756 321.216 537.881C321.006 537.006 321.321 536.026 321.986 535.431L321.881 535.641Z" fill="white"/>
<path d="M325.276 527.834C325.486 528.464 326.432 528.429 326.922 528.009C327.412 527.554 327.622 526.889 328.077 526.399C328.532 525.909 329.197 525.594 329.897 525.629C330.282 525.629 330.737 525.804 330.912 526.154C331.017 526.399 331.017 526.679 330.982 526.924C330.877 528.219 330.562 529.549 329.792 530.564C329.022 531.614 327.657 532.279 326.397 531.929C325.521 531.684 324.821 530.949 324.611 530.074C324.401 529.199 324.716 528.219 325.381 527.624L325.276 527.834Z" fill="white"/>
<path d="M335.953 535.466C336.163 536.096 337.108 536.061 337.598 535.641C338.088 535.186 338.298 534.521 338.753 534.031C339.208 533.541 339.873 533.225 340.573 533.26C340.958 533.26 341.413 533.436 341.588 533.786C341.693 534.031 341.693 534.311 341.658 534.556C341.553 535.851 341.238 537.181 340.468 538.196C339.698 539.246 338.333 539.911 337.073 539.561C336.198 539.316 335.498 538.581 335.288 537.706C335.078 536.831 335.393 535.851 336.058 535.256L335.953 535.466Z" fill="white"/>
<path d="M268.289 597.634C268.464 598.264 269.444 598.229 269.934 597.809C270.424 597.354 270.634 596.689 271.089 596.199C271.544 595.708 272.209 595.393 272.909 595.428C273.294 595.428 273.749 595.603 273.924 595.953C274.029 596.199 274.029 596.479 273.994 596.724C273.889 598.019 273.574 599.349 272.804 600.364C272.034 601.414 270.669 602.079 269.409 601.729C268.534 601.484 267.834 600.749 267.624 599.874C267.414 598.999 267.729 598.019 268.394 597.424L268.289 597.634Z" fill="white"/>
<path d="M372.988 579.501C372.708 579.291 372.428 579.046 372.183 578.836C371.798 579.221 371.378 579.641 371.343 580.166C371.308 580.692 371.938 581.252 372.393 580.972C372.568 580.867 372.638 580.657 372.743 580.481C372.988 579.886 373.268 579.291 373.513 578.696L372.988 579.501Z" fill="white"/>
<path d="M304.099 574.391C303.679 573.621 303.259 572.85 302.593 572.325C301.928 571.8 300.913 571.555 300.178 572.01C299.828 572.22 299.548 572.605 299.408 572.991C298.953 574.216 299.723 575.721 300.948 576.071C302.173 576.456 303.644 575.616 303.959 574.356L304.099 574.391Z" fill="white"/>
<path d="M373.023 552.968C374.178 553.423 374.318 555.313 373.268 555.943C372.602 555.873 371.937 555.663 371.342 555.348C371.517 554.613 371.972 553.948 372.602 553.528L373.023 552.968Z" fill="white"/>
<path opacity="0.5" d="M297.693 565.499C297.378 565.114 297.063 564.728 296.608 564.483C296.153 564.238 295.593 564.238 295.208 564.553C294.613 565.114 294.963 566.129 294.683 566.899C294.403 567.669 293.458 568.159 293.458 568.964C293.458 569.769 294.438 570.294 295.243 570.084C296.013 569.874 296.573 569.209 297.063 568.579C297.483 567.984 297.868 567.354 297.938 566.619C297.973 565.884 297.588 565.114 296.853 564.974L297.693 565.499Z" fill="white"/>
<path d="M337.458 545.757C338.823 542.572 338.368 538.686 336.303 535.886C332.872 536.306 329.407 538.056 327.867 541.136C326.327 544.217 327.412 548.627 330.597 549.923C333.783 551.218 338.018 547.752 336.723 544.532L337.458 545.757Z" fill="white"/>
<path d="M376.558 545.827C376.418 546.282 375.823 546.457 375.368 546.282C374.913 546.107 374.633 545.687 374.457 545.231C374.352 544.986 374.317 544.671 374.352 544.426C374.457 543.796 375.193 543.341 375.823 543.516C376.453 543.691 376.838 544.426 376.663 545.057C376.488 545.687 375.788 546.107 375.158 546.002L376.558 545.827Z" fill="white"/>
<path d="M357.55 545.967C356.745 546.317 356.64 547.402 356.675 548.242C356.745 549.117 356.78 550.167 356.08 550.657C355.87 550.797 355.625 550.867 355.415 550.797C354.82 550.587 354.995 549.747 354.925 549.152C354.855 548.662 354.575 548.242 354.4 547.787C353.98 546.702 354.33 545.371 355.24 544.601C355.835 544.461 356.535 544.706 356.885 545.231C357.27 545.721 357.305 546.457 356.99 547.017L357.55 545.967Z" fill="white"/>
<path d="M331.857 556.574C331.542 556.434 331.227 556.328 330.912 556.188C330.492 556.539 330.352 557.204 330.632 557.694C330.912 558.149 331.647 558.324 332.067 557.974C332.487 557.624 332.452 556.819 331.962 556.574H331.857Z" fill="white"/>
<path d="M351.005 555.663C351.285 555.908 351.18 556.433 350.9 556.643C350.62 556.888 350.199 556.923 349.814 556.888C349.499 556.888 349.184 556.853 348.939 556.678C348.414 556.398 348.169 555.663 348.379 555.103C348.589 554.543 349.149 554.123 349.744 554.018C350.024 553.983 350.374 554.018 350.584 554.193C350.83 554.368 350.935 554.753 350.76 554.963L351.005 555.663Z" fill="white"/>
<path d="M346.174 584.227C349.29 582.686 351.495 579.466 351.775 576.001C348.905 574.075 345.124 573.13 341.939 574.46C338.753 575.79 336.688 579.816 338.263 582.896C339.838 585.977 345.299 586.117 346.419 582.826L346.174 584.227Z" fill="white"/>
<path d="M371.482 574.46C371.062 573.55 369.487 574.11 369.277 575.09C369.102 576.071 369.767 577.016 370.362 577.821C371.587 577.121 372.287 575.651 372.042 574.285L371.482 574.46Z" fill="white"/>
<path d="M368.542 537.811C368.227 537.671 367.912 537.566 367.597 537.426C367.177 537.776 367.037 538.441 367.317 538.931C367.597 539.386 368.332 539.561 368.752 539.211C369.172 538.861 369.137 538.056 368.647 537.811H368.542Z" fill="white"/>
<path d="M358.741 553.353C355.94 550.972 352.58 549.292 349.045 548.417C348.484 548.277 347.889 548.172 347.294 548.277C346.174 548.487 345.369 549.502 344.949 550.552C343.934 553.178 344.914 556.328 347.014 558.148C349.115 559.969 352.195 560.529 354.89 559.793C356.36 559.373 357.831 558.568 358.566 557.238C359.301 555.908 359.161 553.983 357.936 553.073C357.446 553.178 357.271 553.913 357.621 554.228L358.741 553.353Z" fill="white"/>
<path d="M317.225 597.283C316.385 593.923 313.725 591.087 310.399 590.072C307.914 592.488 306.199 595.953 306.794 599.348C307.389 602.744 310.924 605.649 314.25 604.774C317.575 603.899 318.87 598.613 315.93 596.793L317.225 597.283Z" fill="white"/>
<path d="M296.188 535.43C295.768 533.89 294.578 532.56 293.073 532C292.757 532.665 292.442 533.33 292.407 534.03C292.372 534.765 292.687 535.535 293.353 535.851C294.263 536.271 295.243 535.605 296.013 535.01C295.978 535.29 295.943 535.535 295.908 535.816L296.188 535.43Z" fill="white"/>
<path d="M284.601 535.746C284.286 535.396 283.971 535.046 283.516 534.976C283.096 534.906 282.676 535.081 282.256 535.291C281.171 535.781 280.051 536.166 278.896 536.481C280.681 537.356 282.466 538.231 284.251 539.071C284.391 539.141 284.531 539.211 284.636 539.316C284.986 539.736 284.636 540.366 284.706 540.926C284.811 541.731 285.791 542.047 286.596 542.117C292.302 542.467 286.211 537.566 284.601 535.746Z" fill="white"/>
<path d="M354.505 543.482C353.98 543.202 353.49 542.922 352.965 542.642C352.475 543.692 352.51 545.092 353.385 545.862C354.26 546.632 355.976 546.177 356.081 545.022C356.151 544.322 355.941 543.167 356.676 543.237L354.505 543.482Z" fill="white"/>
<path d="M305.359 552.652C305.814 552.792 306.234 553.107 306.514 553.492C305.394 554.052 304.063 553.562 302.943 553.002C302.313 552.687 301.613 552.197 301.683 551.497C301.718 551.007 302.138 550.657 302.383 550.237C302.838 549.362 302.593 547.997 303.503 547.681C304.028 547.506 304.588 547.856 304.869 548.347C305.114 548.837 305.114 549.397 305.114 549.957C305.114 551.147 305.114 552.372 305.114 553.562L305.359 552.652Z" fill="white"/>
<path d="M298.848 570.504C298.428 569.594 296.853 570.154 296.643 571.134C296.468 572.115 297.133 573.06 297.728 573.865C298.953 573.165 299.653 571.694 299.408 570.329L298.848 570.504Z" fill="white"/>
<path opacity="0.5" d="M285.336 553.703C285.476 554.158 285.126 554.648 284.671 554.788C284.216 554.928 283.726 554.753 283.306 554.473C283.061 554.333 282.851 554.123 282.711 553.878C282.431 553.317 282.746 552.512 283.341 552.267C283.936 552.057 284.706 552.407 284.916 553.002C285.161 553.598 284.846 554.368 284.251 554.648L285.336 553.703Z" fill="white"/>
<path d="M289.712 549.047C290.552 548.487 290.342 546.947 289.362 546.632C288.942 546.947 288.557 547.332 288.417 547.857C288.277 548.347 288.417 548.977 288.907 549.222C289.362 549.467 290.062 549.152 290.062 548.627L289.712 549.047Z" fill="white"/>
<path d="M306.934 534.275C307.004 533.05 306.479 531.825 305.534 531.055C304.974 531.86 304.379 532.665 303.819 533.47C303.539 533.855 303.259 534.275 303.224 534.73C303.154 535.64 304.134 536.41 305.044 536.27C305.954 536.13 306.654 535.29 306.794 534.38L306.934 534.275Z" fill="white"/>
<path opacity="0.5" d="M286.631 567.81C286.806 568.475 286.561 569.245 286.036 569.7C285.476 570.155 284.671 570.225 284.076 569.875C283.656 569.665 283.306 569.07 283.621 568.685C283.726 568.51 283.936 568.44 284.146 568.37C284.986 568.055 285.791 567.74 286.631 567.425C286.666 567.565 286.701 567.74 286.736 567.88L286.631 567.81Z" fill="white"/>
<path opacity="0.5" d="M276.27 576.981C275.395 577.051 274.94 578.031 274.695 578.871C274.45 579.711 274.135 580.691 273.33 580.971C273.085 581.041 272.84 581.041 272.63 580.901C272.14 580.516 272.595 579.781 272.7 579.186C272.805 578.696 272.665 578.206 272.665 577.716C272.63 576.561 273.4 575.405 274.485 574.985C275.115 575.055 275.675 575.51 275.85 576.106C276.025 576.701 275.815 577.401 275.36 577.821L276.27 576.981Z" fill="white"/>
<path opacity="0.5" d="M333.712 522.304C332.837 522.374 332.382 523.354 332.137 524.194C331.892 525.034 331.577 526.014 330.772 526.294C330.527 526.364 330.282 526.364 330.072 526.224C329.582 525.839 330.037 525.104 330.142 524.509C330.247 524.019 330.107 523.529 330.107 523.039C330.072 521.884 330.842 520.729 331.927 520.309C332.557 520.379 333.117 520.834 333.292 521.429C333.467 522.024 333.257 522.724 332.802 523.144L333.712 522.304Z" fill="white"/>
<path opacity="0.5" d="M270.599 570.33C270.354 570.12 270.109 569.875 269.864 569.665C269.339 569.875 268.989 570.435 269.129 570.995C269.234 571.52 269.864 571.94 270.389 571.73C270.914 571.555 271.124 570.785 270.739 570.365L270.599 570.33Z" fill="white"/>
<path d="M294.297 543.342C294.507 543.972 295.453 543.937 295.943 543.517C296.433 543.062 296.643 542.397 297.098 541.907C297.553 541.416 298.218 541.101 298.918 541.136C299.303 541.136 299.758 541.311 299.933 541.662C300.038 541.907 300.038 542.187 300.003 542.432C299.898 543.727 299.583 545.057 298.813 546.072C298.043 547.122 296.678 547.787 295.418 547.437C294.542 547.192 293.842 546.457 293.632 545.582C293.422 544.707 293.737 543.727 294.402 543.132L294.297 543.342Z" fill="white"/>
<path d="M293.563 525.839C293.563 525.034 292.722 524.369 291.882 524.404C291.077 524.439 290.342 525.069 290.027 525.804C289.887 526.119 289.817 526.609 290.132 526.784C290.342 526.924 290.622 526.854 290.867 526.784C291.847 526.539 292.827 526.259 293.808 526.014L293.563 525.839Z" fill="white"/>
<path d="M312.605 566.829C312.43 568.474 310.33 569.595 308.859 568.789C309.174 567.529 309.524 566.199 310.505 565.359C311.45 564.484 313.2 564.379 313.9 565.499C313.795 566.234 313.655 567.004 313.55 567.739L312.605 566.829Z" fill="white"/>
<path opacity="0.5" d="M280.961 546.142C280.681 545.932 280.4 545.687 280.155 545.477C279.77 545.862 279.35 546.282 279.315 546.807C279.28 547.332 279.91 547.892 280.366 547.612C280.541 547.507 280.611 547.297 280.716 547.122C280.961 546.527 281.241 545.932 281.486 545.337L280.961 546.142Z" fill="white"/>
<path d="M372.287 561.019C371.867 560.249 371.447 559.478 370.782 558.953C370.117 558.428 369.102 558.183 368.367 558.638C368.017 558.848 367.737 559.233 367.597 559.618C367.141 560.844 367.912 562.349 369.137 562.699C370.362 563.084 371.832 562.244 372.147 560.984L372.287 561.019Z" fill="white"/>
<path d="M327.446 585.487C326.921 585.207 326.431 584.927 325.906 584.646C325.591 584.962 325.381 585.382 325.241 585.802C325.801 586.467 326.921 586.537 327.551 585.942L327.446 585.487Z" fill="white"/>
<path d="M413.418 580.236C413.558 580.691 413.208 581.181 412.753 581.321C412.298 581.461 411.807 581.286 411.387 581.006C411.142 580.866 410.932 580.656 410.792 580.411C410.512 579.851 410.827 579.046 411.422 578.801C412.018 578.591 412.788 578.941 412.998 579.536C413.243 580.131 412.928 580.901 412.333 581.181L413.418 580.236Z" fill="white"/>
<path d="M321.391 572.325C320.866 572.045 320.376 571.765 319.851 571.485C319.536 571.8 319.326 572.22 319.186 572.641C319.746 573.306 320.866 573.376 321.496 572.781L321.391 572.325Z" fill="white"/>
<path d="M342.814 529.339C342.814 528.674 341.869 528.429 341.274 528.709C340.678 528.989 340.258 529.549 339.698 529.9C339.103 530.25 338.368 530.32 337.738 530.11C337.353 529.97 337.003 529.724 336.933 529.339C336.898 529.094 336.968 528.814 337.073 528.569C337.563 527.379 338.228 526.189 339.278 525.419C340.328 524.649 341.834 524.404 342.919 525.104C343.689 525.594 344.144 526.504 344.074 527.414C344.004 528.324 343.444 529.164 342.639 529.549L342.814 529.339Z" fill="white"/>
<path d="M355.905 561.683C356.08 562.138 356.29 562.629 356.64 562.979C356.99 563.329 357.55 563.504 358.006 563.294C358.741 562.944 358.706 561.858 359.196 561.228C359.686 560.563 360.736 560.388 360.981 559.618C361.226 558.848 360.421 558.078 359.616 558.043C358.811 558.008 358.076 558.463 357.445 558.953C356.885 559.373 356.29 559.898 356.045 560.563C355.8 561.228 355.94 562.103 356.57 562.453L355.905 561.683Z" fill="white"/>
<path d="M322.651 543.726C325.416 544.881 328.427 545.372 331.402 545.162C331.892 545.126 332.382 545.091 332.802 544.846C333.607 544.426 333.992 543.411 334.062 542.501C334.202 540.226 332.697 538.021 330.597 537.11C328.497 536.2 325.976 536.55 324.086 537.776C323.036 538.441 322.126 539.456 321.846 540.681C321.601 541.906 322.196 543.341 323.386 543.761C323.736 543.551 323.701 542.956 323.351 542.781L322.651 543.726Z" fill="white"/>
<path d="M336.828 527.344C336.968 526.924 337.108 526.434 336.968 526.014C336.828 525.594 336.442 525.349 336.092 525.069C335.112 524.369 334.237 523.599 333.397 522.724C333.537 524.684 333.677 526.679 333.782 528.639C333.782 528.779 333.817 528.954 333.747 529.094C333.572 529.619 332.837 529.619 332.382 529.97C331.752 530.46 331.927 531.475 332.277 532.175C334.832 537.391 336.057 529.689 336.828 527.344Z" fill="white"/>
<path d="M322.721 542.991C322.476 542.746 322.266 542.501 322.021 542.256C321.496 542.431 321.111 542.991 321.181 543.516C321.251 544.076 321.846 544.496 322.371 544.356C322.896 544.216 323.176 543.446 322.826 543.026L322.721 542.991Z" fill="white"/>
<path d="M327.411 527.589C328.112 527.169 328.252 526.119 327.831 525.419C327.376 524.719 326.501 524.404 325.696 524.509C325.346 524.544 324.926 524.719 324.891 525.104C324.891 525.349 325.066 525.559 325.241 525.734C325.941 526.469 326.641 527.169 327.376 527.904L327.411 527.589Z" fill="white"/>
<path d="M321.916 536.936C323.036 535.781 323.596 534.101 323.351 532.525C322.616 532.56 321.881 532.63 321.251 532.945C320.621 533.26 320.095 533.926 320.165 534.661C320.27 535.641 321.321 536.201 322.231 536.551C321.986 536.656 321.741 536.761 321.496 536.866L321.916 536.936Z" fill="white"/>
<path d="M315.65 540.611C315.755 541.101 315.685 541.591 315.51 542.046C314.46 541.381 314.215 539.946 314.18 538.686C314.145 537.986 314.215 537.146 314.88 536.831C315.335 536.621 315.825 536.831 316.315 536.796C317.296 536.726 318.381 535.851 319.081 536.516C319.501 536.866 319.466 537.566 319.151 538.021C318.836 538.476 318.346 538.756 317.891 539.036C316.84 539.631 315.79 540.226 314.74 540.821L315.65 540.611Z" fill="white"/>
<path d="M332.382 532.805C333.467 532.245 334.272 531.195 334.482 530.005C333.502 529.9 332.522 529.83 331.507 529.725C331.052 529.69 330.562 529.655 330.142 529.83C329.302 530.215 329.127 531.44 329.687 532.175C330.247 532.91 331.332 533.085 332.172 532.77L332.382 532.805Z" fill="white"/>
<path d="M318.241 526.364C317.786 526.854 318.276 527.659 318.906 527.869C319.536 528.079 320.201 527.939 320.866 528.079C321.531 528.219 322.126 528.674 322.441 529.269C322.616 529.619 322.721 530.074 322.511 530.389C322.371 530.599 322.126 530.739 321.881 530.844C320.691 531.369 319.396 531.789 318.136 531.649C316.841 531.474 315.58 530.634 315.265 529.374C315.055 528.499 315.335 527.519 316 526.889C316.666 526.259 317.646 526.049 318.521 526.329L318.241 526.364Z" fill="white"/>
<path d="M339.033 563.364C339.488 562.629 339.943 561.894 340.083 561.018C340.223 560.178 339.908 559.198 339.173 558.778C338.788 558.568 338.333 558.533 337.913 558.603C336.653 558.813 335.707 560.248 335.987 561.508C336.267 562.769 337.738 563.609 338.963 563.259L339.033 563.364Z" fill="white"/>
<path d="M351.355 548.627C352.475 547.472 353.035 545.792 352.79 544.217C352.055 544.252 351.32 544.322 350.69 544.637C350.059 544.952 349.534 545.617 349.604 546.352C349.709 547.332 350.76 547.892 351.67 548.242C351.425 548.347 351.18 548.452 350.935 548.557L351.355 548.627Z" fill="white"/>
<path d="M312.605 540.891C311.73 540.891 311.204 541.836 310.889 542.641C310.609 543.446 310.224 544.426 309.384 544.636C309.139 544.706 308.894 544.672 308.719 544.496C308.264 544.076 308.754 543.376 308.929 542.781C309.069 542.326 308.964 541.801 308.999 541.311C309.069 540.156 309.909 539.071 311.029 538.721C311.66 538.826 312.185 539.351 312.325 539.946C312.465 540.541 312.22 541.241 311.695 541.591L312.605 540.891Z" fill="white"/>
<path d="M364.481 583.701C364.166 583.631 363.816 583.596 363.501 583.526C363.186 583.981 363.186 584.647 363.571 585.032C363.956 585.417 364.691 585.417 365.041 584.962C365.391 584.507 365.146 583.771 364.621 583.631L364.481 583.701Z" fill="white"/>
<path d="M334.482 540.751C334.552 540.401 334.587 540.051 334.657 539.701C334.132 539.561 333.572 539.386 333.082 539.631C332.592 539.876 332.417 540.681 332.907 540.927C333.082 541.032 333.292 540.996 333.502 540.961C334.132 540.891 334.797 540.821 335.428 540.751H334.482Z" fill="white"/>
<path opacity="0.5" d="M326.817 769.4C405.654 769.4 469.565 755.17 469.565 737.616C469.565 720.062 405.654 705.832 326.817 705.832C247.979 705.832 184.068 720.062 184.068 737.616C184.068 755.17 247.979 769.4 326.817 769.4Z" fill="url(#paint0_radial_8343_17618)" fill-opacity="0.53"/>
<path d="M659.079 4.20215L669.3 8.57771L659.079 122.867L650.328 126.753L602.232 131.584L598.591 151.676L563.587 122.867L659.079 4.20215Z" fill="url(#paint1_linear_8343_17618)"/>
<path d="M298.778 614.226C294.613 638.519 276.165 694.666 259.608 688.75C256.038 687.49 252.292 682.94 248.547 676.289C237.24 656.021 226.109 616.186 220.578 589.233C217.568 574.531 216.238 563.679 217.428 561.894C224.814 550.973 294.963 598.369 299.163 603.654C299.934 604.669 299.758 608.59 298.778 614.226Z" fill="url(#paint2_linear_8343_17618)"/>
<path d="M409.882 581.426C409.637 583.667 409.322 586.012 408.972 588.427C404.001 625.322 393.78 679.544 382.754 699.251C380.128 703.977 377.433 706.742 374.773 706.777C374.072 706.812 373.372 706.707 372.637 706.462C370.152 705.727 367.527 703.732 364.831 700.722V700.687C348.134 681.924 329.267 624.972 328.602 607.96C328.532 605.859 328.707 604.354 329.232 603.619C338.753 590.702 407.747 546.562 411.597 551.812C412.612 553.248 411.842 565.009 409.882 581.426Z" fill="url(#paint3_linear_8343_17618)"/>
<path d="M217.428 561.894C209.657 572.045 272.945 617.971 299.618 605.964C299.618 605.964 227.754 548.417 217.428 561.894Z" fill="url(#paint4_linear_8343_17618)"/>
<path d="M328.602 607.96C326.502 613.141 399.556 601.274 411.598 551.848C411.598 551.848 348.415 559.234 328.602 607.96Z" fill="url(#paint5_linear_8343_17618)"/>
<path opacity="0.3" d="M245.081 604.529C241.546 608.905 245.922 665.752 259.573 688.715C256.003 687.455 252.257 682.904 248.512 676.254C246.307 666.312 243.016 651.54 239.901 636.769C235.91 617.796 225.759 598.299 220.578 589.197C217.568 574.496 216.238 563.644 217.428 561.859C224.814 550.937 294.963 598.334 299.163 603.619C299.934 604.634 299.758 608.555 298.778 614.226C298.778 614.226 248.652 600.189 245.081 604.529Z" fill="url(#paint6_linear_8343_17618)"/>
<path d="M368.682 625.146C365.707 626.056 365.007 649.859 369.977 651.19C374.948 652.52 375.578 623.046 368.682 625.146Z" fill="white"/>
<path opacity="0.3" d="M409.882 581.426C409.882 581.426 369.907 593.258 360.666 612.23C351.425 631.168 354.89 676.183 364.866 700.687C348.169 681.924 329.302 624.972 328.637 607.96C328.567 605.859 328.742 604.354 329.267 603.619C338.788 590.702 407.782 546.562 411.632 551.812C412.613 553.248 411.842 565.009 409.882 581.426Z" fill="url(#paint7_linear_8343_17618)"/>
<path d="M237.17 395.132C237.1 416.24 234.125 446.729 224.568 471.372C208.711 512.187 184.908 563.539 184.208 565.149L184.173 565.184C169.646 574.04 152.214 573.585 141.153 571.975C134.432 570.994 130.056 569.594 130.056 569.594C130.056 569.594 134.992 522.863 160.685 469.902C173.567 443.298 190.019 418.55 204.196 400.313C204.266 400.243 204.336 400.138 204.406 400.068C204.546 399.823 204.756 399.612 204.931 399.367C205.036 399.227 205.141 399.122 205.211 398.982C205.316 398.877 205.421 398.737 205.456 398.632C205.596 398.457 205.701 398.317 205.841 398.177C205.876 398.142 205.911 398.107 205.911 398.107C205.946 398.072 205.981 398.037 205.981 398.037C220.368 379.765 232.059 368.704 234.51 370.034C235.91 370.804 237.205 380.78 237.17 395.132Z" fill="url(#paint8_linear_8343_17618)"/>
<path d="M130.231 567.739C130.231 567.739 148.959 536.83 168.281 540.856C187.604 544.881 184.138 565.184 184.138 565.184C184.138 565.184 159.425 583.036 130.231 567.739Z" fill="url(#paint9_linear_8343_17618)"/>
<path opacity="0.3" d="M237.17 395.132C237.1 416.24 234.124 446.728 224.568 471.372C208.711 512.187 184.908 563.538 184.208 565.149L184.173 565.184L141.117 571.975C134.397 570.994 130.021 569.594 130.021 569.594C130.021 569.594 134.957 522.863 160.65 469.901C173.532 443.298 189.984 418.55 204.161 400.313C196.039 411.024 162.12 457.615 152.984 497.205C142.588 542.256 184.488 524.894 201.64 497.205C218.757 469.516 236.645 395.167 236.645 395.167H237.17V395.132Z" fill="url(#paint10_linear_8343_17618)"/>
<path d="M190.334 467.136C186.939 465.841 204.546 425.936 210.006 425.586C215.502 425.201 193.239 468.221 190.334 467.136Z" fill="white"/>
<path d="M188.549 471.372C185.853 469.937 183.333 477.428 185.783 478.513C188.234 479.598 191.594 473.018 188.549 471.372Z" fill="white"/>
<path d="M162.05 550.167C152.039 548.522 137.512 557.903 132.997 566.304C128.446 574.705 126.101 623.081 137.547 663.056C137.547 663.056 153.684 667.432 165.761 663.056C177.873 658.681 186.274 623.396 186.939 596.863C187.569 570.33 178.503 552.862 162.05 550.167Z" fill="url(#paint11_linear_8343_17618)"/>
<path d="M160.546 664.386C160.546 664.386 145.809 579.22 179.308 561.823C179.308 561.823 189.249 578.695 185.574 611.635C181.863 644.574 176.193 661.376 160.546 664.386Z" fill="url(#paint12_linear_8343_17618)"/>
<path opacity="0.5" d="M158.13 617.131C158.13 617.131 166.742 629.697 172.622 631.763C178.503 633.828 183.089 631.658 183.089 631.658L161.351 593.013C161.386 593.013 157.43 608.38 158.13 617.131Z" fill="url(#paint13_linear_8343_17618)"/>
<path d="M161.385 593.012C161.385 593.012 166.146 569.419 180.393 563.679C180.393 563.679 193.624 576.735 190.264 627.457C190.264 627.457 182.878 637.188 172.447 627.457C172.447 627.457 163.731 610.13 161.385 593.012Z" fill="url(#paint14_linear_8343_17618)"/>
<path d="M169.506 584.682C164.676 584.682 172.027 606.104 174.547 605.579C177.067 605.089 173.567 584.682 169.506 584.682Z" fill="white"/>
<path d="M224.533 95.2838C224.533 95.2838 202.655 76.3814 175.842 73.126C175.842 73.126 167.651 77.1515 158.165 106.66C148.678 136.169 166.181 194.522 166.181 194.522L224.533 95.2838Z" fill="url(#paint15_linear_8343_17618)"/>
<path d="M165.48 87.8279C165.48 87.8279 169.786 77.8516 175.877 73.126C175.877 73.126 197.93 93.4636 197.055 142.085L190.684 148.666L165.48 87.8279Z" fill="url(#paint16_linear_8343_17618)"/>
<path d="M405.717 95.2838C405.717 95.2838 427.595 76.3814 454.408 73.126C454.408 73.126 462.599 77.1515 472.085 106.66C481.572 136.169 464.069 194.522 464.069 194.522L405.717 95.2838Z" fill="url(#paint17_linear_8343_17618)"/>
<path d="M454.408 73.0912C454.408 73.0912 432.74 96.3342 432.74 133.789L441.141 139.075L465.574 88.5282C465.539 88.5282 457.418 72.6712 454.408 73.0912Z" fill="url(#paint18_linear_8343_17618)"/>
<path d="M440.336 136.519C440.336 136.519 434.56 104.525 455.633 81.0371C455.633 81.0371 479.401 92.2386 489.272 133.789C499.108 175.339 473.485 200.297 473.485 200.297L440.336 136.519Z" fill="url(#paint19_linear_8343_17618)"/>
<path d="M189.949 136.519C189.949 136.519 195.725 104.525 174.652 81.0371C174.652 81.0371 150.884 92.2386 141.013 133.789C131.176 175.339 156.8 200.297 156.8 200.297L189.949 136.519Z" fill="url(#paint20_linear_8343_17618)"/>
<path d="M469.53 313.326C420.664 381.83 191.069 376.754 161.176 321.342C141.678 285.147 143.813 230.75 162.576 180.694C187.219 114.99 240.566 56.708 311.345 56.708C394.621 56.708 458.609 139.669 477.861 215.453C487.627 253.783 485.947 290.293 469.53 313.326Z" fill="url(#paint21_linear_8343_17618)"/>
<path d="M178.327 249.793C189.249 296.454 391.085 301.53 440.651 259.244C490.218 216.959 418.843 66.7544 309.489 73.3003C209.481 79.321 160.405 173.343 178.327 249.793Z" fill="#DFE3FB"/>
<path d="M177.277 244.123C188.199 290.784 390.035 295.86 439.601 253.574C489.167 211.289 417.793 61.0845 308.439 67.6303C208.431 73.6511 159.355 167.708 177.277 244.123Z" fill="url(#paint22_linear_8343_17618)"/>
<path opacity="0.3" d="M469.53 313.326C420.664 381.83 191.069 376.754 161.176 321.342C141.678 285.148 143.813 230.751 162.576 180.694C162.576 180.659 162.611 180.659 162.611 180.659C161.806 183.6 142.553 253.784 162.191 284.658C182.283 316.232 261.743 311.856 347.049 308.216C432.355 304.54 460.569 292.184 474.886 268.1C486.157 249.163 474.816 207.403 469.495 190.46L477.861 215.419C487.627 253.784 485.947 290.293 469.53 313.326Z" fill="url(#paint23_linear_8343_17618)"/>
<path d="M311.625 363.768C263.914 363.698 229.504 358.342 210.252 350.641H210.217C197.58 345.601 191.454 339.545 192.364 333.349C192.924 329.568 202.306 326.243 217.043 323.548C260.378 315.707 350.095 313.326 398.436 320.677C402.601 321.307 406.452 322.007 409.952 322.778C410.687 322.953 411.423 323.128 412.123 323.303C412.263 323.338 412.368 323.373 412.543 323.373C420.874 325.438 426.789 327.923 429.415 331.004C430.08 331.774 430.535 332.579 430.78 333.384C435.226 348.821 354.715 363.803 311.625 363.768Z" fill="url(#paint24_linear_8343_17618)"/>
<path opacity="0.5" d="M430.185 329.533C430.01 329.989 429.765 330.479 429.38 330.969C424.689 337.585 405.752 346.091 405.752 346.091C405.752 346.091 332.872 316.267 273.82 329.533C214.767 342.8 210.252 350.641 210.252 350.641H210.217C197.58 345.601 191.454 339.545 192.364 333.349C192.924 329.568 202.306 326.243 217.043 323.548C260.378 315.707 350.095 313.326 398.436 320.677C403.476 321.587 408.062 322.463 412.123 323.303C412.263 323.338 412.368 323.373 412.543 323.373C423.954 325.858 430.745 328.028 430.185 329.533Z" fill="url(#paint25_linear_8343_17618)"/>
<path d="M409.917 322.742C398.646 333.524 344.529 342.87 313.69 342.835C258.418 342.765 224.813 334.049 217.007 323.547C264.088 315.006 365.881 312.941 409.917 322.742Z" fill="url(#paint26_linear_8343_17618)"/>
<path d="M406.452 538.966C399.801 578.311 364.551 604.565 314.04 604.565C270.074 604.565 232.794 588.182 222.958 552.058C213.122 516.003 216.937 449.285 230.064 407.734C232.024 401.538 234.404 395.553 237.135 389.882L237.17 389.812C239.655 384.666 242.42 379.766 245.466 375.18C245.501 375.145 245.501 375.11 245.501 375.11C261.533 350.957 285.021 335.17 311.589 335.17C339.243 335.17 360.386 346.546 374.773 363.349C381.458 371.155 386.709 380.186 390.455 389.742C394.795 400.768 398.436 412.46 401.306 424.501C401.306 424.571 401.341 424.711 401.376 424.851C410.477 462.621 412.402 503.787 406.452 538.966Z" fill="url(#paint27_linear_8343_17618)"/>
<path d="M371.972 360.232C371.972 360.232 376.278 406.998 403.721 435.422C403.721 435.422 396.125 391.841 371.972 360.232Z" fill="url(#paint28_linear_8343_17618)"/>
<path d="M527.148 303.105C484.127 388.411 408.237 417.535 408.237 417.535C387.375 404.023 369.207 359.953 376.383 351.342L376.418 351.307C376.768 350.886 377.223 350.536 377.713 350.291C470.3 306.011 497.989 260.05 497.989 260.05C510.486 260.96 517.626 268.241 521.722 276.607C527.673 288.788 527.148 303.105 527.148 303.105Z" fill="url(#paint29_linear_8343_17618)"/>
<path opacity="0.5" d="M161.175 321.343C161.175 321.343 170.872 310.036 189.879 300.9C208.886 291.799 226.389 284.658 229.084 277.342C231.779 270.026 176.892 274.332 176.892 274.332L149.589 286.198C149.624 286.198 153.894 308.251 161.175 321.343Z" fill="url(#paint30_linear_8343_17618)"/>
<path d="M497.989 260.085C490.288 262.15 491.058 313.292 500.894 318.402C510.73 323.513 527.147 303.105 527.147 303.105C527.147 303.105 525.327 252.804 497.989 260.085Z" fill="url(#paint31_linear_8343_17618)"/>
<path d="M351.81 168.618C359.091 181.464 407.397 170.053 410.127 162.422C413.768 152.201 400.291 120.136 374.773 123.042C349.255 125.947 348.275 162.387 351.81 168.618Z" fill="url(#paint32_linear_8343_17618)"/>
<path d="M276.34 168.618C269.059 181.464 220.753 170.053 218.022 162.422C214.382 152.201 227.859 120.136 253.377 123.042C278.895 125.947 279.875 162.387 276.34 168.618Z" fill="url(#paint33_linear_8343_17618)"/>
<path d="M262.864 192.281C262.864 192.281 276.621 206.493 315.686 206.493C354.716 206.493 374.773 190.076 374.773 190.076C374.773 190.076 357.551 213.389 315.686 213.389C273.82 213.424 262.864 192.281 262.864 192.281Z" fill="#2F95CD"/>
<path d="M138.807 148.63C138.807 148.63 152.984 157.731 143.673 178.839C143.673 178.839 77.5144 214.858 81.3649 254.133C84.5503 286.898 175.947 271.041 175.947 271.041L179.238 281.962C179.238 281.962 101.598 297.154 74.8191 278.882C74.8191 278.882 65.7179 257.249 88.2958 218.254C110.874 179.259 138.807 148.63 138.807 148.63Z" fill="url(#paint34_linear_8343_17618)"/>
<path d="M164.361 267.996C156.03 277.412 173.707 287.738 188.234 289.314C204.546 291.099 233.495 284.623 231.744 268.206C229.994 251.789 183.893 245.908 164.361 267.996Z" fill="url(#paint35_linear_8343_17618)"/>
<path opacity="0.5" d="M210.392 126.122C207.871 141.244 241.511 140.579 287.296 139.074C342.324 137.254 397.631 184.65 429.835 150.626C435.155 145.025 382.439 71.4454 318.836 73.0907C255.232 74.7359 212.562 113.031 210.392 126.122Z" fill="url(#paint36_linear_8343_17618)" fill-opacity="0.42"/>
<path opacity="0.5" d="M241.581 257.775C238.675 268.731 261.603 279.688 317.925 276.922C386.044 273.597 400.501 259.315 397.176 255.36C395.18 252.979 374.773 265.826 318.801 253.574C281.871 245.453 244.661 246.258 241.581 257.775Z" fill="url(#paint37_linear_8343_17618)" fill-opacity="0.42"/>
<path opacity="0.3" d="M469.04 189.025L467.395 184.055C467.71 185.035 468.34 186.715 469.04 189.025Z" fill="url(#paint38_linear_8343_17618)"/>
<path opacity="0.3" d="M406.452 538.966C399.801 578.311 364.551 604.564 314.04 604.564C270.074 604.564 232.794 588.182 222.958 552.057C213.122 516.003 216.937 449.284 230.064 407.734C232.024 401.538 234.404 395.552 237.135 389.882L237.17 389.812C237.17 389.812 210.566 478.023 231.814 534.205C253.097 590.387 352.16 589.197 385.694 551.882C417.618 516.353 402.846 432.902 401.376 424.921C410.477 462.621 412.402 503.786 406.452 538.966Z" fill="url(#paint39_linear_8343_17618)"/>
<path d="M224.849 515.582C232.375 462.761 274.73 426.951 321.811 431.397C372.533 436.192 399.801 484.603 399.101 526.154C398.366 567.704 368.017 600.153 313.55 600.153C259.118 600.188 217.813 565.009 224.849 515.582Z" fill="url(#paint40_linear_8343_17618)"/>
<path d="M225.339 519.958C232.865 467.137 275.22 431.327 322.301 435.773C373.023 440.568 400.291 488.979 399.591 530.53C398.856 572.08 368.507 604.529 314.04 604.529C259.573 604.529 218.303 569.385 225.339 519.958Z" fill="url(#paint41_radial_8343_17618)"/>
<path opacity="0.5" d="M374.772 363.348C364.026 380.221 304.763 390.057 270.529 386.941C240.705 384.211 245.256 376.16 245.466 375.145C245.501 375.11 245.501 375.075 245.501 375.075C261.533 350.922 285.021 335.135 311.589 335.135C339.243 335.17 360.386 346.546 374.772 363.348Z" fill="url(#paint42_linear_8343_17618)"/>
<path d="M353.735 392.611C350.97 393.521 350.865 415.714 353.735 419.32C356.606 422.89 361.261 421.805 362.801 416.554C364.307 411.339 357.901 391.246 353.735 392.611Z" fill="white"/>
<path d="M358.811 425.236C356.501 425.796 356.256 431.292 357.306 433.217C358.356 435.142 362.346 434.722 363.011 432.377C363.642 430.032 361.121 424.676 358.811 425.236Z" fill="white"/>
<path opacity="0.72" d="M255.127 573.76C255.127 573.76 267.274 594.937 312.569 595.112C357.865 595.287 376.278 568.334 376.278 568.334C376.278 568.334 355.38 581.951 325.521 573.76C295.627 565.604 266.083 560.983 255.127 573.76Z" fill="url(#paint43_linear_8343_17618)" fill-opacity="0.22"/>
<path d="M350.305 66.3695C345.474 67.4896 386.045 88.9824 387.69 86.4271C389.37 83.8718 363.712 63.2541 350.305 66.3695Z" fill="white"/>
<path d="M428.085 82.4024C424.024 84.5727 424.374 88.9482 432.74 87.8631C441.106 86.778 445.657 80.1971 444.747 78.937C443.837 77.6768 432.635 79.9521 428.085 82.4024Z" fill="white"/>
<path opacity="0.3" d="M527.148 303.105C484.127 388.411 408.237 417.535 408.237 417.535C387.375 404.023 369.207 359.953 376.383 351.341L376.418 351.306C376.838 350.921 377.258 350.606 377.713 350.291C377.713 350.291 391.26 400.033 430.92 386.241C478.001 369.859 497.254 288.053 497.254 288.053V264.075L521.687 276.642C527.673 288.788 527.148 303.105 527.148 303.105Z" fill="url(#paint44_linear_8343_17618)"/>
<path d="M495.223 274.541C495.223 274.541 494.873 301.53 510.17 305.906C525.467 310.281 544.615 281.682 551.721 269.816C558.826 257.949 569.573 204.567 559.387 191.791C549.165 179.049 529.493 182.305 516.366 200.192C516.366 200.157 495.958 251.579 495.223 274.541Z" fill="url(#paint45_linear_8343_17618)"/>
<path d="M496.063 266.525C496.063 266.525 513.811 253.014 517.836 232.256C521.862 211.498 543.355 184.09 543.355 184.09C543.355 184.09 532.048 183.04 516.366 200.192C500.684 217.344 496.063 266.525 496.063 266.525Z" fill="url(#paint46_linear_8343_17618)"/>
<path opacity="0.5" d="M513.566 203.728L527.148 208.838C527.148 208.838 521.127 218.954 518.677 228.616C516.226 238.277 507.02 251.474 507.02 251.474L513.566 203.728Z" fill="url(#paint47_linear_8343_17618)"/>
<path d="M496.063 261.415C496.063 261.415 491.408 251.194 490.778 231.521C490.148 211.849 494.803 196.342 497.009 193.611C499.179 190.881 506.845 191.231 510.485 195.607C514.126 199.982 516.751 221.615 516.751 221.615C516.751 221.615 511.815 256.654 496.063 261.415Z" fill="url(#paint48_linear_8343_17618)"/>
<path d="M517.836 232.256C517.836 232.256 526.973 262.325 548.92 274.366L551.756 269.816C551.756 269.816 529.388 258.019 518.712 228.65L517.836 232.256Z" fill="url(#paint49_linear_8343_17618)"/>
<path d="M501.804 208.348C499.599 208.103 500.334 227.46 503.064 226.655C505.83 225.815 504.92 208.698 501.804 208.348Z" fill="white"/>
<path d="M165.481 269.711C164.991 272.406 223.203 273.036 224.568 262.745C225.898 252.488 169.296 248.953 165.481 269.711Z" fill="url(#paint50_linear_8343_17618)"/>
<path opacity="0.2" d="M179.798 228.756C179.798 228.756 177.417 212.864 180.218 191.546C183.018 170.228 188.724 156.472 192.154 158.397C195.55 160.322 195.025 181.22 197.055 201.768C198.63 217.765 201.71 232.817 201.71 232.817C201.71 232.817 186.939 246.888 179.798 228.756Z" fill="url(#paint51_linear_8343_17618)" fill-opacity="0.42"/>
<path opacity="0.72" d="M243.331 486.458C252.292 500.74 289.082 493.144 330.562 497.17C372.042 501.23 379.113 514.707 387.864 511.977C396.615 509.246 382.789 446.798 320.831 442.563C258.838 438.327 241.09 482.888 243.331 486.458Z" fill="url(#paint52_linear_8343_17618)" fill-opacity="0.22"/>
<path d="M528.863 4.20184C528.863 4.20184 528.513 86.6024 534.779 126.508L598.592 151.641L588.371 133.753L650.329 126.718C650.329 126.718 656.874 34.0607 659.08 4.16683C659.08 4.20184 610.248 -5.24938 528.863 4.20184Z" fill="url(#paint53_linear_8343_17618)"/>
<path d="M575.698 41.0615C575.453 45.8921 575.243 50.6528 575.068 55.4134C574.893 60.139 574.788 64.8996 574.718 69.6602C575.313 69.6952 575.943 69.7302 576.573 69.7302C577.203 69.7302 577.798 69.7302 578.429 69.7302C579.199 69.7302 580.004 69.7302 580.809 69.6952C581.614 69.6602 582.454 69.6252 583.259 69.5902C583.294 68.505 583.329 67.4549 583.329 66.4398C583.329 65.3896 583.329 64.3395 583.329 63.2544C583.329 59.5439 583.294 55.8684 583.224 52.193C583.154 48.5175 583.014 44.807 582.874 41.0965H591.87C591.45 46.9773 591.1 52.788 590.855 58.5638C590.61 64.3395 590.505 70.1853 590.505 76.031C590.505 78.9014 590.54 81.7718 590.61 84.6071C590.68 87.4425 590.785 90.3128 590.89 93.2182H582.559C582.664 90.3128 582.804 87.4425 582.874 84.5721C582.979 81.7017 583.084 78.8314 583.154 75.961C581.754 75.891 580.389 75.821 579.024 75.751C577.658 75.681 576.293 75.646 574.928 75.646H574.648V83.1719C574.648 84.8872 574.648 86.5674 574.648 88.2126C574.648 89.8578 574.683 91.538 574.718 93.2182H566.352C566.457 89.7178 566.562 86.2523 566.597 82.8219C566.632 79.3914 566.667 75.961 566.667 72.4956C566.667 62.0292 566.457 51.5279 566.002 41.0615H575.698Z" fill="white"/>
<path d="M610.633 93.0076C609.653 92.9726 608.673 92.9376 607.728 92.9026C606.748 92.8676 605.768 92.8676 604.823 92.8676C603.212 92.8676 601.602 92.9026 599.992 92.9726C598.382 93.0426 596.772 93.1126 595.161 93.2526L595.231 85.4116C595.791 85.4816 596.351 85.5516 596.912 85.5866C597.472 85.6216 598.032 85.6567 598.592 85.7267C598.732 81.9462 598.872 78.2007 599.012 74.4552C599.152 70.7097 599.222 66.9642 599.222 63.2188C599.222 60.6984 599.187 58.2481 599.117 55.7978C599.047 53.3475 598.977 50.8972 598.907 48.4119C598.277 48.4119 597.612 48.4119 596.982 48.4469C596.316 48.4819 595.651 48.5169 594.986 48.5519L595.056 40.9209C596.947 41.0259 598.802 41.1309 600.692 41.2009C602.582 41.2709 604.438 41.306 606.363 41.306C607.028 41.306 607.728 41.306 608.393 41.306C609.058 41.306 609.758 41.2709 610.458 41.2359L610.248 48.5169C609.688 48.5169 609.128 48.5169 608.568 48.4819C608.008 48.4469 607.483 48.4469 606.923 48.4469C606.573 52.8224 606.328 57.198 606.188 61.5035C606.048 65.8091 605.978 70.1847 605.978 74.5602C605.978 78.3757 606.048 82.1912 606.188 86.0067C606.958 86.0067 607.763 86.0067 608.568 85.9717C609.373 85.9367 610.213 85.9017 611.018 85.8667L610.633 93.0076Z" fill="white"/>
<path d="M622.464 90.4527C622.464 91.0478 622.359 91.5728 622.114 92.0979C621.869 92.623 621.589 93.043 621.204 93.4281C620.819 93.8131 620.364 94.0932 619.839 94.3382C619.314 94.5482 618.754 94.6532 618.194 94.6532C617.599 94.6532 617.074 94.5482 616.584 94.3382C616.094 94.1282 615.639 93.8131 615.253 93.4281C614.868 93.043 614.553 92.623 614.343 92.0979C614.133 91.5728 614.028 91.0478 614.028 90.4527C614.028 89.8576 614.133 89.3326 614.343 88.8425C614.553 88.3524 614.868 87.8974 615.253 87.5123C615.639 87.1273 616.094 86.8122 616.584 86.6022C617.074 86.3922 617.634 86.2872 618.194 86.2872C618.789 86.2872 619.314 86.3922 619.839 86.6022C620.364 86.8122 620.819 87.1273 621.204 87.5123C621.589 87.8974 621.869 88.3524 622.114 88.8425C622.324 89.3326 622.464 89.8576 622.464 90.4527ZM623.095 40.5713C622.429 47.3272 621.869 54.118 621.484 60.9789C621.099 67.8398 620.854 74.5957 620.784 81.2465L615.919 81.3865C615.744 74.7007 615.534 67.9098 615.253 61.0139C614.973 54.118 614.658 47.3272 614.273 40.6413L623.095 40.5713Z" fill="white"/>
<path opacity="0.72" d="M473.731 99.8346C473.731 99.8346 466.03 90.2783 455.493 92.8337C444.992 95.389 444.292 128.503 450.558 129.308C456.859 130.113 459.519 111.001 464.315 107.991C469.145 104.98 477.546 106.135 477.546 106.135L473.731 99.8346Z" fill="url(#paint54_linear_8343_17618)" fill-opacity="0.22"/>
<path opacity="0.72" d="M148.923 111.351C148.923 111.351 152.984 106.765 162.085 108.235C171.186 109.74 176.437 128.433 181.127 126.543C185.783 124.652 182.388 94.3734 170.031 85.4473C170.031 85.4823 154.174 99.029 148.923 111.351Z" fill="url(#paint55_linear_8343_17618)" fill-opacity="0.22"/>
<path d="M136.567 155.456C136.567 155.456 104.328 191.651 106.288 194.241C108.248 196.831 138.492 159.202 136.567 155.456Z" fill="url(#paint56_linear_8343_17618)"/>
<defs>
<radialGradient id="paint0_radial_8343_17618" cx="0" cy="0" r="1" gradientUnits="userSpaceOnUse" gradientTransform="translate(326.802 737.628) scale(142.775 31.7674)">
<stop stop-color="#4C2B88"/>
<stop offset="1" stop-color="#4C2B88" stop-opacity="0"/>
</radialGradient>
<linearGradient id="paint1_linear_8343_17618" x1="610.272" y1="152.501" x2="620.989" y2="1.5096" gradientUnits="userSpaceOnUse">
<stop stop-color="#A242EA"/>
<stop offset="1" stop-color="#FE117E"/>
</linearGradient>
<linearGradient id="paint2_linear_8343_17618" x1="245.596" y1="687.166" x2="260.927" y2="565.1" gradientUnits="userSpaceOnUse">
<stop stop-color="#CBC1F7"/>
<stop offset="1" stop-color="#E8DCF7"/>
</linearGradient>
<linearGradient id="paint3_linear_8343_17618" x1="355.339" y1="704.41" x2="375.114" y2="546.962" gradientUnits="userSpaceOnUse">
<stop stop-color="#CBC1F7"/>
<stop offset="1" stop-color="#E8DCF7"/>
</linearGradient>
<linearGradient id="paint4_linear_8343_17618" x1="258.191" y1="607.959" x2="258.191" y2="559.853" gradientUnits="userSpaceOnUse">
<stop stop-color="#BE9DEA"/>
<stop offset="1" stop-color="#9E8CEF"/>
</linearGradient>
<linearGradient id="paint5_linear_8343_17618" x1="370.077" y1="609.074" x2="370.077" y2="551.857" gradientUnits="userSpaceOnUse">
<stop stop-color="#BE9DEA"/>
<stop offset="1" stop-color="#9E8CEF"/>
</linearGradient>
<linearGradient id="paint6_linear_8343_17618" x1="258.309" y1="688.743" x2="258.309" y2="560.258" gradientUnits="userSpaceOnUse">
<stop stop-color="#9D68C2"/>
<stop offset="1" stop-color="#CCEDFF"/>
</linearGradient>
<linearGradient id="paint7_linear_8343_17618" x1="370.318" y1="700.689" x2="370.318" y2="551.416" gradientUnits="userSpaceOnUse">
<stop stop-color="#9D68C2"/>
<stop offset="1" stop-color="#CCEDFF"/>
</linearGradient>
<linearGradient id="paint8_linear_8343_17618" x1="172.792" y1="575.956" x2="199.223" y2="365.51" gradientUnits="userSpaceOnUse">
<stop stop-color="#CBC1F7"/>
<stop offset="1" stop-color="#E8DCF7"/>
</linearGradient>
<linearGradient id="paint9_linear_8343_17618" x1="157.309" y1="573.939" x2="157.309" y2="540.491" gradientUnits="userSpaceOnUse">
<stop stop-color="#BE9DEA"/>
<stop offset="1" stop-color="#9E8CEF"/>
</linearGradient>
<linearGradient id="paint10_linear_8343_17618" x1="183.59" y1="571.961" x2="183.59" y2="395.129" gradientUnits="userSpaceOnUse">
<stop stop-color="#9D68C2"/>
<stop offset="1" stop-color="#CCEDFF"/>
</linearGradient>
<linearGradient id="paint11_linear_8343_17618" x1="149.272" y1="664.995" x2="163.669" y2="550.361" gradientUnits="userSpaceOnUse">
<stop stop-color="#CBC1F7"/>
<stop offset="1" stop-color="#E8DCF7"/>
</linearGradient>
<linearGradient id="paint12_linear_8343_17618" x1="171.86" y1="664.403" x2="171.86" y2="561.851" gradientUnits="userSpaceOnUse">
<stop stop-color="#BE9DEA"/>
<stop offset="1" stop-color="#9E8CEF"/>
</linearGradient>
<linearGradient id="paint13_linear_8343_17618" x1="170.581" y1="632.66" x2="170.581" y2="593.006" gradientUnits="userSpaceOnUse">
<stop stop-color="#8DA4E5"/>
<stop offset="1" stop-color="#755CBB"/>
</linearGradient>
<linearGradient id="paint14_linear_8343_17618" x1="173.24" y1="630.788" x2="181.652" y2="563.813" gradientUnits="userSpaceOnUse">
<stop stop-color="#CBC1F7"/>
<stop offset="1" stop-color="#E8DCF7"/>
</linearGradient>
<linearGradient id="paint15_linear_8343_17618" x1="189.956" y1="194.483" x2="189.956" y2="73.1043" gradientUnits="userSpaceOnUse">
<stop stop-color="#B9ACF4"/>
<stop offset="1" stop-color="#E1D1F5"/>
</linearGradient>
<linearGradient id="paint16_linear_8343_17618" x1="181.265" y1="148.628" x2="181.265" y2="73.1043" gradientUnits="userSpaceOnUse">
<stop stop-color="#BE9DEA"/>
<stop offset="1" stop-color="#9E8CEF"/>
</linearGradient>
<linearGradient id="paint17_linear_8343_17618" x1="440.32" y1="194.483" x2="440.32" y2="73.1043" gradientUnits="userSpaceOnUse">
<stop stop-color="#B9ACF4"/>
<stop offset="1" stop-color="#E1D1F5"/>
</linearGradient>
<linearGradient id="paint18_linear_8343_17618" x1="449.135" y1="139.079" x2="449.135" y2="73.0954" gradientUnits="userSpaceOnUse">
<stop stop-color="#BE9DEA"/>
<stop offset="1" stop-color="#9E8CEF"/>
</linearGradient>
<linearGradient id="paint19_linear_8343_17618" x1="465.538" y1="200.291" x2="465.538" y2="81.0322" gradientUnits="userSpaceOnUse">
<stop stop-color="#45FFCD"/>
<stop offset="1" stop-color="#22E0FF"/>
</linearGradient>
<linearGradient id="paint20_linear_8343_17618" x1="164.737" y1="200.291" x2="164.737" y2="81.0322" gradientUnits="userSpaceOnUse">
<stop stop-color="#45FFCD"/>
<stop offset="1" stop-color="#22E0FF"/>
</linearGradient>
<linearGradient id="paint21_linear_8343_17618" x1="302.046" y1="366.645" x2="340.635" y2="59.3967" gradientUnits="userSpaceOnUse">
<stop stop-color="#CBC1F7"/>
<stop offset="1" stop-color="#E8DCF7"/>
</linearGradient>
<linearGradient id="paint22_linear_8343_17618" x1="314.637" y1="282.416" x2="314.637" y2="67.4284" gradientUnits="userSpaceOnUse">
<stop stop-color="#0665BD"/>
<stop offset="1" stop-color="#1A1F77"/>
</linearGradient>
<linearGradient id="paint23_linear_8343_17618" x1="315.695" y1="363.804" x2="315.695" y2="180.668" gradientUnits="userSpaceOnUse">
<stop stop-color="#9D68C2"/>
<stop offset="1" stop-color="#CCEDFF"/>
</linearGradient>
<linearGradient id="paint24_linear_8343_17618" x1="192.262" y1="339.998" x2="430.912" y2="339.998" gradientUnits="userSpaceOnUse">
<stop stop-color="#8879EA"/>
<stop offset="1" stop-color="#9E8CEF"/>
</linearGradient>
<linearGradient id="paint25_linear_8343_17618" x1="311.238" y1="350.632" x2="311.238" y2="316.233" gradientUnits="userSpaceOnUse">
<stop stop-color="#8DA4E5"/>
<stop offset="1" stop-color="#755CBB"/>
</linearGradient>
<linearGradient id="paint26_linear_8343_17618" x1="310.632" y1="345.764" x2="315.111" y2="310.1" gradientUnits="userSpaceOnUse">
<stop stop-color="#5E36CC"/>
<stop offset="1" stop-color="#6C4A96"/>
</linearGradient>
<linearGradient id="paint27_linear_8343_17618" x1="300.018" y1="604.084" x2="333.542" y2="337.164" gradientUnits="userSpaceOnUse">
<stop stop-color="#CBC1F7"/>
<stop offset="1" stop-color="#E8DCF7"/>
</linearGradient>
<linearGradient id="paint28_linear_8343_17618" x1="371.956" y1="397.818" x2="403.714" y2="397.818" gradientUnits="userSpaceOnUse">
<stop stop-color="#8879EA"/>
<stop offset="1" stop-color="#9E8CEF"/>
</linearGradient>
<linearGradient id="paint29_linear_8343_17618" x1="439.43" y1="421.47" x2="460.3" y2="255.302" gradientUnits="userSpaceOnUse">
<stop stop-color="#CBC1F7"/>
<stop offset="1" stop-color="#E8DCF7"/>
</linearGradient>
<linearGradient id="paint30_linear_8343_17618" x1="189.414" y1="321.344" x2="189.414" y2="273.08" gradientUnits="userSpaceOnUse">
<stop stop-color="#8DA4E5"/>
<stop offset="1" stop-color="#755CBB"/>
</linearGradient>
<linearGradient id="paint31_linear_8343_17618" x1="509.959" y1="319.233" x2="509.959" y2="259.371" gradientUnits="userSpaceOnUse">
<stop stop-color="#BE9DEA"/>
<stop offset="1" stop-color="#9E8CEF"/>
</linearGradient>
<linearGradient id="paint32_linear_8343_17618" x1="380.52" y1="174.401" x2="380.52" y2="122.854" gradientUnits="userSpaceOnUse">
<stop stop-color="#45FFCD"/>
<stop offset="1" stop-color="#22E0FF"/>
</linearGradient>
<linearGradient id="paint33_linear_8343_17618" x1="247.621" y1="174.401" x2="247.621" y2="122.854" gradientUnits="userSpaceOnUse">
<stop stop-color="#45FFCD"/>
<stop offset="1" stop-color="#22E0FF"/>
</linearGradient>
<linearGradient id="paint34_linear_8343_17618" x1="123.892" y1="289.805" x2="141.579" y2="148.977" gradientUnits="userSpaceOnUse">
<stop stop-color="#BE9DEA"/>
<stop offset="1" stop-color="#9E8CEF"/>
</linearGradient>
<linearGradient id="paint35_linear_8343_17618" x1="192.57" y1="290.642" x2="201.669" y2="252" gradientUnits="userSpaceOnUse">
<stop stop-color="#DD1A8F"/>
<stop offset="1" stop-color="#FE117E"/>
</linearGradient>
<linearGradient id="paint36_linear_8343_17618" x1="308.138" y1="162.873" x2="308.86" y2="72.8643" gradientUnits="userSpaceOnUse">
<stop/>
<stop offset="1" stop-color="#00E3FF"/>
</linearGradient>
<linearGradient id="paint37_linear_8343_17618" x1="310.883" y1="277.33" x2="310.99" y2="248.124" gradientUnits="userSpaceOnUse">
<stop/>
<stop offset="1" stop-color="#00E3FF"/>
</linearGradient>
<linearGradient id="paint38_linear_8343_17618" x1="468.229" y1="189.037" x2="468.229" y2="184.073" gradientUnits="userSpaceOnUse">
<stop stop-color="#9D68C2"/>
<stop offset="1" stop-color="#CCEDFF"/>
</linearGradient>
<linearGradient id="paint39_linear_8343_17618" x1="313.644" y1="604.54" x2="313.644" y2="389.791" gradientUnits="userSpaceOnUse">
<stop stop-color="#9D68C2"/>
<stop offset="1" stop-color="#CCEDFF"/>
</linearGradient>
<linearGradient id="paint40_linear_8343_17618" x1="311.587" y1="600.173" x2="311.587" y2="431.037" gradientUnits="userSpaceOnUse">
<stop stop-color="#BE9DEA"/>
<stop offset="1" stop-color="#9E8CEF"/>
</linearGradient>
<radialGradient id="paint41_radial_8343_17618" cx="0" cy="0" r="1" gradientUnits="userSpaceOnUse" gradientTransform="translate(314.978 578.3) scale(129.066 129.066)">
<stop stop-color="#45FFCD"/>
<stop offset="1" stop-color="#22E0FF"/>
</radialGradient>
<linearGradient id="paint42_linear_8343_17618" x1="309.938" y1="387.517" x2="309.938" y2="335.166" gradientUnits="userSpaceOnUse">
<stop stop-color="#8DA4E5"/>
<stop offset="1" stop-color="#755CBB"/>
</linearGradient>
<linearGradient id="paint43_linear_8343_17618" x1="309.04" y1="595.087" x2="309.18" y2="565.75" gradientUnits="userSpaceOnUse">
<stop/>
<stop offset="1" stop-color="#00E3FF"/>
</linearGradient>
<linearGradient id="paint44_linear_8343_17618" x1="450.96" y1="417.55" x2="450.96" y2="264.092" gradientUnits="userSpaceOnUse">
<stop stop-color="#9D68C2"/>
<stop offset="1" stop-color="#CCEDFF"/>
</linearGradient>
<linearGradient id="paint45_linear_8343_17618" x1="521.672" y1="307.461" x2="537.285" y2="183.147" gradientUnits="userSpaceOnUse">
<stop stop-color="#CBC1F7"/>
<stop offset="1" stop-color="#E8DCF7"/>
</linearGradient>
<linearGradient id="paint46_linear_8343_17618" x1="519.705" y1="266.529" x2="519.705" y2="184.073" gradientUnits="userSpaceOnUse">
<stop stop-color="#BE9DEA"/>
<stop offset="1" stop-color="#9E8CEF"/>
</linearGradient>
<linearGradient id="paint47_linear_8343_17618" x1="517.081" y1="251.492" x2="517.081" y2="203.728" gradientUnits="userSpaceOnUse">
<stop stop-color="#8DA4E5"/>
<stop offset="1" stop-color="#755CBB"/>
</linearGradient>
<linearGradient id="paint48_linear_8343_17618" x1="498.624" y1="261.733" x2="507.323" y2="192.471" gradientUnits="userSpaceOnUse">
<stop stop-color="#CBC1F7"/>
<stop offset="1" stop-color="#E8DCF7"/>
</linearGradient>
<linearGradient id="paint49_linear_8343_17618" x1="534.776" y1="274.345" x2="534.776" y2="228.638" gradientUnits="userSpaceOnUse">
<stop stop-color="#BE9DEA"/>
<stop offset="1" stop-color="#9E8CEF"/>
</linearGradient>
<linearGradient id="paint50_linear_8343_17618" x1="195.021" y1="271.417" x2="195.021" y2="254.562" gradientUnits="userSpaceOnUse">
<stop stop-color="#D93DE3"/>
<stop offset="1" stop-color="#FF6DBA"/>
</linearGradient>
<linearGradient id="paint51_linear_8343_17618" x1="189.025" y1="237.95" x2="194.479" y2="158.41" gradientUnits="userSpaceOnUse">
<stop/>
<stop offset="1" stop-color="#00E3FF"/>
</linearGradient>
<linearGradient id="paint52_linear_8343_17618" x1="308.608" y1="512.276" x2="309.264" y2="442.126" gradientUnits="userSpaceOnUse">
<stop/>
<stop offset="1" stop-color="#00E3FF"/>
</linearGradient>
<linearGradient id="paint53_linear_8343_17618" x1="583.587" y1="150.607" x2="594.386" y2="-1.54625" gradientUnits="userSpaceOnUse">
<stop stop-color="#D93DE3"/>
<stop offset="1" stop-color="#FF6DBA"/>
</linearGradient>
<linearGradient id="paint54_linear_8343_17618" x1="460.348" y1="129.3" x2="461.214" y2="92.3355" gradientUnits="userSpaceOnUse">
<stop/>
<stop offset="1" stop-color="#00E3FF"/>
</linearGradient>
<linearGradient id="paint55_linear_8343_17618" x1="164.144" y1="126.64" x2="165.12" y2="85.3764" gradientUnits="userSpaceOnUse">
<stop/>
<stop offset="1" stop-color="#00E3FF"/>
</linearGradient>
<linearGradient id="paint56_linear_8343_17618" x1="121.096" y1="194.622" x2="121.746" y2="155.217" gradientUnits="userSpaceOnUse">
<stop stop-color="#CBC1F7"/>
<stop offset="1" stop-color="#E8DCF7"/>
</linearGradient>
</defs>
</svg>
