<svg width="578" height="663" viewBox="0 0 578 663" fill="none" xmlns="http://www.w3.org/2000/svg">
<path opacity="0.5" d="M356.639 663C431.094 663 491.452 649.291 491.452 632.38C491.452 615.469 431.094 601.76 356.639 601.76C282.183 601.76 221.825 615.469 221.825 632.38C221.825 649.291 282.183 663 356.639 663Z" fill="url(#paint0_radial_8460_1105)"/>
<path d="M241.892 18.5625C241.892 18.5625 214.784 38.3913 203.775 82.7364C192.8 127.081 255.942 72.3161 255.942 72.3161L241.892 18.5625Z" fill="url(#paint1_linear_8460_1105)"/>
<path d="M218.023 64.8638C218.023 64.8638 238.685 11.6497 257.694 3.21904C276.703 -5.21158 305.001 11.3799 305.001 11.3799L218.023 64.8638Z" fill="url(#paint2_linear_8460_1105)"/>
<path d="M453.071 245.077C403.351 298.763 212.536 271.313 185.857 234.353C175.245 219.65 169.989 201.946 169.328 183.061V182.993C166.518 102.093 247.313 -1.46851 347.382 6.52372C415.186 11.953 460.08 78.8584 471.915 143.167C479.386 183.364 473.931 222.55 453.071 245.077Z" fill="url(#paint3_linear_8460_1105)"/>
<path d="M410.492 267.198C385.235 273.032 348.209 276 323.977 274.55C278.951 271.886 246.818 264.804 229.098 256.34H229.065C217.395 250.775 211.974 244.638 213.164 238.703C213.858 235.094 222.883 232.43 236.933 230.643C278.223 225.483 362.92 228.148 408.111 237.86C412.012 238.703 415.616 239.579 418.855 240.524C419.583 240.726 420.211 240.928 420.872 241.131C421.004 241.164 421.103 241.164 421.236 241.232C429.004 243.66 434.426 246.391 436.74 249.494C437.335 250.269 437.732 251.045 437.897 251.854C439.319 258.026 427.583 263.286 410.492 267.198Z" fill="url(#paint4_linear_8460_1105)"/>
<path opacity="0.3" d="M453.071 245.076C403.351 298.763 212.536 271.313 185.857 234.353C175.246 219.65 169.989 201.945 169.328 183.061V182.993C169.328 182.993 180.733 209.297 219.379 216.412C257.992 223.528 371.846 224.371 395.847 208.353C419.847 192.335 415.483 112.277 415.483 112.277L471.915 143.167C479.386 183.364 473.931 222.55 453.071 245.076Z" fill="url(#paint5_linear_8460_1105)"/>
<path opacity="0.5" d="M410.492 267.199C391.582 257.453 336.176 231.824 290.191 239.58C233.793 249.056 229.131 256.374 229.131 256.374H229.098C217.429 250.809 212.007 244.672 213.197 238.737C213.891 235.129 222.916 232.464 236.966 230.677C278.257 225.518 362.953 228.182 408.144 237.894C412.872 239.04 417.136 240.153 420.905 241.199C421.037 241.232 421.137 241.232 421.269 241.3C429.038 243.728 434.459 246.459 436.773 249.562C437.368 250.337 437.765 251.113 437.93 251.922C439.319 258.026 427.583 263.287 410.492 267.199Z" fill="url(#paint6_linear_8460_1105)"/>
<path d="M418.888 240.591C407.681 250.337 356.143 256.34 327.051 254.586C274.917 251.45 243.743 241.198 236.966 230.677C281.793 225.079 377.895 228.721 418.888 240.591Z" fill="url(#paint7_linear_8460_1105)"/>
<path d="M168.633 186.67C175.411 211.388 340.208 229.936 384.904 190.109C429.599 150.249 397.83 6.69273 309.662 14.3815C225.594 21.6992 156.369 141.886 168.633 186.67Z" fill="#DFE3FB"/>
<path d="M169.328 182.994C176.105 207.712 340.903 226.26 385.598 186.434C430.293 146.574 398.524 3.01695 310.356 10.7057C226.288 18.0572 157.063 138.21 169.328 182.994Z" fill="url(#paint8_linear_8460_1105)"/>
<path d="M399.086 35.2553C399.086 35.2553 390.557 118.381 440.939 147.517C440.939 147.517 465.633 150.114 479.882 134.737C479.882 134.737 457.666 156.252 433.996 134.096C410.326 111.906 415.715 50.4304 433.5 30.3318C451.286 10.2332 477.138 15.359 477.138 15.359L466.757 5.91675C466.757 5.95047 428.674 -1.77198 399.086 35.2553Z" fill="url(#paint9_linear_8460_1105)"/>
<path d="M466.757 5.95078C466.757 5.95078 438.789 3.45532 419.417 36.672C398.854 71.912 414.227 132.612 439.483 141.717C464.74 150.823 489.733 52.3529 489.733 52.3529L474.889 13.3023C474.856 13.3023 471.914 7.83924 466.757 5.95078Z" fill="url(#paint10_linear_8460_1105)"/>
<path d="M503.287 89.515C499.783 108.534 492.279 124.081 482.196 133.928L482.13 133.995L479.32 136.558H479.287C471.121 143.37 461.435 146.641 450.922 145.326C416.872 141.077 412.045 90.8302 415.913 62.301C420.409 29.3541 447.914 9.45783 469.898 12.2231C496.014 15.5616 510.164 52.3191 503.287 89.515Z" fill="url(#paint11_linear_8460_1105)"/>
<path d="M168.402 160.366C168.402 160.366 144.633 165.863 122.12 184.68C99.6399 203.497 93.7224 226.462 121.459 224.405L134.318 216.716C134.318 216.716 117.756 219.077 119.938 201.879C122.153 184.68 167.807 163.502 167.807 163.502L168.402 160.366Z" fill="url(#paint12_linear_8460_1105)"/>
<path d="M116.6 210.343C108.269 218.976 124.501 226.833 138.121 229.093C153.394 231.656 180.932 229.936 180.138 214.052C179.312 198.169 136.137 190.109 116.6 210.343Z" fill="url(#paint13_linear_8460_1105)"/>
<path d="M117.525 212.063C116.93 214.625 171.774 218.267 173.592 208.454C175.411 198.641 122.219 192.301 117.525 212.063Z" fill="url(#paint14_linear_8460_1105)"/>
<path d="M311.15 111.266C309.96 112.918 332.803 97.9118 369.135 112.311C372.738 113.728 334.489 78.6563 311.15 111.266Z" fill="url(#paint15_linear_8460_1105)"/>
<path d="M196.502 111.401C195.312 113.053 207.312 101.25 239.247 109.141C242.983 110.085 217.462 82.3655 196.502 111.401Z" fill="url(#paint16_linear_8460_1105)"/>
<path opacity="0.5" d="M215.181 79.8026C218.916 85.5691 250.157 69.0114 284.505 72.5522C318.853 76.0931 356.474 110.49 384.64 106.207C406.987 102.801 377.499 20.822 320.572 13.5042C263.645 6.18639 211.478 74.0698 215.181 79.8026Z" fill="url(#paint17_linear_8460_1105)" fill-opacity="0.42"/>
<path opacity="0.5" d="M205.031 190.446C205.031 190.446 240.801 180.768 284.967 185.792C329.134 190.817 336.275 195.605 335.448 199.855C334.655 204.104 302.488 212.804 261.958 208.386C221.428 203.969 205.031 190.446 205.031 190.446Z" fill="url(#paint18_linear_8460_1105)" fill-opacity="0.42"/>
<path opacity="0.5" d="M170.584 176.452C170.584 176.452 166.055 144.685 194.154 99.7669C194.154 99.7669 200.204 92.7189 202.948 95.2481C205.692 97.7773 177.592 130.353 170.584 176.452Z" fill="url(#paint19_linear_8460_1105)"/>
<path opacity="0.72" d="M421.632 102.396C421.632 102.396 425.401 133.219 447.65 139.761C469.898 146.303 487.882 129.847 493.436 106.679C493.436 106.679 486.56 126.677 457.633 121.719C428.674 116.762 421.632 102.396 421.632 102.396Z" fill="url(#paint20_linear_8460_1105)" fill-opacity="0.22"/>
<path opacity="0.72" d="M425.434 44.1241C425.731 49.8569 466.427 37.7168 479.419 39.4029C492.411 41.089 497.998 57.2758 500.047 56.9049C502.097 56.5002 496.411 18.5961 472.311 15.9321C448.178 13.2343 425.236 40.1111 425.434 44.1241Z" fill="url(#paint21_linear_8460_1105)" fill-opacity="0.22"/>
<path d="M233.991 143.201C233.991 143.201 274.488 144.651 297.463 138.75C297.463 138.75 292.042 177.463 265.727 177.463C239.412 177.463 233.991 143.201 233.991 143.201Z" fill="#2F95CD"/>
<path d="M232.371 371.907C232.371 371.907 164.369 411.261 148.369 409.676C132.368 408.091 139.476 370.996 139.476 370.996C141.592 368.433 143.972 365.803 146.517 363.071L146.551 363.038C172.105 335.52 215.743 300.449 240.801 283.722L240.834 283.689C251.38 276.641 258.653 272.864 259.876 274.28C269.198 284.869 232.371 371.907 232.371 371.907Z" fill="url(#paint22_linear_8460_1105)"/>
<path d="M139.509 370.997C139.509 370.997 148.402 363.376 159.41 373.627C170.419 383.879 159.08 408.462 148.402 409.676C137.724 410.891 131.311 386.948 139.509 370.997Z" fill="url(#paint23_linear_8460_1105)"/>
<path opacity="0.3" d="M232.371 371.907C232.371 371.907 164.369 411.261 148.369 409.676C132.368 408.091 139.476 370.996 139.476 370.996C141.592 368.433 143.972 365.803 146.517 363.071L146.551 363.038C146.551 363.038 163.179 373.053 193.792 368.265C224.437 363.476 240.801 283.722 240.801 283.722L240.834 283.689C251.38 276.641 258.653 272.864 259.876 274.28C269.198 284.869 232.371 371.907 232.371 371.907Z" fill="url(#paint24_linear_8460_1105)"/>
<path d="M311.778 500.222C312.803 514.958 297.133 565.137 281.298 580.549C281.265 580.582 281.265 580.582 281.265 580.616C278.191 583.55 275.149 585.236 272.207 585.101C259.083 584.595 243.644 523.254 237.826 488.284C235.578 474.761 234.785 465.218 236.107 464.611C247.215 459.721 310.522 482.686 311.778 500.222Z" fill="url(#paint25_linear_8460_1105)"/>
<path d="M312.473 504.976C312.473 504.976 298.125 516.105 271.81 507.404C251.248 500.592 233.727 470.782 236.107 464.644C238.52 458.507 317.96 481 312.473 504.976Z" fill="url(#paint26_linear_8460_1105)"/>
<path opacity="0.3" d="M311.778 500.222C312.803 514.958 297.133 565.137 281.298 580.549C292.274 562.878 287.976 530.976 277.331 517.724C269.298 507.674 247.81 494.219 237.826 488.284C235.578 474.761 234.785 465.218 236.107 464.611C247.215 459.721 310.522 482.686 311.778 500.222Z" fill="url(#paint27_linear_8460_1105)"/>
<path d="M261.794 522.445C257.76 522.141 260.438 533.269 261.232 533.876C262.025 534.483 263.876 530.74 264.042 527.672C264.174 524.974 263.215 522.546 261.794 522.445Z" fill="white"/>
<path d="M406.095 410.654C410.062 465.892 387.483 496.984 335.118 512.092C283.811 526.896 235.942 479.954 233.066 408.631C231.247 363.106 232.504 321.829 247.413 291.85C247.446 291.816 247.446 291.816 247.446 291.816V291.749C255.876 274.786 268.736 261.5 287.844 253.069C302.952 246.426 318.423 251.046 333.035 262.478C371.086 292.288 403.021 368.097 406.095 410.654Z" fill="url(#paint28_linear_8460_1105)"/>
<path opacity="0.3" d="M350.292 321.627C350.292 321.627 367.548 360.408 375.416 387.386C384.739 419.355 375.945 455.809 375.945 455.809L406.524 420.029C406.524 420.029 407.714 396.896 399.615 376.055C391.516 355.215 386.954 345.941 386.954 345.941L350.292 321.627Z" fill="url(#paint29_linear_8460_1105)"/>
<path d="M232.404 417.702C232.404 417.702 232.834 374.908 269.562 363.746C313.563 350.392 357.696 390.994 364.903 425.458C372.077 459.923 371.217 494.522 330.026 508.483C330.026 508.483 251.644 530.335 232.404 417.702Z" fill="url(#paint30_linear_8460_1105)"/>
<path d="M234.222 422.355C234.222 422.355 234.652 379.562 271.38 368.399C315.381 355.045 359.515 395.647 366.722 430.112C373.895 464.576 373.036 499.175 331.845 513.136C331.845 513.136 253.462 534.988 234.222 422.355Z" fill="url(#paint31_radial_8460_1105)"/>
<path d="M383.218 358.52C381.301 359.093 378.788 358.081 375.912 355.923C363.052 346.211 342.787 312.994 337.035 292.862C334.82 285.072 334.754 279.238 338.192 277.484C343.779 274.652 361.598 291.243 375.714 317.918C383.879 333.464 391.383 356.058 383.218 358.52Z" fill="url(#paint32_linear_8460_1105)"/>
<path d="M375.945 355.922C363.085 346.21 342.82 312.994 337.068 292.861C345.068 298.729 356.341 312.184 365.961 330.327C370.127 338.218 374.094 347.964 375.945 355.922Z" fill="#6340A2"/>
<path opacity="0.5" d="M332.506 262.208C332.506 262.208 284.736 299.235 263.413 303.113C242.718 306.89 246.652 292.356 246.883 291.546C246.917 291.513 246.917 291.513 246.917 291.513V291.445C255.347 274.483 268.206 261.196 287.314 252.765C302.422 246.122 317.927 250.776 332.506 262.208Z" fill="url(#paint33_linear_8460_1105)"/>
<path opacity="0.72" d="M237.858 417.331C246.553 426.402 263.148 406.338 289.794 401.549C316.439 396.76 334.357 406.439 340.671 400.402C346.985 394.332 312.174 362.127 272.14 372.581C240.172 380.911 234.916 414.262 237.858 417.331Z" fill="url(#paint34_linear_8460_1105)" fill-opacity="0.22"/>
<path opacity="0.72" d="M295.249 506.358C295.249 506.358 309.299 514.249 327.382 509.461C345.465 504.672 348.837 494.05 348.837 494.05C348.837 494.05 339.878 492.937 328.01 499.277C316.109 505.617 304.108 507.404 295.249 506.358Z" fill="url(#paint35_linear_8460_1105)" fill-opacity="0.22"/>
<path d="M307.315 304.799C304.208 305.844 307.811 338.521 310.621 338.791C313.431 339.061 314.919 331.44 314.423 320.514C313.894 309.621 310.291 303.821 307.315 304.799Z" fill="white"/>
<path d="M526.594 401.987C531.453 422.726 512.412 436.755 504.048 436.114C496.775 435.541 472.708 427.178 441.071 404.314C441.038 404.314 441.005 404.28 440.972 404.28C436.31 400.908 431.517 397.232 426.558 393.253C387.879 361.959 333.068 294.345 350.391 287.769C350.391 287.769 350.424 287.769 350.49 287.735C400.772 268.648 521.734 381.248 526.594 401.987Z" fill="url(#paint36_linear_8460_1105)"/>
<path d="M487.849 431.225C487.849 431.225 478.692 414.937 489.37 400.807C500.048 386.678 524.61 397.502 524.61 397.502C524.61 397.502 535.288 415.544 516.544 427.313C497.767 439.082 487.849 431.225 487.849 431.225Z" fill="url(#paint37_linear_8460_1105)"/>
<path opacity="0.3" d="M526.594 401.987C531.454 422.726 512.412 436.755 504.048 436.114C496.775 435.541 472.708 427.178 441.071 404.314C443.947 406.135 464.873 419.017 473.799 413.621C483.353 407.787 485.998 369.445 434.162 323.852C383.946 279.642 352.408 287.23 350.49 287.735C400.773 268.648 521.734 381.248 526.594 401.987Z" fill="url(#paint38_linear_8460_1105)"/>
<path d="M496.808 407.416C503.486 400.402 519.751 399.323 527.916 403.235C536.082 407.147 563.025 428.088 577.571 467.476C577.571 467.476 575.058 490.644 559.719 495.196C548.049 498.67 527.751 469.432 512.313 449.3C496.874 429.167 485.833 418.95 496.808 407.416Z" fill="url(#paint39_linear_8460_1105)"/>
<path d="M562.198 494.96C562.198 494.96 525.47 420.602 490.295 426.369C490.295 426.369 496.907 438.037 518.23 461.406C539.553 484.776 554.694 497.287 562.198 494.96Z" fill="url(#paint40_linear_8460_1105)"/>
<path opacity="0.5" d="M537.471 457.022C537.471 457.022 537.999 471.691 534.694 476.648C531.388 481.606 526.693 482.583 526.693 482.583L521.437 440.194C521.437 440.194 533.041 449.805 537.471 457.022Z" fill="url(#paint41_linear_8460_1105)"/>
<path d="M521.437 440.194C521.437 440.194 504.544 424.682 490.494 428.391C490.494 428.391 487.783 446.096 518.891 483.427C518.891 483.427 529.966 486.731 532.412 473.209C532.379 473.209 529.272 454.796 521.437 440.194Z" fill="url(#paint42_linear_8460_1105)"/>
<path d="M510.561 438.441C514.23 435.675 520.71 456.449 518.495 457.528C516.313 458.573 507.52 440.734 510.561 438.441Z" fill="white"/>
<path d="M396.938 347.626C392.475 355.922 406.69 362.093 410.459 360.812C414.194 359.564 399.979 341.995 396.938 347.626Z" fill="white"/>
<path d="M413.401 363.914C412.046 364.96 417.831 370.187 419.219 371.064C421.897 372.75 427.286 373.492 427.517 372.48C427.815 371.435 414.955 362.734 413.401 363.914Z" fill="white"/>
<path d="M170.849 344.896C171.576 347.256 187.576 339.905 187.642 332.857C187.676 325.775 169.824 341.456 170.849 344.896Z" fill="white"/>
<path d="M458.559 568.644C455.749 571.544 450.393 571.443 443.649 569.319C436.277 566.958 427.153 562.169 417.731 556.201C417.698 556.167 417.665 556.167 417.665 556.167L417.566 556.099C391.251 539.474 362.325 513.71 360.771 506.224C355.449 480.224 381.267 446.839 397.698 430.315C404.111 423.874 409.136 419.995 410.26 420.13C414.359 420.602 473.138 553.739 458.559 568.644Z" fill="url(#paint43_linear_8460_1105)"/>
<path opacity="0.3" d="M458.559 568.645C455.749 571.545 450.393 571.444 443.649 569.319L417.731 556.201C420.177 557.28 448.013 568.611 438.591 527.672C428.773 484.844 396.739 433.62 396.739 433.62L397.698 430.349C404.111 423.908 409.136 420.03 410.26 420.165C414.359 420.603 473.138 553.739 458.559 568.645Z" fill="url(#paint44_linear_8460_1105)"/>
<path d="M381.234 497.523C375.052 501.401 390.458 514.688 392.177 514.789C393.929 514.856 392.772 507.404 389.863 502.784C387.317 498.636 383.416 496.14 381.234 497.523Z" fill="white"/>
<path d="M394.425 516.206C393.499 517.69 398.293 521.804 398.987 520.32C399.714 518.836 398.524 516.24 397.532 515.599C396.541 514.992 394.855 515.532 394.425 516.206Z" fill="white"/>
<path d="M91.5739 377.572C91.7722 380.371 111.178 371.199 111.178 367.86C111.178 364.521 91.2433 372.817 91.5739 377.572Z" fill="white"/>
<path d="M53.1929 412.138C53.1929 412.138 53.4573 418.276 56.8623 424.953C56.8623 424.953 66.2841 431.562 84.7639 430.82C103.244 430.078 141.162 410.351 146.452 406.742C151.708 403.134 154.518 392.141 154.518 392.141L53.1929 412.138Z" fill="url(#paint45_linear_8460_1105)"/>
<path d="M153.063 372.008C143.708 368.164 119.674 373.424 104.963 378.955C90.2517 384.452 66.218 401.414 53.1929 412.138C53.1929 412.138 53.4573 422.356 72.6975 424.75C91.9377 427.144 143.675 404.921 152.336 395.277C160.964 385.598 153.063 372.008 153.063 372.008Z" fill="url(#paint46_linear_8460_1105)"/>
<path d="M86.3838 388.499C86.3838 388.499 119.046 384.014 135.707 371.266C135.707 371.266 107.641 370.052 86.3838 388.499Z" fill="url(#paint47_linear_8460_1105)"/>
<path d="M130.781 372.008C130.781 372.008 111.64 383.305 91.4084 384.182C91.4084 384.182 70.912 384.452 69.755 382.024C68.631 379.596 67.9698 370.389 73.2592 368.063C78.5486 365.736 114.021 361.622 130.781 372.008Z" fill="url(#paint48_linear_8460_1105)"/>
<path d="M89.4907 387.992C89.4907 387.992 114.053 389.678 140.335 403.504L143.443 401.751C143.443 401.751 124.335 388.026 89.4907 387.992Z" fill="url(#paint49_linear_8460_1105)"/>
<path d="M45.3576 208.487C45.3576 208.487 59.9035 205.891 75.2758 213.748C75.2758 213.748 108.533 233.982 105.657 299.673C102.748 366.14 74.1518 380.472 74.1518 380.472C74.1518 380.472 52.3 389.847 40.9278 384.923C29.5555 380 45.3576 208.487 45.3576 208.487Z" fill="url(#paint50_linear_8460_1105)"/>
<path d="M45.3576 208.487C45.3576 208.487 59.9035 205.891 75.2758 213.748C75.2758 213.748 108.533 233.982 105.657 299.673C102.748 366.14 74.1518 380.472 74.1518 380.472C74.1518 380.472 52.3 389.847 40.9278 384.923C29.5555 380 45.3576 208.487 45.3576 208.487Z" fill="url(#paint51_linear_8460_1105)"/>
<path d="M45.3576 208.487C45.3576 208.487 59.9035 205.891 75.2758 213.748C75.2758 213.748 108.533 233.982 105.657 299.673C102.748 366.14 74.1518 380.472 74.1518 380.472C74.1518 380.472 52.3 389.847 40.9278 384.923C29.5555 380 45.3576 208.487 45.3576 208.487Z" fill="url(#paint52_linear_8460_1105)"/>
<path d="M45.3576 384.923C70.097 384.923 90.1522 345.427 90.1522 296.705C90.1522 247.984 70.097 208.487 45.3576 208.487C20.6182 208.487 0.562988 247.984 0.562988 296.705C0.562988 345.427 20.6182 384.923 45.3576 384.923Z" fill="#FF7AE8"/>
<path d="M45.3576 384.923C70.097 384.923 90.1522 345.427 90.1522 296.705C90.1522 247.984 70.097 208.487 45.3576 208.487C20.6182 208.487 0.562988 247.984 0.562988 296.705C0.562988 345.427 20.6182 384.923 45.3576 384.923Z" fill="url(#paint53_linear_8460_1105)"/>
<path d="M43.903 384.923C67.839 384.923 87.243 345.427 87.243 296.705C87.243 247.984 67.839 208.487 43.903 208.487C19.967 208.487 0.562988 247.984 0.562988 296.705C0.562988 345.427 19.967 384.923 43.903 384.923Z" fill="url(#paint54_linear_8460_1105)"/>
<path d="M43.903 384.923C67.839 384.923 87.243 345.427 87.243 296.705C87.243 247.984 67.839 208.487 43.903 208.487C19.967 208.487 0.562988 247.984 0.562988 296.705C0.562988 345.427 19.967 384.923 43.903 384.923Z" fill="url(#paint55_linear_8460_1105)"/>
<path d="M78.9451 296.705C78.9451 335.048 63.4405 366.14 44.2665 366.14C41.6548 366.14 39.1424 365.566 36.696 364.454C21.1915 357.54 9.58789 329.821 9.58789 296.705C9.58789 258.363 25.1255 227.271 44.2996 227.271C48.3658 227.271 52.2667 228.653 55.8701 231.25C69.325 240.793 78.9451 266.523 78.9451 296.705Z" fill="url(#paint56_linear_8460_1105)"/>
<path d="M78.9451 296.705C78.9451 335.048 63.4405 366.14 44.2665 366.14C41.6548 366.14 39.1424 365.566 36.696 364.454C21.1915 357.54 9.58789 329.821 9.58789 296.705C9.58789 258.363 25.1255 227.271 44.2996 227.271C48.3658 227.271 52.2667 228.653 55.8701 231.25C69.325 240.793 78.9451 266.523 78.9451 296.705Z" fill="url(#paint57_linear_8460_1105)"/>
<path d="M78.9451 296.705C78.9451 335.048 63.4405 366.14 44.2665 366.14C41.6548 366.14 39.1424 365.566 36.696 364.454C21.1915 357.54 9.58789 329.821 9.58789 296.705C9.58789 258.363 25.1255 227.271 44.2996 227.271C48.3658 227.271 52.2667 228.653 55.8701 231.25C69.325 240.793 78.9451 266.523 78.9451 296.705Z" fill="url(#paint58_linear_8460_1105)"/>
<path d="M78.9453 296.705C78.9453 335.048 63.4408 366.14 44.2667 366.14C41.655 366.14 39.1426 365.567 36.6962 364.454C23.2744 354.877 13.6543 329.214 13.6543 299.032C13.6543 260.69 29.1919 229.598 48.366 229.598C50.9446 229.598 53.457 230.171 55.8703 231.25C69.3252 240.794 78.9453 266.524 78.9453 296.705Z" fill="url(#paint59_linear_8460_1105)"/>
<path d="M78.9453 296.705C78.9453 335.048 63.4408 366.14 44.2667 366.14C41.655 366.14 39.1426 365.567 36.6962 364.454C23.2744 354.877 13.6543 329.214 13.6543 299.032C13.6543 260.69 29.1919 229.598 48.366 229.598C50.9446 229.598 53.457 230.171 55.8703 231.25C69.3252 240.794 78.9453 266.524 78.9453 296.705Z" fill="url(#paint60_linear_8460_1105)"/>
<path opacity="0.3" d="M1.125 310.599L81.7883 245.38C81.7883 245.38 88.5323 263.05 89.3587 279.878L4.10027 331.035C4.10027 331.035 1.5217 317.006 1.125 310.599Z" fill="url(#paint61_linear_8460_1105)" fill-opacity="0.32"/>
<path opacity="0.72" d="M81.7881 245.38L97.491 244.031C97.491 244.031 104.764 262.309 105.293 278.327L89.3255 279.912C89.3255 279.878 86.78 256.947 81.7881 245.38Z" fill="url(#paint62_linear_8460_1105)" fill-opacity="0.32"/>
<g opacity="0.5">
<path d="M77.7551 357.608L92.3671 358.688C92.3671 358.688 83.7718 375.616 74.1518 380.472L60.2671 379.933C60.2671 379.899 72.4988 371.94 77.7551 357.608Z" fill="#C44FE5"/>
<path d="M77.7551 357.608L92.3671 358.688C92.3671 358.688 83.7718 375.616 74.1518 380.472L60.2671 379.933C60.2671 379.899 72.4988 371.94 77.7551 357.608Z" fill="url(#paint63_linear_8460_1105)"/>
</g>
<g opacity="0.72">
<path d="M62.8455 215.468C62.8455 215.468 76.069 217.255 82.813 220.358C82.813 220.358 78.35 215.468 75.8706 214.153C73.3912 212.838 62.1843 207.273 45.3574 208.487C45.3574 208.487 54.8122 209.061 62.8455 215.468Z" fill="#D81173"/>
<path d="M62.8455 215.468C62.8455 215.468 76.069 217.255 82.813 220.358C82.813 220.358 78.35 215.468 75.8706 214.153C73.3912 212.838 62.1843 207.273 45.3574 208.487C45.3574 208.487 54.8122 209.061 62.8455 215.468Z" fill="url(#paint64_linear_8460_1105)"/>
</g>
<path d="M88.6318 417.466C88.6318 417.466 99.7065 410.856 111.079 411.463C111.046 411.463 95.5742 418.747 88.6318 417.466Z" fill="white"/>
<defs>
<radialGradient id="paint0_radial_8460_1105" cx="0" cy="0" r="1" gradientUnits="userSpaceOnUse" gradientTransform="translate(356.649 632.391) scale(134.838 30.6038)">
<stop stop-color="#BE9DEA"/>
<stop offset="0.3883" stop-color="#E0BFF5"/>
<stop offset="1" stop-color="white"/>
</radialGradient>
<linearGradient id="paint1_linear_8460_1105" x1="224.958" y1="103.291" x2="241.629" y2="18.5176" gradientUnits="userSpaceOnUse">
<stop stop-color="#45FFCD"/>
<stop offset="1" stop-color="#22E0FF"/>
</linearGradient>
<linearGradient id="paint2_linear_8460_1105" x1="255.062" y1="72.1469" x2="269.294" y2="-0.223347" gradientUnits="userSpaceOnUse">
<stop stop-color="#B9ACF4"/>
<stop offset="1" stop-color="#E1D1F5"/>
</linearGradient>
<linearGradient id="paint3_linear_8460_1105" x1="289.968" y1="278.572" x2="378.2" y2="13.4835" gradientUnits="userSpaceOnUse">
<stop stop-color="#CBC1F7"/>
<stop offset="1" stop-color="#E8DCF7"/>
</linearGradient>
<linearGradient id="paint4_linear_8460_1105" x1="215.061" y1="228.733" x2="434.832" y2="270.268" gradientUnits="userSpaceOnUse">
<stop stop-color="#8879EA"/>
<stop offset="1" stop-color="#9E8CEF"/>
</linearGradient>
<linearGradient id="paint5_linear_8460_1105" x1="305.462" y1="275.341" x2="340.431" y2="97.5263" gradientUnits="userSpaceOnUse">
<stop stop-color="#9D68C2"/>
<stop offset="1" stop-color="#CCEDFF"/>
</linearGradient>
<linearGradient id="paint6_linear_8460_1105" x1="320.26" y1="274.299" x2="330.43" y2="222.587" gradientUnits="userSpaceOnUse">
<stop stop-color="#8DA4E5"/>
<stop offset="1" stop-color="#755CBB"/>
</linearGradient>
<linearGradient id="paint7_linear_8460_1105" x1="324.015" y1="257.218" x2="330.409" y2="223.214" gradientUnits="userSpaceOnUse">
<stop stop-color="#5E36CC"/>
<stop offset="1" stop-color="#6C4A96"/>
</linearGradient>
<linearGradient id="paint8_linear_8460_1105" x1="274.994" y1="214.88" x2="315.54" y2="8.71023" gradientUnits="userSpaceOnUse">
<stop stop-color="#0665BD"/>
<stop offset="1" stop-color="#1A1F77"/>
</linearGradient>
<linearGradient id="paint9_linear_8460_1105" x1="439.475" y1="147.716" x2="438.749" y2="5.37155" gradientUnits="userSpaceOnUse">
<stop stop-color="#B9ACF4"/>
<stop offset="1" stop-color="#E1D1F5"/>
</linearGradient>
<linearGradient id="paint10_linear_8460_1105" x1="450.137" y1="142.257" x2="449.442" y2="5.97862" gradientUnits="userSpaceOnUse">
<stop stop-color="#BE9DEA"/>
<stop offset="1" stop-color="#9E8CEF"/>
</linearGradient>
<linearGradient id="paint11_linear_8460_1105" x1="460.237" y1="145.59" x2="459.556" y2="12.0106" gradientUnits="userSpaceOnUse">
<stop stop-color="#45FFCD"/>
<stop offset="1" stop-color="#22E0FF"/>
</linearGradient>
<linearGradient id="paint12_linear_8460_1105" x1="122.526" y1="227.572" x2="147.239" y2="153.324" gradientUnits="userSpaceOnUse">
<stop stop-color="#BE9DEA"/>
<stop offset="1" stop-color="#9E8CEF"/>
</linearGradient>
<linearGradient id="paint13_linear_8460_1105" x1="142.745" y1="230.977" x2="152.916" y2="197.014" gradientUnits="userSpaceOnUse">
<stop stop-color="#DD1A8F"/>
<stop offset="1" stop-color="#FE117E"/>
</linearGradient>
<linearGradient id="paint14_linear_8460_1105" x1="145.31" y1="215.242" x2="146.21" y2="199.031" gradientUnits="userSpaceOnUse">
<stop stop-color="#D93DE3"/>
<stop offset="1" stop-color="#FF6DBA"/>
</linearGradient>
<linearGradient id="paint15_linear_8460_1105" x1="339.268" y1="116.929" x2="342.987" y2="98.0169" gradientUnits="userSpaceOnUse">
<stop stop-color="#45FFCD"/>
<stop offset="1" stop-color="#22E0FF"/>
</linearGradient>
<linearGradient id="paint16_linear_8460_1105" x1="217.004" y1="115.618" x2="220.457" y2="98.0631" gradientUnits="userSpaceOnUse">
<stop stop-color="#45FFCD"/>
<stop offset="1" stop-color="#22E0FF"/>
</linearGradient>
<linearGradient id="paint17_linear_8460_1105" x1="293.822" y1="106.492" x2="294.795" y2="12.7498" gradientUnits="userSpaceOnUse">
<stop/>
<stop offset="1" stop-color="#00E3FF"/>
</linearGradient>
<linearGradient id="paint18_linear_8460_1105" x1="263.095" y1="209.582" x2="263.191" y2="184.288" gradientUnits="userSpaceOnUse">
<stop/>
<stop offset="1" stop-color="#00E3FF"/>
</linearGradient>
<linearGradient id="paint19_linear_8460_1105" x1="177.578" y1="177.816" x2="194.217" y2="93.2064" gradientUnits="userSpaceOnUse">
<stop/>
<stop offset="1" stop-color="#6A9BFF"/>
</linearGradient>
<linearGradient id="paint20_linear_8460_1105" x1="453.586" y1="141.173" x2="453.998" y2="102.312" gradientUnits="userSpaceOnUse">
<stop/>
<stop offset="1" stop-color="#00E3FF"/>
</linearGradient>
<linearGradient id="paint21_linear_8460_1105" x1="458.809" y1="56.8745" x2="459.253" y2="15.6531" gradientUnits="userSpaceOnUse">
<stop/>
<stop offset="1" stop-color="#00E3FF"/>
</linearGradient>
<linearGradient id="paint22_linear_8460_1105" x1="189.539" y1="414.95" x2="208.428" y2="267.52" gradientUnits="userSpaceOnUse">
<stop stop-color="#CBC1F7"/>
<stop offset="1" stop-color="#D4BEF1"/>
</linearGradient>
<linearGradient id="paint23_linear_8460_1105" x1="152.099" y1="409.285" x2="147.827" y2="368.178" gradientUnits="userSpaceOnUse">
<stop stop-color="#BE9DEA"/>
<stop offset="1" stop-color="#9E8CEF"/>
</linearGradient>
<linearGradient id="paint24_linear_8460_1105" x1="199.675" y1="409.721" x2="199.675" y2="274.023" gradientUnits="userSpaceOnUse">
<stop stop-color="#9D68C2"/>
<stop offset="1" stop-color="#CCEDFF"/>
</linearGradient>
<linearGradient id="paint25_linear_8460_1105" x1="276.223" y1="585.03" x2="272.959" y2="463.083" gradientUnits="userSpaceOnUse">
<stop stop-color="#CBC1F7"/>
<stop offset="1" stop-color="#E8DCF7"/>
</linearGradient>
<linearGradient id="paint26_linear_8460_1105" x1="239.597" y1="491.389" x2="309.634" y2="480.93" gradientUnits="userSpaceOnUse">
<stop stop-color="#8879EA"/>
<stop offset="1" stop-color="#9E8CEF"/>
</linearGradient>
<linearGradient id="paint27_linear_8460_1105" x1="287.532" y1="579.589" x2="268.845" y2="459.333" gradientUnits="userSpaceOnUse">
<stop stop-color="#9D68C2"/>
<stop offset="1" stop-color="#CCEDFF"/>
</linearGradient>
<linearGradient id="paint28_linear_8460_1105" x1="335.961" y1="512.432" x2="291.745" y2="251.294" gradientUnits="userSpaceOnUse">
<stop stop-color="#CBC1F7"/>
<stop offset="1" stop-color="#E8DCF7"/>
</linearGradient>
<linearGradient id="paint29_linear_8460_1105" x1="397.655" y1="449.196" x2="358.177" y2="319.234" gradientUnits="userSpaceOnUse">
<stop stop-color="#9D68C2"/>
<stop offset="1" stop-color="#CCEDFF"/>
</linearGradient>
<linearGradient id="paint30_linear_8460_1105" x1="241.478" y1="453.827" x2="363.006" y2="418.35" gradientUnits="userSpaceOnUse">
<stop stop-color="#BE9DEA"/>
<stop offset="1" stop-color="#9E8CEF"/>
</linearGradient>
<radialGradient id="paint31_radial_8460_1105" cx="0" cy="0" r="1" gradientUnits="userSpaceOnUse" gradientTransform="translate(320.966 491.124) rotate(-16.897) scale(95.6831 97.2828)">
<stop stop-color="#45FFCD"/>
<stop offset="1" stop-color="#22E0FF"/>
</radialGradient>
<linearGradient id="paint32_linear_8460_1105" x1="345.717" y1="322.55" x2="377.006" y2="313.416" gradientUnits="userSpaceOnUse">
<stop stop-color="#8879EA"/>
<stop offset="1" stop-color="#9E8CEF"/>
</linearGradient>
<linearGradient id="paint33_linear_8460_1105" x1="293.781" y1="294.1" x2="281.666" y2="254.218" gradientUnits="userSpaceOnUse">
<stop stop-color="#8DA4E5"/>
<stop offset="1" stop-color="#755CBB"/>
</linearGradient>
<linearGradient id="paint34_linear_8460_1105" x1="283.549" y1="419.613" x2="284.005" y2="370.402" gradientUnits="userSpaceOnUse">
<stop/>
<stop offset="1" stop-color="#00E3FF"/>
</linearGradient>
<linearGradient id="paint35_linear_8460_1105" x1="319.096" y1="510.988" x2="319.202" y2="493.936" gradientUnits="userSpaceOnUse">
<stop/>
<stop offset="1" stop-color="#00E3FF"/>
</linearGradient>
<linearGradient id="paint36_linear_8460_1105" x1="479.317" y1="448.488" x2="398.253" y2="266.414" gradientUnits="userSpaceOnUse">
<stop stop-color="#CBC1F7"/>
<stop offset="1" stop-color="#E8DCF7"/>
</linearGradient>
<linearGradient id="paint37_linear_8460_1105" x1="514.492" y1="428.551" x2="494.792" y2="396.075" gradientUnits="userSpaceOnUse">
<stop stop-color="#BE9DEA"/>
<stop offset="1" stop-color="#9E8CEF"/>
</linearGradient>
<linearGradient id="paint38_linear_8460_1105" x1="496.305" y1="443.396" x2="388.047" y2="264.925" gradientUnits="userSpaceOnUse">
<stop stop-color="#9D68C2"/>
<stop offset="1" stop-color="#CCEDFF"/>
</linearGradient>
<linearGradient id="paint39_linear_8460_1105" x1="574.261" y1="483.968" x2="498.245" y2="406.024" gradientUnits="userSpaceOnUse">
<stop stop-color="#CBC1F7"/>
<stop offset="1" stop-color="#E8DCF7"/>
</linearGradient>
<linearGradient id="paint40_linear_8460_1105" x1="556.192" y1="499.524" x2="497.019" y2="421.287" gradientUnits="userSpaceOnUse">
<stop stop-color="#BE9DEA"/>
<stop offset="1" stop-color="#9E8CEF"/>
</linearGradient>
<linearGradient id="paint41_linear_8460_1105" x1="536.749" y1="476.159" x2="513.869" y2="445.907" gradientUnits="userSpaceOnUse">
<stop stop-color="#8DA4E5"/>
<stop offset="1" stop-color="#755CBB"/>
</linearGradient>
<linearGradient id="paint42_linear_8460_1105" x1="533.679" y1="476.236" x2="488.709" y2="430.126" gradientUnits="userSpaceOnUse">
<stop stop-color="#CBC1F7"/>
<stop offset="1" stop-color="#E8DCF7"/>
</linearGradient>
<linearGradient id="paint43_linear_8460_1105" x1="420.797" y1="577.975" x2="387.627" y2="425.005" gradientUnits="userSpaceOnUse">
<stop stop-color="#CBC1F7"/>
<stop offset="1" stop-color="#E8DCF7"/>
</linearGradient>
<linearGradient id="paint44_linear_8460_1105" x1="447.084" y1="573.417" x2="394.682" y2="425.567" gradientUnits="userSpaceOnUse">
<stop stop-color="#9D68C2"/>
<stop offset="1" stop-color="#CCEDFF"/>
</linearGradient>
<linearGradient id="paint45_linear_8460_1105" x1="119.307" y1="427.238" x2="87.9825" y2="385.818" gradientUnits="userSpaceOnUse">
<stop stop-color="#BE9DEA"/>
<stop offset="1" stop-color="#9E8CEF"/>
</linearGradient>
<linearGradient id="paint46_linear_8460_1105" x1="101.145" y1="428.383" x2="109.154" y2="365.869" gradientUnits="userSpaceOnUse">
<stop stop-color="#E8DCF7"/>
<stop offset="1" stop-color="#CBC1F7"/>
</linearGradient>
<linearGradient id="paint47_linear_8460_1105" x1="115.766" y1="386.362" x2="106.022" y2="373.478" gradientUnits="userSpaceOnUse">
<stop stop-color="#BE9DEA"/>
<stop offset="1" stop-color="#9E8CEF"/>
</linearGradient>
<linearGradient id="paint48_linear_8460_1105" x1="98.3551" y1="386.53" x2="101.146" y2="364.744" gradientUnits="userSpaceOnUse">
<stop stop-color="#CBC1F7"/>
<stop offset="1" stop-color="#E8DCF7"/>
</linearGradient>
<linearGradient id="paint49_linear_8460_1105" x1="95.7325" y1="379.337" x2="137.78" y2="409.618" gradientUnits="userSpaceOnUse">
<stop stop-color="#BE9DEA"/>
<stop offset="1" stop-color="#9E8CEF"/>
</linearGradient>
<linearGradient id="paint50_linear_8460_1105" x1="71.3276" y1="386.349" x2="71.3276" y2="208.076" gradientUnits="userSpaceOnUse">
<stop stop-color="#DD1A8F"/>
<stop offset="1" stop-color="#FE117E"/>
</linearGradient>
<linearGradient id="paint51_linear_8460_1105" x1="57.6211" y1="383.921" x2="100.149" y2="214.286" gradientUnits="userSpaceOnUse">
<stop stop-color="#E3BE3D"/>
<stop offset="1" stop-color="#E652AD"/>
</linearGradient>
<linearGradient id="paint52_linear_8460_1105" x1="38.691" y1="288.572" x2="105.053" y2="298.501" gradientUnits="userSpaceOnUse">
<stop stop-color="#E3BE3D"/>
<stop offset="1" stop-color="#FFE3B8"/>
</linearGradient>
<linearGradient id="paint53_linear_8460_1105" x1="87.7133" y1="305.252" x2="2.91327" y2="288.611" gradientUnits="userSpaceOnUse">
<stop stop-color="#E3BE3D"/>
<stop offset="1" stop-color="#FFE3B8"/>
</linearGradient>
<linearGradient id="paint54_linear_8460_1105" x1="27.2791" y1="381.99" x2="61.8481" y2="211.686" gradientUnits="userSpaceOnUse">
<stop stop-color="#D93DE3"/>
<stop offset="1" stop-color="#FF6DBA"/>
</linearGradient>
<linearGradient id="paint55_linear_8460_1105" x1="2.92271" y1="288.152" x2="85.1639" y2="303.767" gradientUnits="userSpaceOnUse">
<stop stop-color="#E3BE3D"/>
<stop offset="1" stop-color="#FFE3B8"/>
</linearGradient>
<linearGradient id="paint56_linear_8460_1105" x1="31.159" y1="363.834" x2="58.3728" y2="229.766" gradientUnits="userSpaceOnUse">
<stop stop-color="#DD1A8F"/>
<stop offset="1" stop-color="#FE117E"/>
</linearGradient>
<linearGradient id="paint57_linear_8460_1105" x1="58.0266" y1="229.165" x2="31.7289" y2="364.483" gradientUnits="userSpaceOnUse">
<stop stop-color="#E3BE3D"/>
<stop offset="1" stop-color="#E652AD"/>
</linearGradient>
<linearGradient id="paint58_linear_8460_1105" x1="77.057" y1="303.432" x2="11.3281" y2="290.745" gradientUnits="userSpaceOnUse">
<stop stop-color="#E3BE3D"/>
<stop offset="1" stop-color="#FFE3B8"/>
</linearGradient>
<linearGradient id="paint59_linear_8460_1105" x1="33.3388" y1="364.277" x2="60.2596" y2="231.652" gradientUnits="userSpaceOnUse">
<stop stop-color="#E3BE3D"/>
<stop offset="1" stop-color="#E652AD"/>
</linearGradient>
<linearGradient id="paint60_linear_8460_1105" x1="32.6152" y1="364.327" x2="58.239" y2="231.075" gradientUnits="userSpaceOnUse">
<stop stop-color="#E3BE3D"/>
<stop offset="1" stop-color="#FFE3B8"/>
</linearGradient>
<linearGradient id="paint61_linear_8460_1105" x1="1.12037" y1="288.209" x2="89.3297" y2="288.209" gradientUnits="userSpaceOnUse">
<stop/>
<stop offset="1" stop-opacity="0"/>
</linearGradient>
<linearGradient id="paint62_linear_8460_1105" x1="81.7869" y1="261.972" x2="105.285" y2="261.972" gradientUnits="userSpaceOnUse">
<stop/>
<stop offset="1" stop-opacity="0"/>
</linearGradient>
<linearGradient id="paint63_linear_8460_1105" x1="61.141" y1="367.932" x2="85.5182" y2="381.159" gradientUnits="userSpaceOnUse">
<stop stop-color="#E3BE3D"/>
<stop offset="1" stop-color="#FFE3B8"/>
</linearGradient>
<linearGradient id="paint64_linear_8460_1105" x1="46.3771" y1="213.753" x2="61.4362" y2="231.855" gradientUnits="userSpaceOnUse">
<stop stop-color="#E3BE3D"/>
<stop offset="1" stop-color="#FFE3B8"/>
</linearGradient>
</defs>
</svg>
