<svg width="60" height="60" viewBox="0 0 60 60" fill="none" xmlns="http://www.w3.org/2000/svg">
<path opacity="0.5" d="M28.2676 59.9999C37.5783 59.9999 45.1261 58.8297 45.1261 57.3862C45.1261 55.9427 37.5783 54.7725 28.2676 54.7725C18.957 54.7725 11.4092 55.9427 11.4092 57.3862C11.4092 58.8297 18.957 59.9999 28.2676 59.9999Z" fill="url(#paint0_radial_8343_16195)" fill-opacity="0.53"/>
<path d="M49.6935 32.2825C49.6935 32.2825 49.6935 34.6314 48.3375 36.0995C47.5686 36.9343 46.2168 37.415 44.6624 37.556C43.4759 37.6654 42.1737 37.5791 40.9087 37.3085C37.986 36.681 36.0678 33.5117 35.0343 30.3913C34.0008 27.2709 36.4812 26.3296 36.8326 26.416C37.4817 26.5801 39.098 28.0453 40.9583 29.3694C41.905 30.043 42.9137 30.6792 43.8893 31.0908C46.7873 32.3055 49.6935 32.2825 49.6935 32.2825Z" fill="url(#paint1_linear_8343_16195)"/>
<path opacity="0.3" d="M44.6624 37.556C43.4759 37.6654 42.1737 37.5791 40.9087 37.3085C37.986 36.681 36.0678 33.5117 35.0343 30.3913C34.0008 27.2709 36.4812 26.3296 36.8326 26.416C37.4817 26.5801 39.098 28.0453 40.9583 29.3694C40.9583 29.3694 39.4536 31.606 40.0985 34.6401C40.7517 37.6712 44.6624 37.556 44.6624 37.556Z" fill="url(#paint2_linear_8343_16195)"/>
<path d="M28.6475 45.8173C28.6558 47.8438 27.6429 52.651 25.5966 52.4063C25.1543 52.3545 24.6251 52.0407 24.0587 51.5513C22.3307 50.0689 20.2307 46.9975 19.0442 44.8932C18.3993 43.7447 18.019 42.884 18.1265 42.7228C18.7631 41.7326 27.8868 44.5852 28.478 44.9537C28.5896 45.0257 28.6475 45.3452 28.6475 45.8173Z" fill="url(#paint3_linear_8343_16195)"/>
<path d="M18.1227 42.723C17.424 43.6556 25.7168 46.4824 28.5775 45.1352C28.5775 45.1352 19.0528 41.4852 18.1227 42.723Z" fill="url(#paint4_linear_8343_16195)"/>
<path opacity="0.3" d="M22.2067 45.7884C21.8843 46.1943 23.542 50.7367 25.5966 52.4062C25.1543 52.3544 24.6251 52.0406 24.0587 51.5513C23.5999 50.777 22.9178 49.6255 22.2563 48.4741C21.4089 46.9917 19.8338 45.5581 19.0442 44.8903C18.3993 43.7418 18.019 42.8811 18.1265 42.7199C18.7631 41.7296 27.8868 44.5823 28.478 44.9508C28.5896 45.0227 28.6475 45.3422 28.6475 45.8143C28.6475 45.8172 22.5292 45.3854 22.2067 45.7884Z" fill="url(#paint5_linear_8343_16195)"/>
<path d="M38.5317 43.6354C38.4615 43.8138 38.3788 44.0009 38.3002 44.1938C37.0435 47.127 34.8525 51.3988 33.203 52.8583C32.8103 53.2094 32.4465 53.3965 32.1364 53.3678C32.0538 53.362 31.9711 53.3419 31.8925 53.316C31.6156 53.2267 31.3468 53.0281 31.0905 52.7489V52.746C29.4865 51.0073 28.329 46.1397 28.5647 44.7522C28.5936 44.5795 28.6432 44.4615 28.7176 44.4097C30.0653 43.4799 38.9245 40.7798 39.2758 41.2548C39.3668 41.3843 39.065 42.3285 38.5317 43.6354Z" fill="url(#paint6_linear_8343_16195)"/>
<path d="M28.5653 44.752C28.2263 45.1464 36.9655 45.1147 39.2764 41.2545C39.2764 41.2545 31.7691 41.0473 28.5653 44.752Z" fill="url(#paint7_linear_8343_16195)"/>
<path d="M32.9269 46.6634C32.5631 46.7008 32.0422 48.6237 32.6003 48.7964C33.1543 48.9634 33.7702 46.5771 32.9269 46.6634Z" fill="white"/>
<path opacity="0.3" d="M38.5317 43.6354C38.5317 43.6354 33.6536 44.0844 32.2274 45.5064C30.8012 46.9255 30.3795 50.6274 31.0905 52.746C29.4865 51.0073 28.329 46.1397 28.5647 44.7522C28.5936 44.5795 28.6432 44.4615 28.7176 44.4097C30.0653 43.4799 38.9245 40.7798 39.2758 41.2548C39.3668 41.3843 39.065 42.3285 38.5317 43.6354Z" fill="url(#paint8_linear_8343_16195)"/>
<path d="M19.7848 27.3687C19.7765 29.1045 19.4251 31.6117 18.2966 33.6382C16.4239 36.9946 13.6128 41.2175 13.5301 41.3499L13.5259 41.3527C11.8103 42.081 9.7516 42.0436 8.44526 41.9112C7.65153 41.8306 7.13477 41.7154 7.13477 41.7154C7.13477 41.7154 7.71766 37.8726 10.752 33.5173C12.2733 31.3296 14.2163 29.2945 15.8906 27.7947C15.8989 27.789 15.9071 27.7803 15.9154 27.7746C15.9319 27.7544 15.9567 27.7372 15.9774 27.717C15.9898 27.7055 16.0022 27.6969 16.0105 27.6853C16.0229 27.6767 16.0353 27.6652 16.0394 27.6566C16.0559 27.6422 16.0683 27.6306 16.0849 27.6191C16.089 27.6163 16.0932 27.6134 16.0932 27.6134C16.0973 27.6105 16.1014 27.6076 16.1014 27.6076C17.8005 26.105 19.1812 25.1954 19.4706 25.3048C19.636 25.3681 19.7889 26.1914 19.7848 27.3687Z" fill="url(#paint9_linear_8343_16195)"/>
<path d="M7.15527 41.5627C7.15527 41.5627 9.36696 39.021 11.6489 39.352C13.9309 39.683 13.5216 41.3526 13.5216 41.3526C13.5216 41.3526 10.603 42.8235 7.15527 41.5627Z" fill="url(#paint10_linear_8343_16195)"/>
<path opacity="0.3" d="M19.7848 27.3687C19.7765 29.1044 19.4251 31.6116 18.2966 33.6382C16.4239 36.9946 13.6128 41.2174 13.5301 41.3498L13.5259 41.3527L8.44526 41.9111C7.65153 41.8305 7.13477 41.7154 7.13477 41.7154C7.13477 41.7154 7.71766 37.8725 10.752 33.5173C12.2733 31.3296 14.2163 29.2944 15.8906 27.7947C14.9315 28.6755 10.9256 32.5069 9.84667 35.7625C8.61887 39.4672 13.5673 38.0395 15.5929 35.7625C17.6145 33.4856 19.7269 27.3715 19.7269 27.3715H19.7848V27.3687Z" fill="url(#paint11_linear_8343_16195)"/>
<path d="M14.2531 33.2901C13.8521 33.1836 15.9315 29.902 16.5764 29.8732C17.2213 29.8444 14.5962 33.3793 14.2531 33.2901Z" fill="white"/>
<path d="M14.0427 33.6409C13.7244 33.5229 13.4267 34.1389 13.7161 34.2282C14.0055 34.3174 14.4024 33.7734 14.0427 33.6409Z" fill="white"/>
<path d="M38.7676 3.03062C38.7676 3.03062 41.3513 1.4762 44.518 1.2085C44.518 1.2085 45.4853 1.53953 46.6056 3.96616C47.726 6.39278 45.6589 11.1913 45.6589 11.1913L38.7676 3.03062Z" fill="url(#paint12_linear_8343_16195)"/>
<path d="M44.5179 1.20526C44.5179 1.20526 41.959 3.11663 41.959 6.19669L42.9511 6.63135L45.8367 2.47471C45.8325 2.47471 44.8735 1.17072 44.5179 1.20526Z" fill="url(#paint13_linear_8343_16195)"/>
<path d="M42.8521 6.4214C42.8521 6.4214 42.17 3.7904 44.6587 1.85889C44.6587 1.85889 47.4657 2.78003 48.6314 6.19688C49.7931 9.61373 46.767 11.6661 46.767 11.6661L42.8521 6.4214Z" fill="url(#paint14_linear_8343_16195)"/>
<path d="M41.4095 1.97135C40.93 2.14982 40.9713 2.50964 41.9594 2.4204C42.9474 2.33117 43.4848 1.79 43.3773 1.68637C43.2698 1.57986 41.947 1.76985 41.4095 1.97135Z" fill="white"/>
<path d="M17.0772 3.41881C17.0772 3.41881 14.4934 1.86439 11.3268 1.59668C11.3268 1.59668 10.3594 1.92771 9.23909 4.35434C8.11878 6.78097 10.1858 11.5795 10.1858 11.5795L17.0772 3.41881Z" fill="url(#paint15_linear_8343_16195)"/>
<path d="M11.3266 1.59698C11.3266 1.59698 13.8855 3.50835 13.8855 6.5884L12.8934 7.02307L10.0078 2.86643C10.0119 2.86355 10.971 1.55956 11.3266 1.59698Z" fill="url(#paint16_linear_8343_16195)"/>
<path d="M12.9881 6.81008C12.9881 6.81008 13.6702 4.17907 11.1815 2.24756C11.1815 2.24756 8.37453 3.1687 7.20874 6.58555C6.04709 10.0024 9.39562 12.2765 9.39562 12.2765L12.9881 6.81008Z" fill="url(#paint17_linear_8343_16195)"/>
<path d="M14.4354 2.3599C14.915 2.53837 14.8736 2.89819 13.8856 2.80895C12.8976 2.71972 12.3602 2.17855 12.4677 2.07492C12.5751 1.97129 13.898 2.1584 14.4354 2.3599Z" fill="white"/>
<path d="M39.1604 39.3664C38.3749 42.6019 34.212 44.7608 28.2466 44.7608C23.0543 44.7608 18.6516 43.4137 17.49 40.443C16.3283 37.4781 16.7789 31.9915 18.3292 28.5747C18.5607 28.0652 18.8418 27.5729 19.1642 27.1066L19.1684 27.1009C19.4619 26.6777 19.7885 26.2747 20.1481 25.8976C20.1523 25.8947 20.1523 25.8919 20.1523 25.8919C22.0456 23.9057 24.8196 22.6074 27.9573 22.6074C31.2231 22.6074 33.72 23.543 35.4191 24.9247C36.2087 25.5666 36.8288 26.3092 37.2711 27.0951C37.7838 28.0018 38.2137 28.9633 38.5527 29.9535C38.5527 29.9593 38.5568 29.9708 38.5609 29.9823C39.6358 33.0883 39.8632 36.4763 39.1604 39.3664Z" fill="url(#paint18_linear_8343_16195)"/>
<path opacity="0.3" d="M39.1604 39.3666C38.3749 42.6021 34.212 44.761 28.2466 44.761C23.0543 44.761 18.6516 43.4139 17.49 40.4432C16.3283 37.4783 16.7789 31.9917 18.3292 28.5749C18.5607 28.0654 18.8418 27.5732 19.1642 27.1068L19.1684 27.1011C19.1684 27.1011 16.0265 34.355 18.5359 38.9751C21.0452 43.5952 32.7486 43.4974 36.7089 40.4288C40.4791 37.5071 38.7387 30.6446 38.5609 29.9883C39.6358 33.0885 39.8632 36.4765 39.1604 39.3666Z" fill="url(#paint19_linear_8343_16195)"/>
<path d="M17.7135 37.4438C18.6023 33.1 23.6045 30.1553 29.1647 30.5208C35.1549 30.9152 38.3753 34.8963 38.2926 38.3131C38.2058 41.73 34.6216 44.3984 28.1891 44.3984C21.7566 44.3984 16.8826 41.5083 17.7135 37.4438Z" fill="url(#paint20_linear_8343_16195)"/>
<path d="M17.7711 37.8032C18.6599 33.4594 23.662 30.5146 29.2223 30.8802C35.2124 31.2746 38.4328 35.2556 38.3501 38.6725C38.2633 42.0893 34.6791 44.7578 28.2466 44.7578C21.8183 44.7606 16.9402 41.8677 17.7711 37.8032Z" fill="url(#paint21_radial_8343_16195)"/>
<path opacity="0.5" d="M35.4198 24.9246C34.1506 26.3121 27.1518 27.121 23.1087 26.8648C19.5865 26.6402 20.124 25.9782 20.1488 25.8947C20.1529 25.8918 20.1529 25.8889 20.1529 25.8889C22.0463 23.9027 24.8202 22.6045 27.9579 22.6045C31.2238 22.6074 33.7207 23.5429 35.4198 24.9246Z" fill="url(#paint22_linear_8343_16195)"/>
<path d="M32.9352 27.3311C32.6086 27.406 32.5962 29.231 32.9352 29.5275C33.2741 29.8211 33.824 29.7319 34.0058 29.3001C34.1836 28.8712 33.4271 27.2189 32.9352 27.3311Z" fill="white"/>
<path d="M33.5341 30.0141C33.2613 30.0601 33.2324 30.5121 33.3564 30.6704C33.4804 30.8287 33.9517 30.7942 34.0302 30.6013C34.1087 30.4113 33.807 29.968 33.5341 30.0141Z" fill="white"/>
<path opacity="0.72" d="M21.2891 42.2279C21.2891 42.2279 22.7235 43.9694 28.0729 43.9838C33.4223 43.9982 35.5968 41.7817 35.5968 41.7817C35.5968 41.7817 33.1288 42.9015 29.6025 42.2279C26.0721 41.5572 22.583 41.1772 21.2891 42.2279Z" fill="url(#paint23_linear_8343_16195)" fill-opacity="0.22"/>
<path opacity="0.72" d="M19.8958 35.0486C20.95 36.223 25.2989 35.5984 30.1977 35.9294C35.0965 36.2604 35.9315 37.3716 36.965 37.147C37.9985 36.9225 36.3656 31.7872 29.0484 31.4388C21.7271 31.0905 19.6312 34.7549 19.8958 35.0486Z" fill="url(#paint24_linear_8343_16195)" fill-opacity="0.22"/>
<path d="M9.80921 20.0542C13.7696 26.4158 43.4145 24.4325 46.9573 19.205C50.8308 13.4882 41.9221 -0.636883 27.7177 0.0223076C15.7167 0.580748 4.72026 11.8762 9.80921 20.0542Z" fill="url(#paint25_linear_8343_16195)"/>
<path d="M11.4465 19.1563C15.2332 24.3751 41.112 23.5115 44.8905 18.7159C48.0985 14.6427 40.5209 2.23898 27.5194 2.6794C14.5222 3.1227 7.8127 14.1505 11.4465 19.1563Z" fill="url(#paint26_linear_8343_16195)"/>
<path d="M39.5413 13.0074C39.0328 13.9574 32.2076 13.848 32.2158 13.5054C32.2572 11.6085 33.7165 9.11563 36.4408 9.1329C39.2519 9.15017 40.4921 11.2371 39.5413 13.0074Z" fill="url(#paint27_linear_8343_16195)"/>
<path d="M16.5433 13.1344C17.1304 14.0641 23.9349 13.687 23.8977 13.3445C23.7034 11.4504 22.0498 9.0209 19.3296 9.14468C16.5227 9.27134 15.452 11.4044 16.5433 13.1344Z" fill="url(#paint28_linear_8343_16195)"/>
<path d="M24.0179 16.6459C22.9927 16.8186 25.1382 19.205 28.5818 19.205C31.6369 19.205 33.3607 16.7524 32.9721 16.6459C32.5835 16.5394 30.7522 17.1986 28.2015 17.1986C25.6508 17.1986 24.4478 16.574 24.0179 16.6459Z" fill="#2F95CD"/>
<path d="M7.13011 41.7153C7.13011 41.7153 8.49431 40.371 10.4662 40.1897C12.4381 40.0112 13.1451 40.3912 13.5213 41.3526C13.8974 42.3169 11.1029 45.8259 7.63031 48.4713C6.12967 48.5576 5.67906 47.2767 5.45996 46.4534C5.45996 45.7338 6.45214 42.8466 7.13011 41.7153Z" fill="url(#paint29_linear_8343_16195)"/>
<path d="M11.9171 40.181C11.9171 40.181 8.21721 43.7591 7.04316 45.8172C6.41066 46.9283 6.04688 47.6566 6.04688 47.6566C6.04688 47.6566 7.01009 49.3521 8.60168 47.933C10.8588 45.9237 13.8849 42.9012 13.3351 41.4476C12.8762 40.2155 12.562 39.9824 11.9171 40.181Z" fill="url(#paint30_linear_8343_16195)"/>
<path d="M46.941 31.9885C45.246 32.3569 45.0476 36.3639 46.6599 36.8734C48.2721 37.3829 50.5334 33.8768 49.6942 32.2821C49.6942 32.2821 48.1894 31.7179 46.941 31.9885Z" fill="url(#paint31_linear_8343_16195)"/>
<path d="M47.0895 32.455C47.0895 32.455 45.8824 33.2869 46.3991 34.6399C46.9159 35.9928 49.4996 36.9053 52.7283 36.8765C55.9569 36.8477 58.0239 35.2242 58.4745 34.2369C58.4745 34.2369 57.8916 33.4078 54.7291 32.8955C52.5794 32.5472 49.6939 32.2823 49.6939 32.2823C49.6939 32.2823 48.1933 32.1298 47.0895 32.455Z" fill="url(#paint32_linear_8343_16195)"/>
<path d="M46.5277 34.8988C46.5277 34.8988 49.3719 35.5436 52.7287 35.1234C56.0855 34.7031 55.0644 33.0335 55.0644 33.0335C55.0644 33.0335 53.419 32.4578 51.9143 32.2477C50.4095 32.0376 47.1395 32.2477 47.1395 32.2477C47.1395 32.2477 45.3536 33.3243 46.5277 34.8988Z" fill="url(#paint33_linear_8343_16195)"/>
<path opacity="0.5" d="M48.5898 36.2892C48.5898 36.2892 48.8916 34.6225 48.6146 33.8223C48.6146 33.8223 49.5655 35.558 49.6936 36.5914L48.5898 36.2892Z" fill="url(#paint34_linear_8343_16195)"/>
<path d="M58.2262 42.2161L56.8992 42.2823L57.9864 42.4291L57.8004 43.4481C57.8004 43.4481 57.7756 43.451 57.7301 43.4539C57.7136 43.4539 57.697 43.4539 57.6764 43.4567C57.4283 43.4682 56.8248 43.4942 56.031 43.5201C54.1211 43.5805 51.033 43.6352 48.7345 43.4481C48.7345 43.4481 49.9375 38.3243 48.7345 34.3288L48.6146 33.5055L48.5898 33.3501L53.3357 32.9932C53.3357 32.9932 55.8078 35.8573 57.5978 38.9028C57.9699 39.5361 58.313 40.1781 58.5983 40.7998L58.2262 42.2161Z" fill="url(#paint35_linear_8343_16195)"/>
<path opacity="0.5" d="M57.6026 38.9028L50.6699 39.7232L49.252 34.4209L55.2091 35.9293C55.2091 35.9293 57.3298 38.425 57.6026 38.9028Z" fill="url(#paint36_linear_8343_16195)"/>
<path opacity="0.5" d="M49.417 43.0854C49.417 43.0854 53.7081 43.4395 57.8049 43.4481C57.8049 43.4481 57.7801 43.451 57.7346 43.4539C57.7181 43.4539 57.7015 43.4539 57.6809 43.4568C57.4328 43.4683 56.8293 43.4942 56.0355 43.5201C53.9479 43.592 50.5456 43.6611 48.739 43.4481C48.739 43.4481 49.942 38.3243 48.739 34.3288L48.6191 33.5056L49.0325 33.3242L56.9367 38.2869L57.6064 38.9029C57.9785 39.5362 58.3216 40.1781 58.6069 40.7998H51.331L50.6737 41.7901L56.9037 42.2794L50.5373 41.9858L49.417 43.0854Z" fill="url(#paint37_linear_8343_16195)"/>
<path d="M48.5898 33.3501C48.5898 33.3501 50.4667 32.4779 54.2203 32.3052C54.2203 32.3052 57.85 35.0628 59.9997 38.2839L50.7809 38.4567C50.785 38.4567 49.8755 35.0628 48.5898 33.3501Z" fill="url(#paint38_linear_8343_16195)"/>
<path opacity="0.5" d="M49.2686 33.1027C49.2686 33.1027 50.7609 34.2311 52.6956 34.5621C54.6345 34.8932 55.7672 33.5978 55.7672 33.5978L55.0975 33.002L49.2686 33.1027Z" fill="url(#paint39_linear_8343_16195)"/>
<path d="M47.3374 32.3455C46.8537 31.3035 53.5756 31.3179 54.4685 31.7209C54.8654 31.8994 55.5434 32.5154 55.2664 32.8925C54.9894 33.2695 52.7777 33.4998 51.8558 33.4336C50.934 33.3674 47.6598 33.0278 47.3374 32.3455Z" fill="url(#paint40_linear_8343_16195)"/>
<path d="M52.4841 33.4396C52.4841 33.4396 52.4138 32.4149 53.1786 32.0061C53.9434 31.5973 54.6379 31.8104 54.6379 31.8104C54.6379 31.8104 55.6384 32.3285 55.2663 32.8898C54.8901 33.4511 52.9843 33.5836 52.4841 33.4396Z" fill="url(#paint41_linear_8343_16195)"/>
<path opacity="0.5" d="M52.5008 34.3115C51.0952 34.7605 51.6161 36.9309 53.4061 37.5124C55.1961 38.0939 56.5644 36.7323 56.3288 35.5348C56.0973 34.3374 53.4392 34.0121 52.5008 34.3115Z" fill="#D9D2EC"/>
<path d="M53.7083 34.9391C53.7827 34.9276 53.8653 34.919 53.9563 34.919C54.0472 34.9161 54.1465 34.919 54.2539 34.9247L54.378 35.299C54.3242 35.2846 54.2705 35.273 54.2167 35.2702C54.163 35.2673 54.1134 35.2644 54.0679 35.2673C54.0183 35.2673 53.9687 35.273 53.9191 35.2759C53.8571 35.2932 53.8116 35.3249 53.7827 35.3709C53.7537 35.417 53.7496 35.4659 53.7744 35.5206C53.7951 35.5695 53.8323 35.6098 53.8819 35.6415C53.9315 35.6703 53.9852 35.6962 54.0472 35.7192C54.1093 35.7423 54.1754 35.7624 54.2498 35.7826C54.3242 35.8027 54.3945 35.8286 54.4606 35.8603C54.5268 35.8919 54.5929 35.9294 54.6508 35.9754C54.7087 36.0215 54.7583 36.0819 54.7955 36.1568C54.8286 36.2287 54.841 36.2978 54.8327 36.3583C54.8244 36.4187 54.8079 36.4734 54.7748 36.5252C54.7418 36.5742 54.6963 36.6173 54.6425 36.6548C54.5888 36.6922 54.5309 36.7238 54.4689 36.7469L55.0187 37.4636H54.5144L54.2539 36.8102C54.2457 36.8131 54.2209 36.816 54.1878 36.8217C54.1547 36.8275 54.1134 36.8304 54.0679 36.8332C54.0224 36.8361 53.9687 36.8361 53.915 36.8332C53.8612 36.8304 53.8075 36.8217 53.7579 36.8044L53.6256 36.4389C53.7 36.459 53.7703 36.4677 53.8405 36.4734C53.9108 36.4763 53.9687 36.4792 54.0224 36.4763C54.0845 36.4734 54.1423 36.4676 54.2002 36.4561C54.2787 36.3986 54.3035 36.3324 54.2705 36.2575C54.2539 36.2201 54.2209 36.1884 54.1713 36.1625C54.1217 36.1366 54.0638 36.1107 53.9976 36.0848C53.9315 36.0589 53.8571 36.033 53.7827 36.0071C53.7041 35.9812 53.6297 35.9466 53.5553 35.9092C53.4809 35.8718 53.4147 35.8257 53.3569 35.7739C53.299 35.7221 53.2494 35.6559 53.2163 35.5811C53.1626 35.4573 53.1584 35.345 53.2122 35.2443C53.2618 35.1435 53.3527 35.0629 53.4809 35.0053L53.0303 34.2339L53.4437 34.3145L53.7083 34.9391Z" fill="white"/>
<path d="M31.9049 1.2055C31.6362 1.43003 34.7781 2.37995 35.1997 2.24754C35.6173 2.11512 32.8103 0.454193 31.9049 1.2055Z" fill="white"/>
<path opacity="0.5" d="M16.0104 7.90659C15.7127 9.15013 19.0943 9.00908 24.5057 8.88242C31.0044 8.73274 37.5361 12.6303 41.3394 9.83235C41.9677 9.37178 35.7419 3.32104 28.2305 3.45634C20.7148 3.59451 16.2667 6.82713 16.0104 7.90659Z" fill="url(#paint42_linear_8343_16195)" fill-opacity="0.42"/>
<path opacity="0.5" d="M19.3589 20.8775C19.0157 21.7785 21.7235 22.6794 28.3751 22.452C36.4199 22.1786 38.1272 21.0041 37.7345 20.6788C37.4988 20.4831 35.0887 21.5395 28.4785 20.532C24.1171 19.8642 19.7185 19.9275 19.3589 20.8775Z" fill="url(#paint43_linear_8343_16195)" fill-opacity="0.42"/>
<path opacity="0.2" d="M12.17 18.0765C12.17 18.0765 11.8889 16.7697 12.2196 15.0166C12.5504 13.2636 13.2242 12.1323 13.6293 12.2906C14.0303 12.4489 13.9683 14.1674 14.2081 15.8571C14.3941 17.1727 14.7579 18.4104 14.7579 18.4104C14.7579 18.4104 13.0175 19.5705 12.17 18.0765Z" fill="url(#paint44_linear_8343_16195)" fill-opacity="0.42"/>
<path opacity="0.5" d="M12.724 22.2016C12.724 22.2016 13.125 21.8994 15.2706 21.0214C16.7092 20.4313 18.2223 19.7347 18.4372 19.4785C18.7555 18.8769 12.2734 19.2309 12.2734 19.2309L9.80957 20.0542C9.80957 20.0542 10.7893 21.4014 12.724 22.2016Z" fill="url(#paint45_linear_8343_16195)"/>
<path d="M7.77109 8.89404C7.77109 8.89404 9.44537 9.64247 8.34572 11.3782C8.34572 11.3782 0.53245 14.3403 0.987189 17.57C1.36338 20.2644 12.1573 18.9604 12.1573 18.9604L12.5459 19.8585C12.5459 19.8585 3.37664 21.1078 0.214134 19.6052C0.214134 19.6052 -0.86069 17.8262 1.80574 14.6195C4.47217 11.4128 7.77109 8.89404 7.77109 8.89404Z" fill="url(#paint46_linear_8343_16195)"/>
<path d="M10.7929 18.71C9.80901 19.4844 11.8967 20.3335 13.6123 20.4631C15.5387 20.6099 18.9575 20.0774 18.7508 18.7273C18.5441 17.3773 13.0955 16.8937 10.7929 18.71Z" fill="url(#paint47_linear_8343_16195)"/>
<path d="M10.9213 18.8512C10.8634 19.0729 17.7382 19.1247 17.8994 18.2784C18.0607 17.435 11.3719 17.1443 10.9213 18.8512Z" fill="url(#paint48_linear_8343_16195)"/>
<path opacity="0.72" d="M46.9405 3.40195C46.9405 3.40195 46.031 2.6161 44.7866 2.82624C43.5464 3.03637 43.4638 5.75949 44.2037 5.8257C44.9479 5.8919 45.262 4.32021 45.8284 4.07265C46.3989 3.8251 47.391 3.92009 47.391 3.92009L46.9405 3.40195Z" fill="url(#paint49_linear_8343_16195)" fill-opacity="0.42"/>
<path opacity="0.72" d="M8.25488 4.56177C8.25488 4.56177 8.73443 4.18468 9.80927 4.30558C10.8841 4.42936 11.5042 5.96651 12.0582 5.81107C12.608 5.65563 12.207 3.16567 10.7477 2.43164C10.7518 2.43452 8.87498 3.54852 8.25488 4.56177Z" fill="url(#paint50_linear_8343_16195)" fill-opacity="0.42"/>
<path opacity="0.5" d="M8.80078 43.4742C8.80078 43.4742 9.31753 45.3827 10.9753 45.6677L11.2357 41.0879C11.2357 41.0879 9.29686 42.887 8.80078 43.4742Z" fill="url(#paint51_linear_8343_16195)"/>
<path d="M10.4213 42.1759C10.1733 42.6164 10.6528 45.5007 11.1034 45.8288C11.554 46.1541 12.5958 45.6043 12.8852 45.02C13.1745 44.4356 14.4767 41.2519 12.8025 40.23C12.8066 40.2272 11.4548 40.3308 10.4213 42.1759Z" fill="url(#paint52_linear_8343_16195)"/>
<path d="M11.1772 42.5615C10.9912 42.5845 10.7886 43.5719 10.9416 43.7503C11.0945 43.9288 11.4005 43.9058 11.5451 43.6841C11.6857 43.4625 11.4542 42.5269 11.1772 42.5615Z" fill="white"/>
<path d="M6.27015 10.6411C6.27015 10.6411 2.53301 13.6607 2.77278 13.8709C3.00842 14.081 6.50579 10.9462 6.27015 10.6411Z" fill="url(#paint53_linear_8343_16195)"/>
<defs>
<radialGradient id="paint0_radial_8343_16195" cx="0" cy="0" r="1" gradientUnits="userSpaceOnUse" gradientTransform="translate(28.2659 57.3871) scale(16.8615 2.61236)">
<stop stop-color="#4C2B88"/>
<stop offset="1" stop-color="#4C2B88" stop-opacity="0"/>
</radialGradient>
<linearGradient id="paint1_linear_8343_16195" x1="41.031" y1="37.4211" x2="41.9545" y2="26.8622" gradientUnits="userSpaceOnUse">
<stop stop-color="#CBC1F7"/>
<stop offset="1" stop-color="#E8DCF7"/>
</linearGradient>
<linearGradient id="paint2_linear_8343_16195" x1="39.7259" y1="37.6015" x2="39.7259" y2="26.4111" gradientUnits="userSpaceOnUse">
<stop stop-color="#9D68C2"/>
<stop offset="1" stop-color="#CCEDFF"/>
</linearGradient>
<linearGradient id="paint3_linear_8343_16195" x1="23.937" y1="52.4757" x2="23.6034" y2="42.3584" gradientUnits="userSpaceOnUse">
<stop stop-color="#CBC1F7"/>
<stop offset="1" stop-color="#E8DCF7"/>
</linearGradient>
<linearGradient id="paint4_linear_8343_16195" x1="23.7994" y1="45.8812" x2="23.32" y2="41.9239" gradientUnits="userSpaceOnUse">
<stop stop-color="#BE9DEA"/>
<stop offset="1" stop-color="#9E8CEF"/>
</linearGradient>
<linearGradient id="paint5_linear_8343_16195" x1="25.448" y1="52.4242" x2="24.1676" y2="41.8547" gradientUnits="userSpaceOnUse">
<stop stop-color="#9D68C2"/>
<stop offset="1" stop-color="#CCEDFF"/>
</linearGradient>
<linearGradient id="paint6_linear_8343_16195" x1="29.911" y1="52.9289" x2="32.5356" y2="39.8742" gradientUnits="userSpaceOnUse">
<stop stop-color="#CBC1F7"/>
<stop offset="1" stop-color="#E8DCF7"/>
</linearGradient>
<linearGradient id="paint7_linear_8343_16195" x1="33.3818" y1="45.3726" x2="33.8977" y2="40.666" gradientUnits="userSpaceOnUse">
<stop stop-color="#BE9DEA"/>
<stop offset="1" stop-color="#9E8CEF"/>
</linearGradient>
<linearGradient id="paint8_linear_8343_16195" x1="31.7268" y1="52.8181" x2="33.0727" y2="40.5392" gradientUnits="userSpaceOnUse">
<stop stop-color="#9D68C2"/>
<stop offset="1" stop-color="#CCEDFF"/>
</linearGradient>
<linearGradient id="paint9_linear_8343_16195" x1="12.1808" y1="42.2397" x2="13.7064" y2="24.7944" gradientUnits="userSpaceOnUse">
<stop stop-color="#CBC1F7"/>
<stop offset="1" stop-color="#E8DCF7"/>
</linearGradient>
<linearGradient id="paint10_linear_8343_16195" x1="10.352" y1="42.0738" x2="10.352" y2="39.3232" gradientUnits="userSpaceOnUse">
<stop stop-color="#BE9DEA"/>
<stop offset="1" stop-color="#9E8CEF"/>
</linearGradient>
<linearGradient id="paint11_linear_8343_16195" x1="13.456" y1="41.9112" x2="13.456" y2="27.3696" gradientUnits="userSpaceOnUse">
<stop stop-color="#9D68C2"/>
<stop offset="1" stop-color="#CCEDFF"/>
</linearGradient>
<linearGradient id="paint12_linear_8343_16195" x1="42.8536" y1="11.1881" x2="42.8536" y2="1.20657" gradientUnits="userSpaceOnUse">
<stop stop-color="#B9ACF4"/>
<stop offset="1" stop-color="#E1D1F5"/>
</linearGradient>
<linearGradient id="paint13_linear_8343_16195" x1="43.8946" y1="6.63161" x2="43.8946" y2="1.20547" gradientUnits="userSpaceOnUse">
<stop stop-color="#BE9DEA"/>
<stop offset="1" stop-color="#9E8CEF"/>
</linearGradient>
<linearGradient id="paint14_linear_8343_16195" x1="45.832" y1="11.6655" x2="45.832" y2="1.85837" gradientUnits="userSpaceOnUse">
<stop stop-color="#45FFCD"/>
<stop offset="1" stop-color="#22E0FF"/>
</linearGradient>
<linearGradient id="paint15_linear_8343_16195" x1="12.9906" y1="11.5769" x2="12.9906" y2="1.59541" gradientUnits="userSpaceOnUse">
<stop stop-color="#B9ACF4"/>
<stop offset="1" stop-color="#E1D1F5"/>
</linearGradient>
<linearGradient id="paint16_linear_8343_16195" x1="11.9494" y1="7.02108" x2="11.9494" y2="1.59497" gradientUnits="userSpaceOnUse">
<stop stop-color="#BE9DEA"/>
<stop offset="1" stop-color="#9E8CEF"/>
</linearGradient>
<linearGradient id="paint17_linear_8343_16195" x1="10.0222" y1="12.2762" x2="10.0222" y2="2.24767" gradientUnits="userSpaceOnUse">
<stop stop-color="#45FFCD"/>
<stop offset="1" stop-color="#22E0FF"/>
</linearGradient>
<linearGradient id="paint18_linear_8343_16195" x1="26.5913" y1="44.7216" x2="28.5264" y2="22.5947" gradientUnits="userSpaceOnUse">
<stop stop-color="#CBC1F7"/>
<stop offset="1" stop-color="#E8DCF7"/>
</linearGradient>
<linearGradient id="paint19_linear_8343_16195" x1="28.2006" y1="44.7594" x2="28.2006" y2="27.0997" gradientUnits="userSpaceOnUse">
<stop stop-color="#9D68C2"/>
<stop offset="1" stop-color="#CCEDFF"/>
</linearGradient>
<linearGradient id="paint20_linear_8343_16195" x1="27.958" y1="44.4003" x2="27.958" y2="30.4916" gradientUnits="userSpaceOnUse">
<stop stop-color="#BE9DEA"/>
<stop offset="1" stop-color="#9E8CEF"/>
</linearGradient>
<radialGradient id="paint21_radial_8343_16195" cx="0" cy="0" r="1" gradientUnits="userSpaceOnUse" gradientTransform="translate(28.358 42.6011) scale(15.2425 10.6136)">
<stop stop-color="#45FFCD"/>
<stop offset="1" stop-color="#22E0FF"/>
</radialGradient>
<linearGradient id="paint22_linear_8343_16195" x1="27.7636" y1="26.9124" x2="27.7636" y2="22.6074" gradientUnits="userSpaceOnUse">
<stop stop-color="#8DA4E5"/>
<stop offset="1" stop-color="#755CBB"/>
</linearGradient>
<linearGradient id="paint23_linear_8343_16195" x1="27.6562" y1="43.9818" x2="27.6642" y2="41.5692" gradientUnits="userSpaceOnUse">
<stop/>
<stop offset="1" stop-color="#00E3FF"/>
</linearGradient>
<linearGradient id="paint24_linear_8343_16195" x1="27.605" y1="37.1716" x2="27.6425" y2="31.4026" gradientUnits="userSpaceOnUse">
<stop/>
<stop offset="1" stop-color="#00E3FF"/>
</linearGradient>
<linearGradient id="paint25_linear_8343_16195" x1="26.6379" y1="24.3683" x2="28.7749" y2="-0.0679651" gradientUnits="userSpaceOnUse">
<stop stop-color="#CBC1F7"/>
<stop offset="1" stop-color="#E8DCF7"/>
</linearGradient>
<linearGradient id="paint26_linear_8343_16195" x1="28.0459" y1="22.7087" x2="28.0459" y2="2.66959" gradientUnits="userSpaceOnUse">
<stop stop-color="#0665BD"/>
<stop offset="1" stop-color="#1A1F77"/>
</linearGradient>
<linearGradient id="paint27_linear_8343_16195" x1="35.7799" y1="13.9423" x2="36.2327" y2="9.09343" gradientUnits="userSpaceOnUse">
<stop stop-color="#45FFCD"/>
<stop offset="1" stop-color="#22E0FF"/>
</linearGradient>
<linearGradient id="paint28_linear_8343_16195" x1="20.3752" y1="13.9209" x2="19.7281" y2="9.07112" gradientUnits="userSpaceOnUse">
<stop stop-color="#45FFCD"/>
<stop offset="1" stop-color="#22E0FF"/>
</linearGradient>
<linearGradient id="paint29_linear_8343_16195" x1="8.67853" y1="48.5892" x2="9.43326" y2="39.959" gradientUnits="userSpaceOnUse">
<stop stop-color="#CBC1F7"/>
<stop offset="1" stop-color="#E8DCF7"/>
</linearGradient>
<linearGradient id="paint30_linear_8343_16195" x1="10.2544" y1="48.2983" x2="9.687" y2="40.2994" gradientUnits="userSpaceOnUse">
<stop stop-color="#BE9DEA"/>
<stop offset="1" stop-color="#9E8CEF"/>
</linearGradient>
<linearGradient id="paint31_linear_8343_16195" x1="48.1399" y1="36.8473" x2="47.7888" y2="31.8978" gradientUnits="userSpaceOnUse">
<stop stop-color="#BE9DEA"/>
<stop offset="1" stop-color="#9E8CEF"/>
</linearGradient>
<linearGradient id="paint32_linear_8343_16195" x1="51.8614" y1="36.8741" x2="52.2434" y2="32.5057" gradientUnits="userSpaceOnUse">
<stop stop-color="#CBC1F7"/>
<stop offset="1" stop-color="#E8DCF7"/>
</linearGradient>
<linearGradient id="paint33_linear_8343_16195" x1="50.8964" y1="35.2789" x2="50.6636" y2="31.9965" gradientUnits="userSpaceOnUse">
<stop stop-color="#BE9DEA"/>
<stop offset="1" stop-color="#9E8CEF"/>
</linearGradient>
<linearGradient id="paint34_linear_8343_16195" x1="49.1421" y1="36.5937" x2="49.1421" y2="33.8247" gradientUnits="userSpaceOnUse">
<stop stop-color="#8DA4E5"/>
<stop offset="1" stop-color="#755CBB"/>
</linearGradient>
<linearGradient id="paint35_linear_8343_16195" x1="53.595" y1="43.5754" x2="53.595" y2="32.9941" gradientUnits="userSpaceOnUse">
<stop stop-color="#6FCAF4"/>
<stop offset="1" stop-color="#7DFFCF"/>
</linearGradient>
<linearGradient id="paint36_linear_8343_16195" x1="53.4265" y1="39.7244" x2="53.4265" y2="34.4209" gradientUnits="userSpaceOnUse">
<stop stop-color="#755CBB"/>
<stop offset="1" stop-color="#CCEDFF"/>
</linearGradient>
<linearGradient id="paint37_linear_8343_16195" x1="53.6072" y1="43.5895" x2="53.6072" y2="33.324" gradientUnits="userSpaceOnUse">
<stop stop-color="#755CBB"/>
<stop offset="1" stop-color="#CCEDFF"/>
</linearGradient>
<linearGradient id="paint38_linear_8343_16195" x1="54.2974" y1="38.4567" x2="54.2974" y2="32.3057" gradientUnits="userSpaceOnUse">
<stop stop-color="#6FCAF4"/>
<stop offset="1" stop-color="#7DFFCF"/>
</linearGradient>
<linearGradient id="paint39_linear_8343_16195" x1="49.2684" y1="33.809" x2="55.7683" y2="33.809" gradientUnits="userSpaceOnUse">
<stop stop-color="#755CBB"/>
<stop offset="1" stop-color="#CCEDFF"/>
</linearGradient>
<linearGradient id="paint40_linear_8343_16195" x1="50.5075" y1="33.6388" x2="51.5153" y2="30.7025" gradientUnits="userSpaceOnUse">
<stop stop-color="#CBC1F7"/>
<stop offset="1" stop-color="#E8DCF7"/>
</linearGradient>
<linearGradient id="paint41_linear_8343_16195" x1="53.9801" y1="33.443" x2="53.8616" y2="31.7732" gradientUnits="userSpaceOnUse">
<stop stop-color="#CBC1F7"/>
<stop offset="1" stop-color="#D4BEF1"/>
</linearGradient>
<linearGradient id="paint42_linear_8343_16195" x1="27.2915" y1="10.8395" x2="27.3338" y2="3.43749" gradientUnits="userSpaceOnUse">
<stop/>
<stop offset="1" stop-color="#00E3FF"/>
</linearGradient>
<linearGradient id="paint43_linear_8343_16195" x1="27.5434" y1="22.4855" x2="27.5495" y2="20.0829" gradientUnits="userSpaceOnUse">
<stop/>
<stop offset="1" stop-color="#00E3FF"/>
</linearGradient>
<linearGradient id="paint44_linear_8343_16195" x1="13.2598" y1="18.8338" x2="13.5729" y2="12.2759" gradientUnits="userSpaceOnUse">
<stop/>
<stop offset="1" stop-color="#00E3FF"/>
</linearGradient>
<linearGradient id="paint45_linear_8343_16195" x1="14.1305" y1="22.2008" x2="14.1305" y2="19.1279" gradientUnits="userSpaceOnUse">
<stop stop-color="#8DA4E5"/>
<stop offset="1" stop-color="#755CBB"/>
</linearGradient>
<linearGradient id="paint46_linear_8343_16195" x1="6.011" y1="20.5034" x2="7.03196" y2="8.82909" gradientUnits="userSpaceOnUse">
<stop stop-color="#BE9DEA"/>
<stop offset="1" stop-color="#9E8CEF"/>
</linearGradient>
<linearGradient id="paint47_linear_8343_16195" x1="14.1216" y1="20.5722" x2="14.6571" y2="17.3062" gradientUnits="userSpaceOnUse">
<stop stop-color="#DD1A8F"/>
<stop offset="1" stop-color="#FE117E"/>
</linearGradient>
<linearGradient id="paint48_linear_8343_16195" x1="14.4114" y1="18.9915" x2="14.4114" y2="17.6055" gradientUnits="userSpaceOnUse">
<stop stop-color="#D93DE3"/>
<stop offset="1" stop-color="#FF6DBA"/>
</linearGradient>
<linearGradient id="paint49_linear_8343_16195" x1="45.36" y1="5.82502" x2="45.4096" y2="2.78441" gradientUnits="userSpaceOnUse">
<stop/>
<stop offset="1" stop-color="#00E3FF"/>
</linearGradient>
<linearGradient id="paint50_linear_8343_16195" x1="10.0524" y1="5.81907" x2="10.1083" y2="2.42483" gradientUnits="userSpaceOnUse">
<stop/>
<stop offset="1" stop-color="#00E3FF"/>
</linearGradient>
<linearGradient id="paint51_linear_8343_16195" x1="10.5185" y1="45.6994" x2="10.1965" y2="41.1603" gradientUnits="userSpaceOnUse">
<stop stop-color="#8DA4E5"/>
<stop offset="1" stop-color="#755CBB"/>
</linearGradient>
<linearGradient id="paint52_linear_8343_16195" x1="11.3725" y1="45.921" x2="11.8775" y2="40.1466" gradientUnits="userSpaceOnUse">
<stop stop-color="#CBC1F7"/>
<stop offset="1" stop-color="#E8DCF7"/>
</linearGradient>
<linearGradient id="paint53_linear_8343_16195" x1="4.52205" y1="13.8815" x2="4.52205" y2="10.6407" gradientUnits="userSpaceOnUse">
<stop stop-color="#CBC1F7"/>
<stop offset="1" stop-color="#E8DCF7"/>
</linearGradient>
</defs>
</svg>
