<svg width="429" height="535" viewBox="0 0 429 535" fill="none" xmlns="http://www.w3.org/2000/svg">
<path d="M77.7575 470.272C101.177 508.987 297.363 498.528 370.772 462.569C444.18 426.61 438.36 171.523 403.413 125.499C368.466 79.4465 162.018 3.08636 71.1506 53.0747C-19.7169 103.063 46.578 418.766 77.7575 470.272Z" fill="#E5F6FF"/>
<path d="M324.832 37.2464C325.029 18.3532 379.15 -5.31958 403.638 1.06251C428.154 7.44461 431.922 91.8738 394.641 94.6572C357.361 97.4687 324.607 60.8068 324.832 37.2464Z" fill="#E5F6FF"/>
<path d="M0.526183 449.89C-4.08467 429.9 22.737 404.091 36.8788 407.774C51.0206 411.457 67.018 478.089 45.5101 479.692C23.974 481.323 3.59071 463.16 0.526183 449.89Z" fill="#E5F6FF"/>
<path d="M203.291 525.968C200.367 527.064 100.475 537.214 88.6383 525.968C77.083 514.975 156.058 466.027 167.641 466.898C170.481 467.095 172.73 469.906 176.976 476.064C190.077 494.929 203.291 525.968 203.291 525.968Z" fill="url(#paint0_linear_8293_1847)"/>
<path d="M167.613 466.899C162.468 467.573 180.518 519.277 203.263 525.968C203.263 525.968 181.193 465.155 167.613 466.899Z" fill="url(#paint1_linear_8293_1847)"/>
<path opacity="0.3" d="M203.291 525.967C200.367 527.064 101.009 536.595 88.6382 525.967C88.6382 525.967 117.934 530.859 144.671 521.609C171.437 512.331 171.915 489.024 171.915 489.024L173.545 469.344C186.675 488.209 203.291 525.967 203.291 525.967Z" fill="url(#paint2_linear_8293_1847)"/>
<path d="M97.8883 439.965C97.8883 439.965 93.0243 416.826 114.111 392.169C141.438 360.203 198.455 336.53 207.986 340.944C217.517 345.358 186.338 395.543 186.338 395.543C186.338 395.543 146.864 405.496 126.059 429.731C105.254 453.938 97.8883 439.965 97.8883 439.965Z" fill="url(#paint3_linear_8293_1847)"/>
<path d="M300.091 470.75C297.392 493.186 287.017 510.842 269.446 520.457C257.665 526.867 242.624 529.707 224.518 527.88C197.668 525.181 181.305 505.078 174.08 477.694C174.08 477.666 174.052 477.638 174.052 477.61C170.818 465.38 169.441 451.66 169.722 437.406C170.734 391.185 195.194 354.776 212.035 343.446C239.925 324.693 279.342 335.517 283.756 368.468C287.299 394.952 304.645 433.217 300.091 470.75Z" fill="url(#paint4_linear_8293_1847)"/>
<path d="M275.237 350.615C270.542 348.731 267.815 392.281 287.073 417.697C287.073 417.697 295.845 412.102 292.078 390.735C288.311 369.367 281.563 353.173 275.237 350.615Z" fill="url(#paint5_linear_8293_1847)"/>
<path d="M271.835 366.528C271.835 366.528 289.295 391.298 283.644 412.609C283.616 412.609 272.538 395.965 271.835 366.528Z" fill="#6340A2"/>
<path d="M269.445 520.429C257.665 526.839 242.624 529.679 224.518 527.852C197.668 525.153 181.305 505.05 174.08 477.666C174.08 477.638 174.051 477.61 174.051 477.582C166.545 447.359 180.153 407.07 221.032 407.07C261.967 407.07 281.957 449.045 283.981 478.482C284.74 490.234 283.39 513.513 269.445 520.429Z" fill="url(#paint6_radial_8293_1847)"/>
<path d="M351.625 511.405C352.131 522.791 345.946 531.057 334.785 533.362C329.049 534.543 316.425 534.487 304.139 533.194C303.661 533.165 303.408 533.137 303.408 533.137C288.563 531.535 274.393 528.189 273.662 523.128C273.156 519.727 272.96 516.184 273.044 512.613C273.381 483.037 290.531 449.748 301.468 452.026C308.216 453.431 318.028 459.954 327.165 468.782C334.7 475.98 341.757 484.752 346.312 493.411C349.742 499.877 351.457 506.006 351.625 511.405Z" fill="url(#paint7_linear_8293_1847)"/>
<path opacity="0.5" d="M327.222 468.782C327.222 468.782 306.332 462.85 289.857 476.43C278.189 486.045 274.872 506.259 273.073 512.613C273.41 483.037 290.56 449.748 301.497 452.026C308.244 453.403 318.056 459.926 327.222 468.782Z" fill="url(#paint8_linear_8293_1847)"/>
<path d="M346.283 423.771C344.372 434.229 321.964 449.58 284.093 446.853C284.093 446.853 266.015 432.289 267.787 416.32C267.787 416.32 269.417 415.673 271.666 414.549C276.109 412.328 290.222 406.93 291.628 402.15C294.299 393.097 284.712 380.53 278.948 367.344C273.606 355.17 277.683 344.515 280.495 343.924C283.306 343.334 301.581 349.688 319.687 366.529C321.542 368.244 323.285 369.987 324.888 371.702L324.916 371.73C344.99 393.097 348.055 414.099 346.283 423.771Z" fill="url(#paint9_linear_8293_1847)"/>
<path d="M271.104 416.039C271.104 416.039 254.854 404.484 243.298 399.536C243.298 399.536 231.968 401.729 229.916 407.773C227.891 413.846 252.661 425.654 252.661 425.654L271.104 416.039Z" fill="url(#paint10_linear_8293_1847)"/>
<path d="M108.459 418.288C108.459 418.288 118.243 399.479 126.031 397.033C133.819 394.587 138.655 395.571 139.948 397.033C141.269 398.495 141.382 405.805 138.317 411.54C135.253 417.276 122.77 423.742 122.77 423.742L108.459 418.288Z" fill="url(#paint11_linear_8293_1847)"/>
<path d="M124.654 397.623C124.654 397.623 126.088 403.527 131.036 406.283C135.984 409.038 139.639 407.941 139.639 407.941C139.639 407.941 144.081 398.523 139.217 395.543C134.972 392.956 125.722 395.852 124.654 397.623Z" fill="url(#paint12_linear_8293_1847)"/>
<path d="M257.89 486.241C244.761 491.386 222.887 468.726 209.083 460.544C195.166 452.335 171.043 449.776 160.022 454.528C149.001 459.279 132.385 479.269 117.344 476.682C114.617 476.204 113.661 469.26 114.251 459.673C115.432 439.795 123.192 408.785 135.309 401.109C153.303 389.751 225.924 392.675 243.158 408.813C252.38 417.444 258.565 437.94 260.899 455.708C263.007 471.172 262.164 484.554 257.89 486.241Z" fill="url(#paint13_linear_8293_1847)"/>
<path opacity="0.5" d="M257.89 486.242C244.761 491.387 222.887 468.726 209.083 460.545C195.166 452.335 171.043 449.777 160.022 454.528C149.001 459.279 132.385 479.269 117.344 476.683C114.617 476.205 113.661 469.26 114.251 459.673L118.3 452.672L145.712 435.972C145.712 435.972 145.937 445.869 148.523 447.19C151.082 448.483 160.613 446.431 178.494 446.262C196.375 446.065 210.32 455.231 218.755 449.917C227.217 444.603 233.29 431.699 233.29 431.699L241.162 430.827L260.927 455.681C263.007 471.172 262.164 484.555 257.89 486.242Z" fill="url(#paint14_linear_8293_1847)"/>
<path d="M106.857 412.609C106.857 412.609 124.148 411.485 144.39 426.329C144.39 426.329 150.041 447.05 138.374 459.955C138.374 459.955 129.658 464.931 117.147 466.843C104.608 468.755 106.857 412.609 106.857 412.609Z" fill="url(#paint15_linear_8293_1847)"/>
<path d="M267.815 416.349C267.815 416.349 283.362 416.349 291.909 429.563C299.079 440.668 288.029 447.106 288.029 447.106C288.029 447.106 269.052 445.785 267.815 416.349Z" fill="url(#paint16_linear_8293_1847)"/>
<path d="M106.857 412.609C98.872 412.102 92.7991 450.17 100.784 461.725C108.768 473.281 128.533 463.918 132.132 459.785C135.731 455.652 141.269 437.49 139.189 430.068C137.108 422.646 126.425 413.874 106.857 412.609Z" fill="url(#paint17_linear_8293_1847)"/>
<path d="M138.374 399.563C138.374 399.563 136.912 409.01 167.529 412.862C198.174 416.714 226.514 414.408 237.254 404.793C237.254 404.765 187.575 384.972 138.374 399.563Z" fill="url(#paint18_linear_8293_1847)"/>
<path d="M71.0385 517C48.6027 517 14.2463 515.313 4.79968 505.388C2.7754 503.28 1.87572 500.862 2.15687 498.191C3.30958 486.72 21.1344 480.478 40.0276 473.843C58.6397 467.321 77.8985 460.573 80.6537 449.018C82.425 441.595 79.7541 432.486 77.1675 423.686C73.7937 412.215 70.3074 400.379 76.0147 390.96C80.3163 383.904 89.3131 379.124 103.511 376.369C157.632 365.882 183.386 394.278 183.639 394.587L181.446 396.499C181.193 396.218 156.452 369.059 104.074 379.236C90.7189 381.823 82.3406 386.153 78.4888 392.507C73.4281 400.801 76.6052 411.541 79.9509 422.899C82.6499 432.064 85.4333 441.539 83.4652 449.721C80.3445 462.822 60.3267 469.823 40.9836 476.627C23.7773 482.643 6.0085 488.885 5.02447 498.528C4.85579 500.328 5.4463 501.93 6.88016 503.42C20.0379 517.225 90.269 513.71 90.9719 513.682L91.1124 516.578C90.1565 516.606 82.0314 517 71.0385 517Z" fill="url(#paint19_linear_8293_1847)"/>
<path opacity="0.5" d="M174.051 349.913C174.051 349.913 190.752 376.96 223.196 375.723C255.641 374.486 273.016 346.174 273.016 346.174L178.55 347.945L174.051 349.913Z" fill="url(#paint20_linear_8293_1847)"/>
<path d="M305.826 144.87C305.826 144.87 323.398 129.688 344.934 127.073C344.934 127.073 351.513 130.306 359.132 154.007C366.751 177.708 352.694 224.576 352.694 224.576L305.826 144.87Z" fill="url(#paint21_linear_8293_1847)"/>
<path d="M344.934 127.073C344.934 127.073 327.531 145.741 327.531 175.824L334.278 180.069L353.903 139.471C353.846 139.471 347.352 126.707 344.934 127.073Z" fill="url(#paint22_linear_8293_1847)"/>
<path d="M333.604 178.018C333.604 178.018 328.965 152.321 345.89 133.456C345.89 133.456 364.98 142.452 372.908 175.825C380.809 209.197 360.229 229.243 360.229 229.243L333.604 178.018Z" fill="url(#paint23_linear_8293_1847)"/>
<path d="M323.764 134.552C320.502 136.295 320.784 139.809 327.503 138.937C334.222 138.066 337.877 132.78 337.146 131.768C336.444 130.728 327.419 132.583 323.764 134.552Z" fill="white"/>
<path d="M158.279 148.693C158.279 148.693 140.707 133.511 119.171 130.896C119.171 130.896 112.592 134.13 104.973 157.831C97.3539 181.531 111.412 228.399 111.412 228.399L158.279 148.693Z" fill="url(#paint24_linear_8293_1847)"/>
<path d="M119.171 130.869C119.171 130.869 136.574 149.537 136.574 179.62L129.827 183.866L110.203 143.268C110.231 143.268 116.753 130.532 119.171 130.869Z" fill="url(#paint25_linear_8293_1847)"/>
<path d="M130.501 181.814C130.501 181.814 135.14 156.117 118.215 137.251C118.215 137.251 99.1251 146.248 91.1966 179.621C83.2963 212.993 106.069 235.204 106.069 235.204L130.501 181.814Z" fill="url(#paint26_linear_8293_1847)"/>
<path d="M140.313 138.347C143.575 140.091 143.294 143.605 136.574 142.733C129.855 141.862 126.2 136.576 126.931 135.564C127.662 134.524 136.687 136.379 140.313 138.347Z" fill="white"/>
<path d="M108.881 311.17C135.815 373.304 337.428 353.933 361.522 302.876C387.866 247.04 327.278 109.08 230.675 115.518C149.058 120.972 74.2436 231.296 108.881 311.17Z" fill="url(#paint27_linear_8293_1847)"/>
<path d="M120.015 295.932C145.768 346.904 321.768 338.47 347.465 291.63C369.282 251.848 317.747 130.7 229.326 135.002C140.904 139.303 95.2737 247.012 120.015 295.932Z" fill="url(#paint28_linear_8293_1847)"/>
<path d="M259.127 127.073C257.3 129.266 278.667 138.544 281.535 137.251C284.374 135.929 265.284 119.735 259.127 127.073Z" fill="white"/>
<path opacity="0.5" d="M151.025 186.058C149.001 198.204 171.999 196.826 208.802 195.589C252.998 194.127 297.42 232.195 323.285 204.867C327.559 200.369 285.218 141.271 234.133 142.593C183.048 143.914 152.796 175.515 151.025 186.058Z" fill="url(#paint29_linear_8293_1847)" fill-opacity="0.42"/>
<path opacity="0.5" d="M173.799 312.716C171.465 321.516 189.88 330.316 235.117 328.095C289.829 325.424 301.441 313.953 298.77 310.776C297.167 308.864 280.776 319.182 235.82 309.342C206.159 302.847 176.273 303.466 173.799 312.716Z" fill="url(#paint30_linear_8293_1847)" fill-opacity="0.42"/>
<path opacity="0.2" d="M124.906 285.388C124.906 285.388 122.995 272.624 125.244 255.502C127.493 238.38 132.076 227.331 134.831 228.877C137.558 230.424 137.136 247.208 138.767 263.712C140.032 276.56 142.506 288.65 142.506 288.65C142.506 288.65 130.67 299.952 124.906 285.388Z" fill="url(#paint31_linear_8293_1847)" fill-opacity="0.42"/>
<path opacity="0.5" d="M128.702 332.116C128.702 332.116 131.429 329.164 146.021 320.589C155.805 314.825 166.095 308.021 167.557 305.519C169.722 299.643 125.637 303.101 125.637 303.101L108.881 311.142C108.881 311.17 115.544 324.328 128.702 332.116Z" fill="url(#paint32_linear_8293_1847)"/>
<path d="M94.9922 202.168C94.9922 202.168 106.379 209.478 98.9003 226.432C98.9003 226.432 45.7631 255.362 48.8557 286.907C51.4142 313.222 124.822 300.486 124.822 300.486L127.465 309.258C127.465 309.258 65.1062 321.46 43.5982 306.784C43.5982 306.784 36.2883 289.409 54.4224 258.089C72.5847 226.769 94.9922 202.168 94.9922 202.168Z" fill="url(#paint33_linear_8293_1847)"/>
<path d="M115.544 298.04C108.853 305.603 123.051 313.897 134.719 315.162C147.82 316.596 171.071 311.395 169.666 298.209C168.26 284.995 131.233 280.3 115.544 298.04Z" fill="url(#paint34_linear_8293_1847)"/>
<path d="M116.444 299.418C116.05 301.583 162.806 302.089 163.902 293.823C164.97 285.557 119.509 282.746 116.444 299.418Z" fill="url(#paint35_linear_8293_1847)"/>
<path opacity="0.72" d="M361.381 148.498C361.381 148.498 355.196 140.822 346.734 142.875C338.299 144.927 337.737 171.524 342.769 172.17C347.83 172.817 349.967 157.466 353.818 155.048C357.698 152.631 364.446 153.558 364.446 153.558L361.381 148.498Z" fill="url(#paint36_linear_8293_1847)" fill-opacity="0.22"/>
<path opacity="0.72" d="M98.3096 159.855C98.3096 159.855 101.571 156.172 108.881 157.353C116.191 158.562 120.408 173.575 124.175 172.057C127.915 170.539 125.188 146.219 115.263 139.05C115.263 139.078 102.499 149.958 98.3096 159.855Z" fill="url(#paint37_linear_8293_1847)" fill-opacity="0.22"/>
<path d="M84.8147 219.233C84.8147 219.233 59.3989 248.726 61.0296 250.778C62.6603 252.831 86.4173 222.214 84.8147 219.233Z" fill="url(#paint38_linear_8293_1847)"/>
<path d="M266.803 248.024C271.414 257.78 311.562 259.045 318.028 243.638C323.848 229.805 305.826 193.172 281.816 196.489C263.682 199.02 259.015 231.548 266.803 248.024Z" fill="url(#paint39_radial_8293_1847)"/>
<path d="M198.315 248.024C193.704 257.78 153.556 259.045 147.089 243.638C141.269 229.805 158.307 194.606 183.301 196.489C201.548 197.867 206.074 231.549 198.315 248.024Z" fill="url(#paint40_radial_8293_1847)"/>
<path d="M219.401 278.95C219.401 278.95 232.98 265.876 243.102 266.664C253.223 267.451 246.026 280.58 246.026 280.58C246.026 280.58 233.852 283.195 219.401 278.95Z" fill="#2F95CD"/>
<path opacity="0.3" d="M346.284 423.77C344.372 434.229 321.964 449.579 284.093 446.852C284.093 446.852 266.016 432.289 267.787 416.319C267.787 416.319 265.959 417.557 268.208 416.432L275.715 417.725C275.715 417.725 299.416 423.854 325.001 419.468C350.585 415.054 332.62 382.441 324.888 371.757C344.99 393.097 348.055 414.098 346.284 423.77Z" fill="url(#paint41_linear_8293_1847)"/>
<path d="M287.242 451.014C287.13 451.043 287.017 451.099 286.905 451.155C286.68 451.239 286.343 451.352 285.921 451.52C285.865 451.577 285.809 451.605 285.752 451.605C283.953 452.308 280.692 453.601 276.784 455.288C274.9 456.075 272.876 457.003 270.767 457.959C262.22 461.867 251.789 468.53 251.171 468.952C251.143 468.952 251.143 468.98 251.143 468.98C251.143 468.98 231.153 459.814 230.057 447.697C229.298 439.29 234.414 426.948 240.656 419.554C243.411 416.264 246.42 413.959 249.203 413.34C258.284 411.4 268.208 415.786 268.208 415.786C268.208 415.786 281.423 415.449 287.299 428.269C293.118 441.118 287.242 451.014 287.242 451.014Z" fill="url(#paint42_linear_8293_1847)"/>
<path d="M287.242 451.014C287.13 451.042 287.017 451.098 286.905 451.154C286.624 451.267 286.258 451.379 285.921 451.52C285.865 451.576 285.808 451.604 285.752 451.604C283.953 452.448 281.507 453.713 278.836 455.231C269.108 460.629 255.978 468.979 255.978 468.979H251.115C251.115 468.979 251.115 468.951 251.143 468.951C255.416 461.416 261.63 457.002 267.674 454.444C277.655 450.227 287.242 451.014 287.242 451.014Z" fill="url(#paint43_linear_8293_1847)"/>
<path opacity="0.72" d="M195.531 509.184C195.531 509.184 205.99 523.382 227.442 524.9C248.893 526.419 258.621 520.402 258.621 520.402C258.621 520.402 255.135 513.739 245.97 512.221C236.804 510.702 226.345 518.518 216.252 517.169C206.159 515.819 195.531 509.184 195.531 509.184Z" fill="url(#paint44_linear_8293_1847)" fill-opacity="0.22"/>
<path opacity="0.3" d="M351.626 511.405C352.132 522.791 345.946 531.057 334.785 533.362C329.049 534.543 316.426 534.487 304.139 533.194C307.879 533.475 325.254 534.599 329.162 529.988C333.576 524.843 333.829 516.268 338.805 512.585C343.781 508.902 348.505 511.629 350.079 511.376C350.36 511.32 350.923 511.348 351.626 511.405Z" fill="url(#paint45_linear_8293_1847)"/>
<path d="M323.511 504.769C322.78 506.906 330.174 513.035 334.391 511.461C338.608 509.886 335.319 503.757 333.295 502.464C331.27 501.199 324.129 503.026 323.511 504.769Z" fill="white"/>
<path d="M103.82 509.183C103.567 511.151 115.151 506.428 117.203 502.717C119.255 499.006 119.958 494.704 119.255 494.451C118.581 494.198 104.214 506.147 103.82 509.183Z" fill="white"/>
<path d="M249.006 416.348C248.359 418.26 256.428 426.976 258.453 425.71C260.477 424.417 258.818 418.176 254.798 416.348C250.749 414.493 249.372 415.28 249.006 416.348Z" fill="white"/>
<path d="M303.746 392.197C301.412 392.787 301.721 396.33 299.697 399.563C297.673 402.768 293.906 405.158 294.327 405.889C294.749 406.62 304.28 406.451 305.939 401.587C307.598 396.695 305.067 391.859 303.746 392.197Z" fill="white"/>
<path d="M301.243 388.542C300.484 388.373 298.01 383.538 298.601 381.963C299.191 380.389 301.862 382.216 302.34 383.791C302.818 385.365 302.452 388.795 301.243 388.542Z" fill="white"/>
<path d="M106.688 415.59C106.913 419.048 119.733 419.751 121.026 417.923C122.32 416.096 119.93 414.493 115.685 413.762C111.439 413.031 106.66 414.746 106.688 415.59Z" fill="white"/>
<path opacity="0.3" d="M278.808 455.259C269.08 460.657 255.95 469.008 255.95 469.008H251.087C251.087 469.008 231.097 459.842 230 447.725C229.241 439.318 234.358 426.976 240.6 419.582C242.118 423.49 250.58 444.688 259.268 450.986C261.714 452.757 264.638 453.854 267.646 454.5C270.767 455.175 273.916 455.372 276.727 455.344C277.486 455.316 278.189 455.288 278.808 455.259Z" fill="url(#paint46_linear_8293_1847)"/>
<path opacity="0.3" d="M172.28 400.434C172.28 400.434 173.517 404.398 185.803 404.764C198.09 405.129 208.352 396.583 208.352 396.583L184.707 394.249L172.28 400.434Z" fill="url(#paint47_linear_8293_1847)"/>
<path d="M145.74 369.171C145.571 370.914 162.862 366.528 161.034 360.961C159.882 357.419 146.049 366.05 145.74 369.171Z" fill="white"/>
<path d="M172.28 400.435L171.184 388.683C171.184 388.683 178.887 387.249 182.177 387.615C185.466 387.98 192.073 401.419 192.073 401.419C192.073 401.419 181.08 406.845 172.28 400.435Z" fill="url(#paint48_linear_8293_1847)"/>
<defs>
<linearGradient id="paint0_linear_8293_1847" x1="144.007" y1="535.347" x2="152.838" y2="465.031" gradientUnits="userSpaceOnUse">
<stop stop-color="#DAD3F9"/>
<stop offset="1" stop-color="#BE9DEA"/>
</linearGradient>
<linearGradient id="paint1_linear_8293_1847" x1="185.006" y1="525.957" x2="185.006" y2="466.858" gradientUnits="userSpaceOnUse">
<stop stop-color="#BE9DEA"/>
<stop offset="1" stop-color="#9E8CEF"/>
</linearGradient>
<linearGradient id="paint2_linear_8293_1847" x1="145.953" y1="530.94" x2="145.953" y2="469.319" gradientUnits="userSpaceOnUse">
<stop stop-color="#9D68C2"/>
<stop offset="1" stop-color="#CCEDFF"/>
</linearGradient>
<linearGradient id="paint3_linear_8293_1847" x1="145.94" y1="449.175" x2="160.316" y2="334.719" gradientUnits="userSpaceOnUse">
<stop stop-color="#DAD3F9"/>
<stop offset="1" stop-color="#BE9DEA"/>
</linearGradient>
<linearGradient id="paint4_linear_8293_1847" x1="225.255" y1="527.963" x2="249.512" y2="334.823" gradientUnits="userSpaceOnUse">
<stop stop-color="#CBC1F7"/>
<stop offset="1" stop-color="#E8DCF7"/>
</linearGradient>
<linearGradient id="paint5_linear_8293_1847" x1="278.097" y1="416.585" x2="286.211" y2="351.975" gradientUnits="userSpaceOnUse">
<stop stop-color="#BE9DEA"/>
<stop offset="1" stop-color="#9E8CEF"/>
</linearGradient>
<radialGradient id="paint6_radial_8293_1847" cx="0" cy="0" r="1" gradientUnits="userSpaceOnUse" gradientTransform="translate(229.974 509.569) scale(83.2695 85.984)">
<stop stop-color="#45FFCD"/>
<stop offset="1" stop-color="#22E0FF"/>
</radialGradient>
<linearGradient id="paint7_linear_8293_1847" x1="309.525" y1="533.933" x2="319.532" y2="454.258" gradientUnits="userSpaceOnUse">
<stop stop-color="#CBC1F7"/>
<stop offset="1" stop-color="#E8DCF7"/>
</linearGradient>
<linearGradient id="paint8_linear_8293_1847" x1="300.138" y1="512.602" x2="300.138" y2="451.9" gradientUnits="userSpaceOnUse">
<stop stop-color="#8DA4E5"/>
<stop offset="1" stop-color="#755CBB"/>
</linearGradient>
<linearGradient id="paint9_linear_8293_1847" x1="303.4" y1="449.279" x2="316.085" y2="348.284" gradientUnits="userSpaceOnUse">
<stop stop-color="#CBC1F7"/>
<stop offset="1" stop-color="#E8DCF7"/>
</linearGradient>
<linearGradient id="paint10_linear_8293_1847" x1="248.83" y1="425.211" x2="251.917" y2="400.632" gradientUnits="userSpaceOnUse">
<stop stop-color="#DAD3F9"/>
<stop offset="1" stop-color="#BE9DEA"/>
</linearGradient>
<linearGradient id="paint11_linear_8293_1847" x1="122.982" y1="423.79" x2="126.67" y2="394.43" gradientUnits="userSpaceOnUse">
<stop stop-color="#CBC1F7"/>
<stop offset="1" stop-color="#E8DCF7"/>
</linearGradient>
<linearGradient id="paint12_linear_8293_1847" x1="133.073" y1="408.161" x2="133.073" y2="394.516" gradientUnits="userSpaceOnUse">
<stop stop-color="#BE9DEA"/>
<stop offset="1" stop-color="#9E8CEF"/>
</linearGradient>
<linearGradient id="paint13_linear_8293_1847" x1="181.637" y1="491.819" x2="204.397" y2="395.14" gradientUnits="userSpaceOnUse">
<stop stop-color="#DD1A8F"/>
<stop offset="1" stop-color="#FE117E"/>
</linearGradient>
<linearGradient id="paint14_linear_8293_1847" x1="188.075" y1="486.994" x2="188.075" y2="430.822" gradientUnits="userSpaceOnUse">
<stop stop-color="#8DA4E5"/>
<stop offset="1" stop-color="#755CBB"/>
</linearGradient>
<linearGradient id="paint15_linear_8293_1847" x1="126.224" y1="466.896" x2="126.224" y2="412.602" gradientUnits="userSpaceOnUse">
<stop stop-color="#BE9DEA"/>
<stop offset="1" stop-color="#9E8CEF"/>
</linearGradient>
<linearGradient id="paint16_linear_8293_1847" x1="281.074" y1="447.077" x2="281.074" y2="416.337" gradientUnits="userSpaceOnUse">
<stop stop-color="#BE9DEA"/>
<stop offset="1" stop-color="#9E8CEF"/>
</linearGradient>
<linearGradient id="paint17_linear_8293_1847" x1="114.531" y1="467.726" x2="121.242" y2="414.297" gradientUnits="userSpaceOnUse">
<stop stop-color="#CBC1F7"/>
<stop offset="1" stop-color="#E8DCF7"/>
</linearGradient>
<linearGradient id="paint18_linear_8293_1847" x1="186.19" y1="415.179" x2="188.809" y2="394.332" gradientUnits="userSpaceOnUse">
<stop stop-color="#D93DE3"/>
<stop offset="1" stop-color="#FF6DBA"/>
</linearGradient>
<linearGradient id="paint19_linear_8293_1847" x1="87.7244" y1="519.161" x2="98.1857" y2="371.767" gradientUnits="userSpaceOnUse">
<stop stop-color="#A242EA"/>
<stop offset="1" stop-color="#FE117E"/>
</linearGradient>
<linearGradient id="paint20_linear_8293_1847" x1="223.547" y1="375.762" x2="223.547" y2="346.164" gradientUnits="userSpaceOnUse">
<stop stop-color="#8DA4E5"/>
<stop offset="1" stop-color="#755CBB"/>
</linearGradient>
<linearGradient id="paint21_linear_8293_1847" x1="333.599" y1="224.563" x2="333.599" y2="127.074" gradientUnits="userSpaceOnUse">
<stop stop-color="#B9ACF4"/>
<stop offset="1" stop-color="#E1D1F5"/>
</linearGradient>
<linearGradient id="paint22_linear_8293_1847" x1="340.679" y1="180.063" x2="340.679" y2="127.066" gradientUnits="userSpaceOnUse">
<stop stop-color="#BE9DEA"/>
<stop offset="1" stop-color="#9E8CEF"/>
</linearGradient>
<linearGradient id="paint23_linear_8293_1847" x1="353.854" y1="229.228" x2="353.854" y2="133.441" gradientUnits="userSpaceOnUse">
<stop stop-color="#45FFCD"/>
<stop offset="1" stop-color="#22E0FF"/>
</linearGradient>
<linearGradient id="paint24_linear_8293_1847" x1="130.499" y1="228.364" x2="130.499" y2="130.875" gradientUnits="userSpaceOnUse">
<stop stop-color="#B9ACF4"/>
<stop offset="1" stop-color="#E1D1F5"/>
</linearGradient>
<linearGradient id="paint25_linear_8293_1847" x1="123.419" y1="183.865" x2="123.419" y2="130.868" gradientUnits="userSpaceOnUse">
<stop stop-color="#BE9DEA"/>
<stop offset="1" stop-color="#9E8CEF"/>
</linearGradient>
<linearGradient id="paint26_linear_8293_1847" x1="110.315" y1="235.192" x2="110.315" y2="137.244" gradientUnits="userSpaceOnUse">
<stop stop-color="#45FFCD"/>
<stop offset="1" stop-color="#22E0FF"/>
</linearGradient>
<linearGradient id="paint27_linear_8293_1847" x1="223.316" y1="353.297" x2="253.052" y2="116.537" gradientUnits="userSpaceOnUse">
<stop stop-color="#CBC1F7"/>
<stop offset="1" stop-color="#E8DCF7"/>
</linearGradient>
<linearGradient id="paint28_linear_8293_1847" x1="232.89" y1="330.621" x2="232.89" y2="134.898" gradientUnits="userSpaceOnUse">
<stop stop-color="#0665BD"/>
<stop offset="1" stop-color="#1A1F77"/>
</linearGradient>
<linearGradient id="paint29_linear_8293_1847" x1="227.747" y1="214.704" x2="228.34" y2="142.411" gradientUnits="userSpaceOnUse">
<stop/>
<stop offset="1" stop-color="#00E3FF"/>
</linearGradient>
<linearGradient id="paint30_linear_8293_1847" x1="229.461" y1="328.422" x2="229.547" y2="304.976" gradientUnits="userSpaceOnUse">
<stop/>
<stop offset="1" stop-color="#00E3FF"/>
</linearGradient>
<linearGradient id="paint31_linear_8293_1847" x1="132.318" y1="292.773" x2="136.698" y2="228.888" gradientUnits="userSpaceOnUse">
<stop/>
<stop offset="1" stop-color="#00E3FF"/>
</linearGradient>
<linearGradient id="paint32_linear_8293_1847" x1="138.251" y1="332.127" x2="138.251" y2="302.114" gradientUnits="userSpaceOnUse">
<stop stop-color="#8DA4E5"/>
<stop offset="1" stop-color="#755CBB"/>
</linearGradient>
<linearGradient id="paint33_linear_8293_1847" x1="83.0344" y1="315.548" x2="97.2406" y2="202.437" gradientUnits="userSpaceOnUse">
<stop stop-color="#BE9DEA"/>
<stop offset="1" stop-color="#9E8CEF"/>
</linearGradient>
<linearGradient id="paint34_linear_8293_1847" x1="138.195" y1="316.219" x2="145.503" y2="285.183" gradientUnits="userSpaceOnUse">
<stop stop-color="#DD1A8F"/>
<stop offset="1" stop-color="#FE117E"/>
</linearGradient>
<linearGradient id="paint35_linear_8293_1847" x1="140.164" y1="300.778" x2="140.164" y2="287.241" gradientUnits="userSpaceOnUse">
<stop stop-color="#D93DE3"/>
<stop offset="1" stop-color="#FF6DBA"/>
</linearGradient>
<linearGradient id="paint36_linear_8293_1847" x1="350.633" y1="172.164" x2="351.328" y2="142.475" gradientUnits="userSpaceOnUse">
<stop/>
<stop offset="1" stop-color="#00E3FF"/>
</linearGradient>
<linearGradient id="paint37_linear_8293_1847" x1="110.534" y1="172.135" x2="111.319" y2="138.993" gradientUnits="userSpaceOnUse">
<stop/>
<stop offset="1" stop-color="#00E3FF"/>
</linearGradient>
<linearGradient id="paint38_linear_8293_1847" x1="72.9103" y1="250.873" x2="72.9103" y2="219.22" gradientUnits="userSpaceOnUse">
<stop stop-color="#CBC1F7"/>
<stop offset="1" stop-color="#E8DCF7"/>
</linearGradient>
<radialGradient id="paint39_radial_8293_1847" cx="0" cy="0" r="1" gradientUnits="userSpaceOnUse" gradientTransform="translate(292.084 246.149) scale(41.6009 41.6008)">
<stop stop-color="#45FFCD"/>
<stop offset="1" stop-color="#22E0FF"/>
</radialGradient>
<radialGradient id="paint40_radial_8293_1847" cx="0" cy="0" r="1" gradientUnits="userSpaceOnUse" gradientTransform="translate(172.999 246.171) rotate(180) scale(41.6362 41.6363)">
<stop stop-color="#45FFCD"/>
<stop offset="1" stop-color="#22E0FF"/>
</radialGradient>
<linearGradient id="paint41_linear_8293_1847" x1="306.917" y1="447.175" x2="306.917" y2="371.74" gradientUnits="userSpaceOnUse">
<stop stop-color="#9D68C2"/>
<stop offset="1" stop-color="#CCEDFF"/>
</linearGradient>
<linearGradient id="paint42_linear_8293_1847" x1="256.547" y1="469.673" x2="263.565" y2="413.787" gradientUnits="userSpaceOnUse">
<stop stop-color="#CBC1F7"/>
<stop offset="1" stop-color="#E8DCF7"/>
</linearGradient>
<linearGradient id="paint43_linear_8293_1847" x1="269.174" y1="468.99" x2="269.174" y2="450.952" gradientUnits="userSpaceOnUse">
<stop stop-color="#BE9DEA"/>
<stop offset="1" stop-color="#9E8CEF"/>
</linearGradient>
<linearGradient id="paint44_linear_8293_1847" x1="223.607" y1="525.132" x2="223.686" y2="509.148" gradientUnits="userSpaceOnUse">
<stop/>
<stop offset="1" stop-color="#00E3FF"/>
</linearGradient>
<linearGradient id="paint45_linear_8293_1847" x1="327.906" y1="534.222" x2="327.906" y2="510.653" gradientUnits="userSpaceOnUse">
<stop stop-color="#9D68C2"/>
<stop offset="1" stop-color="#CCEDFF"/>
</linearGradient>
<linearGradient id="paint46_linear_8293_1847" x1="254.381" y1="468.99" x2="254.381" y2="419.552" gradientUnits="userSpaceOnUse">
<stop stop-color="#9D68C2"/>
<stop offset="1" stop-color="#CCEDFF"/>
</linearGradient>
<linearGradient id="paint47_linear_8293_1847" x1="190.313" y1="404.777" x2="190.313" y2="394.266" gradientUnits="userSpaceOnUse">
<stop stop-color="#8DA4E5"/>
<stop offset="1" stop-color="#755CBB"/>
</linearGradient>
<linearGradient id="paint48_linear_8293_1847" x1="181.025" y1="403.526" x2="182.157" y2="387.586" gradientUnits="userSpaceOnUse">
<stop stop-color="#A242EA"/>
<stop offset="1" stop-color="#FE117E"/>
</linearGradient>
</defs>
</svg>
