<svg width="635" height="180" viewBox="0 0 635 180" fill="none" xmlns="http://www.w3.org/2000/svg">
<g clip-path="url(#clip0_8343_18242)">
<g filter="url(#filter0_d_8343_18242)">
<path d="M188.875 80.7396H199.085V40.6863H212.435V31.0001H175.611V40.6863H188.875V80.7396ZM212.435 80.7396H222.034V63.9853C222.034 58.1387 225.002 54.6483 229.627 54.6483C231.197 54.6483 232.506 54.9101 233.99 55.4335V45.6603C232.942 45.3984 231.808 45.224 230.761 45.224C226.833 45.224 223.256 47.8418 222.034 51.245V45.6603H212.435V80.7396ZM252.402 81.525C257.201 81.525 260.866 79.0817 262.524 76.8129V80.7396H272.123V45.7475H262.524V49.6743C260.954 47.4054 257.288 44.9622 252.402 44.9622C243.064 44.9622 235.91 53.3394 235.91 63.2872C235.91 73.1479 243.064 81.525 252.402 81.525ZM254.409 72.7988C249.086 72.7988 245.595 68.7848 245.595 63.2872C245.595 57.7897 249.086 53.7756 254.409 53.7756C259.732 53.7756 263.222 57.7897 263.222 63.2872C263.222 68.7848 259.732 72.7988 254.409 72.7988ZM294.898 81.525C299.699 81.525 303.363 79.0817 305.021 76.8129V80.7396H314.619V28.2077H305.021V49.6743C303.45 47.4054 299.786 44.9622 294.898 44.9622C285.562 44.9622 278.406 53.3394 278.406 63.2872C278.493 73.1479 285.562 81.525 294.898 81.525ZM296.993 72.7988C291.67 72.7988 288.18 68.7848 288.18 63.2872C288.18 57.7897 291.67 53.7756 296.993 53.7756C302.315 53.7756 305.806 57.7897 305.806 63.2872C305.806 68.7848 302.315 72.7988 296.993 72.7988ZM327.971 40.4245C331.374 40.4245 334.166 37.7194 334.166 34.3161C334.166 30.9129 331.374 28.2077 327.971 28.2077C324.655 28.2077 321.862 30.9129 321.862 34.3161C321.95 37.6321 324.655 40.3373 327.971 40.4245ZM323.259 80.7396H332.857V46.0965H323.259V80.7396ZM341.322 80.7396H350.921V63.6363C350.921 56.917 354.237 53.6884 358.687 53.6884C362.701 53.6884 364.882 56.7426 364.882 61.8037V80.7396H374.481V60.233C374.481 51.1578 369.421 44.9622 360.957 44.9622C356.419 44.9622 352.841 46.8819 350.921 49.7615V45.7475H341.322V80.7396ZM398.915 71.4026C394.115 71.4026 390.014 67.7375 390.014 62.4146C390.014 57.0043 394.028 53.4266 398.915 53.4266C403.714 53.4266 407.815 57.0043 407.815 62.4146C407.815 67.8248 403.801 71.4026 398.915 71.4026ZM397.781 95.9232C408.513 95.9232 416.629 90.4258 416.629 77.86V45.573H407.03V49.4997C405.11 46.7947 401.359 44.7876 396.908 44.7876C387.746 44.7876 380.415 52.6412 380.415 62.5018C380.415 72.2752 387.746 80.1288 396.908 80.1288C401.359 80.1288 405.199 78.1218 407.03 75.5039V77.86C407.03 83.4448 403.279 87.4588 397.606 87.4588C393.68 87.4588 389.753 86.1499 386.698 83.0957L381.463 90.2512C385.477 94.1781 391.673 95.9232 397.781 95.9232ZM436.961 80.7396H446.037L466.631 31.0001H455.46L441.586 65.556L427.537 31.0001H416.542L436.961 80.7396ZM475.357 39.9881C478.76 39.9881 481.466 37.2831 481.553 33.8799C481.553 30.4766 478.76 27.7715 475.357 27.7715C472.041 27.7715 469.249 30.4766 469.249 33.8799C469.249 37.2831 472.128 39.9881 475.357 39.9881ZM470.645 80.7396H480.244V45.6603H470.645V80.7396ZM505.026 81.525C512.356 81.525 517.94 78.4708 521.257 73.6714L514.102 68.3484C512.53 70.7917 509.477 72.7988 505.026 72.7988C500.4 72.7988 496.299 70.1809 495.688 65.4688H521.868C522.042 63.9853 522.042 63.0254 522.042 62.1528C522.042 50.7214 514.013 44.9622 504.764 44.9622C494.118 44.9622 486.352 52.903 486.352 63.1999C486.526 74.2822 494.642 81.525 505.026 81.525ZM496.125 59.0113C497.086 54.7355 501.011 52.903 504.59 52.903C508.168 52.903 511.658 54.8227 512.53 59.0113H496.125ZM558.081 80.7396H567.593L579.111 45.6603H568.815L562.27 68.0866L555.115 45.6603H547.784L540.717 68.0866L534.084 45.6603H523.875L535.48 80.7396H544.992L551.537 60.8439L558.081 80.7396Z" fill="white"/>
</g>
<g filter="url(#filter1_d_8343_18242)">
<path d="M94.2869 80.7405H74.9147V50.3732H55.5425V31.001H94.1996V80.7405H94.2869ZM133.032 80.7405H110.954L131.722 31.001H153.799L133.032 80.7405ZM110.867 31.001C116.975 31.001 121.949 35.9749 121.949 42.0833C121.949 48.1917 116.975 53.1656 110.867 53.1656C104.758 53.1656 99.7844 48.1917 99.7844 42.0833C99.8716 35.9749 104.758 31.001 110.867 31.001Z" fill="white"/>
</g>
</g>
<defs>
<filter id="filter0_d_8343_18242" x="120.069" y="0.000356674" width="514.585" height="179.236" filterUnits="userSpaceOnUse" color-interpolation-filters="sRGB">
<feFlood flood-opacity="0" result="BackgroundImageFix"/>
<feColorMatrix in="SourceAlpha" type="matrix" values="0 0 0 0 0 0 0 0 0 0 0 0 0 0 0 0 0 0 127 0" result="hardAlpha"/>
<feOffset dy="27.7711"/>
<feGaussianBlur stdDeviation="27.7711"/>
<feComposite in2="hardAlpha" operator="out"/>
<feColorMatrix type="matrix" values="0 0 0 0 0.0550266 0 0 0 0 0.0200521 0 0 0 0 0.320833 0 0 0 0.56 0"/>
<feBlend mode="normal" in2="BackgroundImageFix" result="effect1_dropShadow_8343_18242"/>
<feBlend mode="normal" in="SourceGraphic" in2="effect1_dropShadow_8343_18242" result="shape"/>
</filter>
<filter id="filter1_d_8343_18242" x="0.000225067" y="3.22985" width="209.341" height="160.824" filterUnits="userSpaceOnUse" color-interpolation-filters="sRGB">
<feFlood flood-opacity="0" result="BackgroundImageFix"/>
<feColorMatrix in="SourceAlpha" type="matrix" values="0 0 0 0 0 0 0 0 0 0 0 0 0 0 0 0 0 0 127 0" result="hardAlpha"/>
<feOffset dy="27.7711"/>
<feGaussianBlur stdDeviation="27.7711"/>
<feComposite in2="hardAlpha" operator="out"/>
<feColorMatrix type="matrix" values="0 0 0 0 0.0550266 0 0 0 0 0.0200521 0 0 0 0 0.320833 0 0 0 0.56 0"/>
<feBlend mode="normal" in2="BackgroundImageFix" result="effect1_dropShadow_8343_18242"/>
<feBlend mode="normal" in="SourceGraphic" in2="effect1_dropShadow_8343_18242" result="shape"/>
</filter>
<clipPath id="clip0_8343_18242">
<rect width="634.949" height="179.25" fill="white"/>
</clipPath>
</defs>
</svg>
