<svg width="663" height="546" viewBox="0 0 663 546" fill="none" xmlns="http://www.w3.org/2000/svg">
<rect width="663" height="546" rx="14" fill="url(#paint0_linear_8293_776)"/>
<g clip-path="url(#clip0_8293_776)">
<g clip-path="url(#clip1_8293_776)">
<g clip-path="url(#clip2_8293_776)">
<g filter="url(#filter0_d_8293_776)">
<path d="M208.901 294.989H219.11V254.936H232.461V245.25H195.636V254.936H208.901V294.989ZM232.461 294.989H242.059V278.235C242.059 272.388 245.027 268.898 249.652 268.898C251.223 268.898 252.532 269.16 254.015 269.683V259.91C252.967 259.648 251.834 259.474 250.786 259.474C246.859 259.474 243.281 262.091 242.059 265.495V259.91H232.461V294.989ZM272.427 295.775C277.227 295.775 280.891 293.331 282.55 291.062V294.989H292.148V259.997H282.55V263.924C280.979 261.655 277.314 259.212 272.427 259.212C263.09 259.212 255.935 267.589 255.935 277.537C255.935 287.397 263.09 295.775 272.427 295.775ZM274.434 287.048C269.111 287.048 265.621 283.034 265.621 277.537C265.621 272.039 269.111 268.025 274.434 268.025C279.757 268.025 283.248 272.039 283.248 277.537C283.248 283.034 279.757 287.048 274.434 287.048ZM314.923 295.775C319.724 295.775 323.388 293.331 325.046 291.062V294.989H334.645V242.457H325.046V263.924C323.476 261.655 319.811 259.212 314.923 259.212C305.587 259.212 298.431 267.589 298.431 277.537C298.518 287.397 305.587 295.775 314.923 295.775ZM317.019 287.048C311.696 287.048 308.205 283.034 308.205 277.537C308.205 272.039 311.696 268.025 317.019 268.025C322.341 268.025 325.831 272.039 325.831 277.537C325.831 283.034 322.341 287.048 317.019 287.048ZM347.996 254.674C351.399 254.674 354.192 251.969 354.192 248.566C354.192 245.162 351.399 242.457 347.996 242.457C344.68 242.457 341.888 245.162 341.888 248.566C341.975 251.882 344.68 254.587 347.996 254.674ZM343.284 294.989H352.883V260.346H343.284V294.989ZM361.348 294.989H370.947V277.886C370.947 271.167 374.263 267.938 378.712 267.938C382.727 267.938 384.908 270.992 384.908 276.053V294.989H394.507V274.483C394.507 265.407 389.446 259.212 380.982 259.212C376.444 259.212 372.867 261.131 370.947 264.011V259.997H361.348V294.989ZM418.94 285.652C414.141 285.652 410.039 281.987 410.039 276.664C410.039 271.254 414.054 267.676 418.94 267.676C423.739 267.676 427.841 271.254 427.841 276.664C427.841 282.074 423.827 285.652 418.94 285.652ZM417.807 310.173C428.539 310.173 436.654 304.675 436.654 292.11V259.823H427.056V263.749C425.136 261.044 421.384 259.037 416.933 259.037C407.771 259.037 400.441 266.891 400.441 276.751C400.441 286.525 407.771 294.378 416.933 294.378C421.384 294.378 425.224 292.371 427.056 289.753V292.11C427.056 297.694 423.304 301.708 417.631 301.708C413.705 301.708 409.778 300.399 406.723 297.345L401.488 304.501C405.503 308.428 411.698 310.173 417.807 310.173ZM456.987 294.989H466.063L486.656 245.25H475.486L461.612 279.806L447.562 245.25H436.567L456.987 294.989ZM495.383 254.238C498.786 254.238 501.491 251.533 501.578 248.129C501.578 244.726 498.786 242.021 495.383 242.021C492.066 242.021 489.274 244.726 489.274 248.129C489.274 251.533 492.154 254.238 495.383 254.238ZM490.67 294.989H500.269V259.91H490.67V294.989ZM525.051 295.775C532.381 295.775 537.966 292.72 541.282 287.921L534.127 282.598C532.556 285.041 529.502 287.048 525.051 287.048C520.426 287.048 516.325 284.43 515.714 279.718H541.893C542.067 278.235 542.067 277.275 542.067 276.402C542.067 264.971 534.039 259.212 524.79 259.212C514.143 259.212 506.377 267.152 506.377 277.449C506.552 288.532 514.667 295.775 525.051 295.775ZM516.15 273.261C517.111 268.985 521.037 267.152 524.616 267.152C528.193 267.152 531.683 269.072 532.556 273.261H516.15ZM578.106 294.989H587.618L599.137 259.91H588.84L582.295 282.336L575.14 259.91H567.81L560.742 282.336L554.11 259.91H543.9L555.506 294.989H565.017L571.563 275.093L578.106 294.989Z" fill="white"/>
</g>
<g filter="url(#filter1_d_8293_776)">
<path d="M114.312 294.99H94.94V264.623H75.5677V245.251H114.225V294.99H114.312ZM153.057 294.99H130.979L151.748 245.251H173.825L153.057 294.99ZM130.892 245.251C137 245.251 141.974 250.225 141.974 256.333C141.974 262.442 137 267.416 130.892 267.416C124.784 267.416 119.81 262.442 119.81 256.333C119.897 250.225 124.784 245.251 130.892 245.251Z" fill="white"/>
</g>
</g>
</g>
</g>
<defs>
<filter id="filter0_d_8293_776" x="140.094" y="214.25" width="514.585" height="179.236" filterUnits="userSpaceOnUse" color-interpolation-filters="sRGB">
<feFlood flood-opacity="0" result="BackgroundImageFix"/>
<feColorMatrix in="SourceAlpha" type="matrix" values="0 0 0 0 0 0 0 0 0 0 0 0 0 0 0 0 0 0 127 0" result="hardAlpha"/>
<feOffset dy="27.7711"/>
<feGaussianBlur stdDeviation="27.7711"/>
<feComposite in2="hardAlpha" operator="out"/>
<feColorMatrix type="matrix" values="0 0 0 0 0.0550266 0 0 0 0 0.0200521 0 0 0 0 0.320833 0 0 0 0.56 0"/>
<feBlend mode="normal" in2="BackgroundImageFix" result="effect1_dropShadow_8293_776"/>
<feBlend mode="normal" in="SourceGraphic" in2="effect1_dropShadow_8293_776" result="shape"/>
</filter>
<filter id="filter1_d_8293_776" x="20.0255" y="217.48" width="209.341" height="160.824" filterUnits="userSpaceOnUse" color-interpolation-filters="sRGB">
<feFlood flood-opacity="0" result="BackgroundImageFix"/>
<feColorMatrix in="SourceAlpha" type="matrix" values="0 0 0 0 0 0 0 0 0 0 0 0 0 0 0 0 0 0 127 0" result="hardAlpha"/>
<feOffset dy="27.7711"/>
<feGaussianBlur stdDeviation="27.7711"/>
<feComposite in2="hardAlpha" operator="out"/>
<feColorMatrix type="matrix" values="0 0 0 0 0.0550266 0 0 0 0 0.0200521 0 0 0 0 0.320833 0 0 0 0.56 0"/>
<feBlend mode="normal" in2="BackgroundImageFix" result="effect1_dropShadow_8293_776"/>
<feBlend mode="normal" in="SourceGraphic" in2="effect1_dropShadow_8293_776" result="shape"/>
</filter>
<linearGradient id="paint0_linear_8293_776" x1="6.98584e-06" y1="546" x2="535.868" y2="-104.697" gradientUnits="userSpaceOnUse">
<stop stop-color="#59499B"/>
<stop offset="0.86" stop-color="#1E3798"/>
</linearGradient>
<clipPath id="clip0_8293_776">
<rect width="623" height="179.25" fill="white" transform="translate(20 214.25)"/>
</clipPath>
<clipPath id="clip1_8293_776">
<rect width="635" height="179.25" fill="white" transform="translate(20 214.25)"/>
</clipPath>
<clipPath id="clip2_8293_776">
<rect width="634.949" height="179.25" fill="white" transform="translate(20.0255 214.25)"/>
</clipPath>
</defs>
</svg>
