<svg width="55" height="39" viewBox="0 0 55 39" fill="none" xmlns="http://www.w3.org/2000/svg">
<path d="M14.1675 5.85254C14.1675 5.85254 10.9336 9.26815 10.5748 15.5775C10.216 21.8868 17.5225 12.7723 17.5225 12.7723L14.1675 5.85254Z" fill="url(#paint0_linear_8343_17883)"/>
<path d="M12.0708 12.7729C12.0708 12.7729 13.5386 5.00037 15.9477 3.35081C18.3615 1.70125 22.7044 3.19238 22.7044 3.19238L12.0708 12.7729Z" fill="url(#paint1_linear_8343_17883)"/>
<path d="M49.3211 30.9504C43.8412 39.5616 16.7167 40.9316 12.057 36.626C10.2024 34.9112 9.01413 32.6559 8.427 30.107V30.0977C5.92471 19.1938 14.3962 2.98714 28.4547 1.40282C37.9792 0.331069 45.9428 8.21074 49.2652 16.617C51.3481 21.8778 51.6184 27.3391 49.3211 30.9504Z" fill="url(#paint2_linear_8343_17883)"/>
<path d="M44.004 35.0927C40.663 36.5606 35.6164 37.9492 32.2241 38.4012C25.9241 39.2399 21.2923 39.1374 18.6176 38.4618H18.6129C16.8516 38.0144 15.9429 37.3294 15.9522 36.4953C15.9569 35.9874 17.1358 35.3863 19.0323 34.7666C24.6147 32.9632 36.4086 31.0667 42.9136 31.1785C43.4728 31.1879 43.9947 31.2112 44.47 31.2531C44.5725 31.2624 44.6704 31.2717 44.7636 31.2857C44.7822 31.2857 44.7962 31.2857 44.8195 31.2904C45.9564 31.4115 46.7812 31.6399 47.182 31.9987C47.2845 32.0872 47.359 32.1851 47.4056 32.2876C47.7551 33.0751 46.2687 34.1002 44.004 35.0927Z" fill="url(#paint3_linear_8343_17883)"/>
<path opacity="0.3" d="M49.3209 30.9501C43.841 39.5613 16.7165 40.9313 12.0567 36.6257C10.2021 34.9109 9.01389 32.6556 8.42676 30.1067V30.0973C8.42676 30.0973 10.6914 33.3638 16.2272 33.2986C21.7584 33.2334 37.5363 30.3117 40.444 27.4925C43.3471 24.678 40.6491 13.9326 40.6491 13.9326L49.2696 16.6166C51.3479 21.8775 51.6181 27.3388 49.3209 30.9501Z" fill="url(#paint4_linear_8343_17883)"/>
<path opacity="0.5" d="M44.0043 35.0927C41.1292 34.2726 32.7929 32.2783 26.628 34.5569C19.0699 37.3434 18.6132 38.4618 18.6132 38.4618H18.6085C16.8472 38.0144 15.9385 37.3294 15.9478 36.4953C15.9525 35.9874 17.1314 35.3863 19.0279 34.7666C24.6103 32.9632 36.4042 31.0667 42.9092 31.1785C43.5942 31.2112 44.2093 31.2438 44.7592 31.2857C44.7778 31.2857 44.7918 31.2857 44.8151 31.2904C45.9521 31.4115 46.7768 31.6399 47.1776 31.9987C47.2801 32.0872 47.3547 32.1851 47.4013 32.2876C47.7554 33.0751 46.2689 34.1002 44.0043 35.0927Z" fill="url(#paint5_linear_8343_17883)"/>
<path d="M44.4699 31.2532C43.1698 32.8748 36.1988 35.0603 32.1262 35.6054C24.829 36.57 20.2438 36.0155 19.0322 34.7667C25.0899 32.8096 38.4867 30.736 44.4699 31.2532Z" fill="url(#paint6_linear_8343_17883)"/>
<path d="M8.42701 30.6147C10.0113 33.788 33.3102 31.9054 38.4499 25.3072C43.5943 18.709 35.4397 0.0745814 23.4361 3.47155C11.9964 6.71475 5.5566 24.8645 8.42701 30.6147Z" fill="#DFE3FB"/>
<path d="M8.42701 30.102C10.0113 33.2753 33.3102 31.3928 38.4499 24.7945C43.5943 18.1963 35.4397 -0.438114 23.4361 2.95886C11.9964 6.19739 5.5566 24.3518 8.42701 30.102Z" fill="url(#paint7_linear_8343_17883)"/>
<path d="M39.6145 4.60856C39.6145 4.60856 38.3517 16.0902 45.4392 20.1489C45.4392 20.1489 48.9154 20.5217 50.9377 18.4108C50.9377 18.4108 47.7877 21.3697 44.47 18.2896C41.1522 15.2095 41.949 6.71944 44.47 3.95153C46.9909 1.18363 50.6302 1.91522 50.6302 1.91522L49.1763 0.605822C49.1763 0.605822 43.813 -0.484564 39.6145 4.60856Z" fill="url(#paint8_linear_8343_17883)"/>
<path d="M49.1766 0.605463C49.1766 0.605463 45.2344 0.242001 42.4805 4.81789C39.5541 9.67337 41.6837 18.0703 45.2344 19.347C48.7898 20.6238 52.3778 7.03594 52.3778 7.03594L50.3135 1.63061C50.3135 1.63061 49.9035 0.87107 49.1766 0.605463Z" fill="url(#paint9_linear_8343_17883)"/>
<path d="M54.2696 12.1802C53.7617 14.8037 52.6946 16.9472 51.2641 18.3032L51.2547 18.3125L50.854 18.6666H50.8493C49.6937 19.6033 48.3237 20.0459 46.8466 19.8595C42.047 19.2491 41.404 12.3014 41.9678 8.3639C42.6248 3.81596 46.5157 1.08534 49.6098 1.48608C53.2957 1.95672 55.2621 7.04518 54.2696 12.1802Z" fill="url(#paint10_linear_8343_17883)"/>
<path d="M7.70455 27.0547C7.70455 27.0547 4.5592 28.4386 1.93575 31.5886C-0.683036 34.7433 -0.902045 38.0191 2.88169 36.9986L4.46135 35.61C4.46135 35.61 2.22932 36.3742 2.08487 33.9791C1.94042 31.584 7.70455 27.4927 7.70455 27.4927V27.0547Z" fill="url(#paint11_linear_8343_17883)"/>
<path d="M1.84248 35.2187C0.915189 36.6119 3.36622 37.2457 5.314 37.1898C7.49477 37.1292 11.2645 36.1646 10.7333 34.0304C10.2021 31.8916 4.01393 31.9522 1.84248 35.2187Z" fill="url(#paint12_linear_8343_17883)"/>
<path d="M2.01517 35.4237C1.99653 35.7871 9.68514 34.8225 9.68048 33.4386C9.67582 32.0593 2.14564 32.6185 2.01517 35.4237Z" fill="url(#paint13_linear_8343_17883)"/>
<path d="M11.1856 22.605C11.7354 24.399 15.4399 23.9097 16.4185 21.1046C17.4017 18.2947 16.3486 14.73 14.4567 14.5856C12.5649 14.4364 10.0998 19.0543 11.1856 22.605Z" fill="url(#paint14_linear_8343_17883)"/>
<path d="M26.1757 16.5841C26.0545 16.8404 28.8224 14.1936 34.2324 15.1768C34.7636 15.2747 28.5522 11.5376 26.1757 16.5841Z" fill="url(#paint15_linear_8343_17883)"/>
<path d="M20.7427 26.4025C20.7427 26.4025 25.9336 25.0419 28.2169 20.918C28.2123 20.918 27.3409 26.4957 20.7427 26.4025Z" fill="#2F95CD"/>
<path opacity="0.72" d="M12.0709 14.8738C12.7419 15.5588 16.6281 12.4787 21.479 12.0407C26.3298 11.6027 32.4341 15.2699 36.2178 13.9372C39.2233 12.8794 32.9979 2.54409 24.9272 3.06598C16.8611 3.59253 11.4092 14.1935 12.0709 14.8738Z" fill="url(#paint16_linear_8343_17883)" fill-opacity="0.22"/>
<path opacity="0.72" d="M13.562 30.1538C13.562 30.1538 18.259 27.8845 24.5031 27.3905C30.7472 26.892 31.8609 27.3533 31.8609 27.9497C31.8609 28.5462 27.6392 30.5825 21.9123 31.0718C16.1855 31.561 13.562 30.1538 13.562 30.1538Z" fill="url(#paint17_linear_8343_17883)" fill-opacity="0.22"/>
<path opacity="0.5" d="M8.42667 29.1745C8.42667 29.1745 6.96817 24.9854 9.68481 18.1402C9.68481 18.1402 10.3372 17.0219 10.7845 17.2921C11.2319 17.5671 8.19368 22.7347 8.42667 29.1745Z" fill="url(#paint18_linear_8343_17883)"/>
<path opacity="0.72" d="M42.7505 13.9043C42.7505 13.9043 43.2584 18.168 46.3898 19.086C49.5211 20.0086 52.0654 17.7439 52.8669 14.5473C52.8669 14.5473 51.8836 17.3059 47.8063 16.6023C43.7337 15.894 42.7505 13.9043 42.7505 13.9043Z" fill="url(#paint19_linear_8343_17883)" fill-opacity="0.22"/>
<path opacity="0.72" d="M43.3283 5.85304C43.3656 6.6452 49.1111 4.99564 50.9377 5.24261C52.7643 5.48492 53.5425 7.72627 53.8314 7.67501C54.1203 7.62375 53.3468 2.38151 49.9498 1.99475C46.5529 1.60333 43.3003 5.30319 43.3283 5.85304Z" fill="url(#paint20_linear_8343_17883)" fill-opacity="0.22"/>
<defs>
<linearGradient id="paint0_linear_8343_17883" x1="14.0392" y1="17.8" x2="14.0392" y2="5.85305" gradientUnits="userSpaceOnUse">
<stop stop-color="#45FFCD"/>
<stop offset="1" stop-color="#22E0FF"/>
</linearGradient>
<linearGradient id="paint1_linear_8343_17883" x1="17.3912" y1="12.7717" x2="17.3912" y2="2.57263" gradientUnits="userSpaceOnUse">
<stop stop-color="#B9ACF4"/>
<stop offset="1" stop-color="#E1D1F5"/>
</linearGradient>
<linearGradient id="paint2_linear_8343_17883" x1="27.6224" y1="39.8481" x2="32.4427" y2="1.4687" gradientUnits="userSpaceOnUse">
<stop stop-color="#CBC1F7"/>
<stop offset="1" stop-color="#E8DCF7"/>
</linearGradient>
<linearGradient id="paint3_linear_8343_17883" x1="15.951" y1="35.0843" x2="47.4549" y2="35.0843" gradientUnits="userSpaceOnUse">
<stop stop-color="#8879EA"/>
<stop offset="1" stop-color="#9E8CEF"/>
</linearGradient>
<linearGradient id="paint4_linear_8343_17883" x1="29.6821" y1="38.9959" x2="29.6821" y2="13.9365" gradientUnits="userSpaceOnUse">
<stop stop-color="#9D68C2"/>
<stop offset="1" stop-color="#CCEDFF"/>
</linearGradient>
<linearGradient id="paint5_linear_8343_17883" x1="31.7032" y1="38.4598" x2="31.7032" y2="31.1719" gradientUnits="userSpaceOnUse">
<stop stop-color="#8DA4E5"/>
<stop offset="1" stop-color="#755CBB"/>
</linearGradient>
<linearGradient id="paint6_linear_8343_17883" x1="31.7757" y1="36.0424" x2="31.7368" y2="31.2576" gradientUnits="userSpaceOnUse">
<stop stop-color="#5E36CC"/>
<stop offset="1" stop-color="#6C4A96"/>
</linearGradient>
<linearGradient id="paint7_linear_8343_17883" x1="23.8839" y1="31.6054" x2="23.8839" y2="2.55005" gradientUnits="userSpaceOnUse">
<stop stop-color="#0665BD"/>
<stop offset="1" stop-color="#1A1F77"/>
</linearGradient>
<linearGradient id="paint8_linear_8343_17883" x1="45.2334" y1="20.178" x2="45.2334" y2="0.508572" gradientUnits="userSpaceOnUse">
<stop stop-color="#B9ACF4"/>
<stop offset="1" stop-color="#E1D1F5"/>
</linearGradient>
<linearGradient id="paint9_linear_8343_17883" x1="46.7404" y1="19.4307" x2="46.7404" y2="0.599639" gradientUnits="userSpaceOnUse">
<stop stop-color="#BE9DEA"/>
<stop offset="1" stop-color="#9E8CEF"/>
</linearGradient>
<linearGradient id="paint10_linear_8343_17883" x1="48.1616" y1="19.8984" x2="48.1616" y2="1.44023" gradientUnits="userSpaceOnUse">
<stop stop-color="#45FFCD"/>
<stop offset="1" stop-color="#22E0FF"/>
</linearGradient>
<linearGradient id="paint11_linear_8343_17883" x1="3.11337" y1="37.3961" x2="4.46344" y2="26.6465" gradientUnits="userSpaceOnUse">
<stop stop-color="#BE9DEA"/>
<stop offset="1" stop-color="#9E8CEF"/>
</linearGradient>
<linearGradient id="paint12_linear_8343_17883" x1="6.00082" y1="37.3185" x2="6.46644" y2="32.4341" gradientUnits="userSpaceOnUse">
<stop stop-color="#DD1A8F"/>
<stop offset="1" stop-color="#FE117E"/>
</linearGradient>
<linearGradient id="paint13_linear_8343_17883" x1="5.94449" y1="35.1153" x2="5.64001" y2="32.8924" gradientUnits="userSpaceOnUse">
<stop stop-color="#D93DE3"/>
<stop offset="1" stop-color="#FF6DBA"/>
</linearGradient>
<linearGradient id="paint14_linear_8343_17883" x1="13.857" y1="23.6597" x2="13.857" y2="14.5783" gradientUnits="userSpaceOnUse">
<stop stop-color="#45FFCD"/>
<stop offset="1" stop-color="#22E0FF"/>
</linearGradient>
<linearGradient id="paint15_linear_8343_17883" x1="30.217" y1="16.6002" x2="30.217" y2="13.935" gradientUnits="userSpaceOnUse">
<stop stop-color="#45FFCD"/>
<stop offset="1" stop-color="#22E0FF"/>
</linearGradient>
<linearGradient id="paint16_linear_8343_17883" x1="23.1288" y1="14.9621" x2="23.2408" y2="3.02073" gradientUnits="userSpaceOnUse">
<stop/>
<stop offset="1" stop-color="#00E3FF"/>
</linearGradient>
<linearGradient id="paint17_linear_8343_17883" x1="21.7052" y1="31.1715" x2="21.7224" y2="27.1697" gradientUnits="userSpaceOnUse">
<stop/>
<stop offset="1" stop-color="#00E3FF"/>
</linearGradient>
<linearGradient id="paint18_linear_8343_17883" x1="9.43109" y1="29.1758" x2="9.43109" y2="17.2518" gradientUnits="userSpaceOnUse">
<stop/>
<stop offset="1" stop-color="#6A9BFF"/>
</linearGradient>
<linearGradient id="paint19_linear_8343_17883" x1="47.2524" y1="19.2889" x2="47.3088" y2="13.8926" gradientUnits="userSpaceOnUse">
<stop/>
<stop offset="1" stop-color="#00E3FF"/>
</linearGradient>
<linearGradient id="paint20_linear_8343_17883" x1="48.0269" y1="7.67078" x2="48.0876" y2="1.95345" gradientUnits="userSpaceOnUse">
<stop/>
<stop offset="1" stop-color="#00E3FF"/>
</linearGradient>
</defs>
</svg>
