<svg width="264" height="349" viewBox="0 0 264 349" fill="none" xmlns="http://www.w3.org/2000/svg">
<path opacity="0.5" d="M168.124 348.611C207.278 348.611 239.018 341.535 239.018 332.807C239.018 324.079 207.278 317.003 168.124 317.003C128.971 317.003 97.2309 324.079 97.2309 332.807C97.2309 341.535 128.971 348.611 168.124 348.611Z" fill="url(#paint0_radial_8293_1300)" fill-opacity="0.53"/>
<path d="M162.196 267.66C161.588 275.266 149.54 299.616 140.118 306.23C140.101 306.247 140.101 306.247 140.101 306.264C138.275 307.535 136.554 308.144 135.042 307.848C128.262 306.543 124.994 274.03 124.681 255.72C124.559 248.653 124.889 243.71 125.619 243.502C131.791 241.848 162.909 258.609 162.196 267.66Z" fill="url(#paint1_linear_8293_1300)"/>
<path d="M97.5959 220.735C97.5611 220.77 97.5438 220.788 97.509 220.822C74.9962 246.843 55.9429 289.346 55.9429 289.346L0 270.688L12.2908 264.387L97.5959 220.735Z" fill="#E5708D"/>
<path d="M162.196 270.131C162.196 270.131 153.869 274.657 140.866 268.13C130.696 263.03 123.916 246.426 125.637 243.484C127.341 240.543 166.89 258.331 162.196 270.131Z" fill="url(#paint2_linear_8293_1300)"/>
<path opacity="0.3" d="M162.196 267.66C161.588 275.266 149.54 299.615 140.118 306.229C147.193 298.084 147.437 281.462 142.934 273.856C139.544 268.095 129.427 259.514 124.698 255.702C124.576 248.636 124.907 243.693 125.637 243.484C131.791 241.848 162.909 258.609 162.196 267.66Z" fill="url(#paint3_linear_8293_1300)"/>
<path d="M135.946 198.352C135.946 198.352 100.186 218.664 91.7721 217.846C83.3581 217.028 87.0957 197.882 87.0957 197.882C88.2083 196.56 89.46 195.202 90.7986 193.792L90.816 193.775C104.254 179.572 127.201 161.471 140.379 152.838L140.396 152.821C145.942 149.183 149.766 147.234 150.41 147.965C155.312 153.43 135.946 198.352 135.946 198.352Z" fill="url(#paint4_linear_8293_1300)"/>
<path d="M87.1131 197.882C87.1131 197.882 91.7895 193.949 97.5785 199.24C103.367 204.531 97.4046 217.219 91.7895 217.846C86.1569 218.49 82.8018 206.115 87.1131 197.882Z" fill="url(#paint5_linear_8293_1300)"/>
<path opacity="0.3" d="M135.946 198.352C135.946 198.352 100.186 218.664 91.7721 217.846C83.3581 217.028 87.0957 197.882 87.0957 197.882C88.2083 196.56 89.46 195.202 90.7986 193.792L90.816 193.775C90.816 193.775 99.5603 198.944 115.658 196.473C131.774 194.001 140.379 152.838 140.379 152.838L140.396 152.821C145.942 149.183 149.766 147.234 150.41 147.965C155.312 153.43 135.946 198.352 135.946 198.352Z" fill="url(#paint6_linear_8293_1300)"/>
<path d="M111.051 19.9502C111.051 19.9502 98.9866 32.7081 97.648 56.2747C96.3094 79.8412 123.568 45.7968 123.568 45.7968L111.051 19.9502Z" fill="url(#paint7_linear_8293_1300)"/>
<path d="M103.246 45.7967C103.246 45.7967 108.722 16.765 117.71 10.6036C126.697 4.44219 142.917 10.0118 142.917 10.0118L103.246 45.7967Z" fill="url(#paint8_linear_8293_1300)"/>
<path d="M242.216 113.694C221.772 145.859 120.578 150.976 103.194 134.894C96.2746 128.489 91.8416 120.065 89.6511 110.544V110.509C80.3157 69.7812 111.921 9.24618 164.369 3.32844C199.903 -0.674734 229.613 28.7573 242.008 60.1561C249.779 79.8065 250.77 100.205 242.216 113.694Z" fill="url(#paint9_linear_8293_1300)"/>
<path d="M222.381 129.167C209.916 134.65 191.089 139.837 178.433 141.525C154.93 144.658 137.65 144.275 127.671 141.751H127.654C121.082 140.08 117.692 137.522 117.727 134.406C117.744 132.509 122.143 130.264 129.218 127.949C150.045 121.213 194.045 114.129 218.313 114.547C220.399 114.582 222.346 114.669 224.119 114.825C224.502 114.86 224.867 114.895 225.215 114.947C225.284 114.947 225.336 114.947 225.423 114.965C229.665 115.417 232.742 116.27 234.237 117.61C234.62 117.941 234.898 118.306 235.072 118.689C236.358 121.631 230.83 125.46 222.381 129.167Z" fill="url(#paint10_linear_8293_1300)"/>
<path opacity="0.3" d="M242.217 113.694C221.773 145.859 120.578 150.976 103.194 134.894C96.2748 128.488 91.8418 120.064 89.6514 110.544V110.509C89.6514 110.509 98.1002 122.71 118.753 122.466C139.388 122.223 198.252 111.31 209.099 100.779C219.93 90.2668 209.864 50.1306 209.864 50.1306L242.025 60.156C249.779 79.8063 250.77 100.205 242.217 113.694Z" fill="url(#paint11_linear_8293_1300)"/>
<path opacity="0.5" d="M222.381 129.167C211.655 126.104 180.554 118.655 157.555 127.166C129.357 137.574 127.654 141.751 127.654 141.751H127.636C121.065 140.08 117.675 137.522 117.71 134.406C117.727 132.509 122.125 130.264 129.201 127.949C150.027 121.213 194.027 114.129 218.296 114.547C220.851 114.669 223.146 114.791 225.197 114.947C225.267 114.947 225.319 114.947 225.406 114.965C229.648 115.417 232.725 116.27 234.22 117.61C234.602 117.941 234.88 118.306 235.054 118.689C236.358 121.631 230.83 125.46 222.381 129.167Z" fill="url(#paint12_linear_8293_1300)"/>
<path d="M224.119 114.826C219.269 120.883 193.262 129.046 178.068 131.082C150.844 134.685 133.738 132.614 129.218 127.949C151.818 120.639 201.798 112.894 224.119 114.826Z" fill="url(#paint13_linear_8293_1300)"/>
<path d="M89.6512 112.458C95.5619 124.311 182.484 117.28 201.659 92.6339C220.851 67.9883 190.428 -1.6148 145.646 11.0735C102.95 23.1701 78.9424 90.9804 89.6512 112.458Z" fill="#DFE3FB"/>
<path d="M89.6512 110.526C95.5619 122.379 182.484 115.348 201.659 90.702C220.851 66.0564 190.428 -3.54669 145.646 9.14164C102.95 21.2556 78.9424 89.0485 89.6512 110.526Z" fill="url(#paint14_linear_8293_1300)"/>
<path d="M212.889 230.622C206.77 258.539 190.811 270.531 162.196 270.131C134.173 269.748 116.945 239.324 125.985 203.609C131.756 180.808 138.467 160.583 150.41 147.999C150.427 147.982 150.427 147.982 150.427 147.982L150.444 147.947C157.19 140.829 165.621 136.181 176.504 134.893C185.092 133.867 192.202 138.496 197.886 146.346C212.646 166.797 217.583 209.091 212.889 230.622Z" fill="url(#paint15_linear_8293_1300)"/>
<path d="M206.005 15.3204C206.005 15.3204 201.294 58.2066 227.735 73.3664C227.735 73.3664 240.704 74.7588 248.249 66.8743C248.249 66.8743 236.497 77.9266 224.119 66.4218C211.742 54.917 214.714 23.1875 224.119 12.8662C233.524 2.52761 247.101 5.26021 247.101 5.26021L241.678 0.369375C241.66 0.369375 221.668 -3.72083 206.005 15.3204Z" fill="url(#paint16_linear_8293_1300)"/>
<path opacity="0.3" d="M197.852 178.197C197.852 178.197 200.842 199.971 200.842 214.504C200.842 231.735 190.272 246.86 190.272 246.86L211.724 235.321C211.724 235.321 215.723 224.06 214.714 212.538C213.706 201.015 212.767 195.742 212.767 195.742L197.852 178.197Z" fill="url(#paint17_linear_8293_1300)"/>
<path d="M241.66 0.369506C241.66 0.369506 226.953 -0.988093 216.679 16.1037C205.761 34.2399 213.706 65.6039 226.953 70.3729C240.217 75.1419 253.603 24.3886 253.603 24.3886L245.902 4.19863C245.919 4.18123 244.372 1.3616 241.66 0.369506Z" fill="url(#paint18_linear_8293_1300)"/>
<path d="M260.661 43.5863C258.767 53.3854 254.785 61.3917 249.448 66.4566L249.414 66.4914L247.919 67.8142H247.901C243.59 71.3126 238.479 72.9661 232.968 72.2699C215.062 69.9899 212.663 44.0388 214.767 29.3315C217.218 12.3441 231.734 2.14472 243.277 3.64156C257.045 5.39948 264.382 24.4059 260.661 43.5863Z" fill="url(#paint19_linear_8293_1300)"/>
<path d="M124.542 208.239C124.542 208.239 131.061 187.144 151.209 187.144C175.356 187.144 191.628 213.86 190.185 231.997C188.742 250.115 183.197 267.103 160.388 267.816C160.388 267.799 117.675 266.842 124.542 208.239Z" fill="url(#paint20_linear_8293_1300)"/>
<path d="M124.542 210.571C124.542 210.571 131.061 189.476 151.209 189.476C175.356 189.476 191.628 216.193 190.185 234.329C188.742 252.448 183.197 269.435 160.388 270.149C160.388 270.149 117.675 269.191 124.542 210.571Z" fill="url(#paint21_radial_8293_1300)"/>
<path d="M209.256 201.624C208.213 201.624 207.1 200.754 205.953 199.24C200.894 192.504 195.574 173.028 195.626 162.202C195.661 158.007 196.478 155.118 198.46 154.77C201.676 154.213 208.23 165.109 211.411 180.408C213.272 189.319 213.741 201.624 209.256 201.624Z" fill="url(#paint22_linear_8293_1300)"/>
<path d="M205.97 199.24C200.911 192.504 195.592 173.028 195.644 162.202C198.808 166.31 202.528 174.664 204.684 185.072C205.64 189.615 206.214 195.028 205.97 199.24Z" fill="#6340A2"/>
<path d="M257.063 241.848C253.795 252.361 241.486 253.457 237.888 250.916C234.741 248.706 226.084 238.524 217.791 219.865C217.774 219.848 217.774 219.83 217.757 219.83C216.54 217.098 215.34 214.156 214.141 211.041C204.892 186.743 197.939 142.012 207.5 143.753C207.5 143.753 207.517 143.753 207.535 143.77C235.298 148.852 260.314 231.353 257.063 241.848Z" fill="url(#paint23_linear_8293_1300)"/>
<path d="M212.072 315.872C210.177 316.794 207.552 315.837 204.545 313.626C201.277 311.207 197.574 307.291 193.888 302.748C193.871 302.731 193.853 302.713 193.853 302.713L193.819 302.679C183.562 290.025 173.548 272.481 174.053 268.547C175.808 254.954 194.271 243.136 205.24 237.932C209.517 235.895 212.663 234.868 213.202 235.129C215.167 236.052 221.842 311.12 212.072 315.872Z" fill="url(#paint24_linear_8293_1300)"/>
<path d="M231.821 244.389C231.821 244.389 231.977 234.712 240.53 231.301C249.083 227.907 257.323 239.324 257.323 239.324C257.323 239.324 257.41 250.202 245.815 250.376C234.237 250.568 231.821 244.389 231.821 244.389Z" fill="url(#paint25_linear_8293_1300)"/>
<path d="M96.118 209.962C96.118 209.962 89.06 221.101 81.463 226.549C73.866 231.979 58.9329 234.329 58.9329 234.329C58.9329 234.329 48.3458 229.438 48.3458 222.145C48.3458 222.145 59.7499 216.349 64.096 207.177C64.096 207.177 78.9075 201.886 85.3571 203.609C91.7719 205.349 96.118 209.962 96.118 209.962Z" fill="url(#paint26_linear_8293_1300)"/>
<path d="M97.5959 220.736C97.5611 220.77 97.5438 220.788 97.509 220.823C95.7706 222.702 67.7295 253.127 54.5696 285.552L0 270.688C0 270.688 7.44051 254.85 22.1303 236.087C22.1651 236.052 22.1651 236.052 22.1651 236.035C22.1825 236.017 22.1825 236.017 22.1825 236.017C30.6139 225.261 41.4096 213.53 54.5696 203.296C54.5696 203.278 76.4044 206.603 97.5959 220.736Z" fill="url(#paint27_linear_8293_1300)"/>
<path d="M97.5959 220.736C97.5611 220.77 97.5438 220.788 97.509 220.823C95.7706 222.702 67.7295 253.127 54.5696 285.552L0 270.688C0 270.688 7.44051 254.85 22.1303 236.087C22.1651 236.052 22.1651 236.052 22.1651 236.035C22.1825 236.017 22.1825 236.017 22.1825 236.017C30.6139 225.261 41.4096 213.53 54.5696 203.296C54.5696 203.278 76.4044 206.603 97.5959 220.736Z" fill="url(#paint28_linear_8293_1300)"/>
<path d="M74.8569 206.481L86.9565 214.487L71.5887 207.873L74.8569 206.481Z" fill="url(#paint29_linear_8293_1300)"/>
<path d="M86.9566 99.1433C86.9566 99.1433 75.2222 104.313 65.4347 116.078C55.6647 127.862 54.8477 140.098 68.9638 136.286L74.8571 131.099C74.8571 131.099 66.53 133.954 65.991 125.007C65.4521 116.061 86.9566 100.779 86.9566 100.779V99.1433Z" fill="url(#paint30_linear_8293_1300)"/>
<path d="M65.0696 129.637C61.6101 134.842 70.7717 137.209 78.021 137C86.1569 136.773 100.221 133.171 98.239 125.199C96.2746 117.228 73.1881 117.436 65.0696 129.637Z" fill="url(#paint31_linear_8293_1300)"/>
<path d="M65.7304 130.42C65.6608 131.778 94.345 128.175 94.3277 123.006C94.3103 117.836 66.2171 119.925 65.7304 130.42Z" fill="url(#paint32_linear_8293_1300)"/>
<path d="M99.9426 82.5215C101.994 89.2225 115.815 87.395 119.465 76.9171C123.133 66.4218 119.205 53.1069 112.146 52.5673C105.088 52.0104 95.8747 69.2762 99.9426 82.5215Z" fill="url(#paint33_linear_8293_1300)"/>
<path d="M155.851 60.0342C155.399 60.9915 165.725 51.1054 185.909 54.7779C187.908 55.1434 164.734 41.1845 155.851 60.0342Z" fill="url(#paint34_linear_8293_1300)"/>
<path d="M135.581 96.7065C135.581 96.7065 154.947 91.6242 163.466 76.2207C163.466 76.2207 160.197 97.072 135.581 96.7065Z" fill="#2F95CD"/>
<path opacity="0.5" d="M103.246 53.6464C105.749 56.2049 120.248 44.7001 138.345 43.0641C156.442 41.428 179.216 55.1258 193.332 50.1479C204.545 46.197 181.319 7.59244 151.209 9.54182C121.1 11.4912 100.76 51.1052 103.246 53.6464Z" fill="url(#paint35_linear_8293_1300)" fill-opacity="0.42"/>
<path opacity="0.5" d="M108.792 110.735C108.792 110.735 126.315 102.259 149.61 100.414C172.905 98.5517 177.06 100.275 177.06 102.503C177.06 104.731 161.31 112.337 139.944 114.164C118.596 115.957 108.792 110.735 108.792 110.735Z" fill="url(#paint36_linear_8293_1300)" fill-opacity="0.42"/>
<path opacity="0.5" d="M89.6337 107.08C89.6337 107.08 84.1924 91.4333 94.3275 65.8651C94.3275 65.8651 96.7613 61.6879 98.4302 62.6974C100.099 63.7069 88.7645 83.0266 89.6337 107.08Z" fill="url(#paint37_linear_8293_1300)"/>
<path opacity="0.72" d="M217.687 50.0264C217.687 50.0264 219.582 65.952 231.264 69.3809C242.947 72.8271 252.439 64.3682 255.429 52.4283C255.429 52.4283 251.761 62.7321 236.549 60.1039C221.355 57.4584 217.687 50.0264 217.687 50.0264Z" fill="url(#paint38_linear_8293_1300)" fill-opacity="0.22"/>
<path opacity="0.72" d="M219.843 19.9502C219.982 22.909 241.417 16.7476 248.231 17.6701C255.046 18.5752 257.949 26.947 259.027 26.7556C260.105 26.5641 257.219 6.98336 244.546 5.53874C231.89 4.07671 219.756 17.8964 219.843 19.9502Z" fill="url(#paint39_linear_8293_1300)" fill-opacity="0.22"/>
<path opacity="0.5" d="M197.869 146.363C197.869 146.363 168.35 157.503 157.033 156.215C146.046 154.979 150.166 148.382 150.41 147.999C150.427 147.982 150.427 147.982 150.427 147.982L150.444 147.947C157.189 140.829 165.621 136.181 176.504 134.893C185.074 133.884 192.202 138.514 197.869 146.363Z" fill="url(#paint40_linear_8293_1300)"/>
<path opacity="0.3" d="M257.063 241.848C253.795 252.361 241.486 253.457 237.888 250.916C234.741 248.706 226.084 238.524 217.792 219.865C218.609 221.449 224.693 232.797 230.135 232.797C235.993 232.78 247.293 216.489 235.871 182.305C224.815 149.183 208.578 144.049 207.57 143.77C235.298 148.853 260.314 231.353 257.063 241.848Z" fill="url(#paint41_linear_8293_1300)"/>
<path d="M242.165 236.261C247.015 234.956 254.664 238.854 257.341 242.771C260.001 246.704 266.659 263.256 262.852 284.63C262.852 284.63 255.603 294.238 247.467 292.131C241.278 290.53 239.8 272.098 238.131 259.01C236.463 245.921 234.168 238.419 242.165 236.261Z" fill="url(#paint42_linear_8293_1300)"/>
<path d="M248.649 292.688C248.649 292.688 251.639 249.819 234.22 242.909C234.22 242.909 234.133 249.871 237.61 265.971C241.104 282.071 244.65 291.696 248.649 292.688Z" fill="url(#paint43_linear_8293_1300)"/>
<path opacity="0.5" d="M247.467 269.191C247.467 269.191 243.851 275.84 241.052 277.163C238.253 278.468 235.871 277.633 235.871 277.633L244.668 257.408C244.65 257.408 247.362 264.805 247.467 269.191Z" fill="url(#paint44_linear_8293_1300)"/>
<path d="M244.65 257.408C244.65 257.408 241.104 245.973 233.785 243.85C233.785 243.85 227.909 250.968 232.116 275.91C232.116 275.91 236.254 280.366 240.913 275.005C240.913 275.005 244.355 266.006 244.65 257.408Z" fill="url(#paint45_linear_8293_1300)"/>
<path d="M240.2 253.718C242.599 253.475 240.026 264.44 238.757 264.318C237.488 264.196 238.218 253.91 240.2 253.718Z" fill="white"/>
<path opacity="0.72" d="M127.341 208.882C130.383 214.678 141.7 207.246 155.834 208.882C169.967 210.519 177.564 218.003 181.65 215.949C185.718 213.895 172.923 192.73 151.21 191.895C133.86 191.199 126.315 206.898 127.341 208.882Z" fill="url(#paint46_linear_8293_1300)" fill-opacity="0.22"/>
<path opacity="0.72" d="M142.935 261.307C142.935 261.307 148.863 267.312 158.667 267.66C168.49 268.008 171.74 263.256 171.74 263.256C171.74 263.256 167.394 261.359 160.475 262.717C153.556 264.057 147.246 263.152 142.935 261.307Z" fill="url(#paint47_linear_8293_1300)" fill-opacity="0.22"/>
<path opacity="0.3" d="M212.072 315.872C210.177 316.794 207.552 315.837 204.545 313.626L193.888 302.748C194.914 303.688 206.822 314.044 209.082 292.444C211.446 269.853 204.215 239.359 204.215 239.359L205.24 237.932C209.517 235.895 212.663 234.868 213.202 235.129C215.167 236.052 221.842 311.12 212.072 315.872Z" fill="url(#paint48_linear_8293_1300)"/>
<path d="M212.767 182.862C208.56 185.333 217.235 202.843 219.269 203.278C221.303 203.713 215.618 181.174 212.767 182.862Z" fill="white"/>
<path d="M220.504 206.168C219.617 206.272 220.591 210.345 221.251 210.902C221.912 211.459 223.285 211.563 223.668 211.18C224.067 210.78 221.512 206.046 220.504 206.168Z" fill="white"/>
<path d="M178.903 163.647C177.182 163.699 174.191 180.408 175.565 180.947C176.938 181.504 178.798 177.954 180.154 172.488C181.528 167.006 180.554 163.594 178.903 163.647Z" fill="white"/>
<path d="M103.593 184.411C103.976 185.63 112.39 181.835 112.425 178.198C112.442 174.56 103.037 182.636 103.593 184.411Z" fill="white"/>
<path d="M185.717 267.834C181.98 268.669 187.386 277.807 188.238 278.138C189.09 278.486 189.785 274.639 189.125 271.889C188.534 269.435 187.021 267.538 185.717 267.834Z" fill="white"/>
<path d="M134.485 275.022C132.417 274.552 132.956 280.435 133.303 280.818C133.651 281.201 134.92 279.426 135.233 277.877C135.528 276.501 135.216 275.196 134.485 275.022Z" fill="white"/>
<path d="M189.107 279.217C188.394 279.774 190.081 282.611 190.689 282.019C191.298 281.41 191.141 279.948 190.759 279.46C190.376 278.973 189.42 278.955 189.107 279.217Z" fill="white"/>
<path d="M58.3071 201.103C58.3071 201.103 60.2716 226.636 55.5604 241.674C55.5604 241.674 18.3752 255.65 1.04297 270.131L57.5596 242.213C57.5596 242.231 61.4189 216.715 58.3071 201.103Z" fill="black" fill-opacity="0.37"/>
<path opacity="0.5" d="M46.3292 210.136C46.3292 210.136 50.5884 217.394 62.9835 217.307C75.3785 217.22 78.9249 211.041 78.9249 211.041L71.5887 207.873L52.3095 204.984C52.3095 204.984 46.7117 209.788 46.3292 210.136Z" fill="url(#paint49_linear_8293_1300)"/>
<path d="M91.7026 200.406C91.7026 200.406 84.0882 192.4 77.7082 191.913C71.3281 191.425 55.1258 198.422 50.2234 207.577C50.2234 207.577 50.9536 209.77 56.5166 211.076C62.0796 212.381 74.8397 206.498 74.8397 206.498L96.1008 210.101C96.1182 210.084 96.1182 205.332 91.7026 200.406Z" fill="url(#paint50_linear_8293_1300)"/>
<path d="M74.8573 206.481C74.8573 206.481 85.1141 203.365 86.2788 195.724L87.913 196.96C87.913 196.978 86.4353 204.914 74.8573 206.481Z" fill="url(#paint51_linear_8293_1300)"/>
<path d="M56.7427 203.278C56.847 204.88 68.1468 199.641 68.1468 197.743C68.1468 195.829 56.5688 200.563 56.7427 203.278Z" fill="white"/>
<path opacity="0.3" d="M97.509 220.823C74.9962 246.843 55.9429 289.347 55.9429 289.347L0 270.688C0 270.688 7.44051 254.85 22.1303 236.087C21.2785 237.445 8.44881 257.739 5.44131 263.535L12.3081 264.388L57.9769 270.149C57.9769 270.149 81.3415 236.122 97.509 220.823Z" fill="url(#paint52_linear_8293_1300)"/>
<defs>
<radialGradient id="paint0_radial_8293_1300" cx="0" cy="0" r="1" gradientUnits="userSpaceOnUse" gradientTransform="translate(168.117 332.813) scale(70.9065 15.7955)">
<stop stop-color="#4C2B88"/>
<stop offset="1" stop-color="#4C2B88" stop-opacity="0"/>
</radialGradient>
<linearGradient id="paint1_linear_8293_1300" x1="137.133" y1="308.102" x2="144.988" y2="245.631" gradientUnits="userSpaceOnUse">
<stop stop-color="#CBC1F7"/>
<stop offset="1" stop-color="#E8DCF7"/>
</linearGradient>
<linearGradient id="paint2_linear_8293_1300" x1="125.362" y1="257.419" x2="162.583" y2="257.419" gradientUnits="userSpaceOnUse">
<stop stop-color="#8879EA"/>
<stop offset="1" stop-color="#9E8CEF"/>
</linearGradient>
<linearGradient id="paint3_linear_8293_1300" x1="143.434" y1="306.222" x2="143.434" y2="243.38" gradientUnits="userSpaceOnUse">
<stop stop-color="#9D68C2"/>
<stop offset="1" stop-color="#CCEDFF"/>
</linearGradient>
<linearGradient id="paint4_linear_8293_1300" x1="113.412" y1="220.575" x2="122.986" y2="144.437" gradientUnits="userSpaceOnUse">
<stop stop-color="#CBC1F7"/>
<stop offset="1" stop-color="#D4BEF1"/>
</linearGradient>
<linearGradient id="paint5_linear_8293_1300" x1="93.7235" y1="217.65" x2="91.5587" y2="196.426" gradientUnits="userSpaceOnUse">
<stop stop-color="#BE9DEA"/>
<stop offset="1" stop-color="#9E8CEF"/>
</linearGradient>
<linearGradient id="paint6_linear_8293_1300" x1="118.742" y1="217.876" x2="118.742" y2="147.839" gradientUnits="userSpaceOnUse">
<stop stop-color="#9D68C2"/>
<stop offset="1" stop-color="#CCEDFF"/>
</linearGradient>
<linearGradient id="paint7_linear_8293_1300" x1="110.582" y1="64.5825" x2="110.582" y2="19.958" gradientUnits="userSpaceOnUse">
<stop stop-color="#45FFCD"/>
<stop offset="1" stop-color="#22E0FF"/>
</linearGradient>
<linearGradient id="paint8_linear_8293_1300" x1="123.087" y1="45.7983" x2="123.087" y2="7.70286" gradientUnits="userSpaceOnUse">
<stop stop-color="#B9ACF4"/>
<stop offset="1" stop-color="#E1D1F5"/>
</linearGradient>
<linearGradient id="paint9_linear_8293_1300" x1="161.257" y1="146.935" x2="179.282" y2="3.58578" gradientUnits="userSpaceOnUse">
<stop stop-color="#CBC1F7"/>
<stop offset="1" stop-color="#E8DCF7"/>
</linearGradient>
<linearGradient id="paint10_linear_8293_1300" x1="117.715" y1="129.142" x2="235.248" y2="129.142" gradientUnits="userSpaceOnUse">
<stop stop-color="#8879EA"/>
<stop offset="1" stop-color="#9E8CEF"/>
</linearGradient>
<linearGradient id="paint11_linear_8293_1300" x1="168.942" y1="143.753" x2="168.942" y2="50.1512" gradientUnits="userSpaceOnUse">
<stop stop-color="#9D68C2"/>
<stop offset="1" stop-color="#CCEDFF"/>
</linearGradient>
<linearGradient id="paint12_linear_8293_1300" x1="176.481" y1="141.75" x2="176.481" y2="114.528" gradientUnits="userSpaceOnUse">
<stop stop-color="#8DA4E5"/>
<stop offset="1" stop-color="#755CBB"/>
</linearGradient>
<linearGradient id="paint13_linear_8293_1300" x1="176.753" y1="132.72" x2="176.607" y2="114.848" gradientUnits="userSpaceOnUse">
<stop stop-color="#5E36CC"/>
<stop offset="1" stop-color="#6C4A96"/>
</linearGradient>
<linearGradient id="paint14_linear_8293_1300" x1="147.309" y1="116.148" x2="147.309" y2="7.62061" gradientUnits="userSpaceOnUse">
<stop stop-color="#0665BD"/>
<stop offset="1" stop-color="#1A1F77"/>
</linearGradient>
<linearGradient id="paint15_linear_8293_1300" x1="162.562" y1="270.42" x2="179.625" y2="134.718" gradientUnits="userSpaceOnUse">
<stop stop-color="#CBC1F7"/>
<stop offset="1" stop-color="#E8DCF7"/>
</linearGradient>
<linearGradient id="paint16_linear_8293_1300" x1="226.96" y1="73.4637" x2="226.96" y2="-0.00518484" gradientUnits="userSpaceOnUse">
<stop stop-color="#B9ACF4"/>
<stop offset="1" stop-color="#E1D1F5"/>
</linearGradient>
<linearGradient id="paint17_linear_8293_1300" x1="202.571" y1="246.848" x2="202.571" y2="178.19" gradientUnits="userSpaceOnUse">
<stop stop-color="#9D68C2"/>
<stop offset="1" stop-color="#CCEDFF"/>
</linearGradient>
<linearGradient id="paint18_linear_8293_1300" x1="232.581" y1="70.674" x2="232.581" y2="0.336263" gradientUnits="userSpaceOnUse">
<stop stop-color="#BE9DEA"/>
<stop offset="1" stop-color="#9E8CEF"/>
</linearGradient>
<linearGradient id="paint19_linear_8293_1300" x1="237.884" y1="72.421" x2="237.884" y2="3.47622" gradientUnits="userSpaceOnUse">
<stop stop-color="#45FFCD"/>
<stop offset="1" stop-color="#22E0FF"/>
</linearGradient>
<linearGradient id="paint20_linear_8293_1300" x1="123.797" y1="227.466" x2="190.267" y2="227.466" gradientUnits="userSpaceOnUse">
<stop stop-color="#BE9DEA"/>
<stop offset="1" stop-color="#9E8CEF"/>
</linearGradient>
<radialGradient id="paint21_radial_8293_1300" cx="0" cy="0" r="1" gradientUnits="userSpaceOnUse" gradientTransform="translate(158.139 257.628) scale(50.2334 50.2933)">
<stop stop-color="#45FFCD"/>
<stop offset="1" stop-color="#22E0FF"/>
</radialGradient>
<linearGradient id="paint22_linear_8293_1300" x1="195.646" y1="178.19" x2="212.761" y2="178.19" gradientUnits="userSpaceOnUse">
<stop stop-color="#8879EA"/>
<stop offset="1" stop-color="#9E8CEF"/>
</linearGradient>
<linearGradient id="paint23_linear_8293_1300" x1="223.429" y1="249.764" x2="236.304" y2="147.374" gradientUnits="userSpaceOnUse">
<stop stop-color="#CBC1F7"/>
<stop offset="1" stop-color="#E8DCF7"/>
</linearGradient>
<linearGradient id="paint24_linear_8293_1300" x1="191.742" y1="313.89" x2="201.83" y2="233.666" gradientUnits="userSpaceOnUse">
<stop stop-color="#CBC1F7"/>
<stop offset="1" stop-color="#E8DCF7"/>
</linearGradient>
<linearGradient id="paint25_linear_8293_1300" x1="244.581" y1="250.386" x2="244.581" y2="230.677" gradientUnits="userSpaceOnUse">
<stop stop-color="#BE9DEA"/>
<stop offset="1" stop-color="#9E8CEF"/>
</linearGradient>
<linearGradient id="paint26_linear_8293_1300" x1="69.7638" y1="235.687" x2="73.986" y2="202.11" gradientUnits="userSpaceOnUse">
<stop stop-color="#CBC1F7"/>
<stop offset="1" stop-color="#E8DCF7"/>
</linearGradient>
<linearGradient id="paint27_linear_8293_1300" x1="41.4009" y1="282.923" x2="57.1716" y2="203.762" gradientUnits="userSpaceOnUse">
<stop stop-color="#D93DE3"/>
<stop offset="1" stop-color="#FF6DBA"/>
</linearGradient>
<linearGradient id="paint28_linear_8293_1300" x1="29.4241" y1="284.43" x2="36.1842" y2="201.794" gradientUnits="userSpaceOnUse">
<stop stop-color="#E3BE3D"/>
<stop offset="1" stop-color="#E652AD"/>
</linearGradient>
<linearGradient id="paint29_linear_8293_1300" x1="79.6846" y1="215.232" x2="78.7522" y2="206.089" gradientUnits="userSpaceOnUse">
<stop stop-color="#BE9DEA"/>
<stop offset="1" stop-color="#9E8CEF"/>
</linearGradient>
<linearGradient id="paint30_linear_8293_1300" x1="69.8203" y1="137.776" x2="74.8691" y2="97.6262" gradientUnits="userSpaceOnUse">
<stop stop-color="#BE9DEA"/>
<stop offset="1" stop-color="#9E8CEF"/>
</linearGradient>
<linearGradient id="paint31_linear_8293_1300" x1="80.5929" y1="137.487" x2="82.3342" y2="119.243" gradientUnits="userSpaceOnUse">
<stop stop-color="#DD1A8F"/>
<stop offset="1" stop-color="#FE117E"/>
</linearGradient>
<linearGradient id="paint32_linear_8293_1300" x1="80.3819" y1="129.257" x2="79.2433" y2="120.954" gradientUnits="userSpaceOnUse">
<stop stop-color="#D93DE3"/>
<stop offset="1" stop-color="#FF6DBA"/>
</linearGradient>
<linearGradient id="paint33_linear_8293_1300" x1="109.901" y1="86.4671" x2="109.901" y2="52.5461" gradientUnits="userSpaceOnUse">
<stop stop-color="#45FFCD"/>
<stop offset="1" stop-color="#22E0FF"/>
</linearGradient>
<linearGradient id="paint34_linear_8293_1300" x1="170.938" y1="60.1005" x2="170.938" y2="50.1455" gradientUnits="userSpaceOnUse">
<stop stop-color="#45FFCD"/>
<stop offset="1" stop-color="#22E0FF"/>
</linearGradient>
<linearGradient id="paint35_linear_8293_1300" x1="144.499" y1="53.9763" x2="144.917" y2="9.37283" gradientUnits="userSpaceOnUse">
<stop/>
<stop offset="1" stop-color="#00E3FF"/>
</linearGradient>
<linearGradient id="paint36_linear_8293_1300" x1="139.172" y1="114.526" x2="139.236" y2="99.5891" gradientUnits="userSpaceOnUse">
<stop/>
<stop offset="1" stop-color="#00E3FF"/>
</linearGradient>
<linearGradient id="paint37_linear_8293_1300" x1="93.3906" y1="107.074" x2="93.3906" y2="62.5355" gradientUnits="userSpaceOnUse">
<stop/>
<stop offset="1" stop-color="#6A9BFF"/>
</linearGradient>
<linearGradient id="paint38_linear_8293_1300" x1="234.483" y1="70.1388" x2="234.694" y2="49.9827" gradientUnits="userSpaceOnUse">
<stop/>
<stop offset="1" stop-color="#00E3FF"/>
</linearGradient>
<linearGradient id="paint39_linear_8293_1300" x1="237.372" y1="26.7398" x2="237.599" y2="5.38445" gradientUnits="userSpaceOnUse">
<stop/>
<stop offset="1" stop-color="#00E3FF"/>
</linearGradient>
<linearGradient id="paint40_linear_8293_1300" x1="173.657" y1="156.315" x2="173.657" y2="134.766" gradientUnits="userSpaceOnUse">
<stop stop-color="#8DA4E5"/>
<stop offset="1" stop-color="#755CBB"/>
</linearGradient>
<linearGradient id="paint41_linear_8293_1300" x1="232.449" y1="252.077" x2="232.449" y2="143.773" gradientUnits="userSpaceOnUse">
<stop stop-color="#9D68C2"/>
<stop offset="1" stop-color="#CCEDFF"/>
</linearGradient>
<linearGradient id="paint42_linear_8293_1300" x1="256.995" y1="291.054" x2="244.245" y2="235.774" gradientUnits="userSpaceOnUse">
<stop stop-color="#CBC1F7"/>
<stop offset="1" stop-color="#E8DCF7"/>
</linearGradient>
<linearGradient id="paint43_linear_8293_1300" x1="244.728" y1="293.092" x2="239.557" y2="242.364" gradientUnits="userSpaceOnUse">
<stop stop-color="#BE9DEA"/>
<stop offset="1" stop-color="#9E8CEF"/>
</linearGradient>
<linearGradient id="paint44_linear_8293_1300" x1="242.098" y1="277.495" x2="240.099" y2="257.879" gradientUnits="userSpaceOnUse">
<stop stop-color="#8DA4E5"/>
<stop offset="1" stop-color="#755CBB"/>
</linearGradient>
<linearGradient id="paint45_linear_8293_1300" x1="240.689" y1="276.703" x2="233.147" y2="244" gradientUnits="userSpaceOnUse">
<stop stop-color="#CBC1F7"/>
<stop offset="1" stop-color="#E8DCF7"/>
</linearGradient>
<linearGradient id="paint46_linear_8293_1300" x1="151.792" y1="216.281" x2="152.005" y2="191.819" gradientUnits="userSpaceOnUse">
<stop/>
<stop offset="1" stop-color="#00E3FF"/>
</linearGradient>
<linearGradient id="paint47_linear_8293_1300" x1="155.754" y1="267.672" x2="155.781" y2="261.292" gradientUnits="userSpaceOnUse">
<stop/>
<stop offset="1" stop-color="#00E3FF"/>
</linearGradient>
<linearGradient id="paint48_linear_8293_1300" x1="205.571" y1="316.21" x2="205.571" y2="235.073" gradientUnits="userSpaceOnUse">
<stop stop-color="#9D68C2"/>
<stop offset="1" stop-color="#CCEDFF"/>
</linearGradient>
<linearGradient id="paint49_linear_8293_1300" x1="61.7773" y1="217.413" x2="63.1689" y2="206.346" gradientUnits="userSpaceOnUse">
<stop stop-color="#8DA4E5"/>
<stop offset="1" stop-color="#755CBB"/>
</linearGradient>
<linearGradient id="paint50_linear_8293_1300" x1="72.6373" y1="213.133" x2="75.345" y2="191.601" gradientUnits="userSpaceOnUse">
<stop stop-color="#CBC1F7"/>
<stop offset="1" stop-color="#E8DCF7"/>
</linearGradient>
<linearGradient id="paint51_linear_8293_1300" x1="81.7931" y1="205.779" x2="80.8246" y2="196.283" gradientUnits="userSpaceOnUse">
<stop stop-color="#BE9DEA"/>
<stop offset="1" stop-color="#9E8CEF"/>
</linearGradient>
<linearGradient id="paint52_linear_8293_1300" x1="43.4815" y1="287.783" x2="52.6114" y2="215.177" gradientUnits="userSpaceOnUse">
<stop stop-color="#9D68C2"/>
<stop offset="1" stop-color="#CCEDFF"/>
</linearGradient>
</defs>
</svg>
